**ABCDEFGHIJKLMNOPQRSTUVWXYZabcdefghijklmnopqrstuvwxyz**************************
**PARASOLID !"#$%&'()*+,-./:;<=>?@[\]^_`{|}~0123456789**************************
**PART1;
MC=AMD64;
MC_MODEL=Intel64 Family 6 Model 165 Stepping 5, GenuineIntel;
MC_ID=unknown;
OS=Windows_NT;
OS_RELEASE=unknown;
FRU=Parasolid Version 35.1, build 251, 11- 4-2023;
APPL=SOLIDWORKS 2024-2024078;
SITE=;
USER=unknown;
FORMAT=text;
GUISE=transmit;
KEY=centered;
FILE=centered.x_t;
DATE=Tue Jul  9 10:47:57 2024;
**PART2;
SCH=SCH_3501251_35102;
USFLD_SIZE=0;
**PART3;
**END_OF_HEADER*****************************************************************
T51 : TRANSMIT FILE created by modeller version 350125123 SCH_3501251_35102_1300
6231 0 10 21 CCCCI7 lattice222 0 CCCI4 mesh1006 0 I8 polyline1008 0 CCCCCCCCCCA1
6 mesh_offset_data206 0 Z1 3 2 3 0 0 0 0 0 0 0 0 1e3 1e-8 0 0 0 1 0 1 4 0 81 255
 1 2 3 5 1 0 0 0 0 0 70 11 CI9 list_type0 0 1 uI10 notransmit0 0 1 lCCCDCCDI12 f
inger_index0 0 1 dI12 finger_block1012 0 CZ3 0 4 T1 0 0 1 20 1 6 6 11 255 4 1 0
 1 7 8 1 0 0 0 0 12 36 CCCI7 lattice222 0 CCCI4 mesh1006 0 I8 polyline1008 0 CCC
CCCCDI5 owner1040 0 CCCI16 boundary_lattice222 0 CCCI13 boundary_mesh1006 0 I17
 boundary_polyline1008 0 CCCA16 index_map_offset0 0 1 dA9 index_map82 0 A17 node
_id_index_map82 0 A20 schema_embedding_map82 0 A5 child12 0 A14 lowest_node_id0
 0 1 dA16 mesh_offset_data206 0 Z7 616 9 10 0 0 0 0 0 0 0 1e3 1e-8 4 11 0 1 0 1
 1 12 0 13 14 15 0 0 16 17 18 0 0 0 0 0 0 0 100 10 CCCCCCCCCA9 precision229 0 Z8
 2 4 0 0 1 0 0 0 1 0 0 0 1 -.0225 .01125 -.0375 1 1 ?0 81 1 9 616 5 7 19 0 0 0 2
0 70 10 0 4 T7 0 0 11 20 1 21 21 13 255 12 36 0 7 0 22 0 0 23 0 124 255 13 42 0
 22 24 0 0 +25 26 134 255 14 62 0 27 28 0 0 +29 30 29 255 15 50 0 18 31 0 .0225
 .01125 .0375 19 9 CCCCCCI5 frame230 0 CA5 owner12 0 Z16 1 0 7 23 0 32 0 V0 16 2
55 17 30 33 ?34 0 27 28 0 0 7 18 255 18 25 0 34 0 35 15 ?7 17 255 34 0 36 37 38
 18 39 17 0 40 +18 35 23 0 41 18 42 31 ?7 17 41 0 43 40 44 35 45 27 0 46 +18 42
 18 0 37 35 47 48 ?7 29 31 49 0 35 48 15 .0225 -.01125 .0375 29 48 48 0 42 49 31
 .0225 .01125 -.0375 29 49 47 0 47 50 48 .0225 -.01125 -.0375 18 47 16 0 51 42 5
2 49 ?7 29 50 46 0 53 54 49 -.0225 .01125 .0375 18 53 9 0 39 52 55 50 ?7 29 54 4
5 0 55 56 50 -.0225 -.01125 .0375 18 55 7 0 45 53 57 54 ?7 29 56 44 0 57 58 54 -
.0225 -.01125 -.0375 18 57 6 0 59 55 0 56 ?7 29 58 43 0 52 0 56 -.0225 .01125 -.
0375 18 52 11 0 60 47 53 58 ?7 17 60 0 36 38 37 52 61 62 0 63 +15 255 36 32 0 34
 64 0 17 38 0 36 34 60 53 65 66 0 67 +17 37 0 36 60 34 42 68 69 0 70 +17 61 0 71
 72 63 42 60 62 0 0 -16 62 17 73 ?60 74 75 76 0 0 7 17 63 0 71 61 59 52 77 78 0
 65 +15 71 14 0 59 79 0 17 59 0 71 63 72 57 80 75 0 77 +17 77 0 81 82 65 57 63 7
8 0 83 -16 78 12 84 ?63 75 66 85 0 0 7 17 65 0 81 77 67 52 38 66 0 0 -15 81 4 0
 82 86 0 17 67 0 81 65 82 53 44 87 0 0 +16 66 10 88 ?38 78 87 89 0 0 7 81 2 88 7
7 90 66 91 0 92 93 0 94 16 87 8 95 ?67 66 96 97 0 0 7 134 89 55 0 66 98 99 0 +10
0 101 134 98 54 0 75 97 89 0 +102 103 134 99 56 0 69 89 85 0 +104 105 136 255 10
0 1 2 4 2 5 FFT1 106 107 108 135 255 101 2 0 45 255 8 106 -.0225 .01125 -.0375 1
 -.0225 .01125 .0375 1 127 255 2 107 2 2 128 255 2 108 0 1 16 69 24 93 ?37 109 1
10 99 0 0 7 134 85 57 0 78 99 76 0 +111 112 136 104 1 2 4 2 5 FFT1 113 114 115 1
35 105 2 0 45 8 113 .0225 .01125 .0375 1 .0225 .01125 -.0375 1 127 2 114 2 2 128
 2 115 0 1 134 76 58 0 62 85 116 0 +117 118 136 111 1 2 4 2 5 FFT1 119 120 121 1
35 112 2 0 45 8 119 -.0225 -.01125 -.0375 1 -.0225 .01125 -.0375 1 127 2 120 2 2
 128 2 121 0 .3 134 116 59 0 110 76 122 0 +123 124 136 117 2 5 4 3 5 FFT1 125 12
6 127 135 118 2 0 45 20 125 .0225 .01125 -.0375 1 .01590990257669735 .0079549512
8834867 -.0424264068711929 .707106781186548 1377727649040774e-33 .01125 -.06 1 -
.01590990257669735 .00795495128834867 -.0424264068711929 .707106781186548 -.0225
 .01125 -.0375 1 127 3 126 3 2 3 128 3 127 0 1.5707963267949 3.14159265358979 16
 110 22 128 ?51 69 74 116 0 0 7 134 122 60 0 109 116 28 0 +129 130 136 123 1 2 4
 2 5 FFT1 131 132 133 135 124 2 0 45 8 131 .0225 -.01125 .0375 1 .0225 -.01125 -
.0375 1 127 2 132 2 2 128 2 133 0 1 16 109 26 134 ?40 27 69 122 0 0 7 134 28 61
 0 17 122 14 0 +135 136 136 129 1 2 4 2 5 FFT1 137 138 139 135 130 2 0 45 8 137
 .0225 -.01125 .0375 1 .0225 .01125 .0375 1 127 2 138 2 2 128 2 139 0 .3 136 135
 2 5 4 3 5 FFT1 140 141 142 135 136 2 0 45 20 140 -.0225 .01125 .0375 1 -.015909
90257669735 .00795495128834867 .0424264068711929 .707106781186548 -1377727649040
774e-33 .01125 .06 1 .01590990257669735 .00795495128834867 .0424264068711929 .70
7106781186548 .0225 .01125 .0375 1 127 3 141 3 2 3 128 3 142 0 1.5707963267949 3
.14159265358979 81 2 134 92 90 109 143 0 128 33 0 144 17 40 0 43 39 41 18 46 109
 0 68 +16 27 29 145 ?41 17 109 14 0 0 7 81 2 145 98 90 27 146 0 33 147 0 148 80
 7 CCCCCDI12 legal_owners0 16 1 lCZ2 90 149 150 9000 0 0 0 0 3 5 0 0 0 TTTTTTTTT
TTTTFFF1 2 81 1 146 97 149 27 151 145 152 153 154 81 2 33 95 90 17 152 0 134 145
 0 155 81 2 147 102 90 86 153 156 145 157 0 158 83 255 1 148 0 14 255 86 3 159 ?
0 79 81 12 160 +0 0 0 79 32 81 1 153 101 149 86 161 147 146 162 163 81 1 156 592
 164 86 147 165 0 166 167 81 2 157 106 90 79 162 166 147 168 0 169 83 1 158 0 14
 79 13 170 ?86 171 71 12 172 +0 0 86 171 32 81 1 162 105 149 79 173 157 153 174
 175 81 1 166 594 164 79 157 176 156 177 178 81 2 168 110 90 171 174 177 157 179
 0 180 83 1 169 0 14 171 20 181 ?79 182 183 12 184 +0 0 79 182 32 81 1 174 109 1
49 171 185 168 162 186 187 81 1 177 596 164 171 168 188 166 189 190 81 2 179 114
 90 182 186 189 168 191 0 192 83 1 180 0 14 182 27 193 ?171 64 43 12 194 +0 0 17
1 64 32 81 1 186 113 149 182 195 179 174 196 197 81 1 189 598 164 182 179 198 17
7 199 200 81 2 191 118 90 64 196 199 179 201 0 202 83 1 192 0 14 64 31 203 ?182
 22 36 12 24 +0 0 182 22 32 81 1 196 117 149 64 204 191 186 205 206 81 1 199 600
 164 64 191 207 189 208 209 81 2 201 122 90 22 205 208 191 0 0 210 83 1 202 0 14
 22 33 211 ?64 0 212 12 13 +0 0 64 0 32 81 1 205 121 149 22 213 201 196 214 215
 81 1 208 602 164 22 201 216 199 0 217 83 1 210 0 80 1 164 218 219 9000 1 1 1 1
 1 1 1 1 0 FFFFTFTFFFFFFFFF1 81 1 216 604 220 22 208 211 0 207 221 82 255 1 217
 -1766653841 80 1 220 0 222 8001 0 0 0 0 3 5 0 0 0 FFFFTFTFFFFFFFFF2 81 1 211 60
5 223 22 216 0 0 203 224 81 1 207 606 220 64 199 203 216 198 225 83 3 221 .79607
8431372549 .796078431372549 .796078431372549 81 1 203 607 223 64 207 0 211 193 2
26 81 1 198 608 220 182 189 193 207 188 227 83 3 225 .796078431372549 .796078431
372549 .796078431372549 81 1 193 609 223 182 198 0 203 181 228 81 1 188 610 220
 171 177 181 198 176 229 83 3 227 .796078431372549 .796078431372549 .79607843137
2549 81 1 181 611 223 171 188 0 193 170 230 81 1 176 612 220 79 166 170 188 165
 231 83 3 229 .796078431372549 .796078431372549 .796078431372549 81 1 170 613 22
3 79 176 0 181 159 232 81 1 165 614 220 86 156 159 176 0 233 83 3 231 .796078431
372549 .796078431372549 .796078431372549 81 1 159 615 223 86 165 0 170 0 234 83
 3 233 .796078431372549 .796078431372549 .796078431372549 80 1 223 235 236 8015
 0 0 0 0 3 5 0 0 0 FFFFTFFFFFFFFFFF2 83 1 234 0 79 255 21 236 SDL/TYSA_TRANSLUCE
NCY83 1 232 0 83 1 230 0 83 1 228 0 83 1 226 0 83 1 224 0 79 15 222 SDL/TYSA_COL
OUR79 14 219 SWEntUnchanged80 1 149 237 238 9000 0 0 0 0 3 6 0 0 0 TTTFTFTTFFFFF
FFF10 81 1 213 120 237 22 0 205 204 0 239 81 1 214 137 149 7 240 241 205 0 242 9
8 255 5 215 68 69 58 49 53 81 4 240 136 243 7 244 214 0 0 245 0 0 246 81 2 241 1
40 247 7 214 19 0 0 248 0 98 4 242 68 69 58 49 80 2 247 249 250 9000 0 0 0 0 3 5
 0 0 0 FFTFTTTFFTFFFFFF10 10 81 2 19 170 251 7 241 9 0 0 252 0 98 6 248 83 99 97
 108 101 49 80 2 251 253 254 8004 0 0 0 0 3 5 0 0 0 FFTFFFFFFFFFFFFF2 3 83 1 252
 1 79 16 254 SDL/TYSA_DENSITY79 23 250 SWIMPLICITBODYNAME_ID_U80 4 243 255 256 8
042 0 0 0 0 3 6 0 0 0 TTTTTTTTTTTTTTFF10 10 10 1 81 1 244 123 257 7 0 240 0 0 25
8 98 1 245 48 82 1 246 0 80 1 257 220 259 8040 0 0 0 0 3 5 0 0 0 TTTFFFFFFFFFFFF
F2 83 3 258 .796078431372549 .796078431372549 .796078431372549 79 17 259 SDL/TYS
A_COLOUR_279 14 256 SDL/TYSA_LAYER80 1 237 260 261 9000 0 0 0 0 3 5 0 0 0 FTTFTF
TTFFFFFFFF1 81 1 204 116 237 64 0 196 195 213 262 82 1 239 0 81 1 195 112 237 18
2 0 186 185 204 263 82 1 262 0 81 1 185 108 237 171 0 174 173 195 264 82 1 263 0
 81 1 173 104 237 79 0 162 161 185 265 82 1 264 0 81 1 161 100 237 86 0 153 151
 173 266 82 1 265 0 81 1 151 96 237 27 0 146 267 161 268 82 1 266 0 81 1 267 93
 237 17 0 152 269 151 270 82 1 268 0 81 1 152 94 149 17 267 33 143 146 271 81 1
 269 90 237 109 0 143 272 267 273 82 1 270 0 81 1 143 91 149 109 269 134 274 152
 275 81 1 272 87 237 110 0 274 276 269 277 82 1 273 0 81 1 274 88 149 110 272 12
8 278 143 279 81 1 276 84 237 62 0 278 280 272 281 82 1 277 0 81 1 278 85 149 62
 276 73 282 274 283 81 1 280 81 237 78 0 282 284 276 285 82 1 281 0 81 1 282 82
 149 78 280 84 286 278 287 81 1 284 78 237 69 0 286 288 280 289 82 1 285 0 81 1
 286 79 149 69 284 93 91 282 290 81 1 288 75 237 66 0 91 291 284 292 82 1 289 0
 81 1 91 76 149 66 288 88 293 286 294 81 1 291 72 237 75 0 293 295 288 296 82 1
 292 0 16 75 15 92 ?59 62 78 98 0 0 7 81 1 293 73 149 75 291 92 297 91 298 81 1
 295 69 237 87 0 297 299 291 300 82 1 296 0 81 1 297 70 149 87 295 95 301 293 30
2 81 1 299 66 237 96 0 301 303 295 304 82 1 300 0 16 96 5 305 ?82 87 0 306 0 0 7
 81 1 301 67 149 96 299 305 307 297 308 81 1 303 63 237 74 0 307 0 299 309 82 1
 304 0 16 74 19 310 ?70 110 62 311 0 0 7 81 1 307 64 149 74 303 310 0 301 312 82
 1 309 0 81 2 310 65 90 74 307 0 0 305 0 313 98 5 312 68 69 58 52 49 81 2 305 68
 90 96 301 0 310 95 0 314 83 1 313 0 81 2 95 71 90 87 297 0 305 92 0 315 83 1 31
4 0 81 2 92 74 90 75 293 0 95 88 0 316 83 1 315 0 83 1 316 0 17 70 0 183 68 51 4
2 72 74 0 61 +134 311 51 0 74 0 306 0 +317 318 134 306 52 0 96 311 97 0 +319 320
 136 317 1 2 4 2 5 FFT1 321 322 323 135 318 2 0 45 8 321 .0225 -.01125 -.0375 1
 .0225 .01125 -.0375 1 127 2 322 2 2 128 2 323 0 .3 134 97 53 0 87 306 98 0 +324
 325 136 319 1 2 4 2 5 FFT1 326 327 328 135 320 2 0 45 8 326 -.0225 -.01125 -.03
75 1 -.0225 -.01125 .0375 1 127 2 327 2 2 128 2 328 0 1 136 324 1 2 4 2 5 FFT1 3
29 330 331 135 325 2 0 45 8 329 -.0225 -.01125 .0375 1 -.0225 .01125 .0375 1 127
 2 330 2 2 128 2 331 0 .3 15 183 21 0 51 171 0 17 68 0 183 46 70 18 37 69 0 0 -1
7 51 0 183 70 46 47 332 110 0 72 +17 72 0 71 59 61 47 70 74 0 80 -17 80 0 212 33
2 83 47 59 75 0 0 -15 212 34 0 45 22 0 17 332 0 212 45 80 35 51 110 0 0 -17 83 0
 212 80 45 57 82 96 0 0 -17 45 0 212 83 332 55 41 27 0 44 -17 82 0 81 67 77 55 8
3 96 0 0 +17 44 0 43 41 39 55 67 87 0 82 -15 43 28 0 41 182 0 17 39 0 43 44 40 5
3 34 17 0 38 -17 46 0 183 51 68 35 40 109 0 332 -98 5 308 68 69 58 50 57 98 5 30
2 68 69 58 51 49 98 5 298 68 69 58 51 55 98 5 294 68 69 58 51 51 81 2 93 80 90 6
9 286 0 88 84 0 333 98 5 290 68 69 58 52 53 81 2 84 83 90 78 282 0 93 73 0 334 8
3 1 333 0 81 2 73 86 90 62 278 0 84 128 0 335 83 1 334 0 81 2 128 89 90 110 274
 0 73 134 0 336 83 1 335 0 83 1 336 0 98 5 287 68 69 58 51 53 98 5 283 68 69 58
 51 57 98 5 279 68 69 58 52 51 98 5 275 68 69 58 52 55 98 5 271 68 69 58 53 49 7
9 23 261 ATTRIB_XPARASOLID_LAYER79 19 238 SPAATTRIB_UNICODEID13 32 2 0 0 0 0 0 0
 16 22 82 1 209 -1766457233 98 5 206 68 69 58 49 51 124 24 41 0 64 194 13 0 +337
 338 124 194 40 0 182 184 24 0 +339 340 126 255 337 FF1 1 2 2 5 5 2 2 TFF3 4 341
 342 343 344 345 125 255 338 -.301 .301 -.801 .801 -.301 .301 -.801 .801 1 BBBBB
BBB????0 0 0 0 45 16 341 -.022575 .01125 .060075 1 -.022575 .01125 -.060075 1 .0
22575 .01125 .060075 1 .022575 .01125 -.060075 1 127 2 342 2 2 127 2 343 2 2 128
 2 344 -.301 .301 128 2 345 -.801 .801 124 184 39 0 171 172 194 0 +346 347 126 3
39 FF1 2 2 5 5 5 2 3 TFF4 4 348 349 350 351 352 125 340 0 1 0 3.14159265358979 0
 1 0 3.14159265358979 1 BBBBBBBB????0 0 0 0 45 40 348 -.0225 .01125 .0375 1 -.01
590990257669735 .00795495128834867 .0424264068711929 .707106781186548 0 .01125 .
06 1 .01590990257669735 .00795495128834867 .0424264068711929 .707106781186548 .0
225 .01125 .0375 1 -.0225 -.01125 .0375 1 -.01590990257669735 -.0079549512883486
7 .0424264068711929 .707106781186548 0 -.01125 .06 1 .01590990257669735 -.007954
95128834867 .0424264068711929 .707106781186548 .0225 -.01125 .0375 1 127 2 349 2
 2 127 3 350 3 2 3 128 2 351 0 1 128 3 352 0 1.5707963267949 3.14159265358979 12
4 172 38 0 79 160 184 0 +353 354 126 346 FF1 1 2 2 5 5 2 2 TFF3 4 355 356 357 35
8 359 125 347 -.001 1.001 -.001 .301 -.001 1.001 -.001 .301 1 BBBBBBBB????0 0 0
 0 45 16 355 .0225 -.011325 .037575 1 .0225 .011325 .037575 1 .0225 -.011325 -.0
37575 1 .0225 .011325 -.037575 1 127 2 356 2 2 127 2 357 2 2 128 2 358 -.001 1.0
01 128 2 359 -.001 .301 124 160 37 0 86 0 172 0 +360 361 126 353 FF1 2 2 5 5 5 2
 3 TFF4 4 362 363 364 365 366 125 354 0 1 0 3.14159265358979 0 1 0 3.14159265358
979 1 BBBBBBBB????0 0 0 0 45 40 362 .0225 .01125 -.0375 1 .01590990257669735 .00
795495128834867 -.0424264068711929 .707106781186548 0 .01125 -.06 1 -.0159099025
7669735 .00795495128834867 -.0424264068711929 .707106781186548 -.0225 .01125 -.0
375 1 .0225 -.01125 -.0375 1 .01590990257669735 -.00795495128834867 -.0424264068
711929 .707106781186548 0 -.01125 -.06 1 -.01590990257669735 -.00795495128834867
 -.0424264068711929 .707106781186548 -.0225 -.01125 -.0375 1 127 2 363 2 2 127 3
 364 3 2 3 128 2 365 0 1 128 3 366 0 1.5707963267949 3.14159265358979 126 360 FF
1 1 2 2 5 5 2 2 TFF3 4 367 368 369 370 371 125 361 -.001 1.001 -.001 .301 -.001
 1.001 -.001 .301 1 BBBBBBBB????0 0 0 0 45 16 367 -.0225 -.011325 -.037575 1 -.0
225 .011325 -.037575 1 -.0225 -.011325 .037575 1 -.0225 .011325 .037575 1 127 2
 368 2 2 127 2 369 2 2 128 2 370 -.001 1.001 128 2 371 -.001 .301 82 1 200 -1766
260625 98 5 197 68 69 58 49 49 82 1 190 -1766064017 98 4 187 68 69 58 57 82 1 17
8 -1765867409 98 4 175 68 69 58 55 82 1 167 -1765670801 98 4 163 68 69 58 53 83
 1 155 0 98 5 154 68 69 58 52 57 79 27 150 ATTRIB_XPARASOLID_THICKNESS83 1 144 0
 136 102 2 5 4 3 5 FFT1 372 373 374 135 103 2 0 45 20 372 .0225 -.01125 -.0375 1
 .01590990257669735 -.00795495128834867 -.0424264068711929 .707106781186548 1377
727649040774e-33 -.01125 -.06 1 -.01590990257669735 -.00795495128834867 -.042426
4068711929 .707106781186548 -.0225 -.01125 -.0375 1 127 3 373 3 2 3 128 3 374 0
 1.5707963267949 3.14159265358979 83 1 94 0 19 23 35 0 7 0 16 12 0 S0 136 29 2 5
 4 3 5 FFT1 375 376 377 135 30 2 0 45 20 375 -.0225 -.01125 .0375 1 -.0159099025
7669735 -.00795495128834867 .0424264068711929 .707106781186548 -1377727649040774
e-33 -.01125 .06 1 .01590990257669735 -.00795495128834867 .0424264068711929 .707
106781186548 .0225 -.01125 .0375 1 127 3 376 3 2 3 128 3 377 0 1.5707963267949 3
.14159265358979 126 25 FF1 1 2 2 5 5 2 2 TFF3 4 378 379 380 381 382 125 26 -.301
 .301 -.801 .801 -.301 .301 -.801 .801 1 BBBBBBBB????0 0 0 0 45 16 378 .022575 -
.01125 .060075 1 .022575 -.01125 -.060075 1 -.022575 -.01125 .060075 1 -.022575
 -.01125 -.060075 1 127 2 379 2 2 127 2 380 2 2 128 2 381 -.301 .301 128 2 382 -
.801 .801 74 4 CI16 index_map_offset0 0 1 dCCZ20 21 11 0 0 213 214 201 244 240 2
41 19 208 165 159 9 0 0 0 0 0 0 0 0 0 80 1 5 243 383 8017 0 0 0 0 0 0 0 0 0 TTTT
TTTTTTTTTFTF3 84 255 19 20 23001_234eee16_1 v079 13 383 SDL/TYSA_NAME74 20 6 1 0
 0 2 0 0 0 0 0 0 0 0 0 0 0 0 0 0 0 0 0 0 0 1 0 
