**ABCDEFGHIJKLMNOPQRSTUVWXYZabcdefghijklmnopqrstuvwxyz**************************
**PARASOLID !"#$%&'()*+,-./:;<=>?@[\]^_`{|}~0123456789**************************
**PART1;
MC=AMD64;
MC_MODEL=Intel64 Family 6 Model 154 Stepping 3, GenuineIntel;
MC_ID=unknown;
OS=Windows_NT;
OS_RELEASE=unknown;
FRU=Parasolid Version 33.1, build 255,  1- 8-2022;
APPL=SOLIDWORKS 2022-2022167;
SITE=;
USER=unknown;
FORMAT=text;
GUISE=transmit;
KEY=FILEPart1.x_t;
DATE=Sun Mar 10 21:13:42 2024;
**PART2;
SCH=SCH_3301255_33103;
USFLD_SIZE=0;
**PART3;
**END_OF_HEADER*****************************************************************
T51 : TRANSMIT FILE created by modeller version 330125523 SCH_3301255_33103_1300
6230 0 12 35 CCCI7 lattice222 0 CCCI4 mesh1006 0 I8 polyline1008 0 CCCCCCCDI5 ow
ner1040 0 CCCCCCI13 boundary_mesh1006 0 I17 boundary_polyline1008 0 CCCA16 index
_map_offset0 0 1 dA9 index_map82 0 A17 node_id_index_map82 0 A20 schema_embeddin
g_map82 0 A5 child12 0 A14 lowest_node_id0 0 1 dA16 mesh_offset_data206 0 Z1 340
 2 3 0 0 0 0 0 0 0 1e3 1e-8 0 4 0 1 0 1 1 5 6 7 8 0 0 9 10 11 0 0 0 0 0 0 0 81 2
55 2 2 332 12 1 13 0 0 0 0 14 70 11 CI9 list_type0 0 1 uI10 notransmit0 0 1 lCCC
DCCDI12 finger_index0 0 1 dI12 finger_block1012 0 CZ3 0 4 T1 0 0 9 20 1 15 15 13
 255 5 99 0 1 0 16 0 0 17 0 50 255 6 94 0 18 19 0 0 +0 .01 0 1 0 0 0 0 -1 30 255
 7 98 0 10 20 0 0 +0 .01 0 0 -1 0 29 255 8 142 0 11 21 0 0 .00631561187868316 0
 19 8 CCCCCCCA5 owner12 0 Z9 33 0 1 17 0 22 V0 16 255 10 141 0 ?23 0 24 7 0 0 1
 18 255 11 140 0 25 0 26 8 ?1 17 255 25 0 27 23 28 11 29 30 0 31 -18 26 30 0 32
 11 33 34 ?1 17 32 0 35 36 37 26 38 39 0 40 +18 33 27 0 37 26 41 42 ?1 29 34 32
 0 26 42 43 0 .01 -.005 29 42 29 0 33 44 34 .01 .01 -.005 29 43 78 0 45 34 46 0
 0 0 18 45 69 0 23 47 48 43 ?1 29 46 77 0 47 43 49 .01 0 0 18 47 68 0 50 51 45 4
6 ?1 29 49 76 0 51 46 21 .01 0 -.005 18 51 67 0 52 41 47 49 ?1 29 21 75 0 41 49
 8 0 0 -.005 18 41 66 0 53 33 51 21 ?1 17 53 0 54 40 55 41 56 57 0 58 +15 255 54
 83 0 53 59 0 17 40 0 54 38 53 26 58 60 0 61 -17 55 0 54 53 38 51 62 63 0 56 +17
 56 0 64 65 66 51 53 57 0 0 -16 57 50 0 ?53 67 68 69 0 0 1 17 58 0 70 71 61 41 4
0 60 0 66 +15 70 89 0 71 18 0 17 71 0 70 31 58 45 66 72 0 0 +17 61 0 70 58 73 26
 36 67 0 0 -16 60 79 0 ?58 63 39 74 0 0 1 17 66 0 64 56 75 41 71 72 0 0 -15 64 4
9 0 66 76 0 17 75 0 64 66 65 45 77 78 0 71 -16 72 62 0 ?71 78 79 80 0 0 1 16 78
 58 0 ?77 68 72 81 0 0 1 16 79 155 0 ?82 72 83 84 0 0 1 30 80 74 0 72 85 81 0 +0
 0 0 0 0 1 30 85 19 0 39 86 80 0 +0 .01 -.005 -1 0 0 30 81 73 0 78 80 87 0 +0 0
 0 1 0 0 30 87 72 0 68 81 69 0 +.01 0 0 0 0 -1 16 68 54 0 ?52 57 78 87 0 0 1 30
 69 71 0 57 87 74 0 +0 0 -.005 -1 0 0 30 74 95 0 60 69 88 0 +0 .01 -.005 0 -1 0
 30 88 96 0 63 74 20 0 +.01 .01 -.005 0 -1 0 16 63 80 0 ?55 24 60 88 0 0 1 30 20
 97 0 24 88 7 0 +.01 .01 0 0 -1 0 16 24 138 0 ?50 10 63 20 0 0 1 17 50 0 89 52 9
0 47 28 24 0 77 +15 89 85 0 52 91 0 17 52 0 89 62 50 51 65 68 0 55 +17 90 0 89 5
0 92 93 94 83 0 0 +17 28 0 27 25 77 93 50 24 0 29 -17 77 0 27 28 23 47 75 78 0 6
5 +15 27 144 0 25 16 0 17 23 0 27 77 25 45 31 10 0 75 +17 65 0 64 75 56 47 52 68
 0 0 -17 31 0 70 95 71 11 23 10 0 82 -17 95 0 70 73 31 96 82 79 0 0 -17 82 0 97
 29 98 11 95 79 0 0 +15 97 191 0 29 99 0 17 29 0 97 94 82 93 25 30 0 90 +17 98 0
 97 82 94 96 100 101 0 102 -17 94 0 97 98 29 103 90 83 0 92 -18 96 177 0 98 103
 93 104 ?1 17 100 0 105 106 102 103 98 101 0 94 +16 101 167 0 ?100 107 108 109 0
 0 1 17 102 0 105 100 110 96 73 108 0 95 +15 105 202 0 102 111 0 17 110 0 105 10
2 106 48 112 113 0 73 +17 73 0 70 61 95 48 102 108 0 0 -16 108 164 0 ?102 101 30
 114 0 0 1 16 30 152 0 ?29 108 0 115 0 0 1 30 114 225 0 108 0 109 0 +0 .01 .002
 0 -1 0 30 109 224 0 101 114 116 0 +0 .00631561187868316 .002 1 0 0 30 116 223 0
 107 109 117 0 +.01 .01 .002 0 1 0 16 107 170 0 ?106 113 101 116 0 0 1 30 117 22
2 0 113 116 115 0 +0 .01 .002 -1 0 0 16 113 173 0 ?110 83 107 117 0 0 1 30 115 2
20 0 30 117 118 0 +0 .00631561187868316 0 1 0 0 30 118 215 0 83 115 84 0 +.01 .0
0631561187868316 .002 0 0 -1 16 83 159 0 ?90 79 113 118 0 0 1 30 84 214 0 79 118
 119 0 +0 .00631561187868316 .002 0 0 -1 30 119 7 0 67 84 86 0 +0 .01 0 0 0 1 16
 67 5 0 ?36 120 57 119 0 0 1 30 86 15 0 120 119 85 0 +.01 .01 0 0 0 -1 16 120 13
 0 ?37 39 67 86 0 0 1 17 37 0 35 32 112 33 121 120 0 62 +16 39 17 0 ?32 60 120 8
5 0 0 1 15 35 4 0 36 122 0 17 112 0 35 37 36 123 110 113 0 0 -17 121 0 89 92 62
 123 37 120 0 106 -17 62 0 89 121 52 33 55 63 0 38 -17 38 0 54 55 40 33 32 39 0
 0 -17 92 0 89 90 121 103 106 107 0 0 -18 123 181 0 121 48 103 124 ?1 17 106 0 1
05 110 100 123 92 107 0 112 +18 48 182 0 36 45 123 125 ?1 18 103 180 0 100 123 9
6 126 ?1 29 124 231 0 123 126 125 .01 .01 .002 29 126 232 0 103 104 124 .01 .006
31561187868316 .002 29 125 230 0 48 124 44 0 .01 .002 29 44 228 0 93 125 42 .01
 .00631561187868316 0 18 93 176 0 28 96 0 44 ?1 29 104 233 0 96 0 126 0 .0063156
1187868316 .002 17 36 0 35 112 32 48 61 67 0 110 +14 255 122 1 127 ?76 59 35 5 1
28 -0 0 76 59 22 81 1 127 333 129 122 130 0 0 131 132 14 76 48 131 ?99 122 64 5
 133 +0 0 99 122 22 14 59 84 134 ?122 91 54 5 135 -0 0 122 91 22 50 128 3 0 122
 136 133 0 +0 .01 0 0 -1 0 0 0 -1 13 22 34 0 0 0 0 0 0 9 16 14 16 145 137 ?18 0
 27 5 19 -0 0 18 0 22 81 1 137 336 129 16 138 0 134 139 140 14 18 90 139 ?91 16
 70 5 6 -0 0 91 16 22 50 19 93 0 16 141 6 0 +0 .01 0 0 0 -1 -1 0 0 50 141 92 0 9
1 135 19 0 +.01 .01 0 -1 0 0 0 0 1 14 91 86 142 ?59 18 89 5 141 -0 0 59 18 22 50
 135 91 0 59 133 141 0 +0 .01 -.005 0 0 1 1 0 0 50 133 70 0 76 128 135 0 +0 0 0
 0 -1 0 0 0 -1 81 1 142 338 129 91 143 0 139 144 145 80 255 1 129 146 147 9000 1
 1 1 1 1 1 1 1 0 FFFFTFTFFFFFFF1 81 1 143 306 148 91 0 142 149 150 151 81 1 139
 337 129 18 149 0 137 142 152 81 1 144 339 129 99 153 0 142 154 155 82 255 1 145
 166527084 14 99 188 144 ?111 76 97 5 136 -0 0 111 76 22 81 1 153 310 148 99 0 1
44 156 157 158 81 1 154 340 129 111 157 0 144 0 159 82 1 155 -1186725780 14 111
 200 154 ?0 99 105 5 160 +0 0 0 99 22 81 1 157 311 148 111 0 154 153 0 161 82 1
 159 -1193803668 80 1 148 0 162 8001 0 0 0 0 3 5 0 0 0 FFFFTFTFFFFFFF2 83 255 3
 161 .792156862745098 .819607843137255 .933333333333333 79 255 15 162 SDL/TYSA_C
OLOUR50 160 213 0 111 0 136 0 +0 0 .002 0 0 1 1 0 0 50 136 209 0 99 160 128 0 +0
 .00631561187868316 .002 0 1 0 0 0 1 81 1 156 309 148 76 0 131 130 153 163 83 3
 158 .792156862745098 .819607843137255 .933333333333333 81 1 131 334 129 76 156
 0 127 134 164 81 1 130 308 148 122 0 127 150 156 165 83 3 163 .792156862745098
 .819607843137255 .933333333333333 81 1 150 307 148 59 0 134 143 130 166 83 3 16
5 .792156862745098 .819607843137255 .933333333333333 81 1 134 335 129 59 150 0 1
31 137 167 83 3 166 .792156862745098 .819607843137255 .933333333333333 82 1 167
 166264936 82 1 164 165347432 81 1 149 305 148 18 0 139 138 143 168 82 1 152 167
051372 81 1 138 304 148 16 0 137 0 149 169 83 3 168 .792156862745098 .8196078431
37255 .933333333333333 83 3 169 .792156862745098 .819607843137255 .9333333333333
33 83 3 151 .792156862745098 .819607843137255 .933333333333333 79 14 147 SWEntUn
changed82 1 140 -1182400404 82 1 132 159711340 19 17 100 0 1 0 9 5 S0 74 4 CI16
 index_map_offset0 0 1 dCCZ20 15 9 0 0 154 170 171 172 173 174 13 157 2 0 0 0 0
 0 0 0 0 0 0 0 81 2 170 136 175 1 0 171 0 0 0 0 81 2 171 244 176 1 170 172 0 0 0
 177 81 2 172 251 178 1 171 173 0 0 0 179 81 1 173 258 180 1 172 174 0 0 181 81
 2 174 268 182 1 173 13 0 0 183 0 81 2 13 303 184 1 174 2 0 0 0 185 80 2 184 186
 187 9000 0 0 0 0 3 5 0 0 0 FFTFFFFFFFFFFF9 1 82 1 185 1 79 24 187 BODY_IN_LIGHT
WEIGHT_PERM80 2 182 188 189 8004 0 0 0 0 3 5 0 0 0 FFTFFFFFFFFFFF2 3 83 1 183 1
 79 16 189 SDL/TYSA_DENSITY80 1 180 190 191 9000 1 1 1 1 1 1 1 1 0 FFTFFFFFFFFFF
F1 82 1 181 2435 79 10 191 BODY_MATCH80 2 178 192 193 9000 0 0 0 0 3 5 0 0 0 FFT
FFFFFFFFFFF9 1 82 1 179 44 79 30 193 LAST_BODY_MODIFYING_FEATURE_ID80 2 176 194
 195 9000 0 0 0 0 3 5 0 0 0 FFTFFFFFFFFFFF9 1 82 1 177 105 79 19 195 ENT_TIME_ST
AMP_200180 2 175 196 197 9000 0 0 0 0 3 5 0 0 0 FFTFFFFFFFFFFF9 1 79 16 197 BODY
_RECIPE_200180 2 12 198 199 9000 0 0 0 0 3 5 0 0 0 FFTFFFFFFFFFFF9 1 82 1 14 102
 79 12 199 ATOM_ID_20011 0 
