**ABCDEFGHIJKLMNOPQRSTUVWXYZabcdefghijklmnopqrstuvwxyz**************************
**PARASOLID !"#$%&'()*+,-./:;<=>?@[\]^_`{|}~0123456789**************************
**PART1;
MC=AMD64;
MC_MODEL=Intel64 Family 6 Model 165 Stepping 5, GenuineIntel;
MC_ID=unknown;
OS=Windows_NT;
OS_RELEASE=unknown;
FRU=Parasolid Version 35.1, build 251, 11- 4-2023;
APPL=SOLIDWORKS 2024-2024078;
SITE=;
USER=unknown;
FORMAT=text;
GUISE=transmit;
KEY=Part3;
FILE=Part3.x_t;
DATE=Wed Jul 17 15:18:34 2024;
**PART2;
SCH=SCH_3501251_35102;
USFLD_SIZE=0;
**PART3;
**END_OF_HEADER*****************************************************************
T51 : TRANSMIT FILE created by modeller version 350125123 SCH_3501251_35102_1300
6231 0 12 36 CCCI7 lattice222 0 CCCI4 mesh1006 0 I8 polyline1008 0 CCCCCCCDI5 ow
ner1040 0 CCCI16 boundary_lattice222 0 CCCI13 boundary_mesh1006 0 I17 boundary_p
olyline1008 0 CCCA16 index_map_offset0 0 1 dA9 index_map82 0 A17 node_id_index_m
ap82 0 A20 schema_embedding_map82 0 A5 child12 0 A14 lowest_node_id0 0 1 dA16 me
sh_offset_data206 0 Z1 264 2 3 0 0 0 0 0 0 0 1e3 1e-8 0 4 0 1 0 1 1 5 0 6 7 8 0
 0 9 10 11 0 0 0 0 0 0 0 81 255 2 2 258 12 1 13 0 0 0 0 14 70 11 CI9 list_type0
 0 1 uI10 notransmit0 0 1 lCCCDCCDI12 finger_index0 0 1 dI12 finger_block1012 0
 CZ3 0 4 T1 0 0 15 20 1 15 15 13 255 5 36 0 1 0 16 0 0 17 0 124 255 6 42 0 18 19
 0 0 +20 21 134 255 7 62 0 10 22 0 0 +23 24 29 255 8 50 0 11 25 0 0 0 .025 19 9
 CCCCCCI5 frame230 0 CA5 owner12 0 Z9 1 0 1 17 0 26 0 V0 16 255 10 30 27 ?28 0 2
9 7 0 0 1 18 255 11 25 0 28 0 30 8 ?1 17 255 28 0 31 32 33 11 34 10 0 35 +18 30
 23 0 36 11 37 25 ?1 17 36 0 38 35 39 30 40 29 0 41 +18 37 18 0 32 30 42 43 ?1 2
9 25 49 0 30 44 8 0 0 0 29 44 48 0 42 45 25 .055 0 0 18 42 16 0 46 37 47 44 ?1 2
9 45 47 0 47 48 44 .055 .025 .025 18 47 11 0 49 42 50 45 ?1 29 48 46 0 50 51 45
 0 .025 .025 18 50 9 0 34 47 52 48 ?1 29 51 45 0 53 54 48 .055 .025 0 18 53 6 0
 55 52 0 51 ?1 29 54 44 0 52 43 51 0 .025 0 18 52 7 0 40 50 53 54 ?1 29 43 43 0
 37 0 54 .055 0 .025 17 40 0 56 57 58 52 36 29 0 39 -15 255 56 34 0 40 16 0 17 5
7 0 56 59 40 53 60 61 0 0 -17 58 0 56 40 59 30 46 62 0 0 -16 29 29 63 ?36 10 64
 22 0 0 1 17 39 0 38 36 34 52 65 66 0 60 -15 38 28 0 36 67 0 17 34 0 38 39 35 50
 28 10 0 33 -17 65 0 68 69 60 50 39 66 0 0 +16 66 8 70 ?65 71 61 72 0 0 1 17 60
 0 68 65 73 52 57 61 0 0 +15 68 4 0 60 74 0 17 73 0 68 60 69 53 75 76 0 57 -16 6
1 5 77 ?60 66 0 78 0 0 1 81 1 77 135 79 61 80 0 70 0 81 134 78 52 0 61 72 82 0 +
83 84 134 72 51 0 66 0 78 0 +85 86 134 82 53 0 71 78 87 0 +88 89 136 255 83 1 2
 4 2 5 FFT1 90 91 92 135 255 84 2 0 45 255 8 90 .055 .025 0 1 0 .025 0 1 127 255
 2 91 2 2 128 255 2 92 0 5.5 16 71 10 93 ?33 76 66 82 0 0 1 134 87 54 0 94 82 95
 0 +96 97 136 88 1 2 4 2 5 FFT1 98 99 100 135 89 2 0 45 8 98 .055 .025 .025 1 0
 .025 .025 1 127 2 99 2 2 128 2 100 0 5.5 16 94 17 101 ?49 102 103 87 0 0 1 134
 95 55 0 76 87 104 0 +105 106 136 96 1 2 4 2 5 FFT1 107 108 109 135 97 2 0 45 8
 107 .055 0 .025 1 .055 .025 .025 1 127 2 108 2 2 128 2 109 0 2.5 16 76 12 110 ?
75 103 71 95 0 0 1 134 104 56 0 103 95 111 0 +112 113 136 105 1 2 4 2 5 FFT1 114
 115 116 135 106 2 0 45 8 114 .055 .025 0 1 .055 .025 .025 1 127 2 115 2 2 128 2
 116 0 2.5 16 103 15 117 ?55 94 76 104 0 0 1 134 111 57 0 102 104 118 0 +119 120
 136 112 1 2 4 2 5 FFT1 121 122 123 135 113 2 0 45 8 121 .055 0 0 1 .055 .025 0
 1 127 2 122 2 2 128 2 123 0 2.5 16 102 19 124 ?125 62 94 111 0 0 1 134 118 58 0
 62 111 126 0 +127 128 136 119 1 2 4 2 5 FFT1 129 130 131 135 120 2 0 45 8 129 .
055 0 0 1 .055 0 .025 1 127 2 130 2 2 128 2 131 0 2.5 16 62 22 132 ?46 133 102 1
18 0 0 1 134 126 59 0 133 118 134 0 +135 136 136 127 1 2 4 2 5 FFT1 137 138 139
 135 128 2 0 45 8 137 0 0 0 1 .055 0 0 1 127 2 138 2 2 128 2 139 0 5.5 16 133 24
 140 ?32 64 62 126 0 0 1 134 134 60 0 64 126 22 0 +141 142 136 135 1 2 4 2 5 FFT
1 143 144 145 135 136 2 0 45 8 143 0 0 .025 1 .055 0 .025 1 127 2 144 2 2 128 2
 145 0 5.5 16 64 26 146 ?35 29 133 134 0 0 1 134 22 61 0 29 134 7 0 +147 148 136
 141 1 2 4 2 5 FFT1 149 150 151 135 142 2 0 45 8 149 0 0 0 1 0 0 .025 1 127 2 15
0 2 2 128 2 151 0 2.5 136 147 1 2 4 2 5 FFT1 152 153 154 135 148 2 0 45 8 152 0
 .025 0 1 0 0 0 1 127 2 153 2 2 128 2 154 0 2.5 81 1 146 126 79 64 155 0 63 140
 156 17 35 0 38 34 36 11 41 64 0 157 +17 41 0 158 46 157 30 35 64 0 58 -17 157 0
 158 41 125 11 32 133 0 0 -15 158 21 0 46 159 0 17 125 0 158 157 46 37 160 102 0
 161 +17 32 0 31 49 28 37 157 133 0 125 +15 31 32 0 28 18 0 17 49 0 31 33 32 47
 161 94 0 75 +17 33 0 31 28 49 50 69 71 0 65 +17 161 0 162 160 75 37 49 94 0 0 -
17 75 0 162 161 55 47 73 76 0 69 +15 162 14 0 55 163 0 17 55 0 162 75 160 53 59
 103 0 73 +17 69 0 68 73 65 47 33 71 0 0 -17 160 0 162 55 161 42 125 102 0 59 -1
7 59 0 56 58 57 42 55 103 0 0 -14 255 163 13 164 ?74 159 162 5 165 +0 0 74 159 2
6 81 1 164 259 166 163 167 0 0 168 169 14 74 3 168 ?0 163 68 5 170 +0 0 0 163 26
 14 159 20 171 ?163 67 158 5 19 +0 0 163 67 26 124 165 39 0 163 172 173 0 +174 1
75 13 26 2 0 0 0 0 0 0 9 16 14 16 33 176 ?18 0 56 5 173 +0 0 18 0 26 81 1 176 26
2 166 16 177 0 171 178 179 14 18 31 178 ?67 16 31 5 6 +0 0 67 16 26 124 173 40 0
 16 165 19 0 +180 181 124 19 41 0 159 173 6 0 +182 183 126 255 180 FF1 1 2 2 5 5
 2 2 TFF3 4 184 185 186 187 188 125 255 181 -2.751 2.751 -1.251 1.251 -2.751 2.7
51 -1.251 1.251 2 BBBBBBBB????0 0 0 0 45 16 184 .05501 -99999999999989e-19 0 1 .
05501 .02501 0 1 -99999999999989e-19 -99999999999989e-19 0 1 -99999999999989e-19
 .02501 0 1 127 2 185 2 2 127 2 186 2 2 128 2 187 -2.751 2.751 128 2 188 -1.251
 1.251 126 182 FF1 1 2 2 5 5 2 2 TFF3 4 189 190 191 192 193 125 183 -.001 5.501
 -.001 2.501 -.001 5.501 -.001 2.501 2 BBBBBBBB????0 0 0 0 45 16 189 -1e-5 0 -1e
-5 1 -1e-5 0 .02501 1 .05501 0 -1e-5 1 .05501 0 .02501 1 127 2 190 2 2 127 2 191
 2 2 128 2 192 -.001 5.501 128 2 193 -.001 2.501 81 1 178 263 166 18 194 0 176 1
95 196 14 67 27 195 ?159 18 38 5 172 +0 0 159 18 26 81 1 195 264 166 67 197 0 17
8 0 198 124 172 38 0 67 170 165 0 +199 200 124 170 37 0 74 0 172 0 +201 202 126
 199 FF1 1 2 2 5 5 2 2 TFF3 4 203 204 205 206 207 125 200 -.001 2.501 -.001 2.50
1 -.001 2.501 -.001 2.501 2 BBBBBBBB????0 0 0 0 45 16 203 0 .02501 -1e-5 1 0 .02
501 .02501 1 0 -99999999999989e-19 -1e-5 1 0 -99999999999989e-19 .02501 1 127 2
 204 2 2 127 2 205 2 2 128 2 206 -.001 2.501 128 2 207 -.001 2.501 126 201 FF1 1
 2 2 5 5 2 2 TFF3 4 208 209 210 211 212 125 202 -.001 5.501 -.001 2.501 -.001 5.
501 -.001 2.501 2 BBBBBBBB????0 0 0 0 45 16 208 .05501 .025 -1e-5 1 .05501 .025
 .02501 1 -100000000000033e-19 .025 -1e-5 1 -100000000000033e-19 .025 .02501 1 1
27 2 209 2 2 127 2 210 2 2 128 2 211 -.001 5.501 128 2 212 -.001 2.501 80 7 CCCC
CDI12 legal_owners0 16 1 lCZ1 166 213 214 9000 1 1 1 1 1 1 1 1 0 FFFFTFTFFFFFFFF
F1 81 1 197 241 215 67 216 195 194 217 218 82 255 1 198 999999 80 1 215 219 220
 8015 0 0 0 0 3 5 0 0 0 FFFFTFFFFFFFFFFF2 81 2 216 106 221 67 222 197 223 224 0
 225 81 1 194 240 215 18 226 178 177 197 227 81 1 217 242 215 159 228 171 197 16
7 229 83 255 1 218 0 81 2 228 118 221 159 230 217 231 226 0 232 81 1 171 261 166
 159 217 0 168 176 233 81 1 167 243 215 163 224 164 217 234 235 83 1 229 0 81 2
 224 110 221 163 236 167 216 231 0 237 81 1 234 244 215 74 223 168 167 0 238 83
 1 235 0 81 2 223 102 221 74 239 234 240 216 0 241 81 1 168 260 166 74 234 0 164
 171 242 83 1 238 0 82 1 242 999999 80 2 221 243 244 9000 0 0 0 0 3 5 0 0 0 TTTT
TTTTTTTTTFFF1 2 81 1 239 101 243 74 245 223 246 222 247 81 2 240 98 221 10 246 2
7 248 223 0 249 83 1 241 0 81 1 246 97 243 10 250 240 251 239 252 81 1 27 124 79
 10 240 0 253 63 254 81 2 248 95 221 29 251 63 155 240 0 255 83 1 249 0 81 1 251
 94 243 29 256 248 257 246 258 81 1 63 125 79 29 248 0 27 146 259 81 2 155 92 22
1 64 257 146 260 248 0 261 83 1 255 0 81 1 257 91 243 64 262 155 263 251 264 81
 2 260 89 221 133 263 140 265 155 0 266 83 1 261 0 81 1 263 88 243 133 267 260 2
68 257 269 81 1 140 127 79 133 260 0 146 132 270 81 2 265 86 221 62 268 132 271
 260 0 272 83 1 266 0 81 1 268 85 243 62 273 265 274 263 275 81 1 132 128 79 62
 265 0 140 124 276 81 2 271 83 221 102 274 124 277 265 0 278 83 1 272 0 81 1 274
 82 243 102 279 271 280 268 281 81 1 124 129 79 102 271 0 132 101 282 81 2 277 8
0 221 103 280 117 283 271 0 284 83 1 278 0 81 1 280 79 243 103 285 277 286 274 2
87 81 1 117 131 79 103 277 0 101 110 288 81 2 283 77 221 76 286 110 289 277 0 29
0 83 1 284 0 81 1 286 76 243 76 291 283 292 280 293 81 1 110 132 79 76 283 0 117
 93 294 81 2 289 74 221 94 292 101 295 283 0 296 83 1 290 0 81 1 292 73 243 94 2
97 289 298 286 299 81 1 101 130 79 94 289 0 124 117 300 81 2 295 71 221 71 298 9
3 80 289 0 301 83 1 296 0 81 1 298 70 243 71 302 295 303 292 304 81 1 93 133 79
 71 295 0 110 70 305 81 2 80 68 221 61 303 77 306 295 0 307 83 1 301 0 81 1 303
 67 243 61 308 80 309 298 310 81 2 306 65 221 66 309 70 0 80 0 311 83 1 307 0 81
 1 309 64 243 66 312 306 0 303 313 81 1 70 134 79 66 306 0 93 77 314 83 1 311 0
 80 1 79 0 315 8001 0 0 0 0 3 5 0 0 0 FFFFTFTFFFFFFFFF2 83 3 314 .62745098039215
7 .627450980392157 .627450980392157 79 255 15 315 SDL/TYSA_COLOUR80 1 243 316 31
7 9000 0 0 0 0 3 6 0 0 0 TTTFTFTTFFFFFFFF10 81 1 312 63 316 66 0 309 0 308 318 9
8 255 5 313 68 69 58 51 49 80 1 316 319 320 9000 0 0 0 0 3 5 0 0 0 FTTFTFTTFFFFF
FFF1 81 1 308 66 316 61 0 303 312 302 321 82 1 318 0 81 1 302 69 316 71 0 298 30
8 297 322 82 1 321 0 81 1 297 72 316 94 0 292 302 291 323 82 1 322 0 81 1 291 75
 316 76 0 286 297 285 324 82 1 323 0 81 1 285 78 316 103 0 280 291 279 325 82 1
 324 0 81 1 279 81 316 102 0 274 285 273 326 82 1 325 0 81 1 273 84 316 62 0 268
 279 267 327 82 1 326 0 81 1 267 87 316 133 0 263 273 262 328 82 1 327 0 81 1 26
2 90 316 64 0 257 267 256 329 82 1 328 0 81 1 256 93 316 29 0 251 262 250 330 82
 1 329 0 81 1 250 96 316 10 0 246 256 245 331 82 1 330 0 81 1 245 100 316 74 332
 239 250 333 334 82 1 331 0 81 1 332 99 79 74 0 245 0 335 336 81 1 333 104 316 6
7 335 222 245 337 338 82 1 334 0 81 1 335 103 79 67 0 333 332 339 340 81 1 222 1
05 243 67 333 216 239 236 341 81 1 337 108 316 163 339 236 333 342 343 82 1 338
 0 81 1 339 107 79 163 0 337 335 344 345 81 1 236 109 243 163 337 224 222 346 34
7 81 1 342 112 316 16 344 346 337 348 349 82 1 343 0 81 1 344 111 79 16 0 342 33
9 350 351 81 1 346 113 243 16 342 231 236 230 352 81 1 348 116 316 159 350 230 3
42 353 354 82 1 349 0 81 1 350 115 79 159 0 348 344 253 355 81 1 230 117 243 159
 348 228 346 356 357 81 1 353 120 316 18 253 356 348 0 358 82 1 354 0 81 1 253 1
19 79 18 0 353 350 27 359 81 1 356 121 243 18 353 226 230 360 361 82 1 358 0 81
 2 226 122 221 18 356 194 228 0 0 362 81 1 360 137 243 1 363 364 356 0 365 98 5
 361 68 69 58 49 51 81 4 363 136 366 1 367 360 0 0 368 0 0 369 81 2 364 139 370
 1 360 371 0 0 0 372 98 4 365 68 69 58 49 80 2 370 373 374 9000 0 0 0 0 3 5 0 0
 0 FFTFFFFFFFFFFFFF9 1 81 2 371 140 375 1 364 376 0 0 377 0 82 1 372 38 80 2 375
 378 379 9000 0 0 0 0 3 5 0 0 0 FFTFTTTFFTFFFFFF10 10 81 2 376 141 380 1 371 381
 0 0 0 382 98 16 377 85 110 116 105 116 108 101 100 46 105 103 101 115 60 49 62
 80 2 380 383 384 9000 0 0 0 0 3 5 0 0 0 FFTFFFFFFFFFFFFF9 1 81 2 381 162 385 1
 376 386 0 0 0 0 82 1 382 103 80 2 385 387 388 9000 0 0 0 0 3 5 0 0 0 FFTFFFFFFF
FFFFFF9 1 81 2 386 170 389 1 381 13 0 0 390 0 80 2 389 391 392 8004 0 0 0 0 3 5
 0 0 0 FFTFFFFFFFFFFFFF2 3 81 1 13 171 393 1 386 2 0 0 394 83 1 390 1 80 1 393 3
95 396 9000 1 1 1 1 1 1 1 1 0 FFTFFFFFFFFFFFFF1 82 1 394 270 79 10 396 BODY_MATC
H79 16 392 SDL/TYSA_DENSITY79 16 388 BODY_RECIPE_200179 19 384 ENT_TIME_STAMP_20
0179 23 379 SWIMPLICITBODYNAME_ID_U79 30 374 LAST_BODY_MODIFYING_FEATURE_ID80 4
 366 397 398 8042 0 0 0 0 3 6 0 0 0 TTTTTTTTTTTTTTFF10 10 10 1 81 1 367 123 399
 1 0 363 0 0 400 98 1 368 48 82 1 369 0 80 1 399 79 401 8040 0 0 0 0 3 5 0 0 0 T
TTFFFFFFFFFFFFF2 83 3 400 .627450980392157 .627450980392157 .627450980392157 79
 17 401 SDL/TYSA_COLOUR_279 14 398 SDL/TYSA_LAYER83 1 362 0 83 3 359 .6274509803
92157 .627450980392157 .627450980392157 98 4 357 68 69 58 57 83 3 355 .627450980
392157 .627450980392157 .627450980392157 81 2 231 114 221 16 346 177 224 228 0 4
02 98 5 352 68 69 58 49 53 81 1 177 239 215 16 231 176 0 194 403 83 1 402 0 83 1
 403 0 83 3 351 .627450980392157 .627450980392157 .627450980392157 98 4 347 68 6
9 58 55 83 3 345 .627450980392157 .627450980392157 .627450980392157 98 5 341 68
 69 58 49 49 83 3 340 .627450980392157 .627450980392157 .627450980392157 83 3 33
6 .627450980392157 .627450980392157 .627450980392157 79 23 320 ATTRIB_XPARASOLID
_LAYER79 19 317 SPAATTRIB_UNICODEID98 5 310 68 69 58 50 57 83 3 305 .62745098039
2157 .627450980392157 .627450980392157 98 5 304 68 69 58 51 51 83 3 300 .6274509
80392157 .627450980392157 .627450980392157 98 5 299 68 69 58 51 57 83 3 294 .627
450980392157 .627450980392157 .627450980392157 98 5 293 68 69 58 51 53 83 3 288
 .627450980392157 .627450980392157 .627450980392157 98 5 287 68 69 58 51 55 83 3
 282 .627450980392157 .627450980392157 .627450980392157 98 5 281 68 69 58 52 49
 83 3 276 .627450980392157 .627450980392157 .627450980392157 98 5 275 68 69 58 5
2 51 83 3 270 .627450980392157 .627450980392157 .627450980392157 98 5 269 68 69
 58 52 53 98 5 264 68 69 58 52 55 83 3 259 .627450980392157 .627450980392157 .62
7450980392157 98 5 258 68 69 58 52 57 83 3 254 .627450980392157 .627450980392157
 .627450980392157 98 5 252 68 69 58 53 49 98 4 247 68 69 58 53 79 27 244 ATTRIB_
XPARASOLID_THICKNESS83 1 237 0 82 1 233 999999 83 1 232 0 83 1 227 0 83 1 225 0
 79 21 220 SDL/TYSA_TRANSLUCENCY79 14 214 SWEntUnchanged82 1 196 999999 82 1 179
 999999 126 174 FF1 1 2 2 5 5 2 2 TFF3 4 404 405 406 407 408 125 175 -.001 2.501
 -.001 2.501 -.001 2.501 -.001 2.501 2 BBBBBBBB????0 0 0 0 45 16 404 .055 -1e-5
 -1e-5 1 .055 -1e-5 .02501 1 .055 .02501 -1e-5 1 .055 .02501 .02501 1 127 2 405
 2 2 127 2 406 2 2 128 2 407 -.001 2.501 128 2 408 -.001 2.501 82 1 169 999999 1
7 46 0 158 125 41 42 58 62 0 160 +83 3 156 .627450980392157 .627450980392157 .62
7450980392157 136 85 1 2 4 2 5 FFT1 409 410 411 135 86 2 0 45 8 409 0 .025 0 1 0
 .025 .025 1 127 2 410 2 2 128 2 411 0 2.5 83 3 81 .627450980392157 .62745098039
2157 .627450980392157 19 17 35 0 1 0 9 5 0 S0 136 23 1 2 4 2 5 FFT1 412 413 414
 135 24 2 0 45 8 412 0 .025 .025 1 0 0 .025 1 127 2 413 2 2 128 2 414 0 2.5 126
 20 FF1 1 2 2 5 5 2 2 TFF3 4 415 416 417 418 419 125 21 -2.751 2.751 -1.251 1.25
1 -2.751 2.751 -1.251 1.251 2 BBBBBBBB????0 0 0 0 45 16 415 -99999999999989e-19
 -99999999999989e-19 .025 1 -99999999999989e-19 .02501 .025 1 .05501 -9999999999
9989e-19 .025 1 .05501 .02501 .025 1 127 2 416 2 2 127 2 417 2 2 128 2 418 -2.75
1 2.751 128 2 419 -1.251 1.251 74 4 CI16 index_map_offset0 0 1 dCCZ20 15 15 0 0
 353 360 226 77 367 363 364 371 376 195 381 386 13 234 2 0 0 0 0 0 80 2 12 420 4
21 9000 0 0 0 0 3 5 0 0 0 FFTFFFFFFFFFFFFF9 1 82 1 14 101 79 12 421 ATOM_ID_2001
1 0 
