**ABCDEFGHIJKLMNOPQRSTUVWXYZabcdefghijklmnopqrstuvwxyz**************************
**PARASOLID !"#$%&'()*+,-./:;<=>?@[\]^_`{|}~0123456789**************************
**PART1;
MC=AMD64;
MC_MODEL=Intel64 Family 6 Model 158 Stepping 10, GenuineIntel;
MC_ID=unknown;
OS=Windows_NT;
OS_RELEASE=unknown;
FRU=Parasolid Version 31.1, build 290,  3- 9-2020;
APPL=SOLIDWORKS 2020-2020128;
SITE=;
USER=unknown;
FORMAT=text;
GUISE=transmit;
KEY=AerospaceBracket;
FILE=AerospaceBracket.x_t;
DATE=Sun Mar 26 15:26:36 2023;
**PART2;
SCH=SCH_3101290_31100;
USFLD_SIZE=0;
**PART3;
**END_OF_HEADER*****************************************************************
T51 : TRANSMIT FILE created by modeller version 310129023 SCH_3101290_31100_1300
6222 0 10 20 CCCCCCCI4 mesh1006 0 I8 polyline1008 0 CCCCCCCCCCA16 mesh_offset_da
ta206 0 Z1 3 2 3 0 0 0 0 0 0 0 1e3 1e-8 0 0 0 1 0 1 4 0 81 255 1 2 3 5 1 0 0 0 0
 0 70 11 CI9 list_type0 0 1 uI10 notransmit0 0 1 lCCCDCCDI12 finger_index0 0 1 d
I12 finger_block1012 0 CZ3 0 4 T1 0 0 1 20 1 6 6 11 255 4 1 0 1 7 8 1 0 0 0 0 12
 34 CCCCCCI4 mesh1006 0 I8 polyline1008 0 CCCCCCCDI5 owner1040 0 CCCCCCI13 bound
ary_mesh1006 0 I17 boundary_polyline1008 0 CCCA16 index_map_offset0 0 1 dA9 inde
x_map82 0 A17 node_id_index_map82 0 A20 schema_embedding_map82 0 A5 child12 0 A1
4 lowest_node_id0 0 1 dA16 mesh_offset_data206 0 Z7 3042 9 10 0 0 0 0 0 0 1e3 1e
-8 4 11 0 1 0 1 1 12 13 14 15 0 0 16 17 18 0 0 0 0 0 0 0 100 255 8 2 4 0 0 -1170
171704967902e-47 -1 112452107469135e-31 -1 -832667268468868e-31 862816615085482e
-46 -123259516440783e-46 -1124521074691342e-32 -1 .104 .113 .049 1 3 ?81 1 9 304
2 5 7 0 0 0 0 19 70 10 0 4 T7 0 0 3 20 1 20 20 13 255 12 99 0 7 0 21 0 0 22 0 50
 255 13 94 0 23 24 0 0 +.098 .089 .049 -1 -2338953001317045e-31 0 23389530013170
45e-31 -1 0 30 255 14 2310 0 17 25 0 0 +.1011705376890256 .089 .003 0 0 1 29 255
 15 2304 0 18 26 0 .1011705376890256 .089 .003 19 8 CCCCCCCA5 owner12 0 Z16 33 0
 7 22 0 27 V0 16 255 17 2308 0 ?28 0 29 14 0 0 7 18 255 18 2302 0 30 0 31 15 ?7
 17 255 30 0 32 33 34 18 35 36 0 28 -18 31 2025 0 37 18 38 26 ?7 17 37 0 39 40 4
1 31 42 43 0 44 +18 38 1743 0 45 31 46 47 ?7 29 26 2027 0 31 47 15 .094553424595
002 -.089 .003 29 47 1745 0 38 48 26 -.1011705376890256 .089 0 29 48 1457 0 46 4
9 47 -.098 -.085959076548194 .003 18 46 1455 0 50 38 51 48 ?7 29 49 1180 0 51 52
 48 -.098 -.029 .003 18 51 1178 0 53 46 54 49 ?7 29 52 650 0 54 55 49 -.093 .029
 0 18 54 648 0 56 51 57 52 ?7 29 55 510 0 57 58 52 .098 -.029 .003 18 57 508 0 5
9 54 60 55 ?7 29 58 32 0 60 61 55 .098 -.089 .049 18 60 30 0 62 57 63 58 ?7 29 6
1 29 0 63 64 58 -.098 -.089 .049 18 63 27 0 65 60 66 61 ?7 29 64 26 0 66 67 61 -
.098 .089 .049 18 66 24 0 68 63 69 64 ?7 29 67 23 0 69 70 64 .098 .089 .049 18 6
9 21 0 71 66 72 67 ?7 29 70 362 0 72 73 67 -.098 .104 0 18 72 314 0 74 69 75 70
 ?7 29 73 363 0 75 76 70 .098 .104 0 18 75 313 0 77 72 78 73 ?7 29 76 364 0 78 7
9 73 .098 .104 .003 18 78 312 0 80 75 81 76 ?7 29 79 365 0 81 82 76 -.098 .104 .
003 18 81 309 0 83 78 84 79 ?7 29 82 496 0 84 85 79 .113 .089 .003 18 84 448 0 8
6 81 87 82 ?7 29 85 497 0 87 88 82 .113 .089 0 18 87 447 0 89 84 90 85 ?7 29 88
 498 0 90 91 85 .113 .029 0 18 90 446 0 92 87 93 88 ?7 29 91 499 0 93 94 88 .113
 .029 .003 18 93 443 0 95 90 96 91 ?7 29 94 601 0 96 97 91 .113 -.089 0 18 96 55
3 0 98 93 99 94 ?7 29 97 602 0 99 100 94 .113 -.089 .003 18 99 552 0 101 96 102
 97 ?7 29 100 603 0 102 103 97 .113 -.029 .003 18 102 551 0 104 99 105 100 ?7 29
 103 604 0 105 106 100 .113 -.029 0 18 105 548 0 107 102 108 103 ?7 29 106 882 0
 108 109 103 .093 -.029 0 18 108 799 0 110 105 111 106 ?7 29 109 883 0 111 112 1
06 -.093 -.029 0 18 111 788 0 113 108 114 109 ?7 29 112 884 0 114 115 109 .093 .
01217447751927814 .0384541831815269 18 114 801 0 116 111 117 112 ?7 29 115 885 0
 117 118 112 -.093 .0121744775192781 .0384541831815269 18 117 791 0 119 114 120
 115 ?7 29 118 886 0 120 121 115 .093 .029 .03114581517867155 18 120 802 0 122 1
17 123 118 ?7 29 121 887 0 123 124 118 -.093 .029 .03114581517867155 18 123 794
 0 125 120 126 121 ?7 29 124 888 0 126 127 121 .093 .029 0 18 126 786 0 128 123
 129 124 ?7 29 127 890 0 129 130 124 .098 .029 .003 18 129 797 0 131 126 132 127
 ?7 29 130 891 0 133 134 127 .098 -.029 0 18 133 790 0 135 136 137 130 ?7 29 134
 892 0 137 138 130 .098 .01217447751927814 .0384541831815269 18 137 793 0 139 13
3 140 134 ?7 29 138 893 0 140 141 134 .098 .029 .03114581517867155 18 140 796 0
 142 137 143 138 ?7 29 141 895 0 132 144 138 -.098 -.029 0 18 132 789 0 145 129
 146 141 ?7 29 144 896 0 146 147 141 -.098 .0121744775192781 .0384541831815269 1
8 146 792 0 148 132 136 144 ?7 29 147 897 0 136 149 144 -.098 .029 .031145815178
67155 18 136 795 0 150 146 133 147 ?7 29 149 1038 0 143 151 147 -.098 -.104 .003
 18 143 990 0 152 140 153 149 ?7 29 151 1039 0 153 154 149 .098 -.104 .003 18 15
3 988 0 155 143 156 151 ?7 29 154 1040 0 156 157 151 .098 -.104 0 18 156 986 0 1
58 153 159 154 ?7 29 157 1041 0 159 160 154 -.098 -.104 0 18 159 984 0 161 156 1
62 157 ?7 29 160 1162 0 163 164 157 -.098 .029 .003 18 163 1113 0 165 166 167 16
0 ?7 29 164 1166 0 162 168 160 -.113 .029 .003 18 162 1118 0 169 159 170 164 ?7
 29 168 1167 0 170 171 164 -.113 .029 0 18 170 1116 0 172 162 173 168 ?7 29 171
 1168 0 173 174 168 -.113 .089 0 18 173 1114 0 175 170 166 171 ?7 29 174 1169 0
 166 176 171 -.113 .089 .003 18 166 1112 0 177 173 163 174 ?7 29 176 1279 0 167
 178 174 -.113 -.029 0 18 167 1231 0 179 163 180 176 ?7 29 178 1280 0 180 181 17
6 -.113 -.029 .003 18 180 1229 0 182 167 183 178 ?7 29 181 1281 0 183 184 178 -.
113 -.089 .003 18 183 1227 0 185 180 186 181 ?7 29 184 1282 0 186 187 181 -.113
 -.089 0 18 186 1225 0 188 183 189 184 ?7 29 187 1695 0 189 190 184 -.098 -.089
 .048 18 189 1599 0 191 186 192 187 ?7 29 190 1697 0 192 193 187 -.0945534245950
02 -.089 .003 18 192 1605 0 194 189 195 190 ?7 29 193 1698 0 195 196 190 -.09455
34245950019 -.089 .048 18 195 1600 0 197 192 198 193 ?7 29 196 1699 0 198 199 19
3 -.098 -.0923056765146661 .003 18 198 1606 0 200 195 201 196 ?7 29 199 1703 0 2
01 202 196 -.1011705376890258 -.089 .003 18 201 1614 0 203 198 204 199 ?7 29 202
 1704 0 204 205 199 -.098 -.085959076548194 .048 18 204 1602 0 206 201 207 202 ?
7 29 205 1705 0 207 208 202 -.093 -.0811634807375345 .048 18 207 1601 0 209 204
 210 205 ?7 29 208 1707 0 210 211 205 -.0893403080215762 -.084 .048 18 210 1616
 0 212 207 213 208 ?7 29 211 1709 0 213 214 208 -.093 -.0811634807375345 0 18 21
3 1612 0 215 210 216 211 ?7 29 214 1710 0 216 217 211 -.1011705376890258 -.089 0
 18 216 1611 0 218 213 219 214 ?7 29 217 1711 0 219 220 214 -.098 -.092305676514
6661 0 18 219 1607 0 221 216 222 217 ?7 29 220 1712 0 222 223 217 -.089340308021
5762 -.084 0 18 222 1609 0 224 219 225 220 ?7 29 223 1981 0 225 226 220 -.098 .0
89 .048 18 225 1886 0 227 222 228 223 ?7 29 226 1983 0 228 229 223 -.09455342459
5002 .089 .003 18 228 1898 0 230 225 231 226 ?7 29 229 1984 0 231 232 226 -.0945
53424595002 .089 .048 18 231 1887 0 233 228 234 229 ?7 29 232 1987 0 234 235 229
 -.098 .0859590765481939 .003 18 234 1893 0 236 231 237 232 ?7 29 235 1988 0 237
 238 232 -.098 .085959076548194 .048 18 237 1884 0 239 234 240 235 ?7 29 238 198
9 0 240 241 235 -.098 .0923056765146661 .003 18 240 1899 0 242 237 243 238 ?7 29
 241 1990 0 243 244 238 -.1011705376890258 .089 .003 18 243 1894 0 245 240 246 2
41 ?7 29 244 1992 0 246 247 241 -.093 .0811634807375345 .048 18 246 1901 0 248 2
43 249 244 ?7 29 247 1993 0 249 250 244 -.0893403080215762 .084 .048 18 249 1885
 0 251 246 252 247 ?7 29 250 1995 0 252 253 247 -.0893403080215762 .084 0 18 252
 1892 0 254 249 255 250 ?7 29 253 1996 0 255 256 250 -.098 .0923056765146661 0 1
8 255 1891 0 257 252 258 253 ?7 29 256 1998 0 258 259 253 -.093 .081163480737534
5 0 18 258 1890 0 260 255 261 256 ?7 29 259 2262 0 261 262 256 .098 -.089 .048 1
8 261 2166 0 263 258 264 259 ?7 29 262 2264 0 264 265 259 .098 -.085959076548194
 .003 18 264 2172 0 266 261 267 262 ?7 29 265 2265 0 267 268 262 .098 -.08595907
6548194 .048 18 267 2167 0 269 264 270 265 ?7 29 268 2268 0 270 271 265 .1011705
376890258 -.089 .003 18 270 2173 0 272 267 273 268 ?7 29 271 2270 0 273 274 268
 .094553424595002 -.089 .048 18 273 2170 0 275 270 276 271 ?7 29 274 2271 0 276
 277 271 .098 -.0923056765146661 .003 18 276 2182 0 40 273 278 274 ?7 29 277 227
3 0 278 279 274 .093 -.0811634807375345 .048 18 278 2183 0 280 276 281 277 ?7 29
 279 2274 0 281 282 277 .0893403080215762 -.084 .048 18 281 2169 0 283 278 284 2
79 ?7 29 282 2276 0 284 285 279 .0893403080215762 -.084 0 18 284 2178 0 286 281
 287 282 ?7 29 285 2277 0 287 288 282 .098 -.0923056765146661 0 18 287 2176 0 28
9 284 290 285 ?7 29 288 2278 0 290 291 285 .1011705376890258 -.089 0 18 290 2179
 0 292 287 293 288 ?7 29 291 2279 0 293 294 288 .093 -.0811634807375345 0 18 293
 2174 0 295 290 296 291 ?7 29 294 2540 0 296 297 291 .098 .089 .048 18 296 2442
 0 298 293 299 294 ?7 29 297 2542 0 299 300 294 .094553424595002 .089 .003 18 29
9 2448 0 301 296 302 297 ?7 29 300 2543 0 302 303 297 .094553424595002 .089 .048
 18 302 2443 0 304 299 305 300 ?7 29 303 2544 0 305 306 300 .098 .08595907654819
39 .003 18 305 2455 0 34 302 307 303 ?7 29 306 2545 0 307 308 303 .098 .08595907
6548194 .048 18 307 2445 0 309 305 310 306 ?7 29 308 2546 0 310 311 306 .098 .09
23056765146661 .003 18 310 2449 0 312 307 313 308 ?7 29 311 2550 0 313 314 308 .
093 .0811634807375345 .048 18 313 2444 0 315 310 316 311 ?7 29 314 2552 0 316 31
7 311 .0893403080215762 .084 .048 18 316 2459 0 318 313 319 314 ?7 29 317 2554 0
 319 320 314 .093 .0811634807375345 0 18 319 2454 0 321 316 322 317 ?7 29 320 25
55 0 322 323 317 .1011705376890258 .089 0 18 322 2457 0 33 319 324 320 ?7 29 323
 2556 0 324 325 320 .098 .0923056765146661 0 18 324 2450 0 326 322 327 323 ?7 29
 325 2557 0 327 0 323 .0893403080215762 .084 0 18 327 2452 0 328 324 0 325 ?7 17
 328 0 329 326 318 327 330 331 0 332 +15 255 329 2473 0 318 333 0 17 326 0 329 3
12 328 324 332 334 0 335 +17 318 0 329 328 304 316 336 337 0 330 +17 330 0 338 3
39 340 316 328 331 0 341 -16 331 2432 0 ?328 342 343 344 0 0 7 17 332 0 345 346
 347 327 326 334 0 340 -15 345 1798 0 347 348 0 17 346 0 345 349 332 252 340 350
 0 0 -17 347 0 345 332 351 324 77 352 0 0 -16 334 2424 0 ?326 343 0 353 0 0 7 17
 340 0 338 330 354 327 346 350 0 0 +15 338 1790 0 340 355 0 17 354 0 338 340 339
 252 356 357 0 346 +16 350 1784 0 ?340 358 359 360 0 0 7 16 358 2336 0 ?280 361
 350 362 0 0 7 16 359 1497 0 ?113 350 363 364 363 363 7 30 360 232 0 350 364 365
 0 +-.093 .084 0 1 0 0 30 364 233 0 359 366 360 0 +-.093 -.084 0 0 1 0 30 365 7
 0 367 360 368 0 +.098 .089 .049 -2338953001317045e-31 1 0 16 367 5 0 ?369 370 3
71 365 0 0 7 30 368 11 0 370 365 372 0 +-.098 .089 .049 -1 0 0 16 370 9 0 ?68 37
3 367 368 0 0 7 30 372 15 0 373 368 374 0 +-.098 .089 .049 155930200087803e-30 -
1 0 16 373 13 0 ?65 375 370 372 0 0 7 30 374 19 0 375 372 376 0 +-.098 -.089 .04
9 1 0 0 16 375 17 0 ?62 377 373 374 0 0 7 30 376 74 0 352 374 378 0 +.098 .089 0
 -2338953001317045e-31 1 0 16 352 2321 0 ?77 379 380 376 0 0 7 30 378 72 0 381 3
76 382 0 +-.098 .089 0 155930200087803e-30 -1 0 16 381 54 0 ?383 371 379 378 379
 379 7 30 382 71 0 371 378 384 0 +-.098 -.089 0 1 0 0 16 371 2075 0 ?98 367 381
 382 0 0 7 30 384 95 0 377 382 385 0 +.098 -.089 .049 0 0 -1 16 377 79 0 ?386 38
7 375 384 0 0 7 30 385 96 0 387 384 388 0 +-.098 -.089 .049 0 0 -1 16 387 80 0 ?
389 390 377 385 0 0 7 30 388 97 0 390 385 391 0 +-.098 .089 .049 0 0 -1 16 390 8
1 0 ?392 393 387 388 0 0 7 30 391 98 0 393 388 394 0 +.098 .089 .049 0 0 -1 16 3
93 82 0 ?395 396 390 391 0 0 7 30 394 654 0 396 391 397 0 +-.093 .029 .048 0 -11
13936794413868e-31 -1 16 396 652 0 ?398 399 393 394 0 0 7 31 255 397 658 0 399 3
94 400 0 +-.093 .019 .03114581517867155 -1 0 0 0 0 1 .01 16 399 656 0 ?401 402 3
96 397 0 0 7 30 400 661 0 402 397 403 0 +-.093 -.03443268712741675 -.00507376313
07597 0 .730836800285537 .682552248072188 16 402 659 0 ?404 405 399 400 0 0 7 31
 403 1326 0 406 400 407 0 +0 0 .049 0 0 1 1 0 0 .02 16 406 1338 0 ?408 409 410 4
03 0 0 7 30 407 1463 0 405 403 411 0 +-.1073320061838256 -.0949095825002346 .003
 -.721704832992245 -.692200934726063 -500323838150997e-32 16 405 1461 0 ?203 412
 402 407 0 0 7 30 411 1482 0 412 407 413 0 +-.1038420719052378 -.097908919625532
1 .003 .721704832992244 .692200934726064 0 16 412 1480 0 ?194 414 405 411 0 0 7
 30 413 1751 0 414 411 415 0 +-.1011705376890256 .089 .003 0 0 -1 16 414 1749 0
 ?416 417 412 413 0 0 7 30 415 1769 0 417 413 418 0 +-.1038420719052378 .0979089
196255321 .003 -.721704832992244 .692200934726064 0 16 417 1767 0 ?242 419 414 4
15 0 0 7 30 418 2030 0 419 415 25 0 +.001753930176222605 577333320364581e-20 .00
3 -.721704832992244 .692200934726064 0 16 419 2028 0 ?44 29 417 418 0 0 7 30 25
 2049 0 29 418 14 0 +.1073320061838256 -.0949095825002346 .003 -.721704832992245
 .692200934726063 500323838150997e-32 16 29 2047 0 ?266 17 419 25 0 0 7 17 266 0
 420 269 272 264 421 29 0 422 +15 420 2197 0 269 423 0 17 269 0 420 424 266 267
 422 425 0 426 +17 272 0 420 266 292 270 427 428 0 421 -17 421 0 429 430 431 270
 266 29 0 432 -17 422 0 433 59 434 264 269 425 0 431 -15 433 2090 0 435 436 0 17
 59 0 433 437 422 57 431 438 0 439 -17 434 0 433 422 386 267 263 440 0 0 -16 425
 2148 0 ?269 440 43 441 0 0 7 17 431 0 429 421 442 264 59 438 0 0 +15 429 2048 0
 421 443 0 17 442 0 429 431 444 57 445 446 0 0 +16 438 527 0 ?431 447 448 449 0
 0 7 16 447 535 0 ?450 451 438 452 0 0 7 16 448 523 0 ?439 438 453 454 0 0 7 30
 449 590 0 438 454 455 0 +.098 -.089 .003 462592926927149e-30 -1 -72280144832367
e-31 30 454 591 0 448 456 449 0 +.098 -.029 0 0 0 1 30 455 587 0 457 449 458 0 +
.113 -.089 .003 -1 -2338953001317045e-31 0 16 457 534 0 ?432 446 459 455 0 0 7 3
0 458 586 0 446 455 460 0 +.113 -.029 .003 -1 -2338953001317045e-31 0 16 446 530
 0 ?442 461 457 458 0 0 7 30 460 585 0 461 458 462 0 +.113 -.029 0 -1 -233895300
1317045e-31 0 16 461 526 0 ?463 464 446 460 0 0 7 30 462 491 0 465 460 466 0 +.1
13 .089 .003 462592926927149e-30 -1 -122876246215024e-30 16 465 430 0 ?467 468 4
64 462 0 0 7 30 466 490 0 468 462 469 0 +.113 .029 .003 0 0 -1 16 468 433 0 ?92
 470 465 466 0 0 7 30 469 489 0 470 466 471 0 +.113 .089 0 -462592926927149e-30
 1 0 16 470 436 0 ?89 472 468 469 0 0 7 30 471 488 0 472 469 473 0 +.113 .089 .0
03 0 0 1 16 472 439 0 ?86 474 470 471 0 0 7 30 473 487 0 464 471 475 0 +.098 .08
9 .003 462592926927149e-30 -1 -122876246215024e-30 16 464 2314 0 ?131 465 461 47
3 0 0 7 30 475 483 0 474 473 476 0 +.113 .089 .003 -1 -2338953001317045e-31 0 16
 474 417 0 ?477 478 472 475 0 0 7 30 476 482 0 478 475 479 0 +.113 .089 0 -1 -23
38953001317045e-31 0 16 478 429 0 ?480 481 474 476 0 0 7 30 479 481 0 481 476 48
2 0 +.113 .029 0 -1 -2338953001317045e-31 0 16 481 425 0 ?483 484 478 479 0 0 7
 30 482 480 0 484 479 485 0 +.113 .029 .003 -1 -2338953001317045e-31 0 16 484 42
1 0 ?486 487 481 482 0 0 7 30 485 357 0 488 482 489 0 +-.098 .104 0 0 0 1 16 488
 296 0 ?490 491 487 485 0 0 7 30 489 356 0 491 485 492 0 +-.098 .104 .003 1 0 0
 16 491 299 0 ?80 493 488 489 0 0 7 30 492 355 0 493 489 494 0 +.098 .104 0 0 0
 -1 16 493 302 0 ?495 496 491 492 0 0 7 30 494 354 0 496 492 497 0 +-.098 .104 0
 -1 0 0 16 496 305 0 ?498 499 493 494 0 0 7 30 497 352 0 487 494 500 0 +-.098 .0
89 .003 1 0 0 16 487 1762 0 ?501 488 484 497 0 0 7 30 500 347 0 499 497 502 0 +.
098 .104 .003 0 -1 0 16 499 291 0 ?503 504 496 500 0 0 7 30 502 346 0 504 500 36
2 0 +-.098 .104 .003 0 -1 0 16 504 287 0 ?505 506 499 502 0 0 7 30 362 239 0 358
 502 507 0 +.093 -.084 .048 0 -1 0 30 507 238 0 361 362 508 0 +-.093 -.084 .048
 -1 0 0 16 361 2056 0 ?212 509 358 507 0 0 7 30 508 237 0 509 507 510 0 +-.093 -
.084 .048 0 1 0 16 509 1500 0 ?511 380 361 508 0 0 7 30 510 236 0 380 508 512 0
 +-.093 .084 .048 1 0 0 16 380 1787 0 ?341 352 509 510 0 0 7 30 512 235 0 513 51
0 366 0 +.093 -.084 0 0 -1 0 16 513 2362 0 ?128 514 506 512 506 506 7 30 366 234
 0 514 512 364 0 +-.093 -.084 0 -1 0 0 16 514 2053 0 ?224 363 513 366 0 0 7 17 2
24 0 515 516 517 222 518 514 0 519 +16 363 649 0 ?520 359 514 364 359 359 7 17 5
20 0 521 522 398 258 523 363 0 0 +15 521 1779 0 522 524 0 17 522 0 521 525 520 2
46 260 526 0 511 -17 398 0 521 520 401 54 125 396 0 523 +17 523 0 527 172 528 54
 520 363 0 0 -15 527 1807 0 528 529 0 17 172 0 527 530 523 170 56 531 0 532 -17
 528 0 527 523 533 258 45 534 0 520 +17 533 0 527 528 530 38 175 535 0 0 +17 45
 0 536 245 260 38 528 534 0 416 -16 534 1860 0 ?528 537 538 539 0 0 7 16 537 185
2 0 ?349 526 534 540 0 0 7 16 538 2131 0 ?275 534 440 541 0 0 7 30 539 1976 0 53
4 542 540 0 +-.1011705376890258 .089 0 .721704832992245 -.692200934726063 0 30 5
42 1979 0 543 541 539 0 +-.0893403080215762 .084 .048 .721704832992244 -.6922009
34726064 0 30 540 1974 0 537 539 544 0 +-.0893403080215762 .084 0 -.721704832992
244 .692200934726064 0 30 544 1973 0 357 540 545 0 +-.0893403080215762 .084 .064
2512418208743 0 0 -1 16 357 1851 0 ?354 546 547 544 0 0 7 30 545 1972 0 547 544
 548 0 +-.098 .0923056765146661 .0642512418208743 0 0 -1 16 547 1870 0 ?257 357
 526 545 0 0 7 30 548 1970 0 526 545 549 0 +-.093 .0811634807375345 .06425124182
08743 0 0 -1 16 526 1878 0 ?260 547 537 548 0 0 7 30 549 1969 0 546 548 550 0 +-
.1011705376890258 .089 .048 -.721704832992245 .692200934726063 0 16 546 1863 0 ?
551 543 357 549 0 0 7 30 550 1968 0 552 549 553 0 +-.1073320061838256 .094909582
5002346 .003 -.721704832992245 .692200934726063 850550524856694e-31 16 552 1858
 0 ?554 555 543 550 0 0 7 30 553 1967 0 555 550 556 0 +-.098 .085959076548194 .0
49 0 0 1 16 555 1865 0 ?239 557 552 553 0 0 7 30 556 1962 0 557 553 558 0 +-.094
553424595002 .089 .049 0 0 -1 16 557 1875 0 ?230 559 555 556 0 0 7 30 558 1959 0
 559 556 560 0 +-.098 .089 .048 1 0 0 16 559 1849 0 ?233 561 557 558 0 0 7 30 56
0 1958 0 561 558 562 0 +-.098 .089 .048 -155930200087803e-30 1 0 16 561 1848 0 ?
227 563 559 560 0 0 7 30 562 1693 0 564 560 565 0 +-.1011705376890258 -.089 .048
 -.721704832992245 -.692200934726063 0 16 564 1564 0 ?566 567 568 562 0 0 7 30 5
65 1690 0 563 562 569 0 +-.0893403080215762 -.084 0 -.721704832992244 -.69220093
4726064 0 16 563 1577 0 ?221 570 561 565 0 0 7 30 569 1688 0 570 565 571 0 +-.10
11705376890258 -.089 0 .721704832992245 .692200934726063 0 16 570 1572 0 ?215 57
2 563 569 0 0 7 30 571 1687 0 568 569 573 0 +-.093 -.0811634807375345 .064251241
8208743 0 0 -1 16 568 1585 0 ?574 564 575 571 0 0 7 30 573 1686 0 575 571 576 0
 +-.1011705376890258 -.089 .0642512418208743 0 0 -1 16 575 1589 0 ?218 568 577 5
73 0 0 7 30 576 1685 0 577 573 578 0 +-.098 -.0923056765146661 .0642512418208743
 0 0 -1 16 577 1571 0 ?579 575 572 576 0 0 7 30 578 1684 0 572 576 580 0 +-.0893
403080215762 -.084 .0642512418208743 0 0 -1 16 572 1586 0 ?519 577 570 578 0 0 7
 30 580 1683 0 567 578 581 0 +-.0893403080215762 -.084 .048 .721704832992244 .69
2200934726064 0 16 567 1563 0 ?582 583 564 580 0 0 7 30 581 1682 0 583 580 584 0
 +-.098 -.085959076548194 .049 0 0 1 16 583 1584 0 ?585 586 567 581 0 0 7 30 584
 1677 0 586 581 587 0 +-.0945534245950019 -.089 .049 0 0 -1 16 586 1570 0 ?588 5
89 583 584 0 0 7 30 587 1674 0 589 584 590 0 +-.098 -.089 .048 -1 0 0 16 589 156
5 0 ?191 591 586 587 0 0 7 30 590 1673 0 591 587 592 0 +-.098 .089 .048 -1559302
00087803e-30 1 0 16 591 1566 0 ?206 593 589 590 0 0 7 31 592 1425 0 593 590 594
 0 +0 0 .043 0 0 -1 -1 0 0 .02 16 593 1395 0 ?595 596 591 592 0 0 7 31 594 1423
 0 410 592 597 0 +0 0 .043 0 0 -1 -1 0 0 .024 16 410 1386 0 ?598 406 596 594 0 0
 7 31 597 1422 0 596 594 599 0 +0 0 .048 0 0 -1 -1 0 0 .024 16 596 1392 0 ?600 4
10 593 597 0 0 7 30 599 1274 0 601 597 602 0 +-.113 -.089 0 462592926927149e-30
 1 0 16 601 1197 0 ?603 604 605 599 0 0 7 30 602 1273 0 604 599 606 0 +-.113 -.0
89 0 0 0 -1 16 604 1201 0 ?607 608 601 602 0 0 7 30 606 1272 0 608 602 609 0 +-.
113 -.089 .003 -462592926927149e-30 -1 -72280144832367e-31 16 608 1205 0 ?610 61
1 604 606 0 0 7 30 609 1271 0 611 606 612 0 +-.113 -.029 0 0 0 1 16 611 1209 0 ?
613 614 608 609 0 0 7 30 612 1268 0 409 609 615 0 +-.098 -.089 .003 -46259292692
7149e-30 -1 -72280144832367e-31 16 409 1219 0 ?616 605 406 612 0 0 7 30 615 1267
 0 605 612 617 0 +-.098 -.029 0 0 0 1 16 605 1216 0 ?53 601 409 615 0 0 7 30 617
 1266 0 614 615 618 0 +-.113 -.029 0 1 -2338953001317045e-31 0 16 614 1200 0 ?61
9 620 611 617 0 0 7 30 618 1265 0 620 617 621 0 +-.113 -.029 .003 1 -23389530013
17045e-31 0 16 620 1212 0 ?622 623 614 618 0 0 7 30 621 1264 0 623 618 624 0 +-.
113 -.089 .003 1 -2338953001317045e-31 0 16 623 1208 0 ?625 626 620 621 0 0 7 30
 624 1263 0 626 621 627 0 +-.113 -.089 0 1 -2338953001317045e-31 0 16 626 1204 0
 ?628 629 623 624 0 0 7 30 627 1161 0 630 624 631 0 +-.113 .089 .003 -4625929269
27149e-30 -1 -122876246215024e-30 16 630 1084 0 ?632 633 629 627 0 0 7 30 631 11
60 0 633 627 634 0 +-.113 .089 .003 0 0 1 16 633 1088 0 ?635 636 630 631 0 0 7 3
0 634 1159 0 636 631 637 0 +-.113 .089 0 462592926927149e-30 1 0 16 636 1092 0 ?
530 638 633 634 0 0 7 30 637 1158 0 638 634 639 0 +-.113 .029 .003 0 0 -1 16 638
 1096 0 ?640 641 636 637 0 0 7 30 639 1157 0 629 637 642 0 +-.098 .089 .003 -462
592926927149e-30 -1 -122876246215024e-30 16 629 1755 0 ?165 630 626 639 0 0 7 30
 642 1153 0 641 639 643 0 +-.113 .029 .003 1 -2338953001317045e-31 0 16 641 1087
 0 ?644 535 638 642 0 0 7 30 643 1151 0 535 642 645 0 +-.113 .089 0 1 -233895300
1317045e-31 0 16 535 1095 0 ?533 646 641 643 0 0 7 30 645 1150 0 646 643 647 0 +
-.113 .089 .003 1 -2338953001317045e-31 0 16 646 1091 0 ?648 649 535 645 0 0 7 3
0 647 1033 0 650 645 651 0 +-.098 -.104 0 0 0 1 16 650 956 0 ?652 653 649 647 0
 0 7 30 651 1032 0 653 647 654 0 +-.098 -.104 0 -1 0 0 16 653 960 0 ?655 656 650
 651 0 0 7 30 654 1031 0 656 651 657 0 +.098 -.104 0 0 0 -1 16 656 964 0 ?658 65
9 653 654 0 0 7 30 657 1030 0 659 654 660 0 +-.098 -.104 .003 1 0 0 16 659 968 0
 ?661 662 656 657 0 0 7 30 660 1026 0 649 657 663 0 +-.098 -.089 .003 1 0 0 16 6
49 1475 0 ?664 650 646 660 0 0 7 30 663 1025 0 662 660 665 0 +-.098 -.104 .003 0
 1 0 16 662 959 0 ?666 667 659 663 0 0 7 30 665 1024 0 667 663 668 0 +.098 -.104
 .003 0 1 0 16 667 971 0 ?669 670 662 665 0 0 7 30 668 1023 0 670 665 671 0 +.09
8 -.104 0 0 1 0 16 670 967 0 ?672 673 667 668 0 0 7 30 671 880 0 674 668 675 0 +
-.098 .029 0 0 1113936794413868e-31 1 16 674 1069 0 ?150 676 677 671 0 0 7 31 67
5 879 0 676 671 678 0 +-.098 .019 .03114581517867155 1 2338953001317045e-31 0 23
38953001317045e-31 -1 0 .01 16 676 757 0 ?679 680 674 675 0 0 7 30 678 878 0 680
 675 681 0 +-.098 .0121744775192781 .0384541831815269 0 -.730836800285537 -.6825
52248072188 16 680 750 0 ?682 531 676 678 0 0 7 30 681 876 0 673 678 683 0 +.098
 .029 0 0 1113936794413868e-31 1 16 673 777 0 ?684 685 670 681 0 0 7 31 683 875
 0 685 681 686 0 +.098 .019 .03114581517867155 1 2338953001317045e-31 0 23389530
01317045e-31 -1 0 .01 16 685 780 0 ?687 677 673 683 0 0 7 30 686 874 0 677 683 6
88 0 +.098 .01217447751927814 .0384541831815269 0 -.730836800285537 -.6825522480
72188 16 677 783 0 ?135 674 685 686 0 0 7 30 688 873 0 689 686 690 0 +-.098 -.02
9 0 1 2338953001317045e-31 0 16 689 748 0 ?691 692 693 688 693 693 7 30 690 872
 0 694 688 695 0 +-.098 .0121744775192781 .0384541831815269 1 2338953001317045e-
31 0 16 694 755 0 ?696 693 697 690 697 697 7 30 695 871 0 698 690 699 0 +-.098 .
029 .03114581517867155 1 2338953001317045e-31 0 16 698 762 0 ?700 697 701 695 70
1 701 7 30 699 870 0 531 695 702 0 +-.098 .029 0 1 2338953001317045e-31 0 16 531
 741 0 ?56 701 680 699 0 0 7 30 702 869 0 692 699 703 0 +.093 .029 .048 0 111393
6794413868e-31 1 16 692 760 0 ?704 705 689 702 0 0 7 31 703 868 0 705 702 706 0
 +.093 .019 .03114581517867155 1 0 0 0 0 -1 .01 16 705 753 0 ?707 453 692 703 0
 0 7 30 706 867 0 453 703 452 0 +.093 -.03443268712741675 -.00507376313075972 0
 -.730836800285537 -.682552248072188 16 453 746 0 ?708 448 705 706 0 0 7 30 452
 596 0 447 706 709 0 +.113 -.089 0 -462592926927149e-30 1 0 30 709 595 0 451 452
 710 0 +.113 -.029 0 0 0 1 16 451 538 0 ?104 711 447 709 0 0 7 30 710 594 0 711
 709 456 0 +.113 -.089 .003 462592926927149e-30 -1 -72280144832367e-31 16 711 54
1 0 ?101 459 451 710 0 0 7 30 456 593 0 459 710 454 0 +.113 -.089 0 0 0 -1 16 45
9 544 0 ?712 457 711 456 0 0 7 17 712 0 713 450 101 96 714 459 0 715 +15 713 573
 0 450 716 0 17 450 0 713 104 712 105 715 447 0 717 +17 101 0 713 712 104 99 444
 711 0 430 +17 714 0 718 432 98 99 712 459 0 0 -17 715 0 719 720 717 96 450 447
 0 0 -15 719 2105 0 721 722 0 17 720 0 719 721 715 290 98 371 0 0 -17 717 0 719
 715 723 105 463 461 0 0 -17 723 0 719 717 724 133 110 693 0 437 +17 463 0 725 4
39 107 133 717 461 0 0 +15 725 562 0 439 726 0 17 439 0 725 445 463 57 437 448 0
 442 +17 107 0 725 463 445 105 104 451 0 450 -17 445 0 725 107 439 102 442 446 0
 444 -17 104 0 713 101 450 102 107 451 0 445 +17 444 0 429 442 430 102 101 711 0
 0 -17 430 0 429 444 421 99 432 457 0 714 -17 432 0 718 427 714 270 430 457 0 0
 +15 718 2078 0 427 727 0 17 427 0 718 98 432 290 272 428 0 720 +17 98 0 718 714
 427 96 720 371 0 712 +16 428 2132 0 ?427 728 729 730 0 0 7 16 728 2153 0 ?289 7
31 428 732 0 0 7 16 729 2160 0 ?295 428 733 734 0 0 7 30 730 2252 0 428 732 734
 0 +.1011705376890258 -.089 .0642512418208743 0 0 -1 30 732 2253 0 728 735 730 0
 +.098 -.0923056765146661 .0642512418208743 0 0 -1 30 734 2251 0 729 730 736 0 +
.093 -.0811634807375345 .0642512418208743 0 0 -1 30 736 2250 0 737 734 738 0 +.1
011705376890258 -.089 .048 .721704832992245 -.692200934726063 0 16 737 2136 0 ?4
26 739 731 736 0 0 7 30 738 2249 0 43 736 441 0 +.0945534245950019 -.089 .049 0
 0 -1 16 43 2158 0 ?37 425 739 738 0 0 7 30 441 2244 0 425 738 740 0 +.098 -.085
959076548194 .049 0 0 1 30 740 2241 0 440 441 541 0 +.098 .089 .048 233895300131
7045e-31 -1 0 16 440 2130 0 ?263 538 425 740 0 0 7 30 541 2240 0 538 740 542 0 +
-.098 -.089 .048 -1 0 0 17 263 0 741 275 426 261 434 440 0 742 +15 741 2564 0 25
1 743 744 17 275 0 741 283 263 273 742 538 0 41 +17 426 0 741 263 280 267 424 73
7 0 434 +17 742 0 745 746 42 261 275 538 0 386 -15 745 2118 0 42 747 0 17 746 0
 745 748 742 60 386 377 0 749 -17 42 0 745 742 664 273 37 43 0 0 -17 386 0 433 4
34 749 261 746 377 0 0 +17 749 0 433 386 750 60 369 367 0 0 -17 750 0 433 749 75
1 69 395 393 0 0 -17 369 0 752 68 62 69 749 367 0 750 +15 752 4 0 369 753 0 17 6
8 0 752 65 369 66 71 370 0 754 +17 62 0 752 369 65 60 748 375 0 746 +17 65 0 752
 62 68 63 755 373 0 756 +17 748 0 745 389 746 63 62 375 0 0 -17 389 0 745 757 74
8 189 756 387 0 0 +17 757 0 745 588 389 195 191 589 0 0 -17 756 0 758 755 759 63
 389 387 0 748 -15 758 1836 0 760 761 0 17 755 0 758 392 756 66 65 373 0 0 -17 7
59 0 758 756 585 189 206 591 0 389 -17 585 0 758 759 616 204 50 583 0 0 +17 206
 0 741 209 191 204 759 591 0 566 +17 209 0 741 511 206 207 566 564 0 762 -17 191
 0 741 206 763 189 757 589 0 759 +17 566 0 764 50 762 204 209 564 0 585 +15 764
 1640 0 203 765 0 17 50 0 764 203 566 46 585 583 0 766 -17 762 0 764 566 215 207
 574 568 0 525 -17 215 0 764 762 218 213 767 570 0 574 +17 574 0 521 113 525 213
 762 568 0 768 +17 525 0 521 574 522 207 511 509 0 0 -17 511 0 741 551 209 246 5
25 509 0 0 +17 551 0 741 227 511 237 248 546 0 769 +17 227 0 741 233 551 225 769
 561 0 770 +17 248 0 536 260 239 246 551 546 0 522 -17 769 0 758 760 392 237 227
 561 0 0 -17 760 0 758 165 769 234 239 555 0 771 -17 392 0 758 769 755 225 754 3
90 0 0 +17 754 0 772 71 770 66 392 390 0 755 -15 772 1829 0 773 774 0 17 71 0 77
2 395 754 69 68 370 0 369 -17 770 0 772 754 775 225 233 559 0 392 -17 775 0 772
 770 776 231 230 557 0 0 -17 233 0 741 251 227 231 770 559 0 777 +17 251 0 741 3
41 233 249 777 543 0 356 +17 777 0 778 230 356 231 251 543 0 775 -15 778 1915 0
 230 779 0 17 230 0 778 242 777 228 775 557 0 780 +17 356 0 778 777 254 249 354
 357 0 339 -16 543 1850 0 ?251 552 546 542 0 0 7 17 254 0 778 356 257 252 349 53
7 0 354 -17 339 0 338 354 330 249 341 380 0 0 -17 341 0 741 336 251 316 339 380
 0 0 +17 336 0 741 298 341 302 318 337 0 773 -17 298 0 741 309 336 296 773 781 0
 751 +16 337 2406 0 ?318 36 782 783 0 0 7 17 773 0 772 784 395 302 298 781 0 0 -
17 784 0 772 776 773 299 304 785 0 501 +17 395 0 772 773 71 296 750 393 0 0 +16
 781 2408 0 ?298 786 785 787 0 0 7 16 786 2409 0 ?309 788 781 789 0 0 7 16 785 2
413 0 ?784 781 790 791 0 0 7 30 787 2517 0 781 791 789 0 +-.098 .089 .048 1 0 0
 30 791 2520 0 785 792 787 0 +.094553424595002 .089 .049 0 0 -1 30 789 2516 0 78
6 787 793 0 +.098 .089 .048 2338953001317045e-31 -1 0 30 793 2260 0 739 789 794
 0 +.0893403080215762 -.084 .048 -.721704832992244 .692200934726064 0 16 739 214
0 0 ?283 43 737 793 0 0 7 30 794 2257 0 788 793 795 0 +.1011705376890258 -.089 0
 -.721704832992245 .692200934726063 0 16 788 2133 0 ?721 733 786 794 0 0 7 30 79
5 2255 0 733 794 735 0 +.0893403080215762 -.084 0 .721704832992244 -.69220093472
6064 0 16 733 2142 0 ?796 729 788 795 0 0 7 30 735 2254 0 731 795 732 0 +.089340
3080215762 -.084 .0642512418208743 0 0 -1 16 731 2141 0 ?517 737 728 735 0 0 7 1
7 517 0 515 224 797 284 798 731 0 518 +15 515 2059 0 517 799 0 17 797 0 515 517
 516 281 212 361 0 0 -17 798 0 39 41 286 281 517 731 0 797 -17 518 0 800 796 801
 284 224 514 0 0 -15 800 2095 0 796 802 0 17 796 0 800 158 518 287 286 733 0 672
 +17 801 0 800 518 803 222 221 563 0 0 -17 803 0 800 801 655 219 161 379 0 0 -17
 221 0 804 200 519 219 801 563 0 579 +15 804 1630 0 582 805 0 17 200 0 804 194 2
21 198 579 577 0 806 -17 519 0 804 221 582 222 516 572 0 801 +17 579 0 807 161 6
66 219 200 577 0 803 +15 807 1183 0 666 808 0 17 161 0 807 652 579 159 803 379 0
 809 +17 666 0 807 579 652 198 152 662 0 0 +17 652 0 807 666 161 143 809 650 0 8
10 +17 152 0 811 661 806 143 666 662 0 652 -15 811 1481 0 669 812 0 17 661 0 811
 669 152 153 810 659 0 0 +17 806 0 811 152 813 198 194 412 0 666 -17 813 0 811 8
06 44 192 664 649 0 0 -17 194 0 804 197 200 192 806 412 0 588 +17 197 0 804 582
 194 195 588 586 0 763 -17 588 0 745 664 757 192 197 586 0 813 +17 664 0 745 42
 588 31 813 649 0 0 +17 582 0 804 519 197 210 763 567 0 516 +17 763 0 741 191 21
2 195 582 567 0 757 -17 212 0 741 763 283 210 797 361 0 582 +17 283 0 741 212 27
5 281 41 739 0 798 +17 41 0 39 37 798 273 283 739 0 42 -15 39 2207 0 37 814 0 14
 255 814 2204 815 ?333 423 39 12 816 +0 0 333 423 27 81 1 815 3039 817 814 818 0
 819 820 821 14 333 2470 820 ?822 814 329 12 823 -0 0 822 814 27 14 423 2194 819
 ?814 824 420 12 825 +0 0 814 824 27 50 816 2237 0 814 823 825 0 +.0893403080215
762 -.084 .0642512418208743 .692200934726064 .721704832992244 0 -.72170483299224
4 .692200934726064 0 13 27 34 0 0 0 0 0 0 16 21 14 21 2367 826 ?747 0 827 12 828
 -722 529 747 0 27 81 1 826 2987 817 21 829 0 0 830 831 14 747 2119 830 ?722 21
 745 12 832 -727 727 722 21 27 15 827 2365 0 833 21 0 50 828 70 0 529 834 832 0
 +0 0 0 0 0 1 1 0 0 14 722 2107 835 ?802 747 719 12 828 -802 21 802 747 27 14 52
9 1809 836 ?348 837 527 12 828 -21 838 348 837 27 81 1 836 3001 817 529 839 0 84
0 841 842 14 348 1800 841 ?355 529 345 12 828 -838 802 355 529 27 14 837 1818 84
0 ?529 774 843 12 844 -808 761 529 774 27 14 838 1513 845 ?743 846 847 12 828 -5
29 348 743 846 27 81 1 845 3008 817 838 848 0 849 850 851 14 743 1383 850 ?808 8
38 741 12 852 +0 0 808 838 27 14 846 1752 849 ?838 853 854 12 855 +0 0 838 853 2
7 15 847 1511 0 768 838 0 17 768 0 847 767 691 213 113 359 0 0 -17 767 0 847 188
 768 216 215 570 0 628 -17 691 0 847 768 619 111 145 689 0 0 +17 113 0 521 404 5
74 111 768 359 0 856 +17 404 0 521 401 113 117 856 402 0 0 +17 856 0 857 145 696
 111 404 402 0 691 -15 857 818 0 145 858 0 17 145 0 857 859 856 132 691 689 0 68
2 -17 696 0 857 856 859 117 148 694 0 404 +17 859 0 857 696 145 146 682 680 0 67
9 -17 148 0 860 861 119 146 696 694 0 859 -15 860 826 0 148 862 0 17 861 0 860 7
00 148 136 679 676 0 0 -17 119 0 860 148 700 117 401 399 0 696 -17 700 0 860 119
 861 123 863 698 0 401 +17 401 0 521 398 404 123 119 399 0 0 +17 863 0 864 865 1
25 136 700 698 0 861 -15 864 834 0 863 866 0 17 865 0 864 169 863 163 150 674 0
 0 -17 125 0 864 863 56 123 398 396 0 700 -17 56 0 864 125 640 54 172 531 0 398
 +17 640 0 864 56 169 170 867 638 0 0 +17 169 0 864 640 865 162 644 641 0 632 -1
7 867 0 868 869 532 162 640 638 0 0 -15 868 1138 0 869 870 0 17 869 0 868 871 86
7 166 632 630 0 635 -17 532 0 868 867 871 170 530 636 0 640 -17 871 0 868 532 86
9 173 635 633 0 530 -17 530 0 527 533 172 173 532 636 0 0 +17 635 0 854 648 175
 166 871 633 0 0 +15 854 1127 0 648 846 0 17 648 0 854 416 635 243 177 646 0 0 +
17 175 0 854 635 416 173 533 535 0 871 -17 416 0 854 175 648 38 245 414 0 533 +1
7 245 0 536 236 45 243 416 414 0 554 -15 536 1925 0 239 824 0 17 236 0 536 239 2
45 234 554 552 0 760 -17 554 0 872 177 771 243 236 552 0 648 +15 872 1123 0 771
 853 0 17 177 0 872 632 554 166 648 646 0 869 -17 771 0 872 554 644 234 165 629
 0 0 -17 644 0 872 771 632 163 169 641 0 865 +17 165 0 758 150 760 163 771 629 0
 644 +17 150 0 758 679 165 136 865 674 0 863 +17 679 0 758 682 150 146 861 676 0
 0 +17 682 0 758 53 679 132 859 680 0 619 +17 53 0 758 616 682 51 873 605 0 622
 +17 619 0 847 691 603 132 179 614 0 873 +17 603 0 847 619 188 167 874 601 0 875
 +17 179 0 876 613 873 167 619 614 0 603 -17 873 0 876 179 622 132 53 605 0 0 -1
5 876 1248 0 873 877 0 17 622 0 876 873 613 51 182 620 0 878 +17 613 0 876 622 1
79 180 875 611 0 0 +17 182 0 879 610 878 180 622 620 0 880 -17 878 0 879 182 766
 51 616 409 0 0 -15 879 1462 0 766 881 0 17 766 0 879 878 625 46 203 405 0 616 -
17 616 0 758 585 53 46 878 409 0 0 +17 625 0 879 766 610 201 185 623 0 0 +17 203
 0 764 218 50 201 766 405 0 882 +17 218 0 764 215 203 216 882 575 0 767 +17 882
 0 883 185 628 201 218 575 0 625 -15 883 1470 0 882 884 0 17 185 0 883 607 882 1
83 625 623 0 885 -17 628 0 883 882 607 216 188 626 0 0 +17 607 0 883 628 185 186
 885 604 0 0 +17 188 0 847 603 767 186 628 626 0 874 -17 874 0 886 885 875 186 6
03 601 0 607 -15 886 1251 0 874 887 0 17 885 0 886 880 874 183 607 604 0 610 -17
 875 0 886 874 880 167 613 611 0 0 -17 880 0 886 875 885 180 610 608 0 613 -17 6
10 0 879 625 182 183 880 608 0 0 +14 887 1249 888 ?889 877 886 12 890 +0 0 889 8
77 27 81 1 888 3030 817 887 891 0 892 893 894 14 889 1347 893 ?895 887 896 12 89
7 -0 0 895 887 27 14 877 1245 892 ?887 881 876 12 898 +0 0 887 881 27 50 890 126
2 0 887 897 898 0 +-.113 488425363408361e-31 0 -1 462592926927149e-30 0 46259292
6927149e-30 1 0 51 255 897 1360 0 889 899 890 0 +0 0 .068 0 0 -1 .02 -1 0 0 50 8
98 1260 0 877 890 900 0 +-.113 -.029 0 2338953001317045e-31 1 0 -1 2338953001317
045e-31 0 50 900 1259 0 881 898 901 0 +-.113 -.089 .003 -1690598616912955e-48 -7
2280144832367e-31 1 0 -1 -72280144832367e-31 14 881 1241 902 ?877 884 879 12 900
 +0 0 877 884 27 50 901 1258 0 884 900 903 0 +-.113 -.089 0 -2338953001317045e-3
1 -1 0 1 -2338953001317045e-31 0 14 884 1237 904 ?881 870 883 12 901 +0 0 881 87
0 27 50 903 1149 0 870 901 855 0 +-.113 488425363408361e-31 0 -1 462592926927149
e-30 0 462592926927149e-30 1 0 14 870 1136 905 ?884 906 868 12 903 +0 0 884 906
 27 50 855 1145 0 846 903 907 0 +-.113 .089 .003 2338953001317045e-31 1 0 -1 233
8953001317045e-31 0 50 907 1144 0 853 855 908 0 +-.113 .089 .003 -28740176487520
2e-46 -122876246215024e-30 1 0 -1 -122876246215024e-30 14 853 1759 909 ?846 910
 872 12 907 +0 0 846 910 27 50 908 1021 0 906 907 911 0 +0 -.104 0 0 -1 0 0 0 1
 14 906 1008 912 ?870 866 913 12 908 +0 0 870 866 27 50 911 1019 0 812 908 914 0
 +-.098 -.104 .003 0 0 1 1 0 0 14 812 2031 915 ?761 916 811 12 911 +0 0 761 916
 27 50 914 1018 0 916 911 917 0 +.098 -.104 0 1 0 0 0 0 -1 14 916 2039 918 ?812
 443 919 12 914 +0 0 812 443 27 50 917 862 0 920 914 921 0 +-.098 .0121744775192
781 .0384541831815269 159645762918414e-30 -.682552248072188 .730836800285537 0 -
.730836800285537 -.682552248072188 14 920 811 922 ?858 923 924 12 917 -858 858 8
58 923 27 51 921 861 0 923 917 925 0 +-.098 .019 .03114581517867155 1 2338953001
317045e-31 0 .01 -2338953001317045e-31 1 0 14 923 819 926 ?920 716 927 12 921 -8
62 862 920 716 27 50 925 860 0 866 921 928 0 +-.098 .029 0 -2338953001317045e-31
 1 -1113936794413868e-31 -1 -2338953001317045e-31 0 14 866 831 929 ?906 862 864
 12 925 -0 0 906 862 27 50 928 584 0 716 925 930 0 +.113 488425363408361e-31 0 1
 462592926927149e-30 0 -462592926927149e-30 1 0 14 716 571 931 ?923 726 713 12 9
28 +0 0 923 726 27 50 930 581 0 443 928 932 0 +.113 -.089 .003 -1690598616912955
e-48 72280144832367e-31 -1 0 1 72280144832367e-31 14 443 2050 933 ?916 799 429 1
2 930 -0 0 916 799 27 50 932 580 0 726 930 934 0 +.113 -.029 0 2338953001317045e
-31 -1 0 1 2338953001317045e-31 0 14 726 559 935 ?716 936 725 12 932 -0 0 716 93
6 27 50 934 479 0 936 932 937 0 +.113 488425363408361e-31 0 1 462592926927149e-3
0 0 -462592926927149e-30 1 0 14 936 466 938 ?726 939 940 12 934 +0 0 726 939 27
 50 937 477 0 939 934 941 0 +.113 .089 .003 2338953001317045e-31 -1 0 1 23389530
01317045e-31 0 14 939 462 942 ?936 943 944 12 937 -0 0 936 943 27 50 941 475 0 9
43 937 945 0 +.113 .029 .003 -2338953001317045e-31 1 0 -1 -2338953001317045e-31
 0 14 943 454 946 ?939 947 948 12 941 -0 0 939 947 27 50 945 474 0 947 941 949 0
 +.113 .089 .003 -287401764875202e-46 122876246215024e-30 -1 0 1 122876246215024
e-30 14 947 450 950 ?943 951 952 12 945 -0 0 943 951 27 50 949 345 0 951 945 953
 0 +0 .104 0 0 1 0 0 0 1 14 951 332 954 ?947 753 955 12 949 +0 0 947 753 27 50 9
53 341 0 910 949 852 0 +-.098 .104 .003 0 0 -1 -1 0 0 14 910 1770 956 ?853 524 9
57 12 953 -0 0 853 524 27 50 852 227 0 743 953 958 0 +0 0 .048 0 0 -1 -1 0 0 50
 958 225 0 355 852 959 0 +-.093 .084 .048 0 1 0 0 0 1 14 355 1792 960 ?524 348 3
38 12 958 -0 0 524 348 27 50 959 224 0 524 958 961 0 +-.093 -.084 .048 -1 0 0 0
 0 1 14 524 1781 962 ?910 355 521 12 959 -0 0 910 355 27 50 961 223 0 799 959 96
3 0 +-.093 -.084 .048 0 -1 0 0 0 -1 14 799 2061 964 ?443 965 515 12 961 -0 0 443
 965 27 50 963 222 0 965 961 834 0 +.093 -.084 .048 1 0 0 0 0 -1 14 965 2072 966
 ?799 727 967 12 963 -0 0 799 727 27 50 834 3 0 753 963 828 0 +0 0 .049 0 0 1 1
 0 0 14 753 1 968 ?951 23 969 12 834 +0 0 951 23 27 81 1 968 3012 817 753 970 0
 971 954 972 14 23 410 971 ?753 808 973 12 13 -436 436 753 808 27 15 969 1325 0
 974 753 752 17 974 0 969 974 974 0 408 406 0 0 -17 408 0 896 408 408 0 974 406
 0 0 +15 896 1350 0 408 889 975 15 975 1414 0 595 889 0 17 595 0 975 595 595 0 9
76 593 0 0 +17 976 0 977 976 976 0 595 593 0 0 -15 977 1401 0 976 895 0 14 895 1
398 978 ?979 889 980 12 981 +0 0 979 889 27 81 1 978 3032 817 895 982 0 893 983
 984 14 979 1406 983 ?805 895 985 12 899 -0 0 805 895 27 15 980 1400 0 598 895 9
77 50 981 1420 0 895 986 899 0 +0 0 .043 0 0 -1 -1 0 0 50 986 1668 0 805 987 981
 0 +-.0893403080215762 -.084 .0642512418208743 .692200934726064 -.72170483299224
4 0 .721704832992244 .692200934726064 0 51 899 1418 0 979 981 897 0 -0 0 .043 0
 0 1 .024 1 0 0 14 805 1627 988 ?765 979 804 12 986 -0 0 765 979 27 50 987 1670
 0 765 989 986 0 +-.1011705376890258 -.089 .0642512418208743 -.692200934726063 .
721704832992245 0 -.721704832992245 -.692200934726063 0 14 765 1637 990 ?779 805
 764 12 987 -0 0 779 805 27 50 989 1953 0 824 991 987 0 +-.1011705376890258 .089
 .0642512418208743 .692200934726063 .721704832992245 0 -.721704832992245 .692200
934726063 0 14 824 1922 992 ?423 779 536 12 989 +0 0 423 779 27 50 991 1955 0 77
9 825 989 0 +-.0893403080215762 .084 .0642512418208743 -.692200934726064 -.72170
4832992244 0 .721704832992244 -.692200934726064 0 14 779 1912 993 ?824 765 778 1
2 991 +0 0 824 765 27 50 825 2235 0 423 816 991 0 +.1011705376890258 -.089 .0642
512418208743 -.692200934726063 -.721704832992245 0 .721704832992245 -.6922009347
26063 0 81 1 993 3036 817 779 994 0 990 992 995 80 255 1 817 0 996 8001 0 0 0 0
 3 5 0 0 0 FFFFTFTFFFFFFF2 81 1 994 2956 997 779 0 993 998 999 1000 81 1 990 303
5 817 765 1001 0 988 993 1002 81 1 992 3037 817 824 998 0 993 819 1003 83 255 3
 995 .792156862745098 .819607843137255 .933333333333333 81 1 998 2954 997 824 0
 992 1001 994 1004 81 1 819 3038 817 423 1005 0 992 815 1006 83 3 1003 .79215686
2745098 .819607843137255 .933333333333333 81 1 1005 2837 997 423 0 819 1007 829
 1008 83 3 1006 .792156862745098 .819607843137255 .933333333333333 80 1 997 1009
 1010 9000 1 1 1 1 1 1 1 1 0 FFFFTFTFFFFFFF1 81 1 1007 2835 997 333 0 820 818 10
05 1011 81 1 829 2839 997 21 0 826 1005 1012 1013 82 255 1 1008 -1519910611 81 1
 1012 2845 997 747 0 830 829 1014 1015 82 1 1013 -1453915858 81 1 830 2988 817 7
47 1012 0 826 835 1016 81 1 1014 2848 997 722 0 835 1012 839 1017 82 1 1015 -151
1390931 81 1 835 2989 817 722 1014 0 830 1018 1019 81 1 839 2855 997 529 0 836 1
014 1020 1021 82 1 1017 -1512439507 81 1 1020 2861 997 348 0 841 839 1022 1023 8
2 1 1021 -1574829780 81 1 841 3002 817 348 1020 0 836 960 1024 81 1 1022 2867 99
7 837 0 840 1020 848 1025 82 1 1023 -1575550674 81 1 840 3000 817 837 1022 0 102
6 836 1027 81 1 848 2871 997 838 0 845 1022 1028 1029 82 1 1025 -1574108884 81 1
 1028 2878 997 743 0 850 848 1030 1031 82 1 1029 -1637088981 81 1 850 3009 817 7
43 1028 0 845 1032 1033 81 1 1030 2884 997 846 0 849 1028 891 1034 82 1 1031 -17
03411410 81 1 849 3007 817 846 1030 0 909 845 1035 81 1 891 2886 997 887 0 888 1
030 1036 1037 82 1 1034 -1587150548 81 1 1036 2888 997 889 0 893 891 1038 1039 8
2 1 1037 -1754529499 81 1 893 3031 817 889 1036 0 888 978 1040 81 1 1038 2891 99
7 877 0 892 1036 1041 1042 82 1 1039 -1727659735 81 1 892 3029 817 877 1038 0 90
2 888 1043 81 1 1041 2893 997 881 0 902 1038 1044 1045 82 1 1042 -1747975899 81
 1 902 3028 817 881 1041 0 904 892 1046 81 1 1044 2895 997 884 0 904 1041 1047 1
048 82 1 1045 -1747844821 81 1 904 3027 817 884 1044 0 905 902 1049 81 1 1047 28
97 997 870 0 905 1044 1050 1051 82 1 1048 -1747713749 81 1 905 3026 817 870 1047
 0 912 904 1052 81 1 1050 2899 997 853 0 909 1047 1053 1054 82 1 1051 -176573615
5 81 1 909 3006 817 853 1050 0 956 849 1055 81 1 1053 2901 997 906 0 912 1050 10
56 1057 82 1 1054 -1582825172 81 1 912 3025 817 906 1053 0 929 905 1058 81 1 105
6 2903 997 812 0 915 1053 1059 1060 82 1 1057 -1799552732 81 1 915 2997 817 812
 1056 0 918 1061 1062 81 1 1059 2905 997 916 0 918 1056 1063 1064 82 1 1060 -152
6464211 81 1 918 2996 817 916 1059 0 933 915 1065 81 1 1063 2907 997 920 0 922 1
059 1066 1067 82 1 1064 -1524170451 81 1 922 3021 817 920 1063 0 926 1068 1069 8
1 1 1066 2909 997 923 0 926 1063 1070 1071 82 1 1067 -1822883549 81 1 926 3020 8
17 923 1066 0 931 922 1072 81 1 1070 2911 997 866 0 929 1066 1073 1074 82 1 1071
 -1824521949 81 1 929 3024 817 866 1070 0 1075 912 1076 81 1 1073 2914 997 716 0
 931 1070 1077 1078 82 1 1074 -1826684635 81 1 931 3019 817 716 1073 0 935 926 1
079 81 1 1077 2916 997 443 0 933 1073 1080 1081 82 1 1078 -1875312351 81 1 933 2
995 817 443 1077 0 964 918 1082 81 1 1080 2918 997 726 0 935 1077 1083 1084 82 1
 1081 -1521024723 81 1 935 3018 817 726 1080 0 938 931 1085 81 1 1083 2920 997 9
36 0 938 1080 1086 1087 82 1 1084 -1868234461 81 1 938 3017 817 936 1083 0 942 9
35 1088 81 1 1086 2922 997 939 0 942 1083 1089 1090 82 1 1087 -1887043295 81 1 9
42 3016 817 939 1086 0 946 938 1091 81 1 1089 2924 997 943 0 946 1086 1092 1093
 82 1 1090 -1880489682 81 1 946 3015 817 943 1089 0 950 942 1094 81 1 1092 2927
 997 947 0 950 1089 1095 1096 82 1 1093 -1879965405 81 1 950 3014 817 947 1092 0
 954 946 1097 81 1 1095 2929 997 951 0 954 1092 1098 1099 82 1 1096 -1879703250
 81 1 954 3013 817 951 1095 0 968 950 1100 81 1 1098 2931 997 910 0 956 1095 110
1 1102 82 1 1099 574095630 81 1 956 3005 817 910 1098 0 962 909 1103 81 1 1101 2
933 997 355 0 960 1098 1104 1105 82 1 1102 -1581711058 81 1 960 3003 817 355 110
1 0 841 962 1106 81 1 1104 2935 997 524 0 962 1101 1107 1108 82 1 1105 -15763371
06 81 1 962 3004 817 524 1104 0 960 956 1109 81 1 1107 2937 997 799 0 964 1104 1
110 1111 82 1 1108 -1579417300 81 1 964 2994 817 799 1107 0 966 933 1112 81 1 11
10 2939 997 965 0 966 1107 970 1113 82 1 1111 -1518730963 81 1 966 2993 817 965
 1110 0 1114 964 1115 81 1 970 2941 997 753 0 968 1110 1116 1117 82 1 1113 -1515
650770 81 1 1116 2943 997 23 0 971 970 982 1118 82 1 1117 -1503395545 81 1 971 3
011 817 23 1116 0 1032 968 1119 81 1 982 2946 997 895 0 978 1116 1120 1121 82 1
 1118 -1862467282 81 1 1120 2948 997 979 0 983 982 1122 1123 82 1 1121 -17049842
79 81 1 983 3033 817 979 1120 0 978 988 1124 81 1 1122 2950 997 805 0 988 1120 1
001 1125 82 1 1123 -1707212503 81 1 988 3034 817 805 1122 0 983 990 1126 81 1 10
01 2952 997 765 0 990 1122 998 1127 82 1 1125 -1642135253 82 1 1127 -1647247061
 83 3 1126 .792156862745098 .819607843137255 .933333333333333 83 3 1124 .7921568
62745098 .819607843137255 .933333333333333 81 1 1032 3010 817 808 1128 0 850 971
 1129 83 3 1119 .792156862745098 .819607843137255 .933333333333333 14 808 1185 1
032 ?23 743 807 12 844 -761 837 23 743 27 81 1 1128 2980 997 808 0 1032 1130 113
1 1132 83 3 1129 .792156862745098 .819607843137255 .933333333333333 81 1 1130 29
76 997 761 0 1061 1133 1128 1134 81 1 1131 2984 997 436 0 1135 1128 0 1136 82 1
 1132 -1740177109 14 436 2091 1135 ?727 802 433 12 13 -23 23 727 802 27 81 1 113
5 2991 817 436 1131 0 1018 1114 1137 82 1 1136 -1513750226 81 1 1018 2990 817 80
2 999 0 835 1135 1138 81 1 1114 2992 817 727 1139 0 1135 966 1140 83 3 1137 .792
156862745098 .819607843137255 .933333333333333 14 727 2080 1114 ?965 436 718 12
 832 -747 747 965 436 27 81 1 1139 2965 997 727 0 1114 999 1141 1142 83 3 1140 .
792156862745098 .819607843137255 .933333333333333 81 1 999 2958 997 802 0 1018 9
94 1139 1143 81 1 1141 2968 997 822 0 1144 1139 1145 1146 82 1 1142 -1514864339
 14 822 2474 1144 ?0 333 32 12 1147 -0 0 0 333 27 81 1 1144 3041 817 822 1141 0
 820 0 1148 81 1 1145 2970 997 862 0 1075 1141 1149 1150 82 1 1146 -1462697682 1
4 862 823 1075 ?866 858 860 12 921 -923 923 866 858 27 81 1 1075 3023 817 862 11
45 0 1068 929 1151 81 1 1149 2972 997 858 0 1068 1145 1133 1152 82 1 1150 -18250
46237 14 858 815 1068 ?862 920 857 12 917 -920 920 862 920 27 81 1 1068 3022 817
 858 1149 0 922 1075 1153 81 1 1133 2974 997 774 0 1026 1149 1130 1154 82 1 1152
 -1823407835 14 774 1830 1026 ?837 761 772 12 24 -0 0 837 761 27 81 1 1026 2999
 817 774 1133 0 1061 840 1155 82 1 1154 -1572929234 81 1 1061 2998 817 761 1130
 0 915 1026 1156 83 3 1155 .792156862745098 .819607843137255 .933333333333333 14
 761 1837 1061 ?774 812 758 12 844 -837 808 774 812 27 83 3 1156 .79215686274509
8 .819607843137255 .933333333333333 50 844 92 0 761 832 24 0 +-.098 .089 .049 1
 155930200087803e-30 0 -155930200087803e-30 1 0 50 832 91 0 747 828 844 0 +-.098
 -.089 .049 0 1 0 0 0 1 50 24 93 0 774 844 13 0 +-.098 .089 .049 0 -1 0 0 0 -1 8
3 3 1153 .792156862745098 .819607843137255 .933333333333333 83 3 1151 .792156862
745098 .819607843137255 .933333333333333 81 1 820 3040 817 333 1007 0 815 1144 1
157 83 3 1148 .792156862745098 .819607843137255 .933333333333333 83 3 1157 .7921
56862745098 .819607843137255 .933333333333333 15 32 2477 0 30 822 0 50 1147 2513
 0 822 0 823 0 +.1011705376890258 .089 .0642512418208743 .692200934726063 -.7217
04832992245 0 .721704832992245 .692200934726063 0 50 823 2511 0 333 1147 816 0 +
.0893403080215762 .084 .0642512418208743 -.692200934726064 .721704832992244 0 -.
721704832992244 -.692200934726064 0 14 802 2097 1018 ?436 722 800 12 828 -348 72
2 436 722 27 82 1 1143 -1513225939 83 3 1138 .792156862745098 .819607843137255 .
933333333333333 82 1 1134 -1572208340 83 3 1115 .792156862745098 .81960784313725
5 .933333333333333 83 3 1112 .792156862745098 .819607843137255 .933333333333333
 83 3 1109 .792156862745098 .819607843137255 .933333333333333 83 3 1106 .7921568
62745098 .819607843137255 .933333333333333 83 3 1103 .792156862745098 .819607843
137255 .933333333333333 83 3 1100 .792156862745098 .819607843137255 .93333333333
3333 83 3 1097 .792156862745098 .819607843137255 .933333333333333 83 3 1094 .792
156862745098 .819607843137255 .933333333333333 83 3 1091 .792156862745098 .81960
7843137255 .933333333333333 83 3 1088 .792156862745098 .819607843137255 .9333333
33333333 83 3 1085 .792156862745098 .819607843137255 .933333333333333 83 3 1082
 .792156862745098 .819607843137255 .933333333333333 83 3 1079 .792156862745098 .
819607843137255 .933333333333333 83 3 1076 .792156862745098 .819607843137255 .93
3333333333333 83 3 1072 .792156862745098 .819607843137255 .933333333333333 83 3
 1069 .792156862745098 .819607843137255 .933333333333333 83 3 1065 .792156862745
098 .819607843137255 .933333333333333 83 3 1062 .792156862745098 .81960784313725
5 .933333333333333 83 3 1058 .792156862745098 .819607843137255 .933333333333333
 83 3 1055 .792156862745098 .819607843137255 .933333333333333 83 3 1052 .7921568
62745098 .819607843137255 .933333333333333 83 3 1049 .792156862745098 .819607843
137255 .933333333333333 83 3 1046 .792156862745098 .819607843137255 .93333333333
3333 83 3 1043 .792156862745098 .819607843137255 .933333333333333 83 3 1040 .792
156862745098 .819607843137255 .933333333333333 83 3 1035 .792156862745098 .81960
7843137255 .933333333333333 83 3 1033 .792156862745098 .819607843137255 .9333333
33333333 83 3 1027 .792156862745098 .819607843137255 .933333333333333 83 3 1024
 .792156862745098 .819607843137255 .933333333333333 83 3 1019 .792156862745098 .
819607843137255 .933333333333333 83 3 1016 .792156862745098 .819607843137255 .93
3333333333333 81 1 818 2833 997 814 0 815 0 1007 1158 82 1 1011 -1459551954 82 1
 1158 -1525022419 79 255 14 1010 SWEntUnchanged82 1 1004 -1585315540 83 3 1002 .
792156862745098 .819607843137255 .933333333333333 82 1 1000 -1580596948 79 15 99
6 SDL/TYSA_COLOUR17 598 0 980 598 598 0 1159 410 0 0 +17 1159 0 985 1159 1159 0
 598 410 0 0 -15 985 1409 0 1159 979 1160 15 1160 1410 0 600 979 0 17 600 0 1160
 600 600 0 1161 596 0 0 +17 1161 0 744 1161 1161 0 600 596 0 0 -15 744 1380 0 11
61 743 0 83 3 984 .792156862745098 .819607843137255 .933333333333333 15 973 409
 0 503 23 0 17 503 0 973 335 1162 310 1163 499 0 0 +17 335 0 973 77 503 324 312
 342 0 347 +17 1162 0 973 503 77 78 495 493 0 0 -17 1163 0 957 83 1164 78 503 49
9 0 1162 -15 957 1768 0 501 910 0 17 83 0 957 505 1163 81 80 491 0 490 -17 1164
 0 957 1163 501 310 301 790 0 503 +17 501 0 957 1164 780 299 776 487 0 0 +17 301
 0 329 304 312 299 1164 790 0 784 -16 790 2414 0 ?1164 785 1165 792 0 0 7 16 116
5 2417 0 ?1166 790 36 1167 0 0 7 30 792 2521 0 790 1167 791 0 +.0017539301762226
05 -577333320364581e-20 .003 .721704832992244 .692200934726064 0 30 1167 2522 0
 1165 1168 792 0 +.098 .085959076548194 .049 0 0 1 30 1168 2523 0 36 783 1167 0
 +.1073320061838256 .0949095825002346 .003 -.721704832992245 -.692200934726063 -
850550524856694e-31 16 36 2416 0 ?35 1165 337 1168 0 0 7 30 783 2528 0 337 344 1
168 0 +.0893403080215762 .084 .048 -.721704832992244 -.692200934726064 0 30 344
 2529 0 331 1169 783 0 +.0893403080215762 .084 .0642512418208743 0 0 -1 30 1169
 2530 0 342 1170 344 0 +.098 .0923056765146661 .0642512418208743 0 0 -1 16 342 2
415 0 ?335 1171 331 1169 0 0 7 30 1170 2532 0 1171 1172 1169 0 +.093 .0811634807
375345 .0642512418208743 0 0 -1 16 1171 2418 0 ?1173 782 342 1170 0 0 7 30 1172
 2533 0 343 353 1170 0 +.1011705376890258 .089 0 -.721704832992245 -.69220093472
6063 0 16 343 2419 0 ?321 331 334 1172 0 0 7 30 353 2535 0 334 1174 1172 0 +.089
3403080215762 .084 0 .721704832992244 .692200934726064 0 30 1174 2538 0 782 0 35
3 0 +.1011705376890258 .089 .048 .721704832992245 .692200934726063 0 16 782 2407
 0 ?1175 337 1171 1174 0 0 7 17 1175 0 32 34 1176 307 315 782 0 1166 +17 34 0 32
 30 1175 305 1166 1165 0 35 -17 1176 0 32 1175 321 313 1173 1171 0 1177 -17 315
 0 741 280 309 313 1175 782 0 1176 -17 1166 0 433 751 435 307 34 1165 0 0 +17 75
1 0 433 750 1166 296 309 786 0 395 -17 435 0 433 1166 1178 305 131 464 0 0 -17 1
178 0 433 435 1179 129 684 673 0 486 -17 131 0 952 1180 35 129 435 464 0 1178 +1
5 952 453 0 477 947 0 17 1180 0 952 1181 131 93 486 484 0 0 -17 35 0 952 131 477
 305 30 36 0 435 +17 477 0 952 35 1181 18 1182 474 0 0 +17 1181 0 952 477 1180 8
4 467 465 0 0 -17 1182 0 944 1183 28 84 477 474 0 1181 -15 944 465 0 480 939 0 1
7 1183 0 944 480 1182 87 86 472 0 0 -17 28 0 944 1182 480 18 33 17 0 477 +17 480
 0 944 28 1183 322 1184 478 0 0 +17 33 0 32 321 30 322 28 17 0 1185 -17 321 0 32
 1176 33 319 1185 343 0 1173 +17 1185 0 827 1184 833 322 321 343 0 480 -17 1184
 0 827 1186 1185 87 480 478 0 1183 -17 833 0 827 1185 483 319 128 513 0 0 -17 48
3 0 827 833 1186 126 1187 481 0 1188 +17 128 0 967 704 1173 126 833 513 0 483 +1
5 967 2070 0 1177 965 0 17 704 0 967 707 128 120 1188 692 0 0 +17 1173 0 967 128
 1177 319 1176 1171 0 833 +17 1177 0 967 1173 1189 313 280 358 0 0 -17 1189 0 96
7 1177 1190 278 295 729 0 0 -17 280 0 741 426 315 278 1177 358 0 424 +17 424 0 4
20 295 269 278 426 737 0 1189 -17 295 0 420 292 424 293 1189 729 0 721 +17 292 0
 420 272 295 290 721 788 0 427 -17 721 0 719 724 720 293 292 788 0 1190 +17 724
 0 719 723 721 108 1190 506 0 0 -17 1190 0 967 1189 708 293 724 506 0 0 +17 708
 0 967 1190 707 108 116 453 0 724 +16 506 668 0 ?1190 513 504 512 513 513 7 17 7
07 0 967 708 704 114 122 705 0 0 +17 116 0 924 139 110 114 708 453 0 1191 -15 92
4 814 0 139 920 0 17 139 0 924 135 116 137 1191 697 0 687 +17 110 0 924 116 135
 108 723 693 0 708 -17 1191 0 927 122 687 114 139 697 0 707 -15 927 822 0 142 92
3 0 17 122 0 927 142 1191 120 707 705 0 1192 -17 687 0 927 1191 142 137 1179 685
 0 1193 +16 697 754 0 ?139 694 698 690 694 694 7 17 142 0 927 687 122 140 1192 7
01 0 684 +17 1179 0 433 1178 1193 140 687 685 0 0 -17 1193 0 433 1179 437 137 13
5 677 0 0 -17 437 0 433 1193 59 133 439 448 0 463 -17 135 0 924 110 139 133 1193
 677 0 723 +17 1192 0 948 1188 684 120 142 701 0 704 -16 701 761 0 ?142 698 531
 695 698 698 7 17 684 0 948 1192 486 140 1178 673 0 1179 +15 948 457 0 486 943 0
 17 486 0 948 684 95 129 1180 484 0 0 +17 95 0 948 486 1187 93 92 468 0 467 -17
 1187 0 948 95 1188 90 483 481 0 1186 -17 92 0 940 89 467 90 95 468 0 1187 +17 4
67 0 940 92 86 93 1181 465 0 1180 +15 940 468 0 467 936 0 17 86 0 940 467 89 84
 1183 472 0 1182 +17 89 0 940 86 92 87 1186 470 0 1184 +17 1186 0 827 483 1184 9
0 89 470 0 0 -17 1188 0 948 1187 1192 126 704 692 0 0 -16 693 747 0 ?723 689 694
 688 689 689 7 17 309 0 741 315 298 307 751 786 0 1175 +17 304 0 329 318 301 302
 784 785 0 336 -17 312 0 329 301 326 310 335 342 0 1164 -17 780 0 957 501 505 22
8 242 417 0 776 -17 776 0 772 775 784 228 501 487 0 0 -17 505 0 957 780 83 240 1
194 504 0 0 +17 242 0 778 257 230 240 780 417 0 1195 +17 257 0 778 254 242 255 1
195 547 0 349 +17 1195 0 843 1194 383 240 257 547 0 505 -15 843 1816 0 1195 837
 0 17 1194 0 843 1196 1195 81 505 504 0 0 -17 383 0 843 1195 1196 255 74 381 0 0
 +17 1196 0 843 383 1194 72 490 488 0 0 -17 74 0 345 351 349 72 383 381 0 498 -1
7 351 0 345 347 74 75 498 496 0 0 -17 349 0 345 74 346 255 254 537 0 383 +17 498
 0 955 490 495 72 351 496 0 1196 +15 955 334 0 490 951 0 17 490 0 955 80 498 81
 1196 488 0 1194 +17 495 0 955 498 80 75 1162 493 0 351 +17 80 0 955 495 490 78
 83 491 0 1163 +17 77 0 973 1162 335 75 347 352 0 495 +83 3 972 .792156862745098
 .819607843137255 .933333333333333 15 919 1003 0 672 916 0 17 672 0 919 1197 658
 287 158 670 0 0 +17 1197 0 919 155 672 276 289 728 0 669 -17 658 0 919 672 155
 156 1198 656 0 0 +17 158 0 800 655 796 156 672 670 0 1199 -17 655 0 800 803 158
 159 1199 653 0 0 +17 1199 0 913 1198 809 156 655 653 0 658 -15 913 1010 0 809 9
06 0 17 1198 0 913 810 1199 153 658 656 0 661 -17 809 0 913 1199 810 159 652 650
 0 655 -17 810 0 913 809 1198 143 661 659 0 0 -17 155 0 919 658 1197 153 669 667
 0 1198 -17 669 0 811 44 661 276 155 667 0 0 +17 44 0 811 813 669 31 40 419 0 66
4 +17 40 0 39 289 37 276 44 419 0 1197 -17 289 0 39 286 40 287 1197 728 0 796 +1
7 286 0 39 798 289 284 796 733 0 517 -83 3 894 .792156862745098 .819607843137255
 .933333333333333 17 632 0 872 644 177 162 869 630 0 867 +17 239 0 536 248 236 2
37 760 555 0 551 +83 3 851 .792156862745098 .819607843137255 .933333333333333 83
 3 842 .792156862745098 .819607843137255 .933333333333333 83 3 831 .792156862745
098 .819607843137255 .933333333333333 83 3 821 .792156862745098 .819607843137255
 .933333333333333 17 516 0 515 797 224 210 519 572 0 0 -16 379 1508 0 ?161 381 3
52 378 381 381 7 17 260 0 536 45 248 258 522 526 0 528 +19 22 100 0 7 0 16 12 S0
 74 4 CI16 index_map_offset0 0 1 dCCZ20 20 3 0 0 1131 1144 9 0 0 0 0 0 0 0 0 0 0
 0 0 0 0 0 0 0 80 1 5 1200 1201 8017 0 0 0 0 0 0 0 0 0 TTTTTTTTTTTTTF3 84 255 16
 19 AerospaceBracket79 13 1201 SDL/TYSA_NAME74 20 6 1 0 0 2 0 0 0 0 0 0 0 0 0 0
 0 0 0 0 0 0 0 0 0 1 0 
