**ABCDEFGHIJKLMNOPQRSTUVWXYZabcdefghijklmnopqrstuvwxyz**************************
**PARASOLID !"#$%&'()*+,-./:;<=>?@[\]^_`{|}~0123456789**************************
**PART1;
MC=AMD64;
MC_MODEL=Intel64 Family 6 Model 158 Stepping 10, GenuineIntel;
MC_ID=unknown;
OS=Windows_NT;
OS_RELEASE=unknown;
FRU=Parasolid Version 31.1, build 290,  3- 9-2020;
APPL=SOLIDWORKS 2020-2020128;
SITE=;
USER=unknown;
FORMAT=text;
GUISE=transmit;
KEY=Brack_NoSup;
FILE=Brack_NoSup.x_t;
DATE=Sun Jul 16 15:38:50 2023;
**PART2;
SCH=SCH_3101290_31100;
USFLD_SIZE=0;
**PART3;
**END_OF_HEADER*****************************************************************
T51 : TRANSMIT FILE created by modeller version 310129023 SCH_3101290_31100_1300
6222 0 10 20 CCCCCCCI4 mesh1006 0 I8 polyline1008 0 CCCCCCCCCCA16 mesh_offset_da
ta206 0 Z1 3 2 3 0 0 0 0 0 0 0 1e3 1e-8 0 0 0 1 0 1 4 0 81 255 1 2 3 5 1 0 0 0 0
 0 70 11 CI9 list_type0 0 1 uI10 notransmit0 0 1 lCCCDCCDI12 finger_index0 0 1 d
I12 finger_block1012 0 CZ3 0 4 T1 0 0 1 20 1 6 6 11 255 4 1 0 1 7 8 1 0 0 0 0 12
 34 CCCCCCI4 mesh1006 0 I8 polyline1008 0 CCCCCCCDI5 owner1040 0 CCCCCCI13 bound
ary_mesh1006 0 I17 boundary_polyline1008 0 CCCA16 index_map_offset0 0 1 dA9 inde
x_map82 0 A17 node_id_index_map82 0 A20 schema_embedding_map82 0 A5 child12 0 A1
4 lowest_node_id0 0 1 dA16 mesh_offset_data206 0 Z7 5366 9 10 0 0 0 0 0 0 1e3 1e
-8 4 11 0 1 0 1 1 12 13 14 15 0 0 16 17 18 0 0 0 0 0 0 0 100 255 8 2 4 0 0 -9575
67358739197e-30 -1 69388939039073e-31 -1 957567358739197e-30 1023812339180034e-3
1 -1023812339180034e-31 -69388939039072e-31 -1 .0525 -533427468862868e-31 .04077
042883429445 1 3 ?81 1 9 5049 5 7 19 0 0 0 20 70 10 0 4 T7 0 0 4 20 1 21 21 13 2
55 12 99 0 7 0 22 0 0 23 0 50 255 13 93 0 24 25 0 0 +-.0515 .0445 .0407704288342
9445 0 -1 0 0 0 -1 30 255 14 3078 0 17 26 0 0 --184706747251626e-31 .01075 .0382
704288342945 0 0 1 29 255 15 3070 0 18 27 0 -.01075 1210046668121926e-34 .039770
4288342945 19 8 CCCCCCCA5 owner12 0 Z16 33 0 7 23 0 28 V0 16 255 17 3076 0 ?29 0
 30 14 0 0 7 18 255 18 3069 0 31 0 32 15 ?7 17 255 31 0 33 34 35 18 36 37 0 38 +
18 32 3066 0 39 18 40 27 ?7 17 39 0 41 42 43 32 44 45 0 29 +18 40 1813 0 46 32 4
7 48 ?7 29 27 3068 0 32 48 15 -184706747251626e-31 .01075 .0382704288342945 29 4
8 1815 0 40 49 27 -.0595 .0405 .01477042883429448 29 49 660 0 47 50 48 -.0495 .0
043817182262906 .03317886097687035 18 47 658 0 51 40 52 49 ?7 29 50 26 0 52 53 4
9 -.0515 .0445 .04077042883429445 18 52 24 0 54 47 55 50 ?7 29 53 887 0 55 56 50
 -.0495 .0145 .01477042883429448 18 55 793 0 57 52 58 53 ?7 29 56 901 0 58 59 53
 -.0515 .004381718226290595 .03317886097687035 18 58 802 0 60 55 61 56 ?7 29 59
 1163 0 62 63 56 -.0515 .0145 .01677042883429445 18 62 1114 0 64 65 66 59 ?7 29
 63 1164 0 66 67 59 -.0515 .0145 .01477042883429448 18 66 1120 0 68 62 69 63 ?7
 29 67 1167 0 61 70 63 -.0595 .0145 .01677042883429445 18 61 1119 0 71 58 65 67
 ?7 29 70 1168 0 65 72 67 -.0595 .0145 .01477042883429448 18 65 1117 0 73 61 62
 70 ?7 29 72 2098 0 69 74 70 -.0515 .0445 .0397704288342945 18 69 1972 0 75 66 7
6 72 ?7 29 74 2101 0 76 77 72 -.048 .0445 .0167704288342945 18 76 1993 0 78 69 7
9 74 ?7 29 77 2102 0 79 80 74 -.048 .0425 .0397704288342945 18 79 1971 0 81 76 8
2 77 ?7 29 80 2103 0 82 83 77 -.048 .0445 .0397704288342945 18 82 1973 0 84 79 8
5 80 ?7 29 83 2104 0 85 86 80 -.048 .0525 .0167704288342945 18 85 1977 0 87 82 8
8 83 ?7 29 86 2110 0 88 89 83 -.048 .0425 .01477042883429448 18 88 1979 0 90 85
 91 86 ?7 29 89 2111 0 91 92 86 -.0515 .0405 .0167704288342945 18 91 1984 0 93 8
8 94 89 ?7 29 92 2112 0 94 95 89 -.0495 .0405 .01477042883429448 18 94 1983 0 96
 91 97 92 ?7 29 95 2113 0 97 98 92 -.0595 .0405 .0167704288342945 18 97 1981 0 9
9 94 100 95 ?7 29 98 2114 0 100 101 95 -.0515 .0405 .0397704288342945 18 100 197
0 0 102 97 103 98 ?7 29 101 2115 0 103 104 98 -.0495 .0405 .0397704288342945 18
 103 1995 0 105 100 106 101 ?7 29 104 2120 0 106 107 101 -.048 .0525 .0147704288
3429448 18 106 1978 0 108 103 109 104 ?7 29 107 3542 0 109 110 104 -764600023506
728e-31 .0445 .0167704288342945 18 109 3330 0 111 106 112 107 ?7 29 110 3543 0 1
12 113 107 -1648350243753455e-31 .0425 .0397704288342945 18 112 3333 0 114 109 1
15 110 ?7 29 113 3544 0 115 116 110 -1089934496248538e-31 .01 .0382704288342945
 18 115 3352 0 43 112 117 113 ?7 29 116 3546 0 117 118 113 -184706747251626e-31
 .01075 .0397704288342945 18 117 3334 0 42 115 119 116 ?7 29 118 3547 0 119 120
 116 -76460002350673e-30 .0445 .04077042883429445 18 119 3327 0 121 117 122 118
 ?7 29 120 3548 0 122 123 118 -1718202300015125e-32 .01 .04077042883429445 18 12
2 3372 0 124 119 125 120 ?7 29 123 3549 0 125 126 120 -.0515 -33629126833549e-47
 .0357704288342945 18 125 3354 0 127 122 128 123 ?7 29 126 3550 0 128 129 123 -.
0495 0 .0357704288342945 18 128 3355 0 130 125 131 126 ?7 29 129 3551 0 131 132
 126 -.0495 1210046668121926e-34 .0397704288342945 18 131 3356 0 35 128 133 129
 ?7 29 132 3552 0 133 134 129 -.01 1210046668121926e-34 .0382704288342945 18 133
 3336 0 135 131 136 132 ?7 29 134 3554 0 136 137 132 -.01075 0 .0382704288342945
 18 136 3337 0 34 133 138 134 ?7 29 137 3555 0 138 139 134 -.01 481482486096809e
-49 .04077042883429445 18 138 3328 0 140 136 141 137 ?7 29 139 3556 0 141 142 13
7 -.0515 0 .04077042883429445 18 141 3329 0 143 138 144 139 ?7 29 142 3560 0 144
 145 139 -90205620750794e-30 .0525 .0167704288342945 18 144 3331 0 146 141 147 1
42 ?7 29 145 3586 0 147 148 142 -730235977506427e-31 .0425 .01477042883429448 18
 147 3351 0 149 144 150 145 ?7 29 148 3592 0 150 0 145 -90205620750794e-30 .0525
 .01477042883429448 18 150 3332 0 151 147 0 148 ?7 17 151 0 41 146 149 150 152 1
53 0 154 +15 255 41 3393 0 124 155 0 17 146 0 41 111 151 144 154 156 0 157 -17 1
49 0 41 151 114 147 158 159 0 152 -17 152 0 160 161 162 147 151 153 0 163 -16 15
3 3240 0 ?151 164 0 165 0 0 7 17 154 0 166 108 167 150 146 156 0 162 +15 166 314
7 0 154 168 0 17 108 0 166 169 154 106 162 170 0 171 +17 167 0 166 154 169 144 1
72 173 0 0 +16 156 3198 0 ?154 174 175 176 0 0 7 17 162 0 160 152 177 150 108 17
0 0 0 -15 160 2574 0 162 22 0 17 177 0 160 162 161 106 90 178 0 0 +16 170 3141 0
 ?108 179 173 180 0 0 7 16 179 653 0 ?181 182 170 183 0 0 7 16 173 1829 0 ?167 1
70 184 185 0 0 7 30 180 357 0 170 185 186 0 +-.0515 .0525 .01477042883429448 -1
 0 0 30 185 359 0 173 187 180 0 +-.0515 .0525 .0167704288342945 1 0 0 30 186 355
 0 184 180 188 0 +-.0515 .0445 .0167704288342945 1 0 0 16 184 1840 0 ?189 173 19
0 186 0 0 7 30 188 237 0 191 186 192 0 +-.0495 -.0425 .0397704288342945 0 1 0 16
 191 3126 0 ?105 193 182 188 0 0 7 30 192 236 0 193 188 183 0 +-.0495 .0425 .039
7704288342945 1 0 0 16 193 1860 0 ?194 195 191 192 0 0 7 30 183 233 0 179 192 19
6 0 +-.0495 -.0425 .01477042883429448 0 1 0 30 196 232 0 182 183 197 0 +-.0495 .
0425 .01477042883429448 1 0 0 16 182 1857 0 ?163 191 179 196 0 0 7 30 197 11 0 1
95 196 198 0 +-.0515 .0445 .04077042883429445 -1 0 0 16 195 3113 0 ?54 199 193 1
97 0 0 7 30 198 15 0 199 197 200 0 +-.0515 .0445 .04077042883429445 155930200087
803e-30 -1 0 16 199 13 0 ?201 202 195 198 0 0 7 30 200 97 0 202 198 203 0 +-.051
5 .0445 .04077042883429445 0 0 -1 16 202 81 0 ?204 205 199 200 0 0 7 31 255 203
 661 0 205 200 206 0 +-.0495 -1948721799422905e-32 .0307704288342945 -1 0 0 0 0
 1 .005 16 205 3106 0 ?51 207 202 203 0 0 7 30 206 666 0 207 203 208 0 +-.0495 -
.00927831449460401 .0580308853651741 0 .481686428515174 -.876343645258124 16 207
 664 0 ?209 210 205 206 0 0 7 31 208 1326 0 211 206 212 0 +-918114266247026e-31
 1210046668121926e-34 .04077042883429445 0 0 1 1 0 0 .01 16 211 1338 0 ?213 214
 215 208 0 0 7 30 212 1818 0 210 208 216 0 +-.0595 .0405 .01477042883429448 -160
49416203227e-43 0 -1 16 210 1816 0 ?217 218 207 212 0 0 7 30 216 1836 0 218 212
 26 0 +-.048 .0525 .01477042883429448 0 0 1 16 218 1834 0 ?169 30 210 216 0 0 7
 30 26 3075 0 30 216 14 0 +-.01075 0 .0382704288342945 0 0 1 16 30 3074 0 ?38 17
 218 26 0 0 7 17 38 0 219 220 221 18 34 30 0 222 +15 219 1409 0 220 223 0 17 220
 0 219 29 38 117 222 224 0 0 +17 221 0 219 38 29 136 225 215 0 0 -17 34 0 33 135
 31 136 38 30 0 226 -17 222 0 227 36 228 18 220 224 0 0 -15 227 3133 0 228 229 0
 17 36 0 227 105 222 131 31 37 0 230 -17 228 0 227 222 194 117 114 231 0 220 -16
 224 1392 0 ?220 215 232 233 0 0 7 16 215 1386 0 ?225 211 224 234 0 0 7 16 232 1
395 0 ?235 224 236 237 0 0 7 31 233 1422 0 224 234 238 0 +-918114266247026e-31 1
210046668121926e-34 .0397704288342945 0 0 -1 -1 0 0 .01075 31 234 1423 0 215 237
 233 0 +-918114266247026e-31 1210046668121926e-34 .0382704288342945 0 0 -1 -1 0
 0 .01075 30 238 1162 0 239 233 240 0 +-.0595 .0445 .0167704288342945 -231296463
4635745e-31 -1 -115648231731787e-30 16 239 1811 0 ?71 241 242 238 0 0 7 30 240 1
160 0 241 238 243 0 +-.0595 .0445 .01477042883429448 462592926927149e-30 1 0 16
 241 1093 0 ?244 245 239 240 0 0 7 30 243 1159 0 245 240 246 0 +-.0595 .0145 .01
677042883429445 0 693889390390724e-29 -1 16 245 1097 0 ?247 248 241 243 0 0 7 30
 246 1158 0 214 243 249 0 +-.0515 .0445 .0167704288342945 -2312964634635745e-31
 -1 -115648231731787e-30 16 214 1822 0 ?64 242 211 246 0 0 7 30 249 1155 0 242 2
46 250 0 +-.0515 .0145 .01677042883429445 0 693889390390724e-29 -1 16 242 1104 0
 ?251 239 214 249 0 0 7 30 250 1154 0 248 249 252 0 +-.0595 .0145 .0167704288342
9445 1 -2338953001317045e-31 0 16 248 1088 0 ?253 254 245 250 0 0 7 30 252 1153
 0 254 250 255 0 +-.0595 .0145 .01477042883429448 1 -2338953001317045e-31 0 16 2
54 1100 0 ?68 256 248 252 0 0 7 30 255 885 0 256 252 257 0 +-.0515 .0145 .014770
42883429448 0 -.481686428515174 .876343645258124 16 256 751 0 ?258 259 254 255 0
 0 7 31 257 884 0 259 255 260 0 +-.0515 -1995500859449245e-32 .0307704288342945
 1 2338953001317045e-31 0 2338953001317045e-31 -1 0 .005 16 259 772 0 ?261 262 2
56 257 0 0 7 30 260 877 0 190 257 187 0 +-.0515 .0145 .01477042883429448 1 23389
53001317045e-31 0 16 190 756 0 ?57 184 262 260 0 0 7 30 187 874 0 262 260 185 0
 +-.0515 .004381718226290595 .03317886097687035 1 2338953001317045e-31 0 16 262
 749 0 ?263 190 259 187 0 0 7 17 263 0 264 265 266 47 60 262 0 267 +15 264 838 0
 265 268 0 17 265 0 264 269 263 128 51 205 0 0 -17 266 0 264 263 269 58 261 259
 0 258 -17 60 0 270 271 267 58 263 262 0 266 -17 267 0 270 60 57 47 209 207 0 0
 -15 270 814 0 60 272 0 17 57 0 270 267 271 55 273 190 0 209 +17 209 0 274 181 5
1 55 267 207 0 275 +15 274 1853 0 230 276 0 17 181 0 274 277 209 94 275 179 0 0
 +17 51 0 274 209 278 47 265 205 0 263 +17 275 0 279 273 280 55 181 179 0 0 -15
 279 1886 0 280 281 0 17 273 0 279 73 275 66 57 190 0 0 -17 280 0 279 275 244 94
 46 282 0 181 +17 244 0 279 280 73 40 283 241 0 0 +17 46 0 284 99 96 40 280 282
 0 217 -16 282 1941 0 ?280 285 178 286 0 0 7 16 285 1938 0 ?287 288 282 289 0 0
 7 16 178 1920 0 ?177 282 290 291 0 0 7 30 286 2093 0 282 291 289 0 +-.048 .0405
 .01477042883429448 1 0 0 30 291 2094 0 178 292 286 0 +-.048 .0525 .014770428834
29448 0 1 0 30 289 2086 0 285 286 293 0 +-.048 .0405 .0397704288342945 -1 0 0 30
 293 2085 0 294 289 295 0 +-.0595 .0405 .0167704288342945 -1 0 -2704957787060725
e-47 16 294 1939 0 ?296 297 288 293 0 0 7 30 295 2084 0 297 293 298 0 +-.0515 .0
405 .04077042883429445 0 0 1 16 297 1950 0 ?102 299 294 295 0 0 7 30 298 2083 0
 299 295 300 0 +-.0495 .0405 .0397704288342945 0 0 -1 16 299 1945 0 ?96 301 297
 298 0 0 7 30 300 2076 0 301 298 302 0 +-.048 .0525 .0167704288342945 0 1 0 16 3
01 1967 0 ?87 303 299 300 0 0 7 30 302 2075 0 303 300 304 0 +-.048 .0445 .040770
42883429445 0 0 -1 16 303 1966 0 ?78 305 301 302 0 0 7 30 304 2074 0 305 302 306
 0 +-.048 .0425 .0397704288342945 0 0 1 16 305 1927 0 ?81 307 303 304 0 0 7 30 3
06 2069 0 307 304 308 0 +-.0515 .0445 .0397704288342945 1 0 0 16 307 1915 0 ?84
 236 305 306 0 0 7 30 308 2068 0 236 306 237 0 +-.0515 .0445 .0397704288342945 -
155930200087803e-30 1 0 16 236 1914 0 ?75 232 307 308 0 0 7 31 237 1425 0 232 30
8 234 0 +-918114266247026e-31 1210046668121926e-34 .0382704288342945 0 0 -1 -1 0
 0 .01 17 75 0 227 84 287 69 309 236 0 310 +17 84 0 227 311 75 82 310 307 0 312
 +17 287 0 227 75 105 100 313 285 0 309 +17 309 0 314 315 204 100 75 236 0 0 -17
 310 0 316 317 318 69 84 307 0 204 -15 316 1873 0 319 24 0 17 317 0 316 319 310
 52 204 202 0 320 -17 318 0 316 310 321 82 78 303 0 0 -17 204 0 314 309 320 69 3
17 202 0 0 +15 314 1898 0 261 322 0 17 320 0 314 204 323 52 201 199 0 0 -17 323
 0 314 320 261 141 127 324 0 201 +17 201 0 325 326 54 141 320 199 0 0 +15 325 31
21 0 327 328 0 17 326 0 325 329 201 138 143 175 0 213 +17 54 0 325 201 327 52 31
9 195 0 317 +17 327 0 325 54 329 119 124 164 0 319 +17 319 0 316 330 317 119 54
 195 0 0 -17 330 0 316 321 319 109 121 290 0 189 +17 321 0 316 318 330 76 189 18
4 0 0 -17 121 0 41 124 111 119 330 290 0 327 -16 290 3196 0 ?330 178 331 332 0 0
 7 17 189 0 333 157 334 109 321 184 0 0 +15 333 1843 0 189 335 0 17 157 0 333 17
2 189 144 111 331 0 167 +17 334 0 333 189 172 76 87 301 0 321 -17 172 0 333 334
 157 85 167 173 0 0 -17 87 0 336 171 78 85 334 301 0 169 +15 336 2013 0 81 337 0
 17 171 0 336 90 87 106 169 218 0 177 -17 78 0 336 87 312 76 318 303 0 334 +17 1
69 0 166 167 108 85 171 218 0 172 +17 312 0 336 78 81 82 311 288 0 318 -17 81 0
 336 312 90 79 338 305 0 311 +17 311 0 227 194 84 79 312 288 0 339 +16 288 1923
 0 ?311 294 285 292 0 0 7 30 292 2095 0 288 332 291 0 +-.048 .0525 .039770428834
2945 0 -1 0 30 332 3481 0 290 340 292 0 +-763278329429795e-31 .0445 .04077042883
429445 0 0 -1 30 340 3482 0 331 341 332 0 +-90205620750794e-30 .0525 .0167704288
342945 -1718202300015125e-30 1 0 16 331 3197 0 ?157 290 159 340 0 0 7 30 341 348
3 0 159 342 340 0 +-763278329429795e-31 .0425 .0397704288342945 0 0 1 16 159 319
9 0 ?158 331 231 341 0 0 7 30 342 3484 0 231 343 341 0 +-918114266247026e-31 121
0046668121926e-34 .0397704288342945 -1718202300015125e-30 1 0 16 231 3257 0 ?114
 159 344 342 0 0 7 30 343 3485 0 344 345 342 0 --1718202300015125e-32 .01 .04977
04288342945 0 0 -1 16 344 3201 0 ?346 231 45 343 0 0 7 30 345 3486 0 45 347 343
 0 +-918114266247026e-31 1210046668121926e-34 .0382704288342945 -171820230001512
5e-30 1 0 16 45 3256 0 ?39 344 324 345 0 0 7 30 347 3487 0 324 348 345 0 +-.0515
 0 .04077042883429445 0 0 1 16 324 3207 0 ?323 45 349 347 0 0 7 30 348 3488 0 34
9 350 347 0 --.0515 0 .0357704288342945 1 2338953001317045e-31 0 16 349 3206 0 ?
269 324 351 348 0 0 7 30 350 3489 0 351 352 348 0 +-.0495 0 .0397704288342945 0
 0 -1 16 351 3213 0 ?278 349 37 350 0 0 7 30 352 3490 0 37 353 350 0 +-918114266
247026e-31 1210046668121926e-34 .0397704288342945 1 0 0 16 37 3258 0 ?31 351 354
 352 0 0 7 30 353 3491 0 354 355 352 0 +-.01 0 .0497704288342945 0 0 -1 16 354 3
211 0 ?356 37 174 353 0 0 7 30 355 3492 0 174 176 353 0 +-918114266247026e-31 12
10046668121926e-34 .0382704288342945 1 0 0 16 174 3259 0 ?135 354 156 355 0 0 7
 30 176 3521 0 156 165 355 0 +-90205620750794e-30 .0525 .04077042883429445 0 0 -
1 30 165 3532 0 153 357 176 0 +-90205620750794e-30 .0525 .01477042883429448 -171
8202300015125e-30 1 0 30 357 3533 0 175 358 165 0 +0 0 .04077042883429445 1 0 0
 16 175 3208 0 ?326 156 164 357 0 0 7 30 358 3538 0 164 0 357 0 +-90205620750794
e-30 .0525 .04077042883429445 -1718202300015125e-30 1 0 16 164 3193 0 ?327 175 1
53 358 0 0 7 17 135 0 33 140 34 133 226 174 0 356 +15 33 3401 0 130 359 0 17 140
 0 33 143 135 138 356 354 0 326 -17 226 0 360 225 361 136 135 174 0 221 -17 356
 0 362 235 213 133 140 354 0 361 +15 362 1350 0 235 363 0 17 235 0 362 346 356 1
15 361 232 0 0 +17 213 0 362 356 346 138 329 211 0 0 +17 361 0 360 226 44 133 23
5 232 0 0 -15 360 3088 0 44 364 0 17 44 0 360 361 225 115 39 45 0 235 -17 225 0
 360 44 226 32 221 215 0 0 +14 255 364 1398 365 ?223 363 360 12 366 +0 0 223 363
 28 81 1 365 5324 367 364 368 0 0 369 370 14 223 1406 369 ?337 364 219 12 371 -0
 0 337 364 28 14 363 1347 372 ?364 373 362 12 374 -0 0 364 373 28 50 366 1420 0
 364 375 371 0 +-918114266247026e-31 1210046668121926e-34 .0382704288342945 0 0
 -1 -1 0 0 13 28 34 0 0 0 0 0 0 16 22 14 22 2576 376 ?322 0 160 12 377 -281 281
 322 0 28 81 1 376 5330 367 22 378 0 372 379 380 14 322 1899 379 ?281 22 314 12
 25 -0 0 281 22 28 50 377 70 0 22 381 25 0 +-918114266247026e-31 121004666812192
6e-34 .01477042883429448 0 0 1 1 0 0 14 281 1888 382 ?24 322 279 12 377 -22 22 2
4 322 28 81 1 382 5334 367 281 383 0 379 384 385 14 24 1874 384 ?386 281 316 12
 13 -0 0 386 281 28 81 1 384 5336 367 24 387 0 382 388 389 14 386 1864 388 ?276
 24 390 12 391 -0 0 276 24 28 81 1 388 5338 367 386 392 0 384 393 394 14 276 185
4 393 ?335 386 274 12 395 -0 0 335 386 28 15 390 1863 0 163 386 0 50 391 225 0 3
86 396 395 0 +-.0495 .0425 .0397704288342945 0 1 0 0 0 1 50 396 227 0 229 397 39
1 0 +-918114266247026e-31 1210046668121926e-34 .0397704288342945 0 0 -1 -1 0 0 5
0 395 224 0 276 391 381 0 +-.0495 -.0425 .0397704288342945 -1 0 0 0 0 1 50 381 3
 0 328 395 377 0 +-918114266247026e-31 1210046668121926e-34 .04077042883429445 0
 0 1 1 0 0 14 328 1 398 ?268 229 325 12 381 +0 0 268 229 28 81 1 398 5342 367 32
8 399 0 393 400 401 14 268 835 400 ?272 328 264 12 402 -0 0 272 328 28 14 229 13
83 403 ?328 404 227 12 396 +0 0 328 404 28 81 1 403 5346 367 229 405 0 400 406 4
07 14 404 1819 406 ?229 408 409 12 410 +0 0 229 408 28 81 1 406 5348 367 404 411
 0 403 412 413 14 408 1826 412 ?404 168 414 12 415 +0 0 404 168 28 15 409 1139 0
 416 404 0 50 410 1150 0 404 374 417 0 +-.0595 139039349362399e-31 .014770428834
29448 -1 2312964634635745e-31 16049416203227e-43 2312964634635745e-31 1 0 51 255
 374 1360 0 363 371 410 0 +-918114266247026e-31 1210046668121926e-34 .0497704288
342945 0 0 -1 .01 -1 0 0 50 417 1148 0 373 410 415 0 +-.0595 .0145 .016770428834
29445 -2338953001317045e-31 -1 -693889390390724e-29 0 693889390390724e-29 -1 14
 373 1133 418 ?363 272 419 12 417 +0 0 363 272 28 50 415 1145 0 408 417 402 0 +-
.0595 .0445 .0167704288342945 -2704957787060725e-47 -1156482317317872e-31 1 0 -1
 -1156482317317872e-31 51 402 864 0 268 415 420 0 +-.0515 -1995500859449245e-32
 .0307704288342945 1 2338953001317045e-31 0 .005 -2338953001317045e-31 1 0 50 42
0 863 0 272 402 421 0 +-.0515 .0145 .01477042883429448 -2049726599261605e-31 .87
6343645258124 .481686428515174 0 -.481686428515174 .876343645258124 14 272 811 4
22 ?373 268 270 12 420 -0 0 373 268 28 50 421 348 0 168 420 397 0 +-918114266247
026e-31 .0525 .01477042883429448 0 1 0 0 0 1 14 168 1837 423 ?408 335 166 12 421
 +0 0 408 335 28 50 397 344 0 335 421 396 0 +-.0515 .0525 .0167704288342945 0 0
 -1 -1 0 0 14 335 1844 424 ?168 276 333 12 397 -0 0 168 276 28 81 1 424 5358 367
 335 425 0 423 426 427 80 255 1 367 428 429 9000 1 1 1 1 1 1 1 1 0 FFFFTFTFFFFFF
F1 81 1 425 5033 430 335 0 424 431 432 433 81 1 423 5356 367 168 432 0 422 424 4
34 81 1 426 5360 367 337 435 0 424 436 437 82 255 1 427 -1521154228 14 337 2010
 426 ?438 223 336 12 375 +0 0 438 223 28 81 1 435 5045 430 337 0 426 439 440 441
 81 1 436 5362 367 438 440 0 426 442 443 82 1 437 -1521940686 14 438 2028 436 ?3
59 337 284 12 444 +0 0 359 337 28 81 1 440 5046 430 438 0 436 435 445 446 81 1 4
42 5364 367 359 445 0 436 447 448 82 1 443 -1530198222 14 359 3398 442 ?155 438
 33 12 449 -0 0 155 438 28 81 1 445 5047 430 359 0 442 440 450 451 81 1 447 5366
 367 155 450 0 442 0 452 82 1 448 -1092417716 14 155 3390 447 ?0 359 41 12 453 -
0 0 0 359 28 81 1 450 5048 430 155 0 447 445 0 454 82 1 452 -1088485556 80 1 430
 0 455 8001 0 0 0 0 3 5 0 0 0 FFFFTFTFFFFFFF2 83 255 3 454 .250980392156863 .250
980392156863 .250980392156863 79 255 15 455 SDL/TYSA_COLOUR50 453 3468 0 155 449
 444 0 +-90205620750794e-30 .0525 .04077042883429445 -1 -1718202300015125e-30 0
 1718202300015125e-30 -1 0 50 449 3473 0 359 0 453 0 +0 0 .04077042883429445 0 1
 0 0 0 1 50 444 2063 0 438 453 375 0 +-.048 .0405 .0563911989728892 0 1 0 0 0 1
 50 375 2062 0 337 444 366 0 +-.048 .0525 .0563911989728892 -1 0 0 0 0 1 83 3 45
1 .250980392156863 .250980392156863 .250980392156863 83 3 446 .250980392156863 .
250980392156863 .250980392156863 15 284 2031 0 96 438 0 17 96 0 284 46 313 94 27
7 299 0 280 +17 313 0 284 96 102 103 287 285 0 277 -17 277 0 274 230 181 103 96
 299 0 0 -17 230 0 274 278 277 131 105 191 0 0 -17 278 0 274 51 230 128 35 351 0
 265 +17 105 0 227 287 36 103 230 191 0 313 +17 35 0 33 31 130 131 278 351 0 36
 -17 130 0 33 35 127 128 269 349 0 278 -17 127 0 33 130 143 125 323 324 0 269 -1
7 269 0 264 266 265 125 130 349 0 261 +17 261 0 314 323 258 125 266 259 0 0 +17
 258 0 314 261 251 58 271 256 0 0 +17 251 0 314 258 64 66 456 242 0 271 +17 271
 0 270 57 60 66 258 256 0 273 -17 64 0 314 251 315 62 457 214 0 253 +17 456 0 41
9 458 68 62 251 242 0 0 -15 419 1136 0 456 373 0 17 458 0 419 247 456 61 253 248
 0 459 -17 68 0 419 456 247 66 73 254 0 251 +17 247 0 419 68 458 65 459 245 0 0
 +17 73 0 279 244 273 65 68 254 0 283 -17 283 0 409 459 217 65 244 241 0 247 -17
 459 0 409 416 283 61 247 245 0 0 -17 217 0 409 283 416 40 99 210 0 244 +17 416
 0 409 217 459 97 71 239 0 0 -17 99 0 284 93 46 97 217 210 0 296 -17 93 0 284 10
2 99 91 296 294 0 315 -17 296 0 414 71 457 97 93 294 0 416 +15 414 1124 0 457 40
8 0 17 71 0 414 253 296 61 416 239 0 458 +17 457 0 414 296 253 91 64 214 0 0 -17
 253 0 414 457 71 62 458 248 0 456 +17 102 0 284 313 93 100 315 297 0 287 +17 31
5 0 314 64 309 91 102 297 0 457 -17 143 0 33 127 140 141 326 175 0 323 -81 1 439
 5044 430 223 0 369 368 435 460 83 3 441 .250980392156863 .250980392156863 .2509
80392156863 81 1 369 5326 367 223 439 0 365 372 461 81 1 368 5043 430 364 0 365
 462 439 463 83 3 460 .250980392156863 .250980392156863 .250980392156863 81 1 46
2 5042 430 363 0 372 464 368 465 83 3 463 .250980392156863 .250980392156863 .250
980392156863 81 1 372 5328 367 363 462 0 369 376 466 81 1 464 5041 430 373 0 418
 467 462 468 83 3 465 .250980392156863 .250980392156863 .250980392156863 81 1 41
8 5352 367 373 464 0 412 422 469 81 1 467 5040 430 272 0 422 470 464 471 83 3 46
8 .250980392156863 .250980392156863 .250980392156863 81 1 422 5354 367 272 467 0
 418 423 472 81 1 470 5039 430 268 0 400 399 467 473 83 3 471 .250980392156863 .
250980392156863 .250980392156863 81 1 400 5344 367 268 470 0 398 403 474 81 1 39
9 5038 430 328 0 398 405 470 475 83 3 473 .250980392156863 .250980392156863 .250
980392156863 81 1 405 5037 430 229 0 403 411 399 476 83 3 475 .250980392156863 .
250980392156863 .250980392156863 81 1 411 5036 430 404 0 406 477 405 478 83 3 47
6 .250980392156863 .250980392156863 .250980392156863 81 1 477 5035 430 408 0 412
 432 411 479 83 3 478 .250980392156863 .250980392156863 .250980392156863 81 1 41
2 5350 367 408 477 0 406 418 480 81 1 432 5034 430 168 0 423 425 477 481 83 3 47
9 .250980392156863 .250980392156863 .250980392156863 83 3 481 .250980392156863 .
250980392156863 .250980392156863 82 1 480 -1525414094 82 1 474 1567885132 82 1 4
72 1572210482 82 1 469 1635583794 82 1 466 1667172172 82 1 461 1687619404 82 1 4
34 -1524299956 81 1 431 5032 430 276 0 393 392 425 482 83 3 433 .250980392156863
 .250980392156863 .250980392156863 81 1 393 5340 367 276 431 0 388 398 483 81 1
 392 5031 430 386 0 388 387 431 484 83 3 482 .250980392156863 .250980392156863 .
250980392156863 81 1 387 5030 430 24 0 384 383 392 485 83 3 484 .250980392156863
 .250980392156863 .250980392156863 81 1 383 5029 430 281 0 382 486 387 487 83 3
 485 .250980392156863 .250980392156863 .250980392156863 81 1 486 5028 430 322 0
 379 378 383 488 83 3 487 .250980392156863 .250980392156863 .250980392156863 81
 1 379 5332 367 322 486 0 376 382 489 81 1 378 5027 430 22 0 376 0 486 490 83 3
 488 .250980392156863 .250980392156863 .250980392156863 83 3 490 .25098039215686
3 .250980392156863 .250980392156863 82 1 489 -1512962228 82 1 483 -1519188148 79
 14 429 SWEntUnchanged51 371 1418 0 223 366 374 0 --918114266247026e-31 12100466
68121926e-34 .0382704288342945 0 0 1 .01075 1 0 0 82 1 413 -1533016270 82 1 407
 1691420492 82 1 401 1413285708 17 163 0 390 158 338 147 161 182 0 0 +17 158 0 3
90 339 163 112 149 159 0 194 +17 338 0 390 163 339 88 81 305 0 161 -17 161 0 160
 177 152 88 163 182 0 0 -17 339 0 390 338 158 79 194 193 0 0 -17 194 0 227 228 3
11 112 339 193 0 0 +82 1 394 -1516173492 82 1 389 -1515124916 82 1 385 -15139452
94 50 25 92 0 322 377 13 0 +-.0515 .0445 .04077042883429445 1 155930200087803e-3
0 0 -155930200087803e-30 1 0 82 1 380 -1380907188 82 1 370 1689847628 17 346 0 3
62 213 235 122 43 344 0 329 +17 329 0 325 327 326 122 213 211 0 0 -17 43 0 41 39
 124 115 346 344 0 44 -17 124 0 41 43 121 122 327 164 0 346 -17 114 0 41 149 42
 112 228 231 0 158 +17 42 0 41 114 39 117 29 17 0 228 -17 29 0 219 221 220 32 42
 17 0 225 +17 90 0 336 81 171 88 177 178 0 338 -17 111 0 41 121 146 109 157 331
 0 330 -19 23 100 0 7 0 16 12 S0 74 4 CI16 index_map_offset0 0 1 dCCZ20 21 4 0 0
 19 447 450 9 0 0 0 0 0 0 0 0 0 0 0 0 0 0 0 0 81 2 19 3012 491 7 0 9 0 0 492 0 8
0 2 491 493 494 8004 0 0 0 0 3 5 0 0 0 FFTFFFFFFFFFFF2 3 83 1 492 1 79 16 494 SD
L/TYSA_DENSITY80 1 5 495 496 8017 0 0 0 0 0 0 0 0 0 TTTTTTTTTTTTTF3 84 255 25 20
 ModBracket_half_hor_sup-179 13 496 SDL/TYSA_NAME74 20 6 1 0 0 2 0 0 0 0 0 0 0 0
 0 0 0 0 0 0 0 0 0 0 0 1 0 
