**ABCDEFGHIJKLMNOPQRSTUVWXYZabcdefghijklmnopqrstuvwxyz**************************
**PARASOLID !"#$%&'()*+,-./:;<=>?@[\]^_`{|}~0123456789**************************
**PART1;
MC=AMD64;
MC_MODEL=Intel64 Family 6 Model 158 Stepping 10, GenuineIntel;
MC_ID=unknown;
OS=Windows_NT;
OS_RELEASE=unknown;
FRU=Parasolid Version 31.1, build 290,  3- 9-2020;
APPL=SOLIDWORKS 2020-2020128;
SITE=;
USER=unknown;
FORMAT=text;
GUISE=transmit;
KEY=Brack_Val;
FILE=Brack_Val.x_t;
DATE=Tue Jul 18 10:05:19 2023;
**PART2;
SCH=SCH_3101290_31100;
USFLD_SIZE=0;
**PART3;
**END_OF_HEADER*****************************************************************
T51 : TRANSMIT FILE created by modeller version 310129023 SCH_3101290_31100_1300
6222 0 10 20 CCCCCCCI4 mesh1006 0 I8 polyline1008 0 CCCCCCCCCCA16 mesh_offset_da
ta206 0 Z1 3 2 3 0 0 0 0 0 0 0 1e3 1e-8 0 0 0 1 0 1 4 0 81 255 1 2 3 5 1 0 0 0 0
 0 70 11 CI9 list_type0 0 1 uI10 notransmit0 0 1 lCCCDCCDI12 finger_index0 0 1 d
I12 finger_block1012 0 CZ3 0 4 T1 0 0 1 20 1 6 6 11 255 4 1 0 1 7 8 1 0 0 0 0 12
 34 CCCCCCI4 mesh1006 0 I8 polyline1008 0 CCCCCCCDI5 owner1040 0 CCCCCCI13 bound
ary_mesh1006 0 I17 boundary_polyline1008 0 CCCA16 index_map_offset0 0 1 dA9 inde
x_map82 0 A17 node_id_index_map82 0 A20 schema_embedding_map82 0 A5 child12 0 A1
4 lowest_node_id0 0 1 dA16 mesh_offset_data206 0 Z7 5676 9 10 0 0 0 0 0 0 1e3 1e
-8 4 11 0 1 0 1 1 12 13 14 15 0 0 16 17 18 0 0 0 0 0 0 0 100 255 8 2 4 0 0 16958
5750335208e-29 -1 -1665334536937735e-31 -1 -16800649414168e-28 -2219816574291925
e-33 -1019334040063106e-32 277555756156289e-30 -1 .0525 -166775102357558e-32 .04
077042883429445 1 3 ?81 1 9 5676 5 7 19 0 0 0 20 70 10 0 4 T7 0 0 4 20 1 21 21 1
3 255 12 99 0 7 0 22 0 0 23 0 50 255 13 93 0 24 25 0 0 +-.0515 .0445 .0407704288
3429445 0 -1 0 0 0 -1 30 255 14 3842 0 17 26 0 0 +-90205620750794e-30 .0525 .016
7404288342945 -1718202300015125e-30 1 200376864962257e-45 29 255 15 3850 0 18 27
 0 -.0595 .0405 .0167404288342945 19 8 CCCCCCCA5 owner12 0 Z16 33 0 7 23 0 28 V0
 16 255 17 3840 0 ?29 0 30 14 0 0 7 18 255 18 3848 0 31 0 32 15 ?7 17 255 31 0 3
3 34 35 18 36 37 0 38 +18 32 3837 0 39 18 40 27 ?7 17 39 0 41 42 43 32 44 45 0 2
9 +18 40 3073 0 46 32 47 48 ?7 29 27 3839 0 32 48 15 -90205620750794e-30 .0525 .
0167404288342945 29 48 3074 0 40 49 27 -.01075 1210046668121926e-34 .03977042883
42945 29 49 3072 0 47 50 48 -184706747251626e-31 .01075 .0382704288342945 18 47
 3070 0 51 40 52 49 ?7 29 50 660 0 52 53 49 -.0495 .0043817182262906 .0331788609
7687035 18 52 658 0 54 47 55 50 ?7 29 53 26 0 55 56 50 -.0515 .0445 .04077042883
429445 18 55 24 0 57 52 58 53 ?7 29 56 901 0 58 59 53 -.0515 .004381718226290595
 .03317886097687035 18 58 802 0 60 55 61 56 ?7 29 59 1163 0 62 63 56 -.0515 .014
5 .01677042883429445 18 62 1114 0 64 61 65 59 ?7 29 63 1167 0 61 66 59 -.0595 .0
145 .01677042883429445 18 61 1119 0 67 58 62 63 ?7 29 66 2098 0 65 68 63 -.0515
 .0445 .0397704288342945 18 65 1972 0 69 62 70 66 ?7 29 68 2101 0 70 71 66 -.048
 .0445 .0167704288342945 18 70 1993 0 72 65 73 68 ?7 29 71 2102 0 73 74 68 -.048
 .0425 .0397704288342945 18 73 1971 0 75 70 76 71 ?7 29 74 2103 0 76 77 71 -.048
 .0445 .0397704288342945 18 76 1973 0 78 73 79 74 ?7 29 77 2104 0 79 80 74 -.048
 .0525 .0167704288342945 18 79 1977 0 81 76 82 77 ?7 29 80 2111 0 82 83 77 -.051
5 .0405 .0167704288342945 18 82 1984 0 84 79 85 80 ?7 29 83 2113 0 85 86 80 -.05
95 .0405 .0167704288342945 18 85 1981 0 87 82 88 83 ?7 29 86 2114 0 88 89 83 -.0
515 .0405 .0397704288342945 18 88 1970 0 90 85 91 86 ?7 29 89 2115 0 91 92 86 -.
0495 .0405 .0397704288342945 18 91 1995 0 93 88 94 89 ?7 29 92 3546 0 94 95 89 -
764600023506728e-31 .0445 .0167704288342945 18 94 3334 0 96 91 97 92 ?7 29 95 35
47 0 97 98 92 -1648350243753455e-31 .0425 .0397704288342945 18 97 3337 0 99 94 1
00 95 ?7 29 98 3548 0 100 101 95 -1089934496248538e-31 .01 .0382704288342945 18
 100 3356 0 102 97 103 98 ?7 29 101 3550 0 103 104 98 -184706747251626e-31 .0107
5 .0397704288342945 18 103 3338 0 105 100 106 101 ?7 29 104 3551 0 106 107 101 -
76460002350673e-30 .0445 .04077042883429445 18 106 3331 0 108 103 109 104 ?7 29
 107 3552 0 109 110 104 -1718202300015125e-32 .01 .04077042883429445 18 109 3376
 0 111 106 112 107 ?7 29 110 3553 0 112 113 107 -.0515 -33629126833549e-47 .0357
704288342945 18 112 3358 0 114 109 115 110 ?7 29 113 3554 0 115 116 110 -.0495 0
 .0357704288342945 18 115 3359 0 117 112 118 113 ?7 29 116 3555 0 118 119 113 -.
0495 1210046668121926e-34 .0397704288342945 18 118 3360 0 120 115 121 116 ?7 29
 119 3556 0 121 122 116 -.01 1210046668121926e-34 .0382704288342945 18 121 3340
 0 123 118 124 119 ?7 29 122 3558 0 124 125 119 -.01075 0 .0382704288342945 18 1
24 3341 0 126 121 127 122 ?7 29 125 3559 0 127 128 122 -.01 481482486096809e-49
 .04077042883429445 18 127 3332 0 129 124 130 125 ?7 29 128 3560 0 130 131 125 -
.0515 0 .04077042883429445 18 130 3333 0 132 127 133 128 ?7 29 131 3564 0 133 13
4 128 -90205620750794e-30 .0525 .0167704288342945 18 133 3335 0 135 130 136 131
 ?7 29 134 4082 0 136 137 131 -.048 .0425 .0167404288342945 18 136 3974 0 138 13
3 139 134 ?7 29 137 4083 0 139 140 134 -.0515 .0145 .0167404288342945 18 139 398
6 0 141 136 142 137 ?7 29 140 4084 0 142 143 137 -.0515 .01341718018461192 .0167
404288342945 18 142 3987 0 144 139 145 140 ?7 29 143 4085 0 145 146 140 -.0495 .
01341718018461192 .0167404288342945 18 145 3988 0 147 142 148 143 ?7 29 146 4086
 0 148 149 143 -.0495 .0405 .0167404288342945 18 148 3989 0 34 145 150 146 ?7 29
 149 4087 0 150 151 146 241255419432027e-33 .0425 .0167404288342945 18 150 3984
 0 42 148 152 149 ?7 29 151 4089 0 152 153 149 -.0595 .0145 .0167404288342945 18
 152 3990 0 35 150 154 151 ?7 29 153 4097 0 154 0 151 -.048 .0525 .0167404288342
945 18 154 3975 0 43 152 0 153 ?7 17 43 0 41 39 138 154 155 156 0 44 +15 255 41
 4007 0 43 157 0 17 138 0 41 43 42 136 158 159 0 155 -17 155 0 160 75 161 136 43
 156 0 162 -16 156 3921 0 ?43 159 163 164 0 0 7 17 44 0 165 81 166 154 39 45 0 1
61 -15 165 3891 0 44 167 0 17 81 0 165 168 44 79 161 169 0 170 +17 166 0 165 44
 168 32 135 171 0 0 +16 45 3961 0 ?39 37 0 172 0 0 7 17 161 0 160 155 170 154 81
 169 0 0 -15 160 3862 0 155 173 0 17 170 0 160 161 72 79 174 175 0 176 +16 169 3
859 0 ?81 177 178 179 0 0 7 16 177 3078 0 ?180 30 169 181 0 0 7 16 178 1816 0 ?1
82 169 183 184 0 0 7 30 179 1836 0 169 184 181 0 +-.048 .0525 .01477042883429448
 0 0 1 30 184 1818 0 178 185 179 0 +-.0595 .0405 .01477042883429448 -16049416203
227e-43 0 -1 30 181 3079 0 177 179 26 0 +-.01075 0 .0382704288342945 0 0 1 30 26
 3082 0 30 181 14 0 --184706747251626e-31 .01075 .0382704288342945 0 0 1 16 30 3
080 0 ?186 17 177 26 0 0 7 17 186 0 187 188 189 47 105 30 0 190 +15 187 1409 0 1
89 191 0 17 188 0 187 180 186 124 190 192 0 0 -17 189 0 187 186 180 103 193 194
 0 0 +17 105 0 195 196 51 103 186 30 0 197 -17 190 0 198 199 200 47 188 192 0 0
 +15 198 3092 0 199 201 0 17 199 0 198 202 190 100 51 203 0 204 -17 200 0 198 19
0 202 124 123 205 0 188 -16 192 1386 0 ?190 206 194 207 0 0 7 16 206 1338 0 ?208
 209 192 185 0 0 7 16 194 1392 0 ?189 192 210 211 0 0 7 31 255 207 1423 0 192 21
2 211 0 +-918114266247026e-31 1210046668121926e-34 .0382704288342945 0 0 -1 -1 0
 0 .01075 31 212 1425 0 210 213 207 0 +-918114266247026e-31 1210046668121926e-34
 .0382704288342945 0 0 -1 -1 0 0 .01 31 211 1422 0 194 207 214 0 +-9181142662470
26e-31 1210046668121926e-34 .0397704288342945 0 0 -1 -1 0 0 .01075 30 214 1162 0
 215 211 216 0 +-.0595 .0445 .0167704288342945 -2312964634635745e-31 -1 -1156482
31731787e-30 16 215 1811 0 ?67 217 218 214 0 0 7 30 216 1159 0 217 214 219 0 +-.
0595 .0145 .01677042883429445 0 693889390390724e-29 -1 16 217 1097 0 ?220 221 21
5 216 0 0 7 30 219 1158 0 209 216 222 0 +-.0515 .0445 .0167704288342945 -2312964
634635745e-31 -1 -115648231731787e-30 16 209 1822 0 ?64 218 206 219 0 0 7 30 222
 1155 0 218 219 223 0 +-.0515 .0145 .01677042883429445 0 693889390390724e-29 -1
 16 218 1104 0 ?224 215 209 222 0 0 7 30 223 1154 0 221 222 225 0 +-.0595 .0145
 .01677042883429445 1 -2338953001317045e-31 0 16 221 1088 0 ?226 227 217 223 0 0
 7 30 225 885 0 227 223 228 0 +-.0515 .0145 .01477042883429448 0 -.4816864285151
74 .876343645258124 16 227 3876 0 ?60 229 221 225 0 0 7 31 228 884 0 229 225 230
 0 +-.0515 -1995500859449245e-32 .0307704288342945 1 2338953001317045e-31 0 2338
953001317045e-31 -1 0 .005 16 229 772 0 ?231 232 227 228 0 0 7 30 230 874 0 232
 228 233 0 +-.0515 .004381718226290595 .03317886097687035 1 2338953001317045e-31
 0 16 232 749 0 ?234 235 229 230 0 0 7 30 233 359 0 236 230 237 0 +-.0515 .0525
 .0167704288342945 1 0 0 16 236 1829 0 ?168 238 235 233 0 0 7 30 237 355 0 235 2
33 239 0 +-.0515 .0445 .0167704288342945 1 0 0 16 235 1840 0 ?240 236 232 237 0
 0 7 30 239 237 0 238 237 241 0 +-.0495 -.0425 .0397704288342945 0 1 0 16 238 31
30 0 ?93 242 236 239 0 0 7 30 241 236 0 242 239 243 0 +-.0495 .0425 .03977042883
42945 1 0 0 16 242 1860 0 ?244 245 238 241 0 0 7 30 243 11 0 245 241 246 0 +-.05
15 .0445 .04077042883429445 -1 0 0 16 245 3117 0 ?57 247 242 243 0 0 7 30 246 15
 0 247 243 248 0 +-.0515 .0445 .04077042883429445 155930200087803e-30 -1 0 16 24
7 13 0 ?249 250 245 246 0 0 7 30 248 97 0 250 246 251 0 +-.0515 .0445 .040770428
83429445 0 0 -1 16 250 81 0 ?252 253 247 248 0 0 7 31 251 661 0 253 248 254 0 +-
.0495 -1948721799422905e-32 .0307704288342945 -1 0 0 0 0 1 .005 16 253 3110 0 ?5
4 183 250 251 0 0 7 30 254 666 0 183 251 185 0 +-.0495 -.00927831449460401 .0580
308853651741 0 .481686428515174 -.876343645258124 16 183 664 0 ?255 178 253 254
 0 0 7 31 185 1326 0 206 254 184 0 +-918114266247026e-31 1210046668121926e-34 .0
4077042883429445 0 0 1 1 0 0 .01 17 255 0 256 257 54 145 258 183 0 0 +15 256 185
3 0 255 259 0 17 257 0 256 260 255 148 147 261 0 262 +17 54 0 256 255 263 52 264
 253 0 234 +17 258 0 265 266 267 52 255 183 0 0 -15 265 814 0 268 269 0 17 266 0
 265 268 258 58 234 232 0 270 -17 267 0 265 258 268 145 144 271 0 255 +17 268 0
 265 267 266 142 60 227 0 0 -17 144 0 33 141 147 142 267 271 0 272 -16 271 3951
 0 ?267 273 261 274 0 0 7 16 273 3950 0 ?272 163 271 275 0 0 7 16 261 3952 0 ?25
7 271 276 277 0 0 7 30 274 4060 0 271 277 275 0 +-.0515 .01341718018461192 .0167
404288342945 1 297996070647646e-30 -116620065611886e-30 30 277 4061 0 261 278 27
4 0 +-.0495 -.0425 .0167404288342945 0 1 0 30 275 4059 0 273 274 279 0 +-.0515 .
0445 .0167404288342945 155930200087803e-30 -1 -181845901651141e-46 30 279 4058 0
 163 275 164 0 +-.0595 .0145 .0167404288342945 -1 2338953001317035e-31 116620065
611886e-30 16 163 3923 0 ?35 156 273 279 0 0 7 30 164 4057 0 156 279 280 0 +-.04
8 .0525 .0167404288342945 0 1 0 30 280 4056 0 159 164 281 0 +-.0495 .0425 .01674
04288342945 1 0 -116620065611886e-30 16 159 3919 0 ?158 282 156 280 0 0 7 30 281
 3542 0 282 280 283 0 +-90205620750794e-30 .0525 .04077042883429445 -17182023000
15125e-30 1 0 16 282 3197 0 ?284 285 159 281 0 0 7 30 283 3537 0 285 281 286 0 +
0 0 .04077042883429445 1 0 0 16 285 3212 0 ?287 171 282 283 0 0 7 30 286 3525 0
 171 283 288 0 +-90205620750794e-30 .0525 .04077042883429445 0 0 -1 16 171 3202
 0 ?166 205 285 286 0 0 7 30 288 3496 0 205 286 289 0 +-918114266247026e-31 1210
046668121926e-34 .0382704288342945 1 0 0 16 205 3263 0 ?123 290 171 288 0 0 7 30
 289 3495 0 290 288 291 0 +-.01 0 .0497704288342945 0 0 -1 16 290 3215 0 ?292 29
3 205 289 0 0 7 30 291 3494 0 293 289 294 0 +-918114266247026e-31 12100466681219
26e-34 .0397704288342945 1 0 0 16 293 3262 0 ?46 295 290 291 0 0 7 30 294 3493 0
 295 291 296 0 +-.0495 0 .0397704288342945 0 0 -1 16 295 3217 0 ?263 297 293 294
 0 0 7 30 296 3492 0 297 294 298 0 --.0515 0 .0357704288342945 1 233895300131704
5e-31 0 16 297 3210 0 ?299 300 295 296 0 0 7 30 298 3491 0 300 296 301 0 +-.0515
 0 .04077042883429445 0 0 1 16 300 3211 0 ?302 203 297 298 0 0 7 30 301 3490 0 2
03 298 303 0 +-918114266247026e-31 1210046668121926e-34 .0382704288342945 -17182
02300015125e-30 1 0 16 203 3260 0 ?51 304 300 301 0 0 7 30 303 3489 0 304 301 30
5 0 --1718202300015125e-32 .01 .0497704288342945 0 0 -1 16 304 3205 0 ?306 307 2
03 303 0 0 7 30 305 3488 0 307 303 308 0 +-918114266247026e-31 1210046668121926e
-34 .0397704288342945 -1718202300015125e-30 1 0 16 307 3261 0 ?196 309 304 305 0
 0 7 30 308 3487 0 309 305 310 0 +-763278329429795e-31 .0425 .0397704288342945 0
 0 1 16 309 3835 0 ?99 311 307 308 0 0 7 30 310 3486 0 311 308 312 0 +-902056207
50794e-30 .0525 .0167704288342945 -1718202300015125e-30 1 0 16 311 3201 0 ?313 3
14 309 310 0 0 7 30 312 3485 0 314 310 315 0 +-763278329429795e-31 .0445 .040770
42883429445 0 0 -1 16 314 3200 0 ?316 317 311 312 0 0 7 30 315 2095 0 318 312 31
9 0 +-.048 .0525 .0397704288342945 0 -1 0 16 318 1923 0 ?320 321 317 315 0 0 7 3
0 319 2086 0 317 315 322 0 +-.048 .0405 .0397704288342945 -1 0 0 16 317 1938 0 ?
323 318 314 319 0 0 7 30 322 2085 0 321 319 324 0 +-.0595 .0405 .016770428834294
5 -1 0 -2704957787060725e-47 16 321 1939 0 ?325 326 318 322 0 0 7 30 324 2084 0
 326 322 327 0 +-.0515 .0405 .04077042883429445 0 0 1 16 326 1950 0 ?90 328 321
 324 0 0 7 30 327 2083 0 328 324 329 0 +-.0495 .0405 .0397704288342945 0 0 -1 16
 328 1945 0 ?262 175 326 327 0 0 7 30 329 2076 0 175 327 330 0 +-.048 .0525 .016
7704288342945 0 1 0 16 175 1967 0 ?170 331 328 329 0 0 7 30 330 2075 0 331 329 3
32 0 +-.048 .0445 .04077042883429445 0 0 -1 16 331 1966 0 ?72 333 175 330 0 0 7
 30 332 2074 0 333 330 334 0 +-.048 .0425 .0397704288342945 0 0 1 16 333 3856 0
 ?75 335 331 332 0 0 7 30 334 2069 0 335 332 213 0 +-.0515 .0445 .03977042883429
45 1 0 0 16 335 1915 0 ?78 336 333 334 0 0 7 30 213 2068 0 336 334 212 0 +-.0515
 .0445 .0397704288342945 -155930200087803e-30 1 0 16 336 1914 0 ?69 210 335 213
 0 0 7 17 69 0 337 78 323 65 338 336 0 339 +16 210 1395 0 ?204 194 336 212 0 0 7
 17 204 0 340 306 292 100 202 210 0 0 +15 340 1350 0 204 341 0 17 306 0 340 208
 204 109 102 304 0 342 +17 292 0 340 204 208 121 129 290 0 202 +17 202 0 198 200
 199 121 204 210 0 0 -17 208 0 340 292 306 127 342 206 0 0 +17 129 0 343 132 123
 127 292 290 0 287 -15 343 3405 0 117 344 0 17 132 0 343 114 129 130 287 285 0 3
02 -17 123 0 343 129 126 121 200 205 0 292 +17 287 0 345 342 249 127 132 285 0 2
08 +15 345 3125 0 284 346 0 17 342 0 345 284 287 109 208 206 0 0 -17 249 0 345 2
87 57 130 347 247 0 0 +17 57 0 345 249 284 55 348 245 0 349 +17 347 0 350 252 30
2 55 249 247 0 0 -15 350 1898 0 224 22 0 17 252 0 350 338 347 65 349 250 0 0 +17
 302 0 350 347 231 130 114 300 0 249 +17 231 0 350 302 60 112 270 229 0 0 +17 11
4 0 343 117 132 112 302 300 0 299 -17 117 0 343 120 114 115 299 297 0 263 -17 29
9 0 351 270 264 112 117 297 0 231 +15 351 838 0 264 352 0 17 270 0 351 234 299 5
8 231 229 0 0 -17 264 0 351 299 234 115 54 253 0 0 -17 234 0 351 264 270 52 266
 232 0 258 +14 255 352 835 353 ?269 346 351 12 354 -0 0 269 346 28 81 1 353 5664
 355 352 356 0 357 358 359 14 269 811 358 ?360 352 265 12 361 -0 0 360 352 28 14
 346 1 357 ?352 362 345 12 363 +0 0 352 362 28 51 255 354 864 0 352 364 361 0 +-
.0515 -1995500859449245e-32 .0307704288342945 1 2338953001317045e-31 0 .005 -233
8953001317045e-31 1 0 13 28 34 0 0 0 0 0 0 16 22 14 22 1899 365 ?24 0 350 12 25
 -0 0 24 0 28 81 1 365 5654 355 22 366 0 0 367 368 14 24 1874 367 ?369 22 370 12
 13 -0 0 369 22 28 50 25 92 0 22 363 13 0 +-.0515 .0445 .04077042883429445 1 155
930200087803e-30 0 -155930200087803e-30 1 0 50 363 3 0 346 371 25 0 +-9181142662
47026e-31 1210046668121926e-34 .04077042883429445 0 0 1 1 0 0 50 371 224 0 259 3
72 363 0 +-.0495 -.0425 .0397704288342945 -1 0 0 0 0 1 14 259 1854 373 ?374 369
 256 12 371 -0 0 374 369 28 50 372 225 0 369 375 371 0 +-.0495 .0425 .0397704288
342945 0 1 0 0 0 1 14 369 1864 376 ?259 24 377 12 372 -0 0 259 24 28 50 375 227
 0 362 378 372 0 +-918114266247026e-31 1210046668121926e-34 .0397704288342945 0
 0 -1 -1 0 0 14 362 1383 379 ?346 380 337 12 375 +0 0 346 380 28 50 378 344 0 37
4 381 375 0 +-.0515 .0525 .0167704288342945 0 0 -1 -1 0 0 14 374 1844 382 ?167 2
59 383 12 378 -0 0 167 259 28 50 381 348 0 167 361 378 0 +-918114266247026e-31 .
0525 .01477042883429448 0 1 0 0 0 1 14 167 1837 384 ?385 374 165 12 381 +0 0 385
 374 28 50 361 863 0 269 354 381 0 +-.0515 .0145 .01477042883429448 -20497265992
61605e-31 .876343645258124 .481686428515174 0 -.481686428515174 .876343645258124
 81 1 384 5659 355 167 386 0 382 387 388 14 385 1826 387 ?380 167 389 12 364 +0
 0 380 167 28 81 1 387 5660 355 385 390 0 384 391 392 14 380 1819 391 ?362 385 3
93 12 394 +0 0 362 385 28 15 389 1124 0 395 385 0 50 364 1145 0 385 396 354 0 +-
.0595 .0445 .0167704288342945 -2704957787060725e-47 -1156482317317872e-31 1 0 -1
 -1156482317317872e-31 50 396 1148 0 360 394 364 0 +-.0595 .0145 .01677042883429
445 -2338953001317045e-31 -1 -693889390390724e-29 0 693889390390724e-29 -1 14 36
0 1133 397 ?341 269 398 12 396 +0 0 341 269 28 50 394 1150 0 380 399 396 0 +-.05
95 139039349362399e-31 .01477042883429448 -1 2312964634635745e-31 16049416203227
e-43 2312964634635745e-31 1 0 51 399 1360 0 341 400 394 0 +-918114266247026e-31
 1210046668121926e-34 .0497704288342945 0 0 -1 .01 -1 0 0 14 341 1347 401 ?201 3
60 340 12 399 -0 0 201 360 28 51 400 1418 0 191 402 399 0 --918114266247026e-31
 1210046668121926e-34 .0382704288342945 0 0 1 .01075 1 0 0 14 191 1406 403 ?173
 201 187 12 400 -0 0 173 201 28 50 402 1420 0 201 404 400 0 +-918114266247026e-3
1 1210046668121926e-34 .0382704288342945 0 0 -1 -1 0 0 14 201 1398 405 ?191 341
 198 12 402 +0 0 191 341 28 50 404 2062 0 173 406 402 0 +-.048 .0525 .0563911989
728892 -1 0 0 0 0 1 14 173 2010 407 ?408 191 160 12 404 +0 0 408 191 28 50 406 2
063 0 408 409 404 0 +-.048 .0405 .0563911989728892 0 1 0 0 0 1 14 408 2028 410 ?
344 173 411 12 406 +0 0 344 173 28 50 409 3472 0 412 413 406 0 +-90205620750794e
-30 .0525 .04077042883429445 -1 -1718202300015125e-30 0 1718202300015125e-30 -1
 0 14 412 3394 414 ?157 344 195 12 409 -0 0 157 344 28 50 413 3477 0 344 415 409
 0 +0 0 .04077042883429445 0 1 0 0 0 1 14 344 3402 416 ?412 408 343 12 413 -0 0
 412 408 28 50 415 4050 0 417 0 413 0 +241255419432027e-33 0 .0167404288342945 1
16620065611886e-30 0 1 1 0 -116620065611886e-30 14 417 4027 418 ?0 157 33 12 415
 -157 157 0 157 28 81 1 418 5675 355 417 419 0 420 0 421 14 157 4004 420 ?417 41
2 41 12 415 -417 417 417 412 28 15 33 4030 0 35 417 0 17 35 0 33 31 141 152 422
 163 0 36 +17 141 0 33 35 144 139 272 273 0 422 -17 422 0 398 423 220 139 35 163
 0 224 -17 36 0 393 424 182 152 31 37 0 220 -15 393 3886 0 36 380 0 17 424 0 393
 425 36 61 220 217 0 0 -17 182 0 393 36 425 18 87 178 0 0 +16 37 3953 0 ?31 276
 45 426 0 0 7 17 220 0 398 422 427 152 424 217 0 0 +15 398 3872 0 422 360 0 17 4
27 0 398 220 423 61 226 221 0 424 -17 423 0 398 427 422 62 224 218 0 0 -17 226 0
 389 395 67 62 427 221 0 423 +17 395 0 389 325 226 82 64 209 0 0 -17 67 0 389 22
6 325 61 425 215 0 427 +17 325 0 389 67 395 85 84 321 0 425 +17 425 0 393 182 42
4 85 67 215 0 0 -17 84 0 411 90 87 82 325 321 0 428 -15 411 3852 0 38 408 0 17 9
0 0 411 429 84 88 428 326 0 323 +17 87 0 411 84 38 85 182 178 0 325 -17 428 0 35
0 64 338 82 90 326 0 395 -17 64 0 350 224 428 62 395 209 0 226 +17 338 0 350 428
 252 88 69 336 0 0 -17 224 0 350 272 64 139 423 218 0 0 +17 272 0 350 60 224 142
 141 273 0 268 +17 60 0 350 231 272 58 268 227 0 266 +17 38 0 411 87 262 18 34 2
76 0 182 -17 262 0 411 38 429 148 260 328 0 0 +17 34 0 33 147 31 148 38 276 0 25
7 +16 276 3922 0 ?34 261 37 278 0 0 7 30 278 4062 0 276 426 277 0 +-.048 .0405 .
0167404288342945 1 0 -116620065611886e-30 30 426 4072 0 37 172 278 0 +-.0595 0 .
0167404288342945 0 1 0 30 172 4074 0 45 0 426 0 +241255419432027e-33 .0525 .0167
404288342945 1 0 -116620065611886e-30 17 147 0 33 144 34 145 257 261 0 267 -17 4
29 0 411 262 90 91 323 317 0 260 -17 260 0 256 430 257 91 262 328 0 0 -17 430 0
 256 263 260 118 93 238 0 0 -17 263 0 256 54 430 115 120 295 0 264 +17 93 0 337
 323 431 91 430 238 0 429 +15 337 3137 0 197 362 0 17 323 0 337 69 93 88 429 317
 0 338 +17 431 0 337 93 193 118 46 293 0 430 -17 193 0 337 431 197 40 189 194 0
 0 -17 46 0 343 126 120 40 431 293 0 180 +17 126 0 343 123 46 124 180 177 0 200
 -17 120 0 343 46 117 118 263 295 0 431 -17 180 0 187 189 188 40 126 177 0 193 +
17 197 0 337 193 244 103 196 307 0 189 -17 244 0 337 197 320 97 432 242 0 0 +17
 196 0 195 433 105 97 197 307 0 244 +15 195 3397 0 433 412 0 17 433 0 195 29 196
 150 99 309 0 0 -17 29 0 195 135 433 32 42 17 0 166 +17 99 0 377 432 158 97 433
 309 0 196 +15 377 1863 0 162 369 0 17 432 0 377 162 99 73 244 242 0 0 -17 158 0
 377 99 162 150 138 159 0 433 +17 162 0 377 158 432 136 75 333 0 0 -17 75 0 160
 434 155 73 162 333 0 320 +17 434 0 160 72 75 76 320 318 0 435 -17 320 0 337 244
 78 73 434 318 0 432 +17 78 0 337 320 69 76 339 335 0 434 +17 339 0 370 349 435
 65 78 335 0 252 -15 370 1873 0 348 24 0 17 349 0 370 348 339 55 252 250 0 347 -
17 435 0 370 339 436 76 72 331 0 0 -17 436 0 370 435 316 70 240 235 0 0 -17 72 0
 160 170 434 70 435 331 0 174 +17 174 0 383 240 176 70 170 175 0 436 -15 383 184
3 0 240 374 0 17 240 0 383 313 174 94 436 235 0 0 +17 176 0 383 174 313 79 168 2
36 0 0 -17 313 0 383 176 240 133 96 311 0 168 +17 168 0 165 166 81 133 176 236 0
 0 +17 96 0 195 108 135 94 313 311 0 316 -17 108 0 195 111 96 106 316 314 0 284
 -17 135 0 195 96 29 133 166 171 0 313 -17 316 0 370 436 348 94 108 314 0 240 +1
7 348 0 370 316 349 106 57 245 0 0 -17 111 0 195 102 108 109 284 282 0 306 -17 2
84 0 345 57 342 106 111 282 0 348 +17 102 0 195 51 111 100 306 304 0 199 -17 51
 0 195 105 102 47 199 203 0 186 +17 42 0 41 138 39 150 29 17 0 158 -81 1 420 567
4 355 157 437 0 414 418 438 80 255 1 355 0 439 8001 0 0 0 0 3 5 0 0 0 FFFFTFTFFF
FFFF2 81 1 437 5652 440 157 0 420 419 0 441 81 1 414 5673 355 412 442 0 416 420
 443 83 255 3 438 .250980392156863 .250980392156863 .250980392156863 81 1 442 56
46 440 412 0 414 444 445 446 81 1 416 5672 355 344 445 0 410 414 447 83 3 443 .2
50980392156863 .250980392156863 .250980392156863 81 1 445 5648 440 344 0 416 442
 419 448 81 1 410 5671 355 408 444 0 407 416 449 83 3 447 .250980392156863 .2509
80392156863 .250980392156863 81 1 444 5644 440 408 0 410 450 442 451 81 1 407 56
70 355 173 450 0 403 410 452 83 3 449 .250980392156863 .250980392156863 .2509803
92156863 81 1 450 5642 440 173 0 407 453 444 454 81 1 403 5669 355 191 455 0 405
 407 456 83 3 452 .250980392156863 .250980392156863 .250980392156863 81 1 455 56
38 440 191 0 403 457 453 458 81 1 405 5668 355 201 453 0 401 403 459 83 3 456 .2
50980392156863 .250980392156863 .250980392156863 81 1 453 5640 440 201 0 405 455
 450 460 81 1 401 5667 355 341 457 0 397 405 461 83 3 459 .250980392156863 .2509
80392156863 .250980392156863 81 1 457 5635 440 341 0 401 462 455 463 81 1 397 56
66 355 360 462 0 358 401 464 83 3 461 .250980392156863 .250980392156863 .2509803
92156863 81 1 462 5633 440 360 0 397 465 457 466 81 1 358 5665 355 269 467 0 353
 397 468 83 3 464 .250980392156863 .250980392156863 .250980392156863 81 1 467 56
05 440 269 0 358 356 469 470 83 3 468 .250980392156863 .250980392156863 .2509803
92156863 80 1 440 471 472 9000 1 1 1 1 1 1 1 1 0 FFFFTFTFFFFFFF1 81 1 356 5603 4
40 352 0 353 0 467 473 81 1 469 5607 440 346 0 357 467 366 474 82 255 1 470 1441
15571 81 1 357 5663 355 346 469 0 379 353 475 81 1 366 5609 440 22 0 365 469 476
 477 82 1 474 136578911 81 1 476 5613 440 24 0 367 366 478 479 82 1 477 13749643
5 81 1 367 5655 355 24 476 0 365 376 480 81 1 478 5615 440 259 0 373 476 481 482
 82 1 479 137627487 81 1 373 5657 355 259 478 0 376 382 483 81 1 481 5617 440 36
9 0 376 478 484 485 82 1 482 140707699 81 1 376 5656 355 369 481 0 367 373 486 8
1 1 484 5619 440 362 0 379 481 487 488 82 1 485 137758579 81 1 379 5662 355 362
 484 0 391 357 489 81 1 487 5625 440 374 0 382 484 386 490 82 1 488 136775519 81
 1 382 5658 355 374 487 0 373 384 491 81 1 386 5627 440 167 0 384 487 390 492 82
 1 490 140969823 81 1 390 5629 440 385 0 387 386 465 493 82 1 492 141231987 81 1
 465 5631 440 380 0 391 390 462 494 82 1 493 -1525414094 81 1 391 5661 355 380 4
65 0 387 379 495 82 1 494 141756275 83 3 495 .250980392156863 .250980392156863 .
250980392156863 83 3 491 .250980392156863 .250980392156863 .250980392156863 83 3
 489 .250980392156863 .250980392156863 .250980392156863 83 3 486 .25098039215686
3 .250980392156863 .250980392156863 83 3 483 .250980392156863 .250980392156863 .
250980392156863 83 3 480 .250980392156863 .250980392156863 .250980392156863 83 3
 475 .250980392156863 .250980392156863 .250980392156863 82 1 473 143591263 79 25
5 14 472 SWEntUnchanged82 1 466 145164147 82 1 463 146212703 82 1 460 146474847
 82 1 458 146736991 82 1 454 147523443 82 1 451 147785587 81 1 419 5650 440 417
 0 418 445 437 496 82 1 448 1135413087 82 1 496 -282523789 82 1 446 1139345267 8
2 1 441 -269678733 79 15 439 SDL/TYSA_COLOUR83 3 421 .250980392156863 .250980392
156863 .250980392156863 83 3 392 .250980392156863 .250980392156863 .250980392156
863 83 3 388 .250980392156863 .250980392156863 .250980392156863 83 3 368 .250980
392156863 .250980392156863 .250980392156863 83 3 359 .250980392156863 .250980392
156863 .250980392156863 19 23 100 0 7 0 16 12 S0 74 4 CI16 index_map_offset0 0 1
 dCCZ20 21 4 0 0 19 437 418 9 0 0 0 0 0 0 0 0 0 0 0 0 0 0 0 0 81 2 19 3012 497 7
 0 9 0 0 498 0 80 2 497 499 500 8004 0 0 0 0 3 5 0 0 0 FFTFFFFFFFFFFF2 3 83 1 49
8 1 79 16 500 SDL/TYSA_DENSITY80 1 5 501 502 8017 0 0 0 0 0 0 0 0 0 TTTTTTTTTTTT
TF3 84 255 21 20 ModBracket_Validation79 13 502 SDL/TYSA_NAME74 20 6 1 0 0 2 0 0
 0 0 0 0 0 0 0 0 0 0 0 0 0 0 0 0 0 1 0 
