**ABCDEFGHIJKLMNOPQRSTUVWXYZabcdefghijklmnopqrstuvwxyz**************************
**PARASOLID !"#$%&'()*+,-./:;<=>?@[\]^_`{|}~0123456789**************************
**PART1;
MC=AMD64;
MC_MODEL=Intel64 Family 6 Model 158 Stepping 10, GenuineIntel;
MC_ID=unknown;
OS=Windows_NT;
OS_RELEASE=unknown;
FRU=Parasolid Version 31.1, build 290,  3- 9-2020;
APPL=SOLIDWORKS 2020-2020128;
SITE=;
USER=unknown;
FORMAT=text;
GUISE=transmit;
KEY=BC;
FILE=BC.x_t;
DATE=Wed Oct  5 15:30:27 2022;
**PART2;
SCH=SCH_3101290_31100;
USFLD_SIZE=0;
**PART3;
**END_OF_HEADER*****************************************************************
T51 : TRANSMIT FILE created by modeller version 310129023 SCH_3101290_31100_1300
6222 0 10 20 CCCCCCCI4 mesh1006 0 I8 polyline1008 0 CCCCCCCCCCA16 mesh_offset_da
ta206 0 Z1 3 2 3 0 0 0 0 0 0 0 1e3 1e-8 0 0 0 1 0 1 4 0 81 255 1 2 3 5 1 0 0 0 0
 0 70 11 CI9 list_type0 0 1 uI10 notransmit0 0 1 lCCCDCCDI12 finger_index0 0 1 d
I12 finger_block1012 0 CZ3 0 4 T1 0 0 1 20 1 6 6 11 255 4 1 0 1 7 8 1 0 0 0 0 12
 34 CCCCCCI4 mesh1006 0 I8 polyline1008 0 CCCCCCCDI5 owner1040 0 CCCCCCI13 bound
ary_mesh1006 0 I17 boundary_polyline1008 0 CCCA16 index_map_offset0 0 1 dA9 inde
x_map82 0 A17 node_id_index_map82 0 A20 schema_embedding_map82 0 A5 child12 0 A1
4 lowest_node_id0 0 1 dA16 mesh_offset_data206 0 Z7 1971 9 10 0 0 0 0 0 0 1e3 1e
-8 4 11 0 1 0 1 1 12 13 14 15 0 0 16 17 18 0 0 0 0 0 0 0 100 255 8 2 4 0 0 1 0 0
 0 1 0 0 0 1 .001 .001 3252606517456515e-34 1 1 ?81 1 9 1971 5 7 0 0 0 0 19 70 1
0 0 4 T7 0 0 3 20 1 20 20 13 255 12 34 0 7 0 21 0 0 22 0 51 255 13 62 0 21 23 0
 0 -.001 .001 .002 .577350269189626 .577350269189626 .577350269189626 3e-4 0 -.7
07106781186548 .707106781186548 30 255 14 1089 0 17 24 0 0 +.001 -.001 .002 0 -1
 -433680868994202e-30 29 255 15 1192 0 18 25 0 .001 -.000632576538582523 3374729
74467415e-34 19 8 CCCCCCCA5 owner12 0 Z16 38 0 7 22 0 26 V0 16 255 17 1087 0 ?27
 0 28 14 0 0 7 18 255 18 1190 0 29 0 30 15 ?7 17 255 29 0 31 32 33 18 34 35 0 36
 -18 30 1175 0 37 18 38 25 ?7 17 37 0 39 40 41 30 42 43 0 44 -18 38 1160 0 45 30
 46 47 ?7 29 25 1177 0 30 47 15 -.000632576538582523 .001 .002 29 47 1162 0 38 4
8 25 -.001 -.000632576538582522 .002 29 48 1086 0 46 49 47 .001 .000632576538582
523 .002 18 46 1084 0 50 38 51 48 ?7 29 49 533 0 51 52 48 .001 -.001 .002 18 51
 531 0 53 46 54 49 ?7 29 52 521 0 54 55 49 -.001 .001 -542101086242752e-33 18 54
 519 0 56 51 57 52 ?7 29 55 509 0 57 58 52 -.001 -.001 -1218507536703382e-33 18
 57 507 0 59 54 60 55 ?7 29 58 497 0 60 61 55 .001 .001 949888853226891e-33 18 6
0 495 0 62 57 63 58 ?7 29 61 464 0 63 64 58 -.001 .001 .001632576538582525 18 63
 462 0 65 60 66 61 ?7 29 64 217 0 66 67 61 -1525790676490315e-34 .00036742346141
7477 .001 18 66 215 0 68 63 69 64 ?7 29 67 201 0 69 70 64 -.000367423461417477 -
180293866033018e-33 .001 18 69 199 0 71 66 72 67 ?7 29 70 303 0 72 73 67 2020684
191973345e-34 -.000367423461417477 .001 18 72 267 0 74 69 75 70 ?7 29 73 307 0 7
5 76 70 1309264632990852e-33 -1260837574087428e-34 .000632576538582523 18 75 269
 0 77 72 78 73 ?7 29 76 403 0 78 79 73 .0003674234614174775 3252606517456515e-34
 .001 18 78 368 0 80 75 81 76 ?7 29 79 407 0 81 82 76 867361737988404e-33 289933
5714252665e-34 .001367423461417476 18 81 367 0 83 78 84 79 ?7 29 82 923 0 84 85
 79 -.001 .001 .000367423461417476 18 84 743 0 86 81 87 82 ?7 29 85 931 0 87 88
 82 .001 .001 .0003674234614174795 18 87 707 0 89 84 90 85 ?7 29 88 932 0 90 91
 85 .001 .001 .001632576538582525 18 90 698 0 92 87 93 88 ?7 29 91 939 0 93 94 8
8 -.001 -.001 .0003674234614174795 18 93 715 0 95 90 96 91 ?7 29 94 940 0 96 97
 91 -.001 -.001 .001632576538582525 18 96 711 0 98 93 99 94 ?7 29 97 943 0 99 10
0 94 .001 -.001 .0003674234614174775 18 99 722 0 101 96 102 97 ?7 29 100 944 0 1
02 103 97 .001 -.001 .001632576538582525 18 102 742 0 104 99 105 100 ?7 29 103 1
562 0 105 106 100 .001 .000632576538582523 1499497224253614e-34 18 105 1343 0 10
7 102 108 103 ?7 29 106 1563 0 108 109 103 -.001 -.000632576538582523 3374729744
67416e-34 18 108 1345 0 110 105 111 106 ?7 29 109 1564 0 111 112 106 -.001 .0006
32576538582523 1499497224253614e-34 18 111 1350 0 113 108 114 109 ?7 29 112 1570
 0 114 115 109 -.000632576538582523 -.001 0 18 114 1353 0 116 111 117 112 ?7 29
 115 1571 0 117 118 112 .000632576538582523 -.001 0 18 117 1342 0 33 114 119 115
 ?7 29 118 1572 0 119 120 115 .001 -.001 0 18 119 1348 0 32 117 121 118 ?7 29 12
0 1573 0 121 122 118 -.001 .000632576538582523 .002 18 121 1363 0 41 119 123 120
 ?7 29 122 1575 0 123 124 120 .001 -.000632576538582523 .002 18 123 1386 0 125 1
21 126 122 ?7 29 124 1577 0 126 127 122 -.001 -.001 .002 18 126 1356 0 128 123 1
29 124 ?7 29 127 1578 0 129 130 124 -.000632576538582523 -.001 .002 18 129 1359
 0 131 126 132 127 ?7 29 130 1579 0 132 133 127 .000632576538582523 -.001 .002 1
8 132 1387 0 134 129 135 130 ?7 29 133 1586 0 135 136 130 -.000632576538582523 .
001 183697019872103e-33 18 135 1388 0 137 132 138 133 ?7 29 136 1587 0 138 139 1
33 .000632576538582523 .001 183697019872103e-33 18 138 1349 0 140 135 141 136 ?7
 29 139 1589 0 141 142 136 -.001 .001 .002 18 141 1364 0 40 138 143 139 ?7 29 14
2 1591 0 143 144 139 .000632576538582523 .001 .002 18 143 1371 0 145 141 146 142
 ?7 29 144 1592 0 146 0 142 .001 .001 .002 18 146 1367 0 147 143 0 144 ?7 17 147
 0 148 145 50 146 27 17 0 149 -15 255 148 1437 0 147 150 0 17 145 0 148 50 147 1
43 149 151 0 152 +17 50 0 148 147 145 46 152 153 0 27 -17 27 0 154 155 156 46 14
7 17 0 157 +17 149 0 158 159 160 146 145 151 0 156 -15 158 749 0 160 161 0 17 15
9 0 158 160 149 90 156 162 0 0 +17 160 0 158 149 159 143 92 163 0 0 -16 151 1293
 0 ?145 164 165 166 165 165 7 17 156 0 154 27 155 146 159 162 0 0 -15 154 781 0
 156 167 0 17 155 0 154 156 27 90 157 168 0 159 -16 162 625 0 ?159 169 170 171 1
70 170 7 16 169 1198 0 ?101 172 162 173 0 0 7 16 170 638 0 ?174 162 175 171 162
 162 7 30 171 898 0 170 176 173 0 +.001 .001 .012 0 0 -1 30 176 899 0 177 178 17
1 0 +-.001 .001 .012 0 0 -1 32 255 173 889 0 169 171 179 0 +.001 -.001 -43368086
8994202e-33 -433680868994202e-30 1 0 -.707106781186548 -306658683336675e-30 .707
106781186548 .000519615242270663 3e-4 32 179 887 0 172 173 180 0 +-.001 -.001 .0
02 -433680868994202e-30 1 0 -.707106781186548 -306658683336675e-30 .707106781186
547 .000519615242270664 3e-4 16 172 1168 0 ?98 181 169 179 0 0 7 32 180 885 0 18
1 179 182 0 +-.001 -.001 -867361737988404e-33 -433680868994202e-30 1 0 .70710678
1186548 306658683336675e-30 .707106781186548 .000519615242270664 3e-4 16 181 649
 0 ?183 184 172 180 0 0 7 32 182 883 0 184 180 185 0 -.001 -.001 .002 -433680868
994202e-30 1 0 -.707106781186548 -306658683336675e-30 -.707106781186548 .0005196
15242270663 3e-4 16 184 1108 0 ?104 186 181 182 0 0 7 32 185 882 0 186 182 187 0
 +.001 -.001 -433680868994202e-33 -1 0 0 0 .707106781186548 .707106781186548 .00
0519615242270663 3e-4 16 186 639 0 ?188 189 184 185 0 0 7 32 187 880 0 189 185 1
90 0 +.001 .001 0 -1 0 0 0 -.707106781186548 .707106781186548 .00051961524227066
4 3e-4 16 189 1146 0 ?89 191 186 187 0 0 7 32 190 878 0 191 187 192 0 -.001 -.00
1 .002 -1 0 0 0 .707106781186548 -.707106781186548 .000519615242270663 3e-4 16 1
91 630 0 ?193 168 189 190 0 0 7 32 192 876 0 168 190 194 0 +.001 .001 .002 -1 0
 0 0 .707106781186548 .707106781186548 .000519615242270664 3e-4 16 168 626 0 ?15
7 195 191 192 0 0 7 32 194 873 0 195 192 196 0 +-.001 -.001 .002 1 0 0 0 -.70710
6781186548 .707106781186548 .000519615242270664 3e-4 16 195 621 0 ?197 198 168 1
94 0 0 7 32 196 871 0 198 194 199 0 +-.001 -.001 -433680868994202e-33 1 0 0 0 .7
07106781186548 .707106781186548 .000519615242270664 3e-4 16 198 1131 0 ?95 200 1
95 196 0 0 7 32 199 869 0 200 196 201 0 --.001 .001 -1084202172485504e-34 1 0 0
 0 .707106781186548 -.707106781186548 .000519615242270663 3e-4 16 200 1124 0 ?86
 202 198 199 0 0 7 32 201 866 0 202 199 203 0 +.001 .001 433680868994202e-33 0 -
1 0 -.707106781186548 0 .707106781186548 .000519615242270664 3e-4 16 202 604 0 ?
204 205 200 201 0 0 7 32 203 864 0 205 201 206 0 --.001 .001 -975781955236954e-3
3 0 -1 0 -.707106781186548 0 -.707106781186548 .000519615242270663 3e-4 16 205 6
01 0 ?207 163 202 203 0 0 7 32 206 862 0 163 203 208 0 +.001 .001 .002 0 -1 0 .7
07106781186548 0 .707106781186548 .000519615242270664 3e-4 16 163 1093 0 ?92 209
 205 206 0 0 7 32 208 400 0 209 206 210 0 +0 -1084202172485504e-34 .001 -9614813
43191782e-31 0 -1 -.707106781186548 .707106781186548 0 .000519615242270663 3e-4
 16 209 359 0 ?68 211 163 208 0 0 7 32 210 399 0 211 208 212 0 -1084202172485504
e-34 -1084202172485504e-34 .001 1 961481343191782e-31 -961481343191782e-31 -6798
69977755259e-31 .707106781186548 .707106781186548 .000519615242270664 3e-4 16 21
1 362 0 ?213 214 209 210 0 0 7 32 212 398 0 214 210 215 0 +-216840434497101e-33
 3252606517456515e-34 .001 0 -1 -961481343191782e-31 -.707106781186548 -67986997
7755259e-31 .707106781186548 .000519615242270664 3e-4 16 214 364 0 ?216 217 211
 212 0 0 7 32 215 397 0 217 212 218 0 +1084202172485504e-34 -1084202172485504e-3
4 .001 1 961481343191782e-31 -961481343191782e-31 -679869977755259e-31 .70710678
1186548 .707106781186548 .000519615242270664 3e-4 16 217 363 0 ?219 220 214 215
 0 0 7 32 218 396 0 220 215 221 0 -0 -1084202172485504e-34 .001 -961481343191782
e-31 0 -1 -.707106781186548 .707106781186548 0 .000519615242270663 3e-4 16 220 3
60 0 ?222 223 217 218 0 0 7 32 221 298 0 223 218 224 0 +-1084202172485504e-34 54
2101086242752e-33 .001 -1 -961481343191782e-31 -961481343191782e-31 -67986997775
5259e-31 .707106781186548 -.707106781186548 .000519615242270663 3e-4 16 223 259
 0 ?225 226 220 221 0 0 7 32 224 296 0 226 221 227 0 -433680868994202e-33 758941
520739853e-33 .001 -961481343191782e-31 0 1 .707106781186548 .707106781186548 0
 .000519615242270664 3e-4 16 226 255 0 ?80 228 223 224 0 0 7 32 227 294 0 228 22
4 229 0 --1084202172485504e-34 542101086242752e-33 .001 -1 -961481343191782e-31
 -961481343191782e-31 -679869977755259e-31 .707106781186548 -.707106781186548 .0
00519615242270663 3e-4 16 228 257 0 ?230 231 226 227 0 0 7 32 229 107 0 231 227
 232 0 +216840434497101e-33 -1084202172485504e-34 .001 -1922962686383565e-31 1 -
961481343191782e-31 .707106781186548 679869977755259e-31 .707106781186548 .00051
9615242270664 3e-4 16 231 230 0 ?233 234 228 229 0 0 7 32 232 112 0 234 229 235
 0 -216840434497101e-33 -1084202172485504e-34 .001 -1922962686383565e-31 1 -9614
81343191782e-31 .707106781186548 679869977755259e-31 .707106781186548 .000519615
242270664 3e-4 16 234 200 0 ?236 237 231 232 0 0 7 32 235 212 0 237 232 238 0 +4
33680868994202e-33 758941520739853e-33 .001 -961481343191782e-31 0 1 .7071067811
86548 .707106781186548 0 .000519615242270664 3e-4 16 237 210 0 ?239 240 234 235
 0 0 7 32 238 335 0 240 235 241 0 --216840434497101e-33 3252606517456515e-34 .00
1 0 -1 -961481343191782e-31 -.707106781186548 -679869977755259e-31 .707106781186
548 .000519615242270664 3e-4 16 240 333 0 ?242 243 237 238 0 0 7 32 241 465 0 24
3 238 24 0 +-.001 .001 .002 1 0 0 0 .707106781186548 .707106781186548 .000519615
242270663 3e-4 16 243 1184 0 ?65 28 240 241 0 0 7 32 24 468 0 28 241 14 0 +-.001
 .001 .002 0 -1 0 -.707106781186548 0 .707106781186548 .000519615242270663 3e-4
 16 28 466 0 ?244 17 243 24 0 0 7 17 244 0 245 42 65 30 246 28 0 0 +15 245 379 0
 244 247 248 17 42 0 245 65 244 121 37 43 0 249 +17 65 0 245 244 42 63 249 243 0
 250 +17 246 0 251 252 44 63 244 28 0 0 -15 251 761 0 252 253 0 17 252 0 251 44
 246 141 250 175 0 0 -17 44 0 251 246 252 30 40 165 0 244 -17 40 0 39 41 37 141
 44 165 0 254 +16 165 1283 0 ?40 151 0 166 151 151 7 30 166 1548 0 165 0 255 0 +
.01 .001 .002 -1 0 0 30 255 1547 0 164 166 256 0 +.01 .001 183697019872103e-33 -
1 0 0 16 164 1327 0 ?257 258 151 255 258 258 7 30 256 1546 0 259 255 260 0 +.01
 -.001 0 -1 0 0 16 259 1259 0 ?59 261 258 256 261 261 7 30 260 1545 0 262 256 26
3 0 +.01 -.001 .002 -1 0 0 16 262 1271 0 ?264 265 261 260 265 265 7 32 263 1528
 0 153 260 266 0 +.001 .001 .002 0 433680868994202e-30 -1 .707106781186547 .7071
06781186548 306658683336675e-30 .000519615242270664 3e-4 16 153 1280 0 ?152 267
 265 263 0 0 7 30 266 1527 0 267 263 268 0 +.001 -.001 .002 0 -1 -43368086899420
2e-30 16 267 1324 0 ?269 270 153 266 0 0 7 32 268 1526 0 270 266 271 0 -.001 -.0
01 .002 0 433680868994202e-30 -1 -.707106781186548 .707106781186547 306658683336
6745e-31 .000519615242270663 3e-4 16 270 1276 0 ?134 272 267 268 0 0 7 30 271 15
25 0 272 268 273 0 +-.001 -.001 .002 0 1 433680868994202e-30 16 272 1269 0 ?274
 275 270 271 0 0 7 32 273 1524 0 275 271 276 0 +-.001 -.001 .002 0 4336808689942
02e-30 -1 -.707106781186548 -.707106781186548 -306658683336675e-30 .000519615242
270664 3e-4 16 275 1270 0 ?277 278 272 273 0 0 7 30 276 1523 0 278 273 279 0 +-.
001 -.001 .002 0 1 433680868994202e-30 16 278 1268 0 ?254 43 275 276 0 0 7 32 27
9 1522 0 43 276 280 0 +-.001 .001 .002 0 433680868994202e-30 -1 -.70710678118654
8 .707106781186548 306658683336675e-30 .000519615242270663 3e-4 16 43 1267 0 ?42
 281 278 279 0 0 7 30 280 1513 0 281 279 282 0 +-.001 -.001 0 0 -1 -918485099360
516e-31 16 281 1328 0 ?283 284 43 280 0 0 7 32 282 1512 0 284 280 285 0 --.001 .
001 183697019872103e-33 0 -918485099360516e-31 1 -.707106781186548 .707106781186
548 649467042176621e-31 .000519615242270663 3e-4 16 284 1250 0 ?113 286 281 282
 0 0 7 30 285 1511 0 286 282 287 0 +-.001 -.001 0 0 -1 -918485099360516e-31 16 2
86 1244 0 ?288 289 284 285 0 0 7 32 287 1510 0 289 285 290 0 +-.001 -.001 0 0 -9
18485099360516e-31 1 .707106781186548 .707106781186548 649467042176621e-31 .0005
19615242270664 3e-4 16 289 1243 0 ?291 292 286 287 0 0 7 30 290 1509 0 292 287 2
93 0 +.001 -.001 0 0 1 918485099360516e-31 16 292 1242 0 ?294 295 289 290 0 0 7
 32 293 1508 0 295 290 296 0 +.001 .001 0 0 -918485099360516e-31 1 -.70710678118
6548 -.707106781186548 -649467042176621e-31 .000519615242270664 3e-4 16 295 1241
 0 ?297 298 292 293 0 0 7 30 296 1507 0 298 293 299 0 +.001 -.001 0 0 1 91848509
9360516e-31 16 298 1238 0 ?36 35 295 296 0 0 7 32 299 1506 0 35 296 300 0 +.001
 -.001 0 0 -918485099360516e-31 1 -.707106781186548 .707106781186548 64946704217
6621e-31 .000519615242270663 3e-4 16 35 1239 0 ?34 301 298 299 0 0 7 30 300 901
 0 301 299 178 0 +.001 -.001 .012 0 0 -1 16 301 655 0 ?302 303 35 300 303 303 7
 30 178 900 0 304 300 176 0 +-.001 -.001 .012 0 0 -1 16 304 619 0 ?305 306 303 1
78 306 306 7 17 305 0 307 308 309 57 310 304 0 0 +16 306 620 0 ?311 177 304 178
 304 304 7 16 303 685 0 ?312 304 301 300 301 301 7 17 312 0 313 193 269 102 314
 303 0 315 +15 313 833 0 193 316 0 17 193 0 313 269 312 123 315 191 0 0 +17 269
 0 313 312 193 51 125 267 0 314 +17 314 0 317 318 104 51 312 303 0 0 -17 315 0 3
19 320 321 102 193 191 0 0 -15 319 1230 0 321 322 323 17 320 0 319 321 315 132 1
04 184 0 0 -17 321 0 319 315 320 123 134 270 0 193 -17 134 0 324 53 125 132 321
 270 0 318 +15 324 1477 0 134 325 0 17 53 0 324 125 134 51 318 265 0 269 -17 125
 0 324 134 53 123 269 267 0 321 -17 318 0 317 104 314 132 53 265 0 320 +15 317 8
45 0 314 326 0 17 104 0 317 314 318 102 320 184 0 312 +16 265 1325 0 ?318 153 26
2 260 262 262 7 14 255 326 842 327 ?316 328 317 12 329 -330 331 316 328 26 81 1
 327 1959 332 326 333 0 334 335 336 14 316 830 335 ?161 326 313 12 337 -167 338
 161 326 26 14 328 834 334 ?326 339 340 12 341 -161 253 326 339 26 50 255 329 86
0 0 326 342 343 0 +.001 -.001 .012 -433680868994202e-30 1 0 -1 -433680868994202e
-30 0 14 330 798 344 ?345 346 307 12 329 -347 326 345 346 26 14 331 806 348 ?338
 349 350 12 329 -326 347 338 349 26 13 26 37 0 0 0 0 0 0 16 21 14 21 356 351 ?32
2 0 352 12 13 -353 353 322 0 26 81 1 351 1939 332 21 354 0 0 355 356 14 322 352
 355 ?357 21 319 12 23 +357 357 357 21 26 15 352 79 0 157 21 358 14 353 344 359
 ?360 357 361 12 13 -21 21 360 357 26 81 1 359 1942 332 353 362 0 363 364 365 14
 360 340 364 ?366 353 367 12 368 -366 366 366 353 26 14 357 348 363 ?353 322 369
 12 23 +322 322 353 322 26 15 361 49 0 183 353 370 17 183 0 361 291 95 114 309 1
81 0 0 +15 370 343 0 74 353 0 17 74 0 370 371 236 72 219 217 0 230 -17 371 0 370
 236 74 69 239 237 0 372 -17 236 0 370 74 371 75 372 234 0 225 +17 219 0 373 216
 374 75 74 217 0 0 +17 230 0 323 222 375 72 83 228 0 239 +15 323 131 0 230 322 0
 17 222 0 323 375 230 78 374 220 0 216 +17 375 0 323 230 222 81 233 231 0 376 -1
7 83 0 377 71 239 81 230 228 0 375 -17 239 0 377 83 71 72 371 237 0 374 +15 377
 334 0 71 366 0 17 71 0 377 239 83 69 242 240 0 371 -17 374 0 373 219 216 72 222
 220 0 0 -15 373 383 0 374 349 378 17 216 0 373 374 219 78 77 214 0 0 +17 77 0 3
79 380 80 75 216 214 0 236 -15 379 339 0 77 360 0 17 380 0 379 80 77 66 225 223
 0 213 -17 80 0 379 77 380 78 381 226 0 233 +17 381 0 358 376 233 66 80 226 0 38
0 -17 233 0 358 381 376 78 375 231 0 222 +15 358 355 0 376 21 0 17 376 0 358 233
 381 81 213 211 0 242 -17 213 0 248 382 242 66 376 211 0 0 +17 242 0 248 213 382
 81 71 240 0 0 +15 248 380 0 242 247 0 17 382 0 248 242 213 69 68 209 0 0 -17 68
 0 383 225 372 66 382 209 0 381 +15 383 127 0 372 357 0 17 225 0 383 372 68 75 3
80 223 0 219 +17 372 0 383 68 225 69 236 234 0 382 -14 247 377 384 ?349 366 245
 12 385 -349 349 349 366 26 81 1 384 1945 332 247 386 0 387 388 389 14 349 381 3
88 ?331 247 373 12 385 -247 247 331 247 26 14 366 336 387 ?247 360 390 12 368 -3
60 360 247 360 26 51 385 393 0 349 337 368 0 --.001 .001 .002 -.577350269189626
 .577350269189626 .577350269189626 3e-4 .707106781186548 0 .707106781186548 50 3
37 857 0 316 341 385 0 +.001 -.001 .012 -1 0 0 0 0 1 51 368 291 0 360 385 23 0 -
-.001 -.001 .002 -.577350269189626 -.577350269189626 .577350269189626 3e-4 .7071
06781186548 -.707106781186548 0 51 23 146 0 322 368 13 0 +-.001 .001 -5421010862
42752e-33 -.577350269189626 .577350269189626 -.577350269189626 3e-4 -.7071067811
86548 0 .707106781186548 50 341 858 0 328 343 337 0 +.001 .001 .012 0 -1 0 0 0 -
1 50 343 859 0 339 329 341 0 +-.001 -.001 .012 1 0 0 0 0 -1 14 339 838 391 ?328
 345 392 12 343 -345 393 328 345 26 81 1 391 1957 332 339 394 0 395 334 396 14 3
45 766 395 ?339 330 397 12 343 -398 339 339 330 26 15 392 841 0 399 339 0 14 393
 774 400 ?253 338 401 12 343 -339 398 253 338 26 81 1 400 1949 332 393 402 0 403
 404 405 14 253 758 404 ?347 393 251 12 341 -328 406 347 393 26 14 338 790 403 ?
393 331 407 12 337 -316 346 393 331 26 15 401 777 0 249 393 0 14 398 770 408 ?40
6 347 409 12 343 -393 345 406 347 26 81 1 408 1952 332 398 410 0 411 412 413 14
 406 754 412 ?346 398 414 12 341 -253 161 346 398 26 14 347 802 411 ?398 253 415
 12 329 -331 330 398 253 26 15 409 773 0 416 398 0 17 416 0 409 274 417 126 311
 306 0 0 -17 274 0 409 417 416 38 128 272 0 197 +17 417 0 409 416 274 96 197 195
 0 311 -17 311 0 415 418 264 96 416 306 0 0 +15 415 805 0 418 347 0 17 418 0 415
 264 311 129 98 172 0 0 -17 264 0 415 311 418 126 131 262 0 416 +17 131 0 419 45
 128 129 264 262 0 277 -15 419 1429 0 128 420 0 17 45 0 419 128 131 38 277 275 0
 274 -17 128 0 419 131 45 126 274 272 0 264 -17 277 0 390 98 197 129 45 275 0 41
8 +15 390 272 0 197 366 377 17 98 0 390 197 277 96 418 172 0 417 +17 197 0 390 2
77 98 38 417 195 0 0 +14 420 1426 421 ?422 423 419 12 342 -150 422 422 423 26 81
 1 421 1968 332 420 424 0 425 426 427 14 422 1422 426 ?428 420 39 12 342 -420 32
5 428 420 26 14 423 1394 425 ?420 429 430 12 431 -429 428 420 429 26 50 342 1501
 0 325 431 329 0 +.01 .001 .002 0 433680868994202e-30 -1 0 1 433680868994202e-30
 14 150 1434 432 ?325 167 148 12 342 -325 420 325 167 26 81 1 432 1963 332 150 4
33 0 434 435 436 14 325 1474 435 ?437 150 324 12 342 -422 150 437 150 26 14 167
 778 434 ?150 161 154 12 337 -346 316 150 161 26 81 1 434 1962 332 167 438 0 439
 432 440 14 161 746 439 ?167 316 158 12 341 -406 328 167 316 26 14 346 786 441 ?
330 406 442 12 337 -338 167 330 406 26 81 1 441 1954 332 346 443 0 412 344 444 1
5 442 789 0 445 346 0 17 445 0 442 294 446 105 89 189 0 0 -17 294 0 442 446 445
 60 107 292 0 174 +17 446 0 442 445 294 87 174 170 0 0 -17 89 0 367 204 297 87 4
45 189 0 447 +15 367 276 0 204 360 379 17 204 0 367 297 89 138 447 202 0 0 +17 2
97 0 367 89 204 105 140 295 0 445 +17 447 0 414 174 448 87 204 202 0 446 -15 414
 757 0 174 406 0 17 174 0 414 448 447 60 446 170 0 0 +17 448 0 414 447 174 138 6
2 258 0 204 +17 62 0 430 107 140 60 448 258 0 294 -16 258 1240 0 ?448 259 164 25
5 164 164 7 15 430 1397 0 62 423 0 17 107 0 430 140 62 105 294 292 0 297 -17 140
 0 430 62 107 138 297 295 0 448 -80 255 1 332 0 449 8001 0 0 0 0 3 5 0 0 0 FFFFT
FTFFFFFFF2 81 1 443 1931 450 346 0 441 451 452 453 81 1 412 1953 332 406 454 0 4
08 441 455 81 1 344 1955 332 330 456 0 441 395 457 83 255 3 444 0 .7529411764705
88 0 81 1 456 1881 450 330 0 344 458 459 460 81 1 395 1956 332 345 461 0 344 391
 462 83 3 457 0 .752941176470588 0 81 1 461 1903 450 345 0 395 394 402 463 83 3
 462 0 .752941176470588 0 80 1 450 464 465 9000 1 1 1 1 1 1 1 1 0 FFFFTFTFFFFFFF
1 81 1 394 1901 450 339 0 391 466 461 467 81 1 402 1905 450 393 0 400 461 468 46
9 82 255 1 463 -1952644184 81 1 468 1907 450 253 0 404 402 470 471 82 1 469 -195
4479192 81 1 404 1950 332 253 468 0 400 411 472 81 1 470 1909 450 338 0 403 468
 410 473 82 1 471 -1950874712 81 1 403 1948 332 338 470 0 348 400 474 81 1 410 1
911 450 398 0 408 470 454 475 82 1 473 -1961491544 81 1 454 1913 450 406 0 412 4
10 476 477 82 1 475 -1953561688 81 1 476 1915 450 347 0 411 454 424 478 82 1 477
 -1949957208 81 1 411 1951 332 347 476 0 404 408 479 81 1 424 1917 450 420 0 421
 476 480 481 82 1 478 -1965489240 81 1 480 1919 450 422 0 426 424 482 483 82 1 4
81 -1826618456 81 1 426 1969 332 422 480 0 421 484 485 81 1 482 1921 450 423 0 4
25 480 433 486 82 1 483 -1825700952 81 1 425 1967 332 423 482 0 487 421 488 81 1
 433 1923 450 150 0 432 482 489 490 82 1 486 -1814887512 81 1 489 1925 450 325 0
 435 433 438 491 82 1 490 -1828453464 81 1 435 1964 332 325 489 0 432 492 493 81
 1 438 1927 450 167 0 434 489 451 494 82 1 491 -1871707224 81 1 451 1929 450 161
 0 439 438 443 495 82 1 494 -1958739032 81 1 439 1961 332 161 451 0 335 434 496
 82 1 495 -1948122200 81 1 335 1960 332 316 497 0 327 439 498 83 3 496 0 .752941
176470588 0 81 1 497 1877 450 316 0 335 333 458 499 83 3 498 0 .752941176470588
 0 81 1 333 1875 450 326 0 327 0 497 500 81 1 458 1879 450 328 0 334 497 456 501
 82 1 499 -2005204056 81 1 334 1958 332 328 458 0 391 327 502 82 1 501 -20054662
00 83 3 502 0 .752941176470588 0 82 1 500 -2005990488 81 1 492 1965 332 437 452
 0 435 487 503 83 3 493 0 .752941176470588 0 14 437 1482 492 ?429 325 504 12 431
 -428 429 429 325 26 81 1 452 1933 450 437 0 492 443 505 506 81 1 487 1966 332 4
29 505 0 492 425 507 83 3 503 0 .752941176470588 0 14 429 1398 487 ?423 437 508
 12 431 -437 423 423 437 26 81 1 505 1935 450 429 0 487 452 509 510 83 3 507 0 .
752941176470588 0 81 1 509 1937 450 428 0 484 505 0 511 82 1 510 -1815805016 14
 428 1390 484 ?0 422 31 12 431 -423 437 0 422 26 81 1 484 1970 332 428 509 0 426
 0 512 82 1 511 -1813970008 83 3 512 0 .752941176470588 0 15 31 1393 0 32 428 0
 50 431 1503 0 437 0 342 0 +.01 .001 183697019872103e-33 0 -918485099360516e-31
 1 0 -1 -918485099360516e-31 17 32 0 31 33 29 119 36 298 0 513 -17 33 0 31 29 32
 117 513 261 0 34 +17 36 0 407 514 302 18 32 298 0 188 +17 513 0 350 515 516 119
 33 261 0 302 -15 350 809 0 516 331 0 17 515 0 350 516 513 99 302 301 0 0 -17 51
6 0 350 513 515 117 101 169 0 0 -16 261 1252 0 ?33 262 259 256 259 259 7 17 302
 0 407 36 514 119 515 301 0 0 +15 407 793 0 302 338 0 17 514 0 407 302 36 99 188
 186 0 515 -17 188 0 378 34 101 18 514 186 0 0 +15 378 384 0 188 349 0 17 34 0 3
78 101 188 117 29 35 0 516 +17 101 0 378 188 34 99 516 169 0 514 +15 508 1401 0
 59 429 0 17 59 0 508 110 116 57 308 259 0 288 +17 110 0 508 116 59 108 288 286
 0 291 -17 116 0 508 59 110 114 291 289 0 308 -17 308 0 307 309 305 114 59 259 0
 183 -17 288 0 397 310 517 57 110 286 0 305 +15 397 769 0 517 345 0 17 310 0 397
 517 288 93 305 304 0 0 -17 517 0 397 288 310 108 95 198 0 0 -17 95 0 361 183 29
1 93 517 198 0 309 +17 291 0 361 95 183 108 116 289 0 517 +17 309 0 307 305 308
 93 183 181 0 310 -15 307 801 0 305 330 0 82 1 506 -1872231512 15 504 1485 0 113
 437 0 17 113 0 504 56 137 111 518 284 0 283 +17 56 0 504 137 113 54 283 281 0 2
57 -17 137 0 504 113 56 135 257 164 0 518 -17 518 0 369 519 520 135 113 284 0 20
7 -17 283 0 392 86 399 111 56 281 0 520 +17 86 0 392 399 283 84 520 200 0 521 +1
7 399 0 392 283 86 54 521 177 0 0 +17 520 0 369 518 519 111 86 200 0 0 -15 369 1
226 0 518 357 383 17 519 0 369 520 518 84 207 205 0 0 -17 207 0 340 257 521 135
 519 205 0 0 +15 340 837 0 207 328 0 17 257 0 340 521 207 54 137 164 0 399 +17 5
21 0 340 207 257 84 399 177 0 519 -16 177 684 0 ?399 175 306 176 175 175 7 16 17
5 608 0 ?250 170 177 176 177 177 7 17 250 0 401 249 254 63 252 175 0 246 +17 249
 0 401 254 250 121 65 243 0 0 -17 254 0 401 250 249 141 41 278 0 252 +17 41 0 39
 37 40 121 254 278 0 42 -15 39 1425 0 40 422 0 83 3 488 0 .752941176470588 0 83
 3 485 0 .752941176470588 0 83 3 479 0 .752941176470588 0 81 1 348 1947 332 331
 459 0 388 403 522 83 3 474 0 .752941176470588 0 81 1 459 1883 450 331 0 348 456
 354 523 81 1 388 1946 332 349 524 0 384 348 525 83 3 522 0 .752941176470588 0 8
1 1 524 1897 450 349 0 388 386 466 526 83 3 525 0 .752941176470588 0 81 1 386 18
95 450 247 0 384 527 524 528 81 1 466 1899 450 366 0 387 524 394 529 82 1 526 -2
069625944 81 1 387 1944 332 366 466 0 364 384 530 82 1 529 -2067135576 81 1 364
 1943 332 360 531 0 359 387 532 83 3 530 0 .752941176470588 0 81 1 531 1891 450
 360 0 364 362 527 533 83 3 532 0 .752941176470588 0 81 1 362 1889 450 353 0 359
 534 531 535 81 1 527 1893 450 357 0 363 531 386 536 82 1 533 -2063858776 81 1 3
63 1941 332 357 527 0 355 359 537 82 1 536 -2063072344 81 1 355 1940 332 322 534
 0 351 363 538 83 3 537 0 .752941176470588 0 81 1 534 1887 450 322 0 355 354 362
 539 83 3 538 0 .752941176470588 0 81 1 354 1885 450 21 0 351 459 534 540 82 1 5
39 -2062679128 82 1 540 -2062285912 82 1 535 -2063465560 82 1 528 -2065759320 82
 1 523 -1966406744 83 3 472 0 .752941176470588 0 82 1 467 -2005728344 79 255 14
 465 SWEntUnchanged82 1 460 -1964571736 83 3 455 0 .752941176470588 0 82 1 453 -
1960574040 79 15 449 SDL/TYSA_COLOUR83 3 440 0 .752941176470588 0 83 3 436 0 .75
2941176470588 0 83 3 427 0 .752941176470588 0 83 3 413 0 .752941176470588 0 83 3
 405 0 .752941176470588 0 83 3 396 0 .752941176470588 0 83 3 389 0 .752941176470
588 0 83 3 365 0 .752941176470588 0 17 157 0 352 152 92 46 155 168 0 0 +17 152 0
 352 92 157 143 50 153 0 160 +17 92 0 352 157 152 90 160 163 0 155 +83 3 356 0 .
752941176470588 0 83 3 336 0 .752941176470588 0 19 22 33 0 7 0 16 12 S0 74 4 CI1
6 index_map_offset0 0 1 dCCZ20 20 3 0 0 509 484 9 0 0 0 0 0 0 0 0 0 0 0 0 0 0 0
 0 0 80 1 5 541 542 8017 0 0 0 0 0 0 0 0 0 TTTTTTTTTTTTTF3 84 255 3 19 BCC79 13
 542 SDL/TYSA_NAME74 20 6 1 0 0 2 0 0 0 0 0 0 0 0 0 0 0 0 0 0 0 0 0 0 0 1 0 
