**ABCDEFGHIJKLMNOPQRSTUVWXYZabcdefghijklmnopqrstuvwxyz**************************
**PARASOLID !"#$%&'()*+,-./:;<=>?@[\]^_`{|}~0123456789**************************
**PART1;
FORMAT=text;
GUISE=transmit;
KEY=unicode filename;
FILE=unicode filename;
DATE=unknown;
**PART2;
SCH=SCH_3101188_31100;
USFLD_SIZE=0;
**PART3;
**END_OF_HEADER*****************************************************************
T51 : TRANSMIT FILE created by modeller version 310118817 SCH_2700000_261050 12
 1 493 2 3 0 0 0 0 1e3 1e-8 0 0 0 1 0 1 1 4 5 6 7 8 9 10 0 0 0 0 0 0 0 81 1 2 49
3 11 1 12 0 13 0 14 70 3 0 4 T1 0 0 6 20 1 15 15 13 4 4 0 1 0 16 0 0 17 0 50 5 2
06 0 18 19 0 0 +0 0 0 0 1 0 0 0 1 32 6 304 0 20 21 0 0 +.001 .001 .001 867361737
988403e-30 0 1 -.707106781186547 -.707106781186548 613317366673349e-30 .00034641
0161513776 2e-4 29 7 244 0 22 23 0 .000755051025721683 -759984408654927e-34 .001
 19 8 2 0 1 17 0 24 V0 16 9 7 25 ?26 0 27 28 0 0 1 18 10 9 0 29 0 30 31 ?1 17 29
 0 32 33 34 10 35 27 0 26 -18 30 11 0 36 10 37 38 ?1 29 31 222 0 10 39 40 .001 .
000755051025721684 280377481530669e-34 29 39 221 0 41 42 31 .0002449489742783185
 .001 .001 29 40 223 0 43 31 44 0 .0002449489742783175 0 18 43 25 0 45 46 47 40
 ?1 29 44 224 0 48 40 49 -271050543121376e-34 .001 .000244948974278321 18 48 40
 0 50 51 52 44 ?1 29 49 225 0 53 44 54 5e-4 5e-4 .000255051025721683 18 53 55 0
 55 56 57 49 ?1 29 54 226 0 58 49 59 .001 2888894916580855e-49 .0002449489742783
17 18 58 67 0 60 61 62 54 ?1 29 59 227 0 63 54 64 0 .001 -645100292628875e-32 18
 63 33 0 65 66 67 59 ?1 29 64 228 0 56 59 68 .0002550510257216825 5e-4 5e-4 18 5
6 53 0 69 52 53 64 ?1 29 68 229 0 70 64 71 244466932766774e-34 .001 .00075505102
5721684 18 70 90 0 72 73 74 68 ?1 29 71 230 0 75 68 76 .001 -948676900924816e-33
 .001 18 75 125 0 77 78 79 71 ?1 29 76 231 0 80 71 81 .000755051025721683 0 -180
064156297224e-34 18 80 17 0 82 37 83 76 ?1 29 81 232 0 84 76 85 5e-4 .0007449489
74278319 5e-4 18 84 79 0 86 62 73 81 ?1 29 85 233 0 87 81 88 198422768983988e-34
 0 .000755051025721681 18 87 95 0 89 90 91 85 ?1 29 88 234 0 78 85 38 .001 34808
6080224332e-35 .000755051025721682 18 78 128 0 92 22 75 88 ?1 29 38 235 0 30 88
 93 .000755051025721684 .001 2148727643196935e-35 29 93 236 0 94 38 95 .001 .000
755051025721683 .001 18 94 147 0 96 97 98 93 ?1 29 95 237 0 99 93 100 .001 .001
 .001 18 99 148 0 101 102 97 95 ?1 29 100 238 0 47 95 103 .0002449489742783175 0
 0 18 47 27 0 104 43 66 100 ?1 29 103 239 0 83 100 105 .001 .000244948974278319
 -2710505431213765e-35 18 83 19 0 106 80 46 103 ?1 29 105 240 0 98 103 107 .001
 .001 .000755051025721682 18 98 155 0 108 94 0 105 ?1 29 107 241 0 46 105 109 .0
01 0 -616639985601131e-33 18 46 16 0 110 83 43 107 ?1 29 109 242 0 51 107 23 0 .
000755051025721685 2006266504668675e-35 18 51 32 0 111 67 48 109 ?1 29 23 243 0
 73 109 7 -1897353801849635e-34 .001 .001 18 73 88 0 112 84 70 23 ?1 17 112 0 11
3 114 115 73 116 117 0 118 -15 113 111 0 112 119 0 17 114 0 113 115 112 41 120 1
21 0 122 -17 115 0 113 112 114 70 123 124 0 0 -17 116 0 125 126 118 70 112 117 0
 115 +16 117 89 127 ?116 128 129 130 0 0 1 17 118 0 125 116 126 73 131 128 0 120
 +15 125 85 0 118 132 0 17 126 0 125 118 116 74 72 129 0 131 +17 131 0 133 122 1
20 74 118 128 0 134 -16 128 86 135 ?118 136 117 137 0 0 1 17 120 0 133 131 122 7
3 114 121 0 0 +15 133 116 0 131 138 0 17 122 0 133 120 131 41 134 139 0 0 +16 12
1 112 140 ?120 139 141 142 0 0 1 81 1 140 465 143 121 144 0 145 146 147 16 139 1
17 145 ?122 148 121 149 0 0 1 16 141 41 146 ?50 121 150 151 0 0 1 30 142 293 0 1
21 152 153 0 +5e-4 .001 .001 -1 0 867361737988404e-30 32 152 292 0 154 155 142 0
 +.001 .001 3252606517456515e-33 -1 0 0 0 .707106781186549 -.707106781186546 .00
0346410161513775 2e-4 30 153 294 0 156 142 157 0 +.001 .001 0 0 0 -1 16 156 154
 158 ?159 20 124 153 0 0 1 32 157 295 0 160 153 161 0 +.001 0 -1301042606982604e
-33 0 -1 0 -.707106781186547 0 .707106781186549 .000346410161513776 2e-4 16 160
 66 162 ?163 164 154 157 0 0 1 30 161 296 0 165 157 166 0 +.001 0 .001 0 1 0 16
 165 141 167 ?168 169 170 161 0 0 1 32 166 297 0 171 161 172 0 +5e-4 5e-4 5e-4 2
213118417172065e-31 2213118417172065e-31 -1 -.707106781186549 -.707106781186547
 -312982208070241e-30 .0003464101615137765 2e-4 16 171 51 173 ?174 175 176 166 0
 0 1 30 172 298 0 177 166 178 0 +0 0 0 0 0 1 16 177 94 179 ?180 129 181 172 0 0
 1 30 178 299 0 176 172 182 0 +0 0 0 0 0 1 16 176 59 183 ?184 171 185 178 0 0 1
 32 182 300 0 186 178 187 0 +5e-4 5e-4 5e-4 1 -101760871469068e-29 -132361347821
8538e-31 625964416140485e-30 .70710678118655 -.707106781186546 .0003464101615137
75 2e-4 16 186 132 188 ?189 190 191 182 0 0 1 30 187 301 0 192 182 193 0 +.001 0
 .001 0 1 0 16 192 146 194 ?195 170 196 187 0 0 1 32 193 302 0 197 187 21 0 +.00
1 1409462824231156e-33 0 0 0 -1 .707106781186548 -.707106781186548 0 .0003464101
61513775 2e-4 16 197 18 198 ?199 200 201 193 0 0 1 32 21 303 0 202 193 6 0 +-390
3127820947815e-33 .001 0 0 0 -1 -.707106781186548 .707106781186548 0 .0003464101
615137765 2e-4 16 202 36 203 ?111 204 205 21 0 0 1 81 1 203 441 143 202 206 0 20
7 208 209 17 111 0 210 211 212 51 213 202 0 214 +16 204 34 207 ?212 215 202 216
 0 0 1 16 205 44 208 ?217 202 175 218 0 0 1 81 1 208 442 143 205 219 0 203 220 2
21 17 217 0 222 223 214 48 224 205 0 0 +16 175 39 220 ?223 205 171 225 0 0 1 32
 218 256 0 205 226 227 0 +0 .001 3903127820947815e-33 -1 0 0 0 -.707106781186549
 .707106781186546 .000346410161513775 2e-4 30 226 255 0 201 228 218 0 +.001 0 0
 0 -1 0 32 227 257 0 229 218 230 0 +-249366499671666e-32 -238524477946811e-32 .0
01 867361737988404e-30 848339974847662e-46 1 -.707106781186549 -.707106781186547
 613317366673351e-30 .000346410161513777 2e-4 16 229 106 231 ?232 233 234 227 0
 0 1 32 230 258 0 235 227 236 0 +5e-4 5e-4 5e-4 -103136940398539e-29 -1 -2801864
137723045e-30 .707106781186548 1251928832280966e-30 -.707106781186547 .000346410
1615137755 2e-4 16 235 62 237 ?238 185 239 230 0 0 1 32 236 259 0 239 230 240 0
 +5e-4 5e-4 5e-4 1 1090669733248962e-30 -1975917100117785e-30 625964416140482e-3
0 .707106781186547 .707106781186548 .0003464101615137755 2e-4 16 239 56 241 ?242
 235 243 236 0 0 1 32 240 260 0 27 236 244 0 +.001 .001 0 0 0 -1 -.7071067811865
49 -.707106781186547 0 .0003464101615137765 2e-4 16 27 10 245 ?35 9 246 240 0 0
 1 32 244 261 0 170 240 247 0 +.001 -650521303491303e-33 .001 867361737988404e-3
0 0 1 -.707106781186548 .707106781186548 61331736667335e-29 .0003464101615137765
 2e-4 16 170 136 248 ?249 165 192 244 0 0 1 32 247 262 0 169 244 250 0 +.001 867
361737988404e-33 .001 -1 0 0 0 -.707106781186549 .707106781186546 .0003464101615
13775 2e-4 16 169 138 251 ?252 253 165 247 0 0 1 32 250 263 0 254 247 255 0 +.00
1 .001 .001 0 -1 0 .707106781186549 0 .707106781186547 .000346410161513775 2e-4
 16 254 156 256 ?108 257 258 250 0 0 1 32 255 264 0 150 250 259 0 +5e-4 5e-4 5e-
4 -1 101760871469068e-29 1323613478218538e-31 625964416140485e-30 .7071067811865
5 -.707106781186546 .000346410161513775 2e-4 16 150 80 260 ?261 141 262 255 0 0
 1 32 259 265 0 233 255 263 0 +-1084202172485504e-34 0 975781955236954e-33 0 -1
 0 .707106781186549 0 .707106781186547 .000346410161513775 2e-4 16 233 49 264 ?2
65 266 229 259 0 0 1 32 263 266 0 253 259 267 0 +5e-4 5e-4 5e-4 545334866624477e
-30 -1 -987958550058895e-30 .707106781186549 -3129822080702425e-31 .707106781186
546 .000346410161513775 2e-4 16 253 134 268 ?269 191 169 263 0 0 1 32 267 267 0
 243 263 270 0 +.001 867361737988404e-33 -433680868994202e-33 -1 0 0 0 .70710678
1186547 .707106781186549 .000346410161513776 2e-4 16 243 68 271 ?272 239 164 267
 0 0 1 30 270 268 0 164 267 273 0 +.001 0 0 0 0 1 16 164 71 274 ?275 243 160 270
 0 0 1 32 273 269 0 276 270 277 0 +-1192622389734054e-33 -975781955236954e-33 0
 0 0 -1 -.707106781186547 -.707106781186548 0 .000346410161513776 2e-4 16 276 26
 278 ?279 280 281 273 0 0 1 30 277 270 0 196 273 282 0 +5e-4 .001 .001 -1 0 8673
61737988404e-30 16 196 149 283 ?284 192 20 277 0 0 1 30 282 271 0 280 277 285 0
 +0 0 0 0 1 0 16 280 23 286 ?287 201 276 282 0 0 1 30 285 272 0 181 282 288 0 +0
 0 .001 0 1 0 16 181 97 289 ?290 177 266 285 0 0 1 30 288 273 0 281 285 291 0 +0
 0 0 -1 0 0 16 281 28 292 ?293 276 215 288 0 0 1 32 291 274 0 294 288 295 0 +5e-
4 5e-4 5e-4 -2213118417172065e-31 -2213118417172065e-31 1 -.707106781186549 -.70
7106781186547 -312982208070241e-30 .0003464101615137765 2e-4 16 294 78 296 ?86 2
58 297 291 0 0 1 30 295 275 0 297 291 298 0 +.001 .001 0 0 0 -1 16 297 83 299 ?3
00 294 0 295 0 0 1 32 298 276 0 124 295 301 0 +0 .001 .001 0 -1 0 -.707106781186
547 0 .707106781186549 .000346410161513776 2e-4 16 124 114 302 ?123 156 303 298
 0 0 1 30 301 277 0 200 298 304 0 +0 0 0 -1 0 0 16 200 15 305 ?306 246 197 301 0
 0 1 32 304 278 0 185 301 307 0 +0 1084202172485504e-34 1084202172485504e-33 -1
 0 0 0 .707106781186548 .707106781186547 .0003464101615137755 2e-4 16 185 47 308
 ?309 176 235 304 0 0 1 32 307 279 0 257 304 310 0 +5e-4 5e-4 5e-4 -1 -109066973
3248962e-30 1975917100117785e-30 625964416140482e-30 .707106781186547 .707106781
186548 .0003464101615137755 2e-4 16 257 166 311 ?312 303 254 307 0 0 1 32 310 28
0 0 313 307 314 0 +5e-4 5e-4 5e-4 -1106559208586032e-30 1106559208586032e-30 -1
 .707106781186548 -.707106781186548 -1564911040351205e-30 .000346410161513776 2e
-4 16 313 121 315 ?316 262 317 310 0 0 1 32 314 281 0 191 310 318 0 +5e-4 5e-4 5
e-4 1106559208586032e-30 -1106559208586032e-30 1 .707106781186548 -.707106781186
548 -1564911040351205e-30 .000346410161513776 2e-4 16 191 64 319 ?320 186 253 31
4 0 0 1 30 318 282 0 317 314 321 0 +5e-4 0 .001 -1 0 867361737988404e-30 16 317
 124 322 ?323 313 324 318 0 0 1 32 321 283 0 234 318 325 0 +-1084202172485504e-3
4 0 .001 0 -1 0 .707106781186549 0 -.707106781186546 .000346410161513775 2e-4 16
 234 109 326 ?327 229 148 321 0 0 1 30 325 284 0 148 321 328 0 +5e-4 0 .001 -1 0
 867361737988404e-30 16 148 104 329 ?330 234 139 325 0 0 1 30 328 285 0 215 325
 216 0 +0 0 0 0 1 0 16 215 31 331 ?211 281 204 328 0 0 1 30 216 286 0 204 328 28
 0 +0 .001 0 1 0 0 30 28 287 0 9 216 225 0 +.001 0 0 0 -1 0 30 225 288 0 175 28
 151 0 +0 .001 0 0 0 -1 32 151 289 0 141 225 332 0 +0 .001 3903127820947815e-33
 0 -1 0 .707106781186549 0 .707106781186546 .000346410161513775 2e-4 32 332 290
 0 129 151 155 0 +0 .001 .001 -1 0 0 0 .707106781186547 .707106781186549 .000346
410161513776 2e-4 16 129 91 333 ?126 117 177 332 0 0 1 32 155 291 0 262 332 152
 0 +5e-4 5e-4 5e-4 -545334866624477e-30 1 987958550058895e-30 .707106781186549 -
3129822080702425e-31 .707106781186546 .000346410161513775 2e-4 16 262 54 334 ?33
5 150 313 155 0 0 1 81 1 334 468 143 262 336 0 260 315 337 17 335 0 338 316 261
 56 55 262 0 174 +15 338 120 0 261 339 0 17 316 0 338 261 335 84 69 313 0 340 +1
7 261 0 338 335 316 53 340 150 0 0 +17 55 0 341 342 174 53 335 262 0 242 -17 174
 0 341 55 342 56 343 171 0 344 +15 341 50 0 174 345 0 17 342 0 341 174 55 57 242
 239 0 343 -17 343 0 346 347 344 57 174 171 0 189 -17 344 0 346 343 347 56 348 3
03 0 0 -15 346 169 0 343 349 0 17 347 0 346 344 343 79 189 186 0 350 -17 348 0 3
51 312 69 79 344 303 0 269 +16 303 165 352 ?348 124 257 353 0 0 1 81 1 352 484 1
43 303 354 0 302 311 355 32 353 248 0 303 149 137 0 +5e-4 5e-4 5e-4 103136940398
539e-29 1 2801864137723045e-30 .707106781186548 1251928832280966e-30 -.707106781
186547 .0003464101615137755 2e-4 32 149 247 0 139 356 353 0 +1301042606982604e-3
3 .001 .001 867361737988403e-30 0 1 .707106781186548 -.707106781186548 -61331736
667335e-29 .0003464101615137755 2e-4 30 137 249 0 128 353 357 0 +0 0 .001 0 1 0
 32 357 250 0 266 137 358 0 +0 1084202172485504e-34 .001 -1 0 0 0 .7071067811865
49 -.707106781186546 .000346410161513775 2e-4 16 266 99 359 ?89 181 233 357 0 0
 1 32 358 251 0 324 357 130 0 +.001 0 .001 0 -1 0 .707106781186549 0 .7071067811
86546 .000346410161513775 2e-4 16 324 127 360 ?361 317 190 358 0 0 1 30 130 252
 0 117 358 362 0 +0 .001 0 0 0 -1 32 362 253 0 258 130 228 0 +.001 .001 .001 -1
 0 0 0 .707106781186548 .707106781186547 .0003464101615137755 2e-4 16 258 159 36
3 ?364 254 294 362 0 0 1 30 228 254 0 246 362 226 0 +0 .001 0 1 0 0 16 246 12 36
5 ?366 27 200 228 0 0 1 81 1 365 432 143 246 367 0 245 305 368 17 366 0 369 26 3
5 37 36 246 0 370 +15 369 6 0 26 16 0 17 26 0 369 35 366 10 370 9 0 371 +17 35 0
 369 366 26 30 29 27 0 34 +18 37 8 0 366 30 80 42 ?1 17 36 0 372 373 300 30 366
 246 0 35 -17 370 0 374 375 371 37 26 9 0 300 -15 374 82 0 370 376 0 17 375 0 37
4 371 370 62 300 297 0 0 -17 371 0 374 370 375 10 33 154 0 0 -17 300 0 372 36 37
3 37 375 297 0 0 +15 372 174 0 36 377 0 17 373 0 372 300 36 62 34 136 0 33 -18 6
2 75 0 373 58 84 378 ?1 17 34 0 32 29 33 30 373 136 0 0 +16 136 76 379 ?34 154 1
28 356 0 0 1 17 33 0 32 34 29 62 371 154 0 375 +15 32 73 0 29 380 381 16 154 74
 382 ?33 160 136 152 0 0 1 81 1 382 452 143 154 383 0 162 379 384 80 1 143 0 385
 8001 0 0 0 0 3 5 0 0 0 FFFFTFTFFFFFFF2 81 1 383 352 11 154 0 382 336 144 386 81
 1 162 451 143 160 387 0 274 382 388 81 1 379 453 143 136 389 0 382 135 390 83 3
 384 .56078431372549 .686274509803922 .56078431372549 81 1 389 306 11 136 0 379
 391 392 393 81 1 135 454 143 128 394 0 379 127 395 83 3 390 .56078431372549 .68
6274509803922 .56078431372549 81 1 394 309 11 128 0 135 354 396 397 81 1 127 455
 143 117 398 0 135 333 399 83 3 395 .56078431372549 .686274509803922 .5607843137
2549 81 1 398 312 11 117 0 127 400 401 402 81 1 333 456 143 129 403 0 127 179 40
4 83 3 399 .56078431372549 .686274509803922 .56078431372549 81 1 403 350 11 129
 0 333 405 336 406 81 1 179 457 143 177 407 0 333 289 408 83 3 404 .560784313725
49 .686274509803922 .56078431372549 81 1 407 358 11 177 0 179 409 410 411 81 1 2
89 458 143 181 412 0 179 359 413 83 3 408 .56078431372549 .686274509803922 .5607
8431372549 81 1 412 332 11 181 0 289 414 415 416 81 1 359 459 143 266 396 0 289
 264 417 83 3 413 .56078431372549 .686274509803922 .56078431372549 81 1 396 310
 11 266 0 359 394 400 418 81 1 264 460 143 233 419 0 359 231 420 83 3 417 .56078
431372549 .686274509803922 .56078431372549 81 1 419 325 11 233 0 264 421 422 423
 81 1 231 461 143 229 424 0 264 326 425 83 3 420 .56078431372549 .68627450980392
2 .56078431372549 81 1 424 317 11 229 0 231 219 426 427 81 1 326 462 143 234 428
 0 231 329 429 83 3 425 .56078431372549 .686274509803922 .56078431372549 81 1 42
8 343 11 234 0 326 430 431 432 81 1 329 463 143 148 431 0 326 145 433 83 3 429 .
56078431372549 .686274509803922 .56078431372549 81 1 431 344 11 148 0 329 428 43
4 435 81 1 145 464 143 139 392 0 329 140 436 83 3 433 .56078431372549 .686274509
803922 .56078431372549 81 1 392 307 11 139 0 145 389 354 437 83 3 436 .560784313
72549 .686274509803922 .56078431372549 80 1 11 438 439 8017 0 0 0 0 0 0 0 0 0 TT
TTTTTTTTTTTF3 81 1 354 308 11 303 0 352 392 394 440 84 7 437 0:2022084 7 440 0:1
419979 13 439 SDL/TYSA_NAME81 1 434 345 11 215 0 331 431 441 442 84 7 435 0:1784
781 1 331 439 143 215 434 0 292 207 443 81 1 441 346 11 204 0 207 434 444 445 84
 7 442 0:2258281 1 207 440 143 204 441 0 331 203 446 81 1 444 347 11 9 0 25 441
 447 448 84 7 445 0:2260981 1 25 430 143 9 444 0 449 245 450 81 1 447 348 11 175
 0 220 444 405 451 84 7 448 0:2260681 1 220 443 143 175 447 0 208 173 452 81 1 4
05 349 11 141 0 146 447 403 453 84 7 451 0:2014781 1 146 466 143 141 405 0 140 2
60 454 84 7 453 0:2272881 1 260 467 143 150 421 0 146 334 455 83 3 454 .56078431
372549 .686274509803922 .56078431372549 81 1 421 324 11 150 0 260 456 419 457 83
 3 455 .56078431372549 .686274509803922 .56078431372549 81 1 456 323 11 254 0 25
6 458 421 459 84 7 457 0:1419681 1 256 486 143 254 456 0 311 363 460 81 1 458 32
2 11 169 0 251 461 456 462 84 7 459 0:1589681 1 251 476 143 169 458 0 268 167 46
3 81 1 461 321 11 170 0 248 464 458 465 84 7 462 0:1796481 1 248 478 143 170 461
 0 167 194 466 81 1 464 320 11 27 0 245 467 461 468 84 7 465 0:1795481 1 245 431
 143 27 464 0 25 365 469 81 1 467 319 11 239 0 241 426 464 470 84 7 468 0:226158
1 1 241 448 143 239 467 0 237 271 471 81 1 426 318 11 235 0 237 424 467 472 84 6
 470 0:985481 1 237 447 143 235 426 0 308 241 473 84 7 472 0:1420281 1 308 446 1
43 185 474 0 183 237 475 83 3 473 .56078431372549 .686274509803922 .560784313725
49 81 1 474 338 11 185 0 308 476 477 478 81 1 183 445 143 176 410 0 173 308 479
 83 3 475 .56078431372549 .686274509803922 .56078431372549 81 1 410 359 11 176 0
 183 407 480 481 81 1 173 444 143 171 409 0 220 183 482 83 3 479 .56078431372549
 .686274509803922 .56078431372549 81 1 409 357 11 171 0 173 483 407 484 83 3 482
 .56078431372549 .686274509803922 .56078431372549 81 1 483 356 11 165 0 167 387
 409 485 84 7 484 0:1419381 1 167 477 143 165 483 0 251 248 486 81 1 387 355 11
 160 0 162 487 483 488 84 7 485 0:1574981 1 487 354 11 156 0 158 144 387 489 84
 7 488 0:2267581 1 158 482 143 156 487 0 490 302 491 81 1 144 353 11 121 0 140 3
83 487 492 84 7 489 0:1489184 7 492 0:1577081 1 490 481 143 20 493 0 283 158 494
 81 1 302 483 143 124 495 0 158 352 496 83 3 491 .56078431372549 .68627450980392
2 .56078431372549 81 1 495 336 11 124 0 302 497 476 498 83 3 496 .56078431372549
 .686274509803922 .56078431372549 81 1 497 335 11 297 0 299 499 495 500 81 1 476
 337 11 200 0 305 495 474 501 84 7 498 0:2023081 1 305 433 143 200 476 0 365 198
 502 84 7 501 0:2259781 1 198 434 143 197 503 0 305 504 505 83 3 502 .5607843137
2549 .686274509803922 .56078431372549 81 1 503 362 11 197 0 198 506 206 507 81 1
 504 435 143 201 508 0 198 286 509 83 3 505 .56078431372549 .686274509803922 .56
078431372549 16 201 20 504 ?110 197 280 226 0 0 1 81 1 508 315 11 201 0 504 367
 219 510 81 1 286 436 143 280 414 0 504 278 511 83 3 509 .56078431372549 .686274
509803922 .56078431372549 81 1 414 331 11 280 0 286 512 412 513 81 1 278 437 143
 276 514 0 286 292 515 83 3 511 .56078431372549 .686274509803922 .56078431372549
 81 1 514 329 11 276 0 278 516 512 517 81 1 292 438 143 281 415 0 278 331 518 83
 3 515 .56078431372549 .686274509803922 .56078431372549 81 1 415 333 11 281 0 29
2 412 499 519 83 3 518 .56078431372549 .686274509803922 .56078431372549 81 1 499
 334 11 294 0 296 415 497 520 84 7 519 0:2259181 1 296 488 143 294 499 0 363 299
 521 84 7 520 0:1419081 1 363 487 143 258 401 0 256 296 522 81 1 299 489 143 297
 497 0 296 0 523 83 3 521 .56078431372549 .686274509803922 .56078431372549 83 3
 523 .56078431372549 .686274509803922 .56078431372549 81 1 401 313 11 258 0 363
 398 367 524 83 3 522 .56078431372549 .686274509803922 .56078431372549 81 1 367
 314 11 246 0 365 401 508 525 84 7 524 0:1588384 7 525 0:2261281 1 516 328 11 16
4 0 274 526 514 527 81 1 512 330 11 196 0 283 514 414 528 84 7 517 0:2258881 1 2
83 480 143 196 512 0 194 490 529 84 7 528 0:1577381 1 194 479 143 192 506 0 248
 283 530 83 3 529 .56078431372549 .686274509803922 .56078431372549 81 1 506 361
 11 192 0 194 480 503 531 83 3 530 .56078431372549 .686274509803922 .56078431372
549 81 1 480 360 11 186 0 188 410 506 532 84 7 531 0:1574681 1 188 473 143 186 4
80 0 533 319 534 84 7 532 0:1420581 1 533 472 143 190 391 0 360 188 535 81 1 319
 474 143 191 536 0 188 268 537 83 3 534 .56078431372549 .686274509803922 .560784
31372549 81 1 536 341 11 191 0 319 538 430 539 81 1 268 475 143 253 422 0 319 25
1 540 83 3 537 .56078431372549 .686274509803922 .56078431372549 81 1 422 326 11
 253 0 268 419 526 541 83 3 540 .56078431372549 .686274509803922 .56078431372549
 81 1 526 327 11 243 0 271 422 516 542 84 6 541 0:986381 1 271 449 143 243 526 0
 241 274 543 84 7 542 0:2268581 1 274 450 143 164 516 0 271 162 544 83 3 543 .56
078431372549 .686274509803922 .56078431372549 83 3 544 .56078431372549 .68627450
9803922 .56078431372549 81 1 538 340 11 313 0 315 477 536 545 81 1 430 342 11 31
7 0 322 536 428 546 84 6 539 0:520981 1 322 470 143 317 430 0 315 360 547 84 7 5
46 0:1785081 1 315 469 143 313 538 0 334 322 548 81 1 360 471 143 324 400 0 322
 533 549 83 3 547 .56078431372549 .686274509803922 .56078431372549 81 1 400 311
 11 324 0 360 396 398 550 83 3 549 .56078431372549 .686274509803922 .56078431372
549 84 7 550 0:1785383 3 548 .56078431372549 .686274509803922 .56078431372549 81
 1 477 339 11 257 0 311 474 538 551 84 6 545 0:521281 1 311 485 143 257 477 0 35
2 256 552 84 6 551 0:984883 3 552 .56078431372549 .686274509803922 .560784313725
49 16 190 129 533 ?77 324 186 553 0 0 1 81 1 391 305 11 190 0 533 0 389 554 83 3
 535 .56078431372549 .686274509803922 .56078431372549 84 7 554 0:1785617 77 0 55
5 323 361 75 92 190 0 556 +30 553 245 0 190 0 356 0 +.001 0 0 0 0 1 32 356 246 0
 136 553 149 0 +.001 .001 227682456221956e-32 0 -1 0 .707106781186549 0 -.707106
781186546 .000346410161513775 2e-4 15 555 123 0 323 557 0 17 323 0 555 361 77 22
 556 317 0 249 +17 361 0 555 77 323 78 558 324 0 252 +17 92 0 559 560 561 78 77
 190 0 361 -17 556 0 562 168 249 75 323 317 0 561 -15 562 140 0 556 563 0 17 168
 0 562 249 556 102 561 165 0 0 +17 249 0 562 556 168 22 564 170 0 0 +17 561 0 55
9 92 560 75 168 165 0 0 -15 559 161 0 92 565 0 17 560 0 559 561 92 102 252 169 0
 168 -18 102 137 0 564 79 99 566 ?1 17 252 0 567 558 564 78 560 169 0 0 +15 567
 135 0 558 568 0 17 558 0 567 564 252 22 361 324 0 323 -17 564 0 567 252 558 102
 249 170 0 560 -18 22 126 0 558 41 78 7 ?1 18 41 113 0 123 91 22 39 ?1 17 123 0
 569 134 72 41 115 124 0 114 +18 91 105 0 570 87 41 571 ?1 17 570 0 572 232 573
 91 330 148 0 574 -29 571 213 0 91 575 576 .000244948974278317 -770371977754894e
-48 .001 29 575 212 0 57 577 571 5e-4 .000255051025721683 5e-4 29 576 214 0 67 5
71 578 .000244948974278316 .001 770371977754894e-48 18 67 35 0 213 63 51 576 ?1
 29 578 215 0 90 576 579 -385185988877447e-48 .0002449489742783165 .001 18 90 98
 0 580 581 87 578 ?1 29 579 216 0 79 578 378 5e-4 5e-4 .000744948974278319 18 79
 133 0 348 75 102 579 ?1 29 378 217 0 62 579 582 .001 .001 .00024494897427832 29
 582 218 0 52 378 583 722223729145214e-49 0 .0002449489742783185 18 52 48 0 265
 48 56 582 ?1 29 583 219 0 581 582 42 -1084202172485504e-34 0 .001 18 581 96 0 5
73 74 90 583 ?1 29 42 220 0 37 583 39 .001 .001 -650521303491303e-33 17 573 0 57
2 570 232 581 290 181 0 180 -18 74 87 0 126 70 581 584 ?1 29 584 210 0 74 585 57
7 3519033149266025e-35 .000755051025721682 .001 29 585 209 0 97 566 584 .0007550
51025721683 .001 .001 29 577 211 0 66 584 575 0 0 101643953670516e-33 18 66 24 0
 293 47 63 577 ?1 17 293 0 586 287 279 66 104 281 0 587 +15 586 22 0 287 588 0 1
7 287 0 586 279 293 43 587 280 0 309 +17 279 0 586 293 287 47 45 276 0 589 +17 1
04 0 590 265 591 47 293 281 0 279 -17 587 0 592 184 309 66 287 280 0 591 -15 592
 58 0 587 593 0 17 184 0 592 309 587 52 591 176 0 0 +17 309 0 592 587 184 43 594
 185 0 0 +17 591 0 590 104 265 66 184 176 0 0 -15 590 101 0 104 595 0 17 265 0 5
90 591 104 52 589 233 0 594 +17 589 0 596 45 594 47 265 233 0 0 -17 594 0 596 58
9 45 52 309 185 0 184 -15 596 46 0 45 345 341 17 45 0 596 594 589 43 279 276 0 2
87 -14 345 45 597 ?593 598 596 4 599 +0 0 593 598 24 81 1 597 404 143 345 600 0
 601 602 603 14 593 57 602 ?604 345 592 4 605 -0 0 604 345 24 14 598 42 601 ?345
 606 222 4 607 -0 0 345 606 24 51 599 197 0 345 608 609 0 +5e-4 5e-4 5e-4 -.5773
50269189626 -.577350269189626 -.577350269189625 2e-4 -.408248290463862 -.4082482
90463863 .816496580927727 13 24 3 0 0 0 0 0 0 8 16 14 16 5 610 ?611 0 369 4 612
 -0 0 611 0 24 81 1 610 398 143 16 613 0 0 614 615 14 611 13 614 ?588 16 616 4 6
17 -0 0 588 16 24 50 612 200 0 16 618 619 0 +0 0 0 0 0 1 1 0 0 50 618 199 0 119
 609 612 0 +0 .001 0 0 1 0 0 0 1 51 619 201 0 620 612 621 0 +5e-4 5e-4 5e-4 -.57
7350269189626 -.577350269189626 -.577350269189625 2e-4 -.408248290463862 -.40824
8290463863 .816496580927727 14 620 170 622 ?377 349 623 4 619 +0 0 377 349 24 50
 621 202 0 624 619 625 0 +0 .001 0 0 1 0 0 0 1 14 624 152 626 ?627 628 629 4 621
 +0 0 627 628 24 50 625 203 0 630 621 631 0 +0 0 0 0 1 0 0 0 1 14 630 69 632 ?38
0 604 633 4 625 -0 0 380 604 24 50 631 204 0 595 625 19 0 +0 0 0 0 1 0 0 0 1 14
 595 100 634 ?635 636 590 4 631 -0 0 635 636 24 50 19 205 0 636 631 5 0 +0 0 0 1
 0 0 0 1 0 14 636 92 637 ?595 132 638 4 19 -0 0 595 132 24 81 1 637 411 143 636
 639 0 640 634 641 14 132 84 640 ?636 376 125 4 642 -0 0 636 376 24 15 638 93 0
 180 636 0 17 180 0 638 290 89 581 643 177 0 330 +17 290 0 638 89 180 90 573 181
 0 232 +17 89 0 638 180 290 87 580 266 0 643 +17 643 0 644 327 330 87 180 177 0
 645 -17 330 0 644 643 327 581 570 148 0 0 +15 644 108 0 643 18 0 17 327 0 644 3
30 643 91 645 234 0 0 +17 645 0 646 580 574 87 327 234 0 0 -15 646 168 0 580 349
 346 17 580 0 646 574 645 90 89 266 0 290 -17 574 0 646 645 580 91 232 229 0 327
 -17 232 0 572 573 570 90 574 229 0 0 +15 572 103 0 573 635 0 14 635 102 647 ?18
 595 572 4 608 -0 0 18 595 24 81 1 647 413 143 635 648 0 634 649 650 14 18 107 6
49 ?119 635 644 4 5 -0 0 119 635 24 50 608 196 0 635 651 599 0 +.001 0 .001 -867
361737988404e-30 0 -1 -1 0 867361737988404e-30 50 651 195 0 628 652 608 0 +.001
 0 .001 -867361737988404e-30 0 -1 -1 0 867361737988404e-30 14 628 144 653 ?624 6
54 655 4 651 -0 0 624 654 24 50 652 194 0 565 656 651 0 +.001 0 0 1 0 0 0 1 0 14
 565 160 657 ?658 627 559 4 652 +0 0 658 627 24 51 656 193 0 380 659 652 0 +5e-4
 5e-4 5e-4 .577350269189627 .577350269189627 -.577350269189624 2e-4 -.4082482904
638635 -.40824829046386 -.816496580927727 14 380 72 660 ?376 630 32 4 656 +0 0 3
76 630 24 50 659 192 0 588 661 656 0 +0 0 0 0 0 1 1 0 0 14 588 21 662 ?663 611 5
86 4 659 -0 0 663 611 24 51 661 191 0 349 664 659 0 +5e-4 5e-4 5e-4 .57735026918
9627 .577350269189627 -.577350269189624 2e-4 -.4082482904638635 -.40824829046386
 -.816496580927727 14 349 167 665 ?620 658 646 4 661 +0 0 620 658 24 50 664 190
 0 377 605 661 0 +0 .001 0 0 1 0 0 0 1 14 377 173 449 ?0 620 372 4 664 +0 0 0 62
0 24 50 605 189 0 593 666 664 0 +0 0 0 1 0 0 0 1 0 51 666 188 0 568 667 605 0 +5
e-4 5e-4 5e-4 -.577350269189627 .577350269189627 -.577350269189624 2e-4 -.408248
2904638615 .4082482904638615 .816496580927728 14 568 130 668 ?563 557 669 4 666
 +0 0 563 557 24 51 667 187 0 339 670 666 0 +5e-4 5e-4 5e-4 -.577350269189627 .5
77350269189627 -.577350269189624 2e-4 -.4082482904638615 .4082482904638615 .8164
96580927728 14 339 118 671 ?557 138 672 4 667 +0 0 557 138 24 50 670 186 0 606 6
73 667 0 +0 .001 0 0 1 0 0 0 1 14 606 37 674 ?598 663 675 4 670 +0 0 598 663 24
 50 673 185 0 627 676 670 0 +.001 0 0 1 0 0 0 1 0 14 627 157 677 ?565 624 678 4
 673 +0 0 565 624 24 50 676 184 0 563 679 673 0 +.001 0 .001 -867361737988404e-3
0 0 -1 -1 0 867361737988404e-30 14 563 139 680 ?654 568 562 4 676 -0 0 654 568 2
4 50 679 183 0 663 617 676 0 +0 0 0 0 0 1 1 0 0 14 663 29 681 ?606 588 210 4 679
 -0 0 606 588 24 50 617 182 0 611 682 679 0 +0 0 0 0 0 1 1 0 0 50 682 181 0 138
 683 617 0 +.001 0 .001 -867361737988404e-30 0 -1 -1 0 867361737988404e-30 14 13
8 115 684 ?339 119 133 4 682 -0 0 339 119 24 51 683 180 0 658 685 682 0 +5e-4 5e
-4 5e-4 -.577350269189625 .577350269189625 .577350269189627 2e-4 .40824829046386
4 -.408248290463864 .816496580927725 14 658 162 686 ?349 565 569 4 683 +0 0 349
 565 24 50 685 179 0 376 687 683 0 +.001 0 0 1 0 0 0 1 0 14 376 81 688 ?132 380
 374 4 685 +0 0 132 380 24 51 687 178 0 604 607 685 0 +5e-4 5e-4 5e-4 -.57735026
9189625 .577350269189625 .577350269189627 2e-4 .408248290463864 -.40824829046386
4 .816496580927725 14 604 60 689 ?630 593 690 4 687 +0 0 630 593 24 50 607 177 0
 598 691 687 0 +0 0 0 1 0 0 0 1 0 50 691 176 0 557 642 607 0 +0 0 0 0 1 0 0 0 1
 14 557 122 692 ?568 339 555 4 691 -0 0 568 339 24 50 642 175 0 132 0 691 0 +0 0
 0 1 0 0 0 1 0 81 1 692 418 143 557 693 0 671 668 694 81 1 693 366 11 557 0 692
 695 696 697 81 1 671 417 143 339 698 0 684 692 699 81 1 668 419 143 568 700 0 6
92 680 701 83 3 694 .56078431372549 .686274509803922 .56078431372549 81 1 700 37
8 11 568 0 668 698 702 703 81 1 680 420 143 563 704 0 668 705 706 83 3 701 .5607
8431372549 .686274509803922 .56078431372549 81 1 704 374 11 563 0 680 707 708 70
9 81 1 705 421 143 654 710 0 680 653 711 83 3 706 .56078431372549 .6862745098039
22 .56078431372549 14 654 142 705 ?628 563 712 4 609 +0 0 628 563 24 81 1 710 38
8 11 654 0 705 600 713 714 81 1 653 422 143 628 715 0 705 626 716 83 3 711 .5607
8431372549 .686274509803922 .56078431372549 81 1 715 385 11 628 0 653 717 648 71
8 81 1 626 423 143 624 719 0 653 677 720 83 3 716 .56078431372549 .6862745098039
22 .56078431372549 81 1 719 392 11 624 0 626 721 722 723 81 1 677 424 143 627 70
8 0 626 657 724 83 3 720 .56078431372549 .686274509803922 .56078431372549 81 1 7
08 375 11 627 0 677 704 725 726 81 1 657 425 143 565 717 0 677 686 727 83 3 724
 .56078431372549 .686274509803922 .56078431372549 81 1 717 384 11 565 0 657 728
 715 729 81 1 686 426 143 658 730 0 657 665 731 83 3 727 .56078431372549 .686274
509803922 .56078431372549 81 1 730 370 11 658 0 686 732 733 734 81 1 665 427 143
 349 735 0 686 622 736 83 3 731 .56078431372549 .686274509803922 .56078431372549
 81 1 735 381 11 349 0 665 737 738 739 81 1 622 428 143 620 721 0 665 449 740 83
 3 736 .56078431372549 .686274509803922 .56078431372549 81 1 721 391 11 620 0 62
2 613 719 741 81 1 449 429 143 377 737 0 622 25 742 83 3 740 .56078431372549 .68
6274509803922 .56078431372549 81 1 737 380 11 377 0 449 702 735 743 83 3 742 .56
078431372549 .686274509803922 .56078431372549 81 1 702 379 11 593 0 602 700 737
 744 84 7 743 0:2246181 1 602 405 143 593 702 0 597 689 745 84 7 744 0:2251481 1
 689 406 143 604 746 0 602 632 747 83 3 745 .56078431372549 .686274509803922 .56
078431372549 81 1 746 368 11 604 0 689 696 732 748 81 1 632 407 143 630 722 0 68
9 660 749 83 3 747 .56078431372549 .686274509803922 .56078431372549 81 1 722 393
 11 630 0 632 719 750 751 81 1 660 408 143 380 728 0 632 688 752 83 3 749 .56078
431372549 .686274509803922 .56078431372549 81 1 728 383 11 380 0 660 738 717 753
 81 1 688 409 143 376 732 0 660 640 754 83 3 752 .56078431372549 .68627450980392
2 .56078431372549 81 1 732 369 11 376 0 688 746 730 755 81 1 640 410 143 132 695
 0 688 637 756 83 3 754 .56078431372549 .686274509803922 .56078431372549 81 1 69
5 365 11 132 0 640 493 693 757 83 3 756 .56078431372549 .686274509803922 .560784
31372549 81 1 493 364 11 20 0 490 206 695 758 84 7 757 0:1997316 20 151 490 ?96
 196 156 6 0 0 1 81 1 206 363 11 202 0 203 503 493 759 84 7 758 0:1576184 7 759
 0:2259417 96 0 655 195 284 94 760 20 0 761 +15 655 145 0 195 628 0 17 195 0 655
 284 96 99 761 192 0 762 +17 284 0 655 96 195 97 101 196 0 763 +17 760 0 623 108
 364 97 96 20 0 284 -17 761 0 678 764 762 94 195 192 0 364 -15 678 158 0 761 627
 0 17 764 0 678 762 761 98 364 258 0 0 -17 762 0 678 761 764 99 159 156 0 0 -17
 364 0 623 760 108 94 764 258 0 0 +15 623 171 0 760 620 765 17 108 0 623 364 760
 98 763 254 0 159 +17 763 0 629 101 159 97 108 254 0 0 -17 159 0 629 763 101 98
 762 156 0 764 +15 629 153 0 101 624 0 17 101 0 629 159 763 99 284 196 0 195 -18
 97 150 0 760 99 94 585 ?1 15 765 172 0 86 620 0 17 86 0 765 350 766 84 767 294
 0 316 +17 350 0 765 766 86 79 312 257 0 0 -17 766 0 765 86 350 61 269 253 0 0 -
17 767 0 381 768 340 61 86 294 0 320 -15 381 77 0 767 380 0 17 768 0 381 340 767
 53 238 235 0 261 -17 340 0 381 767 768 84 261 150 0 312 -18 61 63 0 767 57 58 7
69 ?1 17 320 0 669 269 189 61 770 191 0 238 +15 669 131 0 189 568 567 17 269 0 6
69 189 320 79 766 253 0 347 +17 189 0 669 320 269 57 347 186 0 0 +17 770 0 690 2
42 238 57 320 191 0 342 -17 238 0 690 770 242 61 768 235 0 766 +15 690 61 0 238
 604 771 17 242 0 690 238 770 53 342 239 0 768 +15 771 65 0 82 604 0 17 82 0 771
 60 272 80 199 197 0 306 -17 60 0 771 272 82 58 163 160 0 772 -17 272 0 771 82 6
0 83 772 243 0 0 +17 199 0 616 110 306 83 82 197 0 272 +17 306 0 616 199 110 80
 773 200 0 163 +15 616 14 0 306 611 0 17 110 0 616 306 199 46 106 201 0 773 +17
 773 0 633 275 163 46 306 200 0 774 -17 163 0 633 773 275 80 60 160 0 0 +15 633
 70 0 773 630 0 17 275 0 633 163 773 58 774 164 0 0 +17 774 0 712 106 772 46 275
 164 0 0 -15 712 143 0 106 654 0 17 106 0 712 772 774 83 110 201 0 199 -17 772 0
 712 774 106 58 272 243 0 275 -18 57 52 0 770 53 61 575 ?1 29 769 207 0 61 0 566
 .000744948974278318 5e-4 5e-4 29 566 208 0 102 769 585 .001 .000244948974278318
 .001 17 312 0 351 69 348 84 350 257 0 0 +15 351 164 0 348 658 0 17 69 0 351 348
 312 56 316 313 0 335 -84 7 755 0:2245481 1 738 382 11 588 0 662 735 728 775 84
 7 753 0:2247481 1 662 400 143 588 738 0 614 681 776 84 7 775 0:2243881 1 614 39
9 143 611 777 0 610 662 778 81 1 681 401 143 663 707 0 662 674 779 83 3 776 .560
78431372549 .686274509803922 .56078431372549 81 1 707 373 11 663 0 681 777 704 7
80 81 1 674 402 143 606 725 0 681 601 781 83 3 779 .56078431372549 .686274509803
922 .56078431372549 81 1 725 376 11 606 0 674 708 698 782 81 1 601 403 143 598 6
96 0 674 597 783 83 3 781 .56078431372549 .686274509803922 .56078431372549 81 1
 696 367 11 598 0 601 693 746 784 83 3 783 .56078431372549 .686274509803922 .560
78431372549 84 7 784 0:2254481 1 698 377 11 339 0 671 725 700 785 84 7 782 0:225
6484 7 785 0:2255181 1 777 372 11 611 0 614 733 707 786 84 7 780 0:2243581 1 733
 371 11 138 0 684 730 777 787 84 7 786 0:2244181 1 684 416 143 138 733 0 788 671
 789 84 7 787 0:2001681 1 788 415 143 119 713 0 649 684 790 83 3 789 .5607843137
2549 .686274509803922 .56078431372549 14 119 110 788 ?138 18 113 4 618 +0 0 138
 18 24 81 1 713 389 11 119 0 788 710 613 791 81 1 649 414 143 18 13 0 647 788 79
2 83 3 790 .56078431372549 .686274509803922 .56078431372549 81 1 13 396 11 18 0
 649 639 2 793 83 3 792 .56078431372549 .686274509803922 .56078431372549 81 1 63
9 395 11 636 0 637 750 13 794 84 7 793 0:2004681 1 750 394 11 595 0 634 722 639
 795 84 7 794 0:1997081 1 634 412 143 595 750 0 637 647 796 84 7 795 0:2253183 3
 796 .56078431372549 .686274509803922 .56078431372549 81 1 613 390 11 16 0 610 7
13 721 797 84 7 791 0:2003684 7 797 0:2244483 3 778 .56078431372549 .68627450980
3922 .56078431372549 84 7 751 0:2248484 7 748 0:2249484 7 741 0:1571584 7 739 0:
2006384 7 734 0:2002384 7 729 0:1779684 7 726 0:1570884 7 723 0:1572881 1 648 38
6 11 635 0 647 715 600 798 84 7 718 0:1560981 1 600 387 11 345 0 597 648 710 799
 84 7 798 0:2005684 7 799 0:2252484 7 714 0:2250150 609 198 0 654 599 618 0 +.00
1 0 0 1 0 0 0 1 0 84 7 709 0:1777984 7 703 0:1778983 3 699 .56078431372549 .6862
74509803922 .56078431372549 84 7 697 0:1771315 569 163 0 72 658 351 17 72 0 569
 123 134 70 126 129 0 116 -17 134 0 569 72 123 74 122 139 0 0 -15 210 30 0 211 6
63 0 17 211 0 210 212 111 63 214 215 0 223 +17 212 0 210 111 211 67 65 204 0 800
 +17 214 0 222 217 223 51 211 215 0 224 -17 223 0 222 214 217 63 801 175 0 0 +15
 222 43 0 214 598 0 17 801 0 675 800 65 48 223 175 0 217 -15 675 38 0 65 606 0 1
7 800 0 675 65 801 67 50 141 0 0 -17 65 0 675 801 800 63 212 204 0 211 -17 50 0
 672 224 213 48 800 141 0 801 +15 672 119 0 213 339 338 17 224 0 672 213 50 51 2
17 205 0 0 -17 213 0 672 50 224 67 111 202 0 212 -83 3 650 .56078431372549 .6862
74509803922 .56078431372549 83 3 641 .56078431372549 .686274509803922 .560784313
72549 83 3 615 .56078431372549 .686274509803922 .56078431372549 83 3 603 .560784
31372549 .686274509803922 .56078431372549 84 7 527 0:1786284 7 513 0:2258581 1 2
19 316 11 205 0 208 508 424 802 84 7 510 0:2260384 7 802 0:2271884 7 507 0:22600
84 7 500 0:1490083 3 494 .56078431372549 .686274509803922 .56078431372549 83 3 4
86 .56078431372549 .686274509803922 .56078431372549 84 7 481 0:2011484 7 478 0:2
269583 3 471 .56078431372549 .686274509803922 .56078431372549 83 3 469 .56078431
372549 .686274509803922 .56078431372549 83 3 466 .56078431372549 .68627450980392
2 .56078431372549 83 3 463 .56078431372549 .686274509803922 .56078431372549 83 3
 460 .56078431372549 .686274509803922 .56078431372549 83 3 452 .56078431372549 .
686274509803922 .56078431372549 83 3 450 .56078431372549 .686274509803922 .56078
431372549 83 3 446 .56078431372549 .686274509803922 .56078431372549 83 3 443 .56
078431372549 .686274509803922 .56078431372549 84 7 432 0:2024084 7 427 0:2024784
 7 423 0:2270884 7 418 0:2013284 7 416 0:2012084 7 411 0:2011781 1 336 351 11 26
2 0 334 403 383 803 84 7 406 0:2012984 6 803 0:985784 7 402 0:2014484 7 397 0:20
12684 7 393 0:2266583 3 388 .56078431372549 .686274509803922 .56078431372549 84
 7 386 0:2265879 15 385 SDL/TYSA_COLOUR83 3 368 .56078431372549 .686274509803922
 .56078431372549 83 3 355 .56078431372549 .686274509803922 .56078431372549 83 3
 337 .56078431372549 .686274509803922 .56078431372549 83 3 221 .56078431372549 .
686274509803922 .56078431372549 83 3 209 .56078431372549 .686274509803922 .56078
431372549 83 3 147 .56078431372549 .686274509803922 .56078431372549 19 17 1 0 1
 0 8 4 S0 74 20 15 6 0 0 2 804 299 805 806 12 0 0 0 0 0 0 0 0 0 0 0 0 0 0 81 1 8
04 397 807 1 0 805 0 0 808 81 1 805 490 809 1 804 806 0 0 810 81 1 806 491 811 1
 805 12 0 0 812 81 1 12 492 813 1 806 2 0 0 814 80 1 813 811 815 9000 0 0 0 0 3
 5 0 0 0 TTTFTFTTFFFFFF3 84 6 814 Layer079 26 815 ATTRIB_XGENERIC_LAYER_NAME80 1
 811 809 816 9000 0 0 0 0 3 5 0 0 0 TTTTTTTTTTTTTF1 82 1 812 9 79 14 816 AttGS_P
S_Layer80 1 809 817 818 9000 0 0 0 0 3 5 0 0 0 FTTFTFTTFFFFFF1 82 1 810 9 79 23
 818 ATTRIB_XPARASOLID_LAYER80 1 807 143 819 8040 0 0 0 0 3 5 0 0 0 TTTFFFFFFFFF
FF2 83 3 808 .56078431372549 .686274509803922 .56078431372549 79 17 819 SDL/TYSA
_COLOUR_284 9 14 Solid44441 0 
