**ABCDEFGHIJKLMNOPQRSTUVWXYZabcdefghijklmnopqrstuvwxyz**************************
**PARASOLID !"#$%&'()*+,-./:;<=>?@[\]^_`{|}~0123456789**************************
**PART1;
MC=AMD64;
MC_MODEL=Intel64 Family 6 Model 158 Stepping 10, GenuineIntel;
MC_ID=unknown;
OS=Windows_NT;
OS_RELEASE=unknown;
FRU=Parasolid Version 31.1, build 290,  3- 9-2020;
APPL=SOLIDWORKS 2020-2020128;
SITE=;
USER=unknown;
FORMAT=text;
GUISE=transmit;
KEY=BCC_EN;
FILE=BCC_EN.x_t;
DATE=Mon Nov 15 15:18:49 2021;
**PART2;
SCH=SCH_3101290_31100;
USFLD_SIZE=0;
**PART3;
**END_OF_HEADER*****************************************************************
T51 : TRANSMIT FILE created by modeller version 310129023 SCH_3101290_31100_1300
6222 0 12 34 CCCCCCI4 mesh1006 0 I8 polyline1008 0 CCCCCCCDI5 owner1040 0 CCCCCC
I13 boundary_mesh1006 0 I17 boundary_polyline1008 0 CCCA16 index_map_offset0 0 1
 dA9 index_map82 0 A17 node_id_index_map82 0 A20 schema_embedding_map82 0 A5 chi
ld12 0 A14 lowest_node_id0 0 1 dA16 mesh_offset_data206 0 Z1 2570 2 3 0 0 0 0 0
 0 1e3 1e-8 0 4 0 1 0 1 1 5 6 7 8 0 0 9 10 11 0 0 0 0 0 0 0 81 255 2 2 2542 12 1
 13 0 0 0 0 14 70 11 CI9 list_type0 0 1 uI10 notransmit0 0 1 lCCCDCCDI12 finger_
index0 0 1 dI12 finger_block1012 0 CZ3 0 4 T1 0 0 9 20 1 15 15 13 255 5 34 0 1 0
 16 0 0 17 0 51 255 6 62 0 16 18 0 0 -.001 .001 .002 .577350269189626 .577350269
189626 .577350269189626 25e-5 0 -.707106781186548 .707106781186548 30 255 7 1563
 0 10 19 0 0 +-.001 -.001 .002 0 1 433680868994202e-30 29 255 8 1644 0 11 20 0 -
.001 -.000693813782152101 .002 19 8 CCCCCCCA5 owner12 0 Z9 38 0 1 17 0 21 V0 16
 255 10 1561 0 ?22 0 23 7 0 0 1 18 255 11 1642 0 24 0 25 8 ?1 17 255 24 0 26 27
 28 11 29 30 0 31 -18 25 1612 0 32 11 33 20 ?1 17 32 0 34 35 36 25 37 38 0 39 -1
8 33 1582 0 40 25 41 42 ?1 29 20 1614 0 25 42 8 .001 -.000693813782152103 281227
4787228455e-35 29 42 1584 0 33 43 20 .001 .000693813782152102 .002 29 43 1552 0
 41 44 42 -.001 .000693813782152102 1555742719998185e-34 18 41 1550 0 45 33 46 4
3 ?1 29 44 918 0 46 47 43 -.001 75e-5 .000341506350946109 18 46 916 0 48 41 49 4
4 ?1 29 47 895 0 49 50 44 75e-5 .001 .00034150635094611 18 49 893 0 51 46 52 47
 ?1 29 50 872 0 52 53 47 75e-5 -.001 .00165849364905389 18 52 870 0 54 49 55 50
 ?1 29 53 855 0 55 56 50 -75e-5 -.001 .0003415063509461085 18 55 853 0 57 52 58
 53 ?1 29 56 217 0 58 59 53 -1452192592489514e-34 .000306186217847897 .001 18 58
 215 0 60 55 61 56 ?1 29 59 201 0 61 62 56 -.0003061862178478975 -13669236120477
96e-34 .001 18 61 199 0 63 58 64 59 ?1 29 62 303 0 64 65 59 2203417034293755e-34
 -.000306186217847897 .001 18 64 267 0 66 61 67 62 ?1 29 65 307 0 67 68 62 13304
81840582926e-33 -1231398340487108e-34 .000693813782152103 18 67 269 0 69 64 70 6
5 ?1 29 68 404 0 70 71 65 .0003061862178478975 3252606517456515e-34 .001 18 70 3
69 0 72 67 73 68 ?1 29 71 408 0 73 74 68 867361737988404e-33 2958214181453305e-3
4 .001306186217847896 18 73 368 0 75 70 76 71 ?1 29 74 1420 0 76 77 71 -75e-5 .0
01 .0003415063509461095 18 76 1264 0 78 73 79 74 ?1 29 77 1421 0 79 80 74 -75e-5
 .001 .00165849364905389 18 79 1221 0 81 76 82 77 ?1 29 80 1424 0 82 83 77 75e-5
 .001 .00165849364905389 18 82 1223 0 84 79 85 80 ?1 29 83 1428 0 85 86 80 .001
 75e-5 .00034150635094611 18 85 1226 0 87 82 88 83 ?1 29 86 1429 0 88 89 83 .001
 75e-5 .00165849364905389 18 88 1228 0 90 85 91 86 ?1 29 89 1432 0 91 92 86 .001
 -75e-5 .00165849364905389 18 91 1261 0 93 88 94 89 ?1 29 92 1433 0 94 95 89 .00
1 -75e-5 .0003415063509461095 18 94 1231 0 96 91 97 92 ?1 29 95 1434 0 97 98 92
 .001 .001 0 18 97 1224 0 99 94 100 95 ?1 29 98 1438 0 100 101 95 -.001 75e-5 .0
0165849364905389 18 100 1267 0 102 97 103 98 ?1 29 101 1442 0 103 104 98 -.001 -
75e-5 .0003415063509461095 18 103 1242 0 105 100 106 101 ?1 29 104 1443 0 106 10
7 101 -.001 -75e-5 .00165849364905389 18 106 1237 0 108 103 109 104 ?1 29 107 14
45 0 109 110 104 -.001 .001 .002 18 109 1265 0 111 106 112 107 ?1 29 110 1448 0
 112 113 107 75e-5 -.001 .0003415063509461095 18 112 1269 0 114 109 115 110 ?1 2
9 113 1452 0 115 116 110 -75e-5 -.001 .00165849364905389 18 115 1251 0 117 112 1
18 113 ?1 29 116 1454 0 118 119 113 -.001 -.001 0 18 118 1238 0 120 115 121 116
 ?1 29 119 1457 0 121 122 116 .001 -.001 .002 18 121 1232 0 123 118 124 119 ?1 2
9 122 2032 0 124 125 119 .001 -.000693813782152102 .002 18 124 1852 0 126 121 12
7 122 ?1 29 125 2034 0 127 128 122 -.001 .000693813782152102 .002 18 127 1828 0
 129 124 130 125 ?1 29 128 2035 0 130 131 125 -.001 -.001 .002 18 130 1814 0 27
 127 132 128 ?1 29 131 2036 0 132 133 128 -.000693813782152103 -.001 .002 18 132
 1812 0 28 130 134 131 ?1 29 133 2037 0 134 135 131 .000693813782152103 -.001 .0
02 18 134 1816 0 136 132 137 133 ?1 29 135 2039 0 137 138 133 -.001 -.0006938137
82152103 2812274787228465e-35 18 137 1830 0 139 134 140 135 ?1 29 138 2041 0 140
 141 135 .001 .000693813782152103 1555742719998185e-34 18 140 1831 0 142 137 143
 138 ?1 29 141 2044 0 143 144 138 -.000693813782152103 -.001 0 18 143 1813 0 145
 140 146 141 ?1 29 144 2045 0 146 147 141 .000693813782152103 -.001 0 18 146 181
0 0 36 143 148 144 ?1 29 147 2046 0 148 149 144 .001 -.001 0 18 148 1817 0 35 14
6 150 147 ?1 29 149 2051 0 150 151 147 -.001 .001 183697019872103e-33 18 150 183
6 0 152 148 153 149 ?1 29 151 2052 0 153 154 149 -.000693813782152103 .001 18369
7019872103e-33 18 153 1855 0 155 150 156 151 ?1 29 154 2053 0 156 157 151 .00069
3813782152103 .001 183697019872103e-33 18 156 1834 0 158 153 159 154 ?1 29 157 2
056 0 159 160 154 -.000693813782152103 .001 .002 18 159 1823 0 161 156 162 157 ?
1 29 160 2057 0 162 163 157 .000693813782152103 .001 .002 18 162 1827 0 164 159
 165 160 ?1 29 163 2058 0 165 0 160 .001 .001 .002 18 165 1825 0 166 162 0 163 ?
1 17 166 0 167 164 40 165 168 169 0 170 -15 255 167 1884 0 166 171 0 17 164 0 16
7 40 166 162 170 172 0 173 +17 40 0 167 166 164 33 173 174 0 168 -17 168 0 175 9
0 176 33 166 169 0 177 +16 169 1727 0 ?168 174 178 179 0 0 1 17 170 0 180 181 18
2 165 164 172 0 176 -15 180 1277 0 182 183 0 17 181 0 180 184 170 97 176 185 0 0
 +17 182 0 180 170 186 162 84 187 0 0 -16 172 1749 0 ?164 188 189 190 189 189 1
 17 176 0 175 168 191 165 181 185 0 0 -15 175 1281 0 176 192 0 17 191 0 175 176
 193 97 142 194 0 181 +16 185 1125 0 ?181 195 196 197 0 0 1 16 195 1156 0 ?198 1
99 185 200 0 0 1 16 196 1196 0 ?201 185 202 203 0 0 1 30 197 1402 0 185 203 200
 0 +.001 .001 .012 0 0 -1 30 203 1403 0 196 204 197 0 +-.001 .001 .012 0 0 -1 30
 200 1393 0 195 197 205 0 +-75e-5 -.001 0 0 0 1 32 255 205 1392 0 199 200 206 0
 +-.001 -.001 .002 -433680868994202e-30 1 0 -.707106781186548 -306658683336675e-
30 .707106781186547 .0004330127018922195 25e-5 16 199 1660 0 ?117 207 195 205 0
 0 1 32 206 1391 0 207 205 208 0 +-.001 -.001 -867361737988404e-33 -433680868994
202e-30 1 0 .707106781186548 306658683336675e-30 .707106781186548 .0004330127018
9222 25e-5 16 207 1162 0 ?209 210 199 206 0 0 1 30 208 1388 0 210 206 211 0 -75e
-5 -.001 0 0 0 1 16 210 1154 0 ?212 213 207 208 0 0 1 32 211 1387 0 213 208 214
 0 +.001 -.001 -433680868994202e-33 -433680868994202e-30 1 0 -.707106781186548 -
306658683336675e-30 .707106781186548 .000433012701892219 25e-5 16 213 1630 0 ?11
4 215 210 211 0 0 1 32 214 1386 0 215 211 216 0 -.001 -.001 .002 -43368086899420
2e-30 1 0 -.707106781186548 -306658683336675e-30 -.707106781186548 .000433012701
892219 25e-5 16 215 1627 0 ?54 217 213 214 0 0 1 30 216 1383 0 217 214 218 0 --.
001 -75e-5 0 0 0 1 16 217 1144 0 ?219 220 215 216 0 0 1 32 218 1382 0 220 216 22
1 0 +-.001 -.001 .002 1 0 0 0 -.707106781186548 .707106781186548 .00043301270189
22195 25e-5 16 220 1146 0 ?222 223 217 218 0 0 1 32 221 1381 0 223 218 224 0 +-.
001 -.001 -433680868994202e-33 1 0 0 0 .707106781186548 .707106781186548 .000433
0127018922195 25e-5 16 223 1646 0 ?105 225 220 221 0 0 1 30 224 1378 0 225 221 2
26 0 +-.001 75e-5 0 0 0 1 16 225 1139 0 ?227 228 223 224 0 0 1 32 226 1377 0 228
 224 229 0 +-.001 .001 .002 1 0 0 0 .707106781186548 .707106781186548 .000433012
701892219 25e-5 16 228 1554 0 ?102 230 225 226 0 0 1 32 229 1375 0 230 226 231 0
 --.001 .001 -1084202172485504e-34 1 0 0 0 .707106781186548 -.707106781186548 .0
00433012701892219 25e-5 16 230 1551 0 ?48 232 228 229 0 0 1 30 231 1373 0 232 22
9 233 0 +.001 -75e-5 0 0 0 1 16 232 1130 0 ?93 234 230 231 0 0 1 32 233 1372 0 2
34 231 235 0 +.001 -.001 -433680868994202e-33 -1 0 0 0 .707106781186548 .7071067
81186548 .000433012701892219 25e-5 16 234 1192 0 ?236 237 232 233 0 0 1 32 235 1
371 0 237 233 238 0 -.001 -.001 .002 -1 0 0 0 .707106781186548 -.707106781186548
 .000433012701892219 25e-5 16 237 1131 0 ?239 240 234 235 0 0 1 30 238 1368 0 24
0 235 241 0 -.001 75e-5 0 0 0 1 16 240 1128 0 ?242 243 237 238 0 0 1 32 241 1367
 0 243 238 244 0 +.001 .001 0 -1 0 0 0 -.707106781186548 .707106781186548 .00043
30127018922195 25e-5 16 243 1586 0 ?87 245 240 241 0 0 1 32 244 1366 0 245 241 2
46 0 +.001 .001 .002 -1 0 0 0 .707106781186548 .707106781186548 .000433012701892
2195 25e-5 16 245 1123 0 ?177 247 243 244 0 0 1 30 246 1363 0 247 244 248 0 +75e
-5 .001 0 0 0 1 16 247 1113 0 ?186 249 245 246 0 0 1 32 248 1362 0 249 246 250 0
 +.001 .001 433680868994202e-33 0 -1 0 -.707106781186548 0 .707106781186548 .000
4330127018922195 25e-5 16 249 1121 0 ?251 187 247 248 0 0 1 32 250 1361 0 187 24
8 252 0 +.001 .001 .002 0 -1 0 .707106781186548 0 .707106781186548 .000433012701
8922195 25e-5 16 187 1600 0 ?84 253 249 250 0 0 1 30 252 1358 0 253 250 254 0 --
75e-5 .001 0 0 0 1 16 253 1118 0 ?78 255 187 252 0 0 1 32 254 1357 0 255 252 256
 0 +-.001 .001 .002 0 -1 0 -.707106781186548 0 .707106781186548 .000433012701892
219 25e-5 16 255 1194 0 ?257 258 253 254 0 0 1 32 256 1355 0 258 254 259 0 --.00
1 .001 -975781955236954e-33 0 -1 0 -.707106781186548 0 -.707106781186548 .000433
012701892219 25e-5 16 258 1110 0 ?260 261 255 256 0 0 1 32 259 787 0 261 256 262
 0 --.001 -.001 .002 -.627963030199554 -.627963030199554 -.459700843380983 -.325
057583671868 -.325057583671868 .888073833977115 .000543831936790269 25e-5 16 261
 845 0 ?263 264 258 259 0 0 1 32 262 786 0 264 259 265 0 +-.001 -.001 0 .6279630
30199554 .627963030199554 -.459700843380983 .325057583671868 .325057583671868 .8
88073833977115 .000543831936790269 25e-5 16 264 851 0 ?266 267 261 262 0 0 1 32
 265 697 0 267 262 268 0 +.001 -.001 -867361737988404e-33 -.627963030199554 .627
963030199554 -.459700843380983 -.325057583671868 .325057583671868 .8880738339771
15 .000543831936790269 25e-5 16 267 877 0 ?269 270 264 265 0 0 1 32 268 696 0 27
0 265 271 0 -.001 -.001 .002 -.627963030199555 .627963030199554 .459700843380983
 -.325057583671868 .325057583671868 -.888073833977115 .000543831936790269 25e-5
 16 270 871 0 ?272 273 267 268 0 0 1 32 271 607 0 273 268 274 0 +.001 .001 0 -.6
27963030199554 -.627963030199554 -.459700843380983 -.325057583671868 -.325057583
671868 .888073833977115 .000543831936790269 25e-5 16 273 891 0 ?275 276 270 271
 0 0 1 32 274 606 0 276 271 277 0 -.001 .001 .002 .627963030199554 .627963030199
554 -.459700843380983 .325057583671868 .325057583671868 .888073833977115 .000543
831936790269 25e-5 16 276 897 0 ?278 279 273 274 0 0 1 32 277 516 0 279 274 280
 0 +-.001 .001 -542101086242752e-33 -.627963030199555 .627963030199554 .45970084
3380983 -.325057583671868 .325057583671868 -.888073833977115 .000543831936790269
 25e-5 16 279 917 0 ?281 282 276 277 0 0 1 32 280 401 0 282 277 283 0 +0 -108420
2172485504e-34 .001 -961481343191782e-31 0 -1 -.707106781186548 .707106781186548
 0 .000433012701892219 25e-5 16 282 360 0 ?60 284 279 280 0 0 1 32 283 400 0 284
 280 285 0 -1084202172485504e-34 -1084202172485504e-34 .001 1 961481343191782e-3
1 -961481343191782e-31 -679869977755259e-31 .707106781186548 .707106781186548 .0
004330127018922195 25e-5 16 284 363 0 ?286 287 282 283 0 0 1 32 285 399 0 287 28
3 288 0 +-216840434497101e-33 3252606517456515e-34 .001 0 -1 -961481343191782e-3
1 -.707106781186548 -679869977755259e-31 .707106781186548 .0004330127018922195 2
5e-5 16 287 365 0 ?289 290 284 285 0 0 1 32 288 398 0 290 285 291 0 +10842021724
85504e-34 -1084202172485504e-34 .001 1 961481343191782e-31 -961481343191782e-31
 -679869977755259e-31 .707106781186548 .707106781186548 .0004330127018922195 25e
-5 16 290 364 0 ?292 293 287 288 0 0 1 32 291 397 0 293 288 294 0 -0 -1084202172
485504e-34 .001 -961481343191782e-31 0 -1 -.707106781186548 .707106781186548 0 .
000433012701892219 25e-5 16 293 361 0 ?295 296 290 291 0 0 1 32 294 298 0 296 29
1 297 0 +-1084202172485504e-34 542101086242752e-33 .001 -1 -961481343191782e-31
 -961481343191782e-31 -679869977755259e-31 .707106781186548 -.707106781186548 .0
00433012701892219 25e-5 16 296 260 0 ?298 299 293 294 0 0 1 32 297 296 0 299 294
 300 0 -433680868994202e-33 758941520739853e-33 .001 -961481343191782e-31 0 1 .7
07106781186548 .707106781186548 0 .0004330127018922195 25e-5 16 299 255 0 ?72 30
1 296 297 0 0 1 32 300 294 0 301 297 302 0 --1084202172485504e-34 54210108624275
2e-33 .001 -1 -961481343191782e-31 -961481343191782e-31 -679869977755259e-31 .70
7106781186548 -.707106781186548 .000433012701892219 25e-5 16 301 258 0 ?303 304
 299 300 0 0 1 32 302 107 0 304 300 305 0 +216840434497101e-33 -1084202172485504
e-34 .001 -1922962686383565e-31 1 -961481343191782e-31 .707106781186548 67986997
7755259e-31 .707106781186548 .0004330127018922195 25e-5 16 304 230 0 ?306 307 30
1 302 0 0 1 32 305 112 0 307 302 308 0 -216840434497101e-33 -1084202172485504e-3
4 .001 -1922962686383565e-31 1 -961481343191782e-31 .707106781186548 67986997775
5259e-31 .707106781186548 .0004330127018922195 25e-5 16 307 200 0 ?309 310 304 3
05 0 0 1 32 308 212 0 310 305 311 0 +433680868994202e-33 758941520739853e-33 .00
1 -961481343191782e-31 0 1 .707106781186548 .707106781186548 0 .0004330127018922
195 25e-5 16 310 210 0 ?312 313 307 308 0 0 1 32 311 336 0 313 308 314 0 --21684
0434497101e-33 3252606517456515e-34 .001 0 -1 -961481343191782e-31 -.70710678118
6548 -679869977755259e-31 .707106781186548 .0004330127018922195 25e-5 16 313 334
 0 ?315 316 310 311 0 0 1 32 314 444 0 316 311 19 0 --.001 .001 .002 -.627963030
199554 .627963030199554 -.459700843380983 -.325057583671868 .325057583671868 .88
8073833977115 .000543831936790269 25e-5 16 316 923 0 ?317 23 313 314 0 0 1 30 19
 1558 0 23 314 7 0 +-.001 -.001 0 0 -1 -918485099360516e-31 16 23 1556 0 ?318 10
 316 19 0 0 1 17 318 0 319 48 201 41 152 23 0 320 +15 319 1333 0 321 322 0 17 48
 0 319 227 318 46 320 230 0 323 +17 201 0 319 318 22 150 324 196 0 0 +17 152 0 3
25 155 45 150 318 23 0 326 -17 320 0 327 328 329 41 48 230 0 0 -15 327 1693 0 32
8 330 331 17 328 0 327 332 320 153 45 333 0 260 -17 329 0 327 320 332 46 281 279
 0 0 -17 332 0 327 329 328 76 260 258 0 281 -17 281 0 334 335 323 76 329 279 0 0
 +15 334 930 0 335 336 0 17 335 0 334 337 281 79 78 253 0 317 -17 323 0 334 281
 337 46 227 225 0 329 -17 337 0 334 323 335 100 317 316 0 0 -17 227 0 319 321 48
 100 323 225 0 337 +17 321 0 319 22 227 127 102 228 0 0 -17 22 0 319 201 321 109
 129 10 0 324 +17 102 0 338 317 339 100 321 228 0 227 +15 338 380 0 257 340 341
 17 317 0 338 257 102 79 337 316 0 0 +17 339 0 338 102 257 127 161 178 0 321 +17
 257 0 338 339 317 159 81 255 0 0 +17 161 0 342 111 129 159 339 178 0 343 -16 17
8 1729 0 ?339 169 344 345 0 0 1 16 344 1731 0 ?346 178 347 348 0 0 1 32 345 1987
 0 178 348 179 0 +-.001 .001 .002 0 433680868994202e-30 -1 -.707106781186548 .70
7106781186548 306658683336675e-30 .0004330127018922195 25e-5 32 348 1988 0 344 3
49 345 0 +-.001 -.001 0 0 -918485099360516e-31 1 .707106781186548 .7071067811865
48 649467042176621e-31 .0004330127018922195 25e-5 30 179 1986 0 169 345 350 0 +.
001 -.001 .002 0 -1 -433680868994202e-30 32 350 1985 0 174 179 351 0 +.001 .001
 .002 0 433680868994202e-30 -1 .707106781186547 .707106781186548 306658683336675
e-30 .00043301270189222 25e-5 16 174 1728 0 ?173 352 169 350 0 0 1 30 351 1984 0
 352 350 353 0 +.001 -.001 .002 0 -1 -433680868994202e-30 16 352 1788 0 ?354 355
 174 351 0 0 1 32 353 1983 0 355 351 356 0 -.001 -.001 .002 0 433680868994202e-3
0 -1 -.707106781186548 .707106781186547 3066586833366745e-31 .000433012701892219
 25e-5 16 355 1725 0 ?136 357 352 353 0 0 1 30 356 1982 0 357 353 358 0 +-.001 -
.001 .002 0 1 433680868994202e-30 16 357 1717 0 ?31 30 355 356 0 0 1 32 358 1981
 0 30 356 359 0 +-.001 -.001 .002 0 433680868994202e-30 -1 -.707106781186548 -.7
07106781186548 -306658683336675e-30 .0004330127018922195 25e-5 16 30 1718 0 ?29
 360 357 358 0 0 1 30 359 1405 0 360 358 204 0 +.001 -.001 .012 0 0 -1 16 360 11
99 0 ?361 202 30 359 0 0 1 30 204 1404 0 202 359 203 0 +-.001 -.001 .012 0 0 -1
 16 202 1148 0 ?362 196 360 204 0 0 1 17 362 0 363 364 365 118 366 202 0 0 +15 3
63 1301 0 367 368 0 17 364 0 363 57 362 143 120 369 0 209 -17 365 0 363 362 367
 130 28 370 0 366 +17 366 0 371 31 372 130 362 202 0 0 -15 371 1293 0 366 373 0
 17 31 0 371 108 366 11 27 357 0 222 +17 372 0 371 366 374 118 139 347 0 362 +17
 374 0 371 372 219 137 105 223 0 0 -17 139 0 375 145 120 137 372 347 0 346 -16 3
47 1732 0 ?372 344 38 349 0 0 1 16 38 1734 0 ?37 347 376 377 0 0 1 30 349 1989 0
 347 377 348 0 +-.001 -.001 0 0 -1 -918485099360516e-31 32 377 1990 0 38 378 349
 0 +.001 -.001 0 0 -918485099360516e-31 1 -.707106781186548 .707106781186548 649
467042176621e-31 .000433012701892219 25e-5 30 378 1991 0 376 379 377 0 +.001 -.0
01 0 0 1 918485099360516e-31 16 376 1733 0 ?39 38 380 378 0 0 1 32 379 1992 0 38
0 381 378 0 +.001 .001 0 0 -918485099360516e-31 1 -.707106781186548 -.7071067811
86548 -649467042176621e-31 .0004330127018922195 25e-5 16 380 1736 0 ?382 376 194
 379 0 0 1 30 381 1993 0 194 383 379 0 +.001 -.001 0 0 1 918485099360516e-31 16
 194 1737 0 ?191 380 333 381 0 0 1 32 383 1994 0 333 384 381 0 --.001 .001 18369
7019872103e-33 0 -918485099360516e-31 1 -.707106781186548 .707106781186548 64946
7042176621e-31 .000433012701892219 25e-5 16 333 1743 0 ?45 194 385 383 0 0 1 30
 384 2011 0 370 386 383 0 +.01 -.001 .002 -1 0 0 16 370 1719 0 ?365 385 387 384
 385 385 1 30 386 2012 0 369 388 384 0 +.01 -.001 0 -1 0 0 16 369 1710 0 ?120 38
7 389 386 387 387 1 30 388 2013 0 188 190 386 0 +.01 .001 183697019872103e-33 -1
 0 0 16 188 1794 0 ?326 389 172 388 389 389 1 30 190 2014 0 189 0 388 0 +.01 .00
1 .002 -1 0 0 16 189 1754 0 ?111 172 0 190 172 172 1 17 111 0 342 129 161 109 34
3 189 0 22 +15 342 1888 0 111 390 0 17 129 0 342 161 111 127 22 10 0 339 -17 343
 0 391 81 324 159 111 189 0 257 -15 391 1329 0 324 392 0 17 81 0 391 78 343 79 2
57 255 0 335 -17 324 0 391 343 326 109 201 196 0 0 -17 326 0 391 324 260 150 155
 188 0 201 +17 260 0 391 326 78 153 332 258 0 0 +17 155 0 325 45 152 153 326 188
 0 328 -15 325 1952 0 45 393 0 17 45 0 325 152 155 41 328 333 0 318 +14 255 393
 1949 394 ?390 322 325 5 395 -396 397 390 322 21 81 1 394 2543 398 393 399 0 0 4
00 401 14 390 1885 400 ?397 393 342 5 402 -403 171 397 393 21 14 322 1330 404 ?3
93 392 319 5 405 -373 373 393 392 21 50 255 395 1970 0 393 0 402 0 +.01 .001 183
697019872103e-33 0 -918485099360516e-31 1 0 -1 -918485099360516e-31 14 396 1889
 406 ?407 403 375 5 395 -408 393 407 403 21 14 397 1897 409 ?171 390 410 5 395 -
393 408 171 390 21 13 21 37 0 0 0 0 0 0 9 16 14 16 357 411 ?412 0 413 5 6 -414 4
14 412 0 21 81 1 411 2548 398 16 415 0 409 416 417 14 412 353 416 ?330 16 418 5
 18 +330 330 330 16 21 15 413 79 0 177 16 419 14 414 345 420 ?421 330 422 5 6 -1
6 16 421 330 21 81 1 420 2550 398 414 423 0 416 424 425 14 421 341 424 ?426 414
 427 5 428 -426 426 426 414 21 14 330 349 429 ?414 412 327 5 18 +412 412 414 412
 21 15 422 49 0 209 414 430 17 209 0 422 346 266 143 57 207 0 0 +15 430 344 0 66
 414 0 17 66 0 430 431 309 64 292 290 0 303 -17 431 0 430 309 66 61 312 310 0 43
2 -17 309 0 430 66 431 67 432 307 0 298 +17 292 0 433 289 434 67 66 290 0 0 +17
 303 0 435 295 436 64 75 301 0 312 +15 435 131 0 303 412 0 17 295 0 435 436 303
 70 434 293 0 289 +17 436 0 435 303 295 73 306 304 0 437 -17 75 0 438 63 312 73
 303 301 0 436 -17 312 0 438 75 63 64 431 310 0 434 +15 438 335 0 63 426 0 17 63
 0 438 312 75 61 315 313 0 431 -17 434 0 433 292 289 64 295 293 0 0 -15 433 384
 0 434 439 440 17 289 0 433 434 292 70 69 287 0 0 +17 69 0 441 442 72 67 289 287
 0 309 -15 441 340 0 69 421 0 17 442 0 441 72 69 58 298 296 0 286 -17 72 0 441 6
9 442 70 443 299 0 306 +17 443 0 419 437 306 58 72 299 0 442 -17 306 0 419 443 4
37 70 436 304 0 295 +15 419 356 0 437 16 0 17 437 0 419 306 443 73 286 284 0 315
 -17 286 0 341 444 315 58 437 284 0 0 +17 315 0 341 286 444 73 63 313 0 0 +15 34
1 381 0 315 340 0 17 444 0 341 315 286 61 60 282 0 0 -17 60 0 331 298 432 58 444
 282 0 443 +15 331 127 0 432 330 0 17 298 0 331 432 60 67 442 296 0 292 +17 432
 0 331 60 298 61 309 307 0 444 -14 340 378 445 ?439 426 338 5 446 -439 439 439 4
26 21 81 1 445 2553 398 340 447 0 429 448 449 14 439 382 448 ?336 340 433 5 446
 -340 340 336 340 21 14 426 337 450 ?340 421 451 5 428 -421 421 340 421 21 51 44
6 394 0 439 452 428 0 --.001 .001 .002 -.577350269189626 .577350269189626 .57735
0269189626 25e-5 .707106781186548 0 .707106781186548 51 452 513 0 336 453 446 0
 +-.001 .001 0 0 0 1 25e-5 1 0 0 51 428 291 0 421 446 18 0 --.001 -.001 .002 -.5
77350269189626 -.577350269189626 .577350269189626 25e-5 .707106781186548 -.70710
6781186548 0 51 18 146 0 412 428 6 0 +-.001 .001 -542101086242752e-33 -.57735026
9189626 .577350269189626 -.577350269189626 25e-5 -.707106781186548 0 .7071067811
86548 14 336 493 454 ?455 439 334 5 452 +0 0 455 439 21 51 453 603 0 455 456 452
 0 +.001 .001 0 0 0 1 25e-5 1 0 0 14 455 579 457 ?458 336 459 5 453 +0 0 458 336
 21 51 456 693 0 458 460 453 0 +.001 -.001 0 0 0 1 25e-5 1 0 0 14 458 673 461 ?4
62 455 463 5 456 +0 0 462 455 21 51 460 783 0 462 464 456 0 +-.001 -.001 0 0 0 1
 25e-5 1 0 0 14 462 759 465 ?368 458 466 5 460 +0 0 368 458 21 50 464 1349 0 467
 468 460 0 +.001 -.001 .012 -1 0 0 0 0 1 14 467 1322 469 ?183 470 471 5 464 -192
 192 183 470 21 50 468 1350 0 392 405 464 0 +.001 .001 .012 0 -1 0 0 0 -1 14 392
 1326 472 ?322 192 391 5 468 -183 183 322 192 21 50 405 1351 0 322 473 468 0 +-.
001 -.001 .012 1 0 0 0 0 -1 50 473 1352 0 470 402 405 0 +.001 -.001 .012 -433680
868994202e-30 1 0 -1 -433680868994202e-30 0 14 470 1334 474 ?467 373 475 5 473 -
368 368 467 373 21 50 402 1968 0 403 395 473 0 +.01 .001 .002 0 433680868994202e
-30 -1 0 1 433680868994202e-30 14 403 1941 476 ?396 408 477 5 402 -407 390 396 4
08 21 81 1 476 2563 398 403 478 0 474 479 480 14 408 1893 479 ?403 171 34 5 395
 -397 396 403 171 21 15 477 1944 0 136 403 0 14 407 1873 481 ?0 396 26 5 402 -17
1 403 0 396 21 81 1 481 2565 398 407 482 0 479 483 484 15 26 1876 0 27 407 0 14
 171 1881 483 ?408 397 167 5 402 -390 407 408 397 21 81 1 483 2566 398 171 485 0
 481 486 487 80 255 1 398 488 489 9000 1 1 1 1 1 1 1 1 0 FFFFTFTFFFFFFF1 81 1 48
5 2480 490 171 0 483 491 492 493 81 1 486 2567 398 192 494 0 483 495 496 82 255
 1 487 -1121910064 14 192 1278 486 ?392 183 175 5 464 -467 467 392 183 21 81 1 4
94 2474 490 192 0 486 497 498 499 81 1 495 2568 398 183 497 0 486 500 501 82 1 4
96 -1262091568 14 183 1274 495 ?192 467 180 5 468 -392 392 192 467 21 81 1 497 2
473 490 183 0 495 502 494 503 81 1 500 2569 398 373 504 0 495 505 506 82 1 501 -
1257372976 14 373 1290 500 ?470 368 371 5 405 -322 322 470 368 21 81 1 504 2470
 490 373 0 500 507 508 509 81 1 505 2570 398 368 507 0 500 0 510 82 1 506 -12717
90896 14 368 1298 505 ?373 462 363 5 473 -470 470 373 462 21 81 1 507 2469 490 3
68 0 505 511 504 512 82 1 510 -1276771632 80 1 490 0 513 8001 0 0 0 0 3 5 0 0 0
 FFFFTFTFFFFFFF2 81 1 511 2468 490 462 0 465 514 507 515 83 255 3 512 .792156862
745098 .819607843137255 .933333333333333 81 1 465 2559 398 462 511 0 461 469 516
 81 1 514 2467 490 458 0 461 517 511 518 83 3 515 .792156862745098 .819607843137
255 .933333333333333 81 1 461 2558 398 458 514 0 457 465 519 81 1 517 2466 490 4
55 0 457 520 514 521 83 3 518 .792156862745098 .819607843137255 .933333333333333
 81 1 457 2557 398 455 517 0 454 461 522 81 1 520 2465 490 336 0 454 523 517 524
 83 3 521 .792156862745098 .819607843137255 .933333333333333 81 1 454 2556 398 3
36 520 0 450 457 525 81 1 523 2464 490 439 0 448 447 520 526 83 3 524 .792156862
745098 .819607843137255 .933333333333333 81 1 448 2554 398 439 523 0 445 450 527
 81 1 447 2463 490 340 0 445 528 523 529 83 3 526 .792156862745098 .819607843137
255 .933333333333333 81 1 528 2462 490 426 0 450 530 447 531 83 3 529 .792156862
745098 .819607843137255 .933333333333333 81 1 450 2555 398 426 528 0 448 454 532
 81 1 530 2461 490 421 0 424 423 528 533 83 3 531 .792156862745098 .819607843137
255 .933333333333333 81 1 424 2551 398 421 530 0 420 429 534 81 1 423 2460 490 4
14 0 420 535 530 536 83 3 533 .792156862745098 .819607843137255 .933333333333333
 81 1 535 2459 490 330 0 429 537 423 538 83 3 536 .792156862745098 .819607843137
255 .933333333333333 81 1 429 2552 398 330 535 0 424 445 539 81 1 537 2458 490 4
12 0 416 415 535 540 83 3 538 .792156862745098 .819607843137255 .933333333333333
 81 1 416 2549 398 412 537 0 411 420 541 81 1 415 2457 490 16 0 411 0 537 542 83
 3 540 .792156862745098 .819607843137255 .933333333333333 83 3 542 .792156862745
098 .819607843137255 .933333333333333 82 1 541 663814864 82 1 539 663421648 82 1
 534 662635216 82 1 532 659358416 82 1 527 656868048 82 1 525 -1393950001 82 1 5
22 -1387330865 82 1 519 -1381760305 81 1 469 2560 398 467 502 0 465 472 543 82 1
 516 -1375141169 81 1 502 2472 490 467 0 469 508 497 544 81 1 472 2561 398 392 4
98 0 469 474 545 82 1 543 -1314585904 81 1 498 2475 490 392 0 472 494 546 547 81
 1 474 2562 398 470 508 0 472 476 548 82 1 545 -1314848048 81 1 508 2471 490 470
 0 474 504 502 549 82 1 548 -1315372336 83 3 549 .792156862745098 .8196078431372
55 .933333333333333 81 1 546 2476 490 322 0 404 498 399 550 83 3 547 .7921568627
45098 .819607843137255 .933333333333333 81 1 404 2545 398 322 546 0 400 406 551
 81 1 399 2477 490 393 0 394 546 552 553 83 3 550 .792156862745098 .819607843137
255 .933333333333333 81 1 552 2478 490 390 0 400 399 491 554 83 3 553 .792156862
745098 .819607843137255 .933333333333333 81 1 400 2544 398 390 552 0 394 404 555
 81 1 491 2479 490 397 0 409 552 485 556 83 3 554 .792156862745098 .819607843137
255 .933333333333333 81 1 409 2547 398 397 491 0 406 411 557 83 3 556 .792156862
745098 .819607843137255 .933333333333333 81 1 406 2546 398 396 558 0 404 409 559
 82 1 557 -1126825264 81 1 558 2483 490 396 0 406 478 482 560 82 1 559 -11249902
56 81 1 478 2482 490 403 0 476 492 558 561 81 1 482 2484 490 407 0 481 558 0 562
 83 3 560 .792156862745098 .819607843137255 .933333333333333 83 3 562 .792156862
745098 .819607843137255 .933333333333333 81 1 492 2481 490 408 0 479 485 478 563
 83 3 561 .792156862745098 .819607843137255 .933333333333333 81 1 479 2564 398 4
08 492 0 476 481 564 83 3 563 .792156862745098 .819607843137255 .933333333333333
 82 1 564 -1125907760 82 1 555 -1122827568 82 1 551 -1315110192 83 3 544 .792156
862745098 .819607843137255 .933333333333333 79 255 15 513 SDL/TYSA_COLOUR83 3 50
9 .792156862745098 .819607843137255 .933333333333333 83 3 503 .792156862745098 .
819607843137255 .933333333333333 83 3 499 .792156862745098 .819607843137255 .933
333333333333 83 3 493 .792156862745098 .819607843137255 .933333333333333 79 14 4
89 SWEntUnchanged17 27 0 26 28 24 130 31 357 0 365 -17 28 0 26 24 27 132 365 370
 0 29 -17 29 0 451 117 222 132 24 30 0 367 +15 451 272 0 222 426 438 17 117 0 45
1 263 29 115 367 199 0 198 +17 222 0 451 29 263 11 108 220 0 0 +17 367 0 363 365
 198 132 117 199 0 0 -17 198 0 363 367 57 115 565 195 0 566 +17 57 0 363 198 364
 55 209 207 0 565 -17 565 0 466 567 566 55 198 195 0 266 -17 566 0 466 565 568 1
15 263 261 0 0 -15 466 858 0 568 462 0 17 568 0 466 566 567 106 219 217 0 263 -1
7 263 0 451 222 117 106 566 261 0 0 +17 567 0 466 568 565 103 266 264 0 0 -17 21
9 0 371 374 108 103 568 217 0 567 +17 108 0 371 219 31 106 222 220 0 568 -17 266
 0 422 209 105 55 567 264 0 0 +17 105 0 422 266 346 103 374 223 0 219 +17 346 0
 422 105 209 137 145 344 0 374 +17 145 0 375 120 139 143 346 344 0 364 -15 375 1
892 0 120 396 0 17 120 0 375 139 145 118 364 369 0 372 +82 1 484 -1120075056 17
 136 0 477 123 126 134 569 355 0 570 +17 123 0 477 126 136 121 570 385 0 354 -17
 126 0 477 136 123 124 354 352 0 569 -17 569 0 418 571 572 124 136 355 0 239 -17
 570 0 475 54 573 134 123 385 0 572 +15 475 1337 0 573 470 0 17 54 0 475 212 570
 52 572 215 0 574 +17 573 0 475 570 575 121 361 360 0 0 -16 385 1789 0 ?570 333
 370 384 370 370 1 17 572 0 418 569 576 134 54 215 0 0 -15 418 1697 0 569 412 43
5 17 576 0 418 572 571 52 272 270 0 0 -17 571 0 418 576 569 91 239 237 0 272 -17
 272 0 463 577 574 91 576 270 0 0 +15 463 884 0 577 458 0 17 577 0 463 578 272 9
4 93 232 0 269 -17 574 0 463 272 578 52 212 210 0 576 -17 578 0 463 574 577 112
 269 267 0 0 -17 212 0 475 579 54 112 574 210 0 578 +17 579 0 475 575 212 146 11
4 213 0 0 -17 575 0 475 573 579 148 36 387 0 361 -17 114 0 440 269 37 112 579 21
3 0 212 +15 440 385 0 236 439 0 17 269 0 440 236 114 94 578 267 0 0 +17 37 0 440
 114 236 146 32 38 0 579 +17 236 0 440 37 269 25 96 234 0 0 +17 96 0 471 93 39 9
4 236 234 0 577 -15 471 1325 0 239 467 0 17 93 0 471 239 96 91 577 232 0 571 +17
 39 0 471 96 361 25 35 376 0 236 +17 361 0 471 39 354 148 573 360 0 0 +17 35 0 3
4 36 32 148 39 376 0 575 -15 34 1896 0 35 408 0 17 36 0 34 32 35 146 575 387 0 3
7 +16 387 1714 0 ?36 370 369 386 369 369 1 17 354 0 471 361 239 121 126 352 0 57
3 +17 239 0 471 354 93 124 571 237 0 0 +82 1 480 -1171914032 15 459 904 0 580 45
5 0 17 580 0 459 581 582 88 242 240 0 278 -17 581 0 459 583 580 82 278 276 0 0 -
17 582 0 459 580 583 85 275 273 0 0 -17 242 0 175 193 90 85 580 240 0 582 +17 27
8 0 413 177 84 88 581 276 0 0 +17 177 0 413 173 278 33 90 245 0 0 +17 84 0 413 2
78 173 82 182 187 0 186 +17 173 0 413 84 177 162 40 174 0 182 +17 186 0 180 182
 51 82 583 247 0 581 +17 51 0 180 186 184 49 251 249 0 583 -17 583 0 459 582 581
 49 186 247 0 275 -17 275 0 427 251 87 49 582 273 0 0 +15 427 276 0 251 421 441
 17 251 0 427 382 275 156 51 249 0 0 +17 87 0 427 275 382 85 193 243 0 242 +17 3
82 0 427 87 251 140 158 380 0 193 +17 193 0 175 191 242 140 87 243 0 0 -17 158 0
 410 99 142 156 382 380 0 184 -15 410 1900 0 99 397 0 17 99 0 410 142 158 97 184
 389 0 191 -17 142 0 410 158 99 140 191 194 0 382 -17 184 0 180 51 181 156 99 38
9 0 251 +16 389 1735 0 ?184 369 188 388 188 188 1 17 90 0 175 242 168 88 177 245
 0 580 -82 1 449 660734672 82 1 425 663028432 82 1 417 664208080 82 1 401 -11724
38320 17 78 0 391 260 81 76 335 253 0 332 +19 17 33 0 1 0 9 5 S0 74 4 CI16 index
_map_offset0 0 1 dCCZ20 15 9 0 0 584 585 505 586 587 588 13 482 2 0 0 0 0 0 0 0
 0 0 0 0 81 2 584 797 589 1 0 585 0 0 0 590 81 2 585 811 591 1 584 586 0 0 0 592
 81 1 586 2295 593 1 585 587 0 0 594 81 2 587 2297 595 1 586 588 0 0 0 0 81 2 58
8 2327 596 1 587 13 0 0 597 0 81 2 13 2456 598 1 588 2 0 0 0 599 80 2 598 600 60
1 9000 0 0 0 0 3 5 0 0 0 FFTFFFFFFFFFFF9 1 82 1 599 1 79 24 601 BODY_IN_LIGHTWEI
GHT_PERM80 2 596 602 603 8004 0 0 0 0 3 5 0 0 0 FFTFFFFFFFFFFF2 3 83 1 597 1 79
 16 603 SDL/TYSA_DENSITY80 2 595 604 605 9000 0 0 0 0 3 5 0 0 0 FFTFFFFFFFFFFF9
 1 79 16 605 BODY_RECIPE_200180 1 593 606 607 9000 1 1 1 1 1 1 1 1 0 FFTFFFFFFFF
FFF1 82 1 594 136537 79 10 607 BODY_MATCH80 2 591 608 609 9000 0 0 0 0 3 5 0 0 0
 FFTFFFFFFFFFFF9 1 82 1 592 243 79 30 609 LAST_BODY_MODIFYING_FEATURE_ID80 2 589
 610 611 9000 0 0 0 0 3 5 0 0 0 FFTFFFFFFFFFFF9 1 82 1 590 549 79 19 611 ENT_TIM
E_STAMP_200180 2 12 612 613 9000 0 0 0 0 3 5 0 0 0 FFTFFFFFFFFFFF9 1 82 1 14 138
 79 12 613 ATOM_ID_20011 0 
