**ABCDEFGHIJKLMNOPQRSTUVWXYZabcdefghijklmnopqrstuvwxyz**************************
**PARASOLID !"#$%&'()*+,-./:;<=>?@[\]^_`{|}~0123456789**************************
**PART1;
MC=AMD64;
MC_MODEL=Intel64 Family 6 Model 183 Stepping 1, GenuineIntel;
MC_ID=unknown;
OS=Windows_NT;
OS_RELEASE=unknown;
FRU=Parasolid Version 34.1, build 254,  2-10-2023;
APPL=SOLIDWORKS 2023-2023138;
SITE=;
USER=unknown;
FORMAT=text;
GUISE=transmit;
KEY=Box;
FILE=Box.x_t;
DATE=Sun Sep 10 17:50:12 2023;
**PART2;
SCH=SCH_3401254_34101;
USFLD_SIZE=0;
**PART3;
**END_OF_HEADER*****************************************************************
T51 : TRANSMIT FILE created by modeller version 340125423 SCH_3401254_34101_1300
6231 0 12 36 CCCI7 lattice222 0 CCCI4 mesh1006 0 I8 polyline1008 0 CCCCCCCDI5 ow
ner1040 0 CCCI16 boundary_lattice222 0 CCCI13 boundary_mesh1006 0 I17 boundary_p
olyline1008 0 CCCA16 index_map_offset0 0 1 dA9 index_map82 0 A17 node_id_index_m
ap82 0 A20 schema_embedding_map82 0 A5 child12 0 A14 lowest_node_id0 0 1 dA16 me
sh_offset_data206 0 Z1 208 2 3 0 0 0 0 0 0 0 1e3 1e-8 0 4 0 1 0 1 1 5 0 6 7 8 0
 0 9 10 11 0 0 0 0 0 0 0 81 255 2 2 196 12 1 13 0 0 0 0 14 70 11 CI9 list_type0
 0 1 uI10 notransmit0 0 1 lCCCDCCDI12 finger_index0 0 1 dI12 finger_block1012 0
 CZ3 0 4 T1 0 0 10 20 1 15 15 13 255 5 99 0 1 0 16 0 0 17 0 50 255 6 94 0 16 18
 0 0 +0 0 .002 1 0 0 0 0 -1 30 255 7 98 0 10 19 0 0 +0 0 .002 0 0 -1 29 255 8 75
 0 20 21 0 0 .002 0 19 9 CCCCCCI5 frame230 0 CA5 owner12 0 Z9 33 0 1 17 0 22 0 V
0 16 255 10 82 0 ?23 0 24 7 0 0 1 18 255 11 30 0 25 0 26 27 ?1 17 255 25 0 28 29
 30 11 31 32 0 33 +18 26 27 0 30 11 34 35 ?1 29 27 32 0 11 35 36 0 .002 .002 29
 35 29 0 26 37 27 .002 .002 .002 29 36 78 0 38 27 39 0 0 0 18 38 69 0 40 41 0 36
 ?1 29 39 77 0 41 36 21 .002 0 0 18 41 68 0 42 43 38 39 ?1 29 21 76 0 43 39 8 .0
02 .002 0 18 43 67 0 44 20 41 21 ?1 17 44 0 45 46 47 43 48 49 0 50 +18 20 66 0 5
1 52 43 8 ?1 17 51 0 53 33 50 20 54 55 0 56 +18 52 21 0 57 34 20 58 ?1 17 57 0 5
9 23 60 52 61 62 0 29 -18 34 24 0 61 26 52 37 ?1 29 58 23 0 52 0 37 0 0 .002 29
 37 26 0 34 58 35 .002 0 .002 17 61 0 28 30 29 34 57 62 0 60 +15 255 28 4 0 29 6
3 0 17 30 0 28 25 61 26 64 65 0 46 +17 29 0 28 61 25 52 66 67 0 68 +16 62 9 0 ?6
1 65 67 69 0 0 1 17 60 0 59 57 42 34 47 24 0 64 -15 59 87 0 42 70 0 17 42 0 59 6
0 23 41 40 71 0 47 +17 47 0 45 44 64 41 60 24 0 48 +16 24 81 0 ?47 10 72 19 0 0
 1 17 64 0 45 47 46 34 30 65 0 0 -15 45 85 0 44 73 0 17 46 0 45 64 44 26 50 72 0
 31 -16 65 13 0 ?30 32 62 74 0 0 1 16 32 17 0 ?25 75 65 76 0 0 1 30 74 15 0 65 6
9 76 0 +.002 0 .002 0 1 0 30 69 11 0 62 77 74 0 +0 0 .002 1 0 0 30 76 19 0 32 74
 78 0 +0 .002 .002 -1 0 0 30 78 74 0 79 76 80 0 +0 0 0 0 -1 0 16 79 62 0 ?81 71
 0 78 0 0 1 30 80 73 0 71 78 82 0 +0 0 0 1 0 0 16 71 58 0 ?42 49 79 80 0 0 1 30
 82 72 0 49 80 83 0 +.002 0 0 0 1 0 16 49 54 0 ?44 55 71 82 0 0 1 30 83 71 0 55
 82 84 0 +0 .002 0 -1 0 0 16 55 50 0 ?51 67 49 83 0 0 1 30 84 95 0 75 83 85 0 +0
 .002 .002 0 0 -1 16 75 79 0 ?56 72 32 84 0 0 1 30 85 96 0 72 84 19 0 +.002 .002
 .002 0 0 -1 16 72 80 0 ?50 24 75 85 0 0 1 30 19 97 0 24 85 7 0 +.002 0 .002 0 0
 -1 17 50 0 53 51 31 43 46 72 0 54 +15 53 83 0 51 86 0 17 31 0 53 50 33 26 25 32
 0 0 -17 54 0 87 48 88 43 51 55 0 0 -15 87 49 0 88 89 0 17 48 0 87 40 54 41 44 4
9 0 0 -17 88 0 87 54 40 20 81 79 0 0 -17 40 0 87 88 48 38 42 71 0 23 -17 81 0 90
 68 56 38 88 79 0 0 +15 90 89 0 81 16 0 17 68 0 90 66 81 52 23 10 0 0 -17 56 0 9
0 81 66 20 33 75 0 88 +17 66 0 90 56 68 11 29 67 0 0 -17 33 0 53 31 51 11 56 75
 0 66 -16 67 5 0 ?29 62 55 77 0 0 1 30 77 7 0 67 0 69 0 +0 0 .002 0 -1 0 17 23 0
 59 42 57 38 68 10 0 81 +14 255 16 90 91 ?70 0 90 5 6 -0 0 70 0 22 81 1 91 198 9
2 16 93 0 0 94 95 14 70 88 94 ?73 16 59 5 18 -0 0 73 16 22 13 22 34 0 0 0 0 0 0
 9 16 81 1 94 200 92 70 96 0 91 97 98 14 73 86 97 ?86 70 45 5 99 -0 0 86 70 22 5
0 18 93 0 70 99 6 0 +0 0 .002 0 1 0 0 0 1 50 99 92 0 73 100 18 0 +.002 0 .002 -1
 0 0 0 0 1 50 100 91 0 86 101 99 0 +0 .002 .002 0 -1 0 0 0 -1 14 86 84 102 ?63 7
3 53 5 100 -0 0 63 73 22 50 101 70 0 89 103 100 0 +0 0 0 0 0 -1 -1 0 0 14 89 48
 104 ?0 63 87 5 101 +0 0 0 63 22 50 103 3 0 63 0 101 0 +0 0 .002 0 0 -1 -1 0 0 1
4 63 1 105 ?89 86 28 5 103 -0 0 89 86 22 81 1 105 208 92 63 106 0 104 0 107 80 7
 CCCCCDI12 legal_owners0 16 1 lCZ1 92 108 109 9000 1 1 1 1 1 1 1 1 0 FFFFTFTFFFF
FFFFF1 81 3 106 207 110 63 111 105 112 0 113 0 0 81 1 104 206 92 89 112 0 102 10
5 114 82 255 1 107 -1031208856 81 3 112 205 110 89 115 104 116 106 117 0 0 81 1
 102 204 92 86 116 0 97 104 118 82 1 114 -1025572760 81 3 116 203 110 86 119 102
 120 112 121 0 0 81 1 97 202 92 73 120 0 94 102 122 82 1 118 -1024655256 81 3 12
0 201 110 73 123 97 96 116 124 0 0 82 1 122 -1024393112 80 3 110 125 126 9000 0
 0 0 0 3 5 0 0 0 FFFFTFFFFFFFFFFF1 1 1 81 1 123 173 127 73 0 120 128 119 129 81
 3 96 199 110 70 128 94 93 120 130 0 0 82 6 124 0 -1196496028 31056944 0 0 0 81
 1 128 172 127 70 0 96 131 123 132 81 3 93 197 110 16 131 91 0 96 133 0 0 82 6 1
30 0 -1196496028 31056944 0 0 0 81 1 131 171 127 16 0 93 0 128 134 82 6 133 0 -1
196496028 31056944 0 0 0 80 1 127 0 135 8001 0 0 0 0 3 5 0 0 0 FFFFTFTFFFFFFFFF2
 83 255 3 134 .792156862745098 .819607843137255 .933333333333333 79 255 15 135 S
DL/TYSA_COLOUR83 3 132 .792156862745098 .819607843137255 .933333333333333 81 1 1
19 174 127 86 0 116 123 111 136 83 3 129 .792156862745098 .819607843137255 .9333
33333333333 81 1 111 175 127 63 0 106 119 115 137 83 3 136 .792156862745098 .819
607843137255 .933333333333333 81 1 115 176 127 89 0 112 111 0 138 83 3 137 .7921
56862745098 .819607843137255 .933333333333333 83 3 138 .792156862745098 .8196078
43137255 .933333333333333 79 18 126 DOWNSTREAM_FACE_ID82 6 121 0 -1196496028 310
56944 0 0 0 82 6 117 0 -1196496028 31056944 0 0 0 82 6 113 0 -1196496028 3105694
4 0 0 0 79 14 109 SWEntUnchanged82 1 98 -1024130968 82 1 95 -1023868824 19 17 10
0 0 1 0 9 5 0 S0 74 4 CI16 index_map_offset0 0 1 dCCZ20 15 10 0 0 106 139 140 14
1 105 142 143 13 115 2 0 0 0 0 0 0 0 0 0 0 81 2 139 130 144 1 0 140 0 0 0 145 81
 2 140 134 146 1 139 141 0 0 0 147 81 2 141 135 148 1 140 142 0 0 149 0 81 1 142
 142 150 1 141 143 0 0 151 81 2 143 143 152 1 142 13 0 0 0 0 81 2 13 151 153 1 1
43 2 0 0 154 0 80 2 153 155 156 8004 0 0 0 0 3 5 0 0 0 FFTFFFFFFFFFFFFF2 3 83 1
 154 1 79 16 156 SDL/TYSA_DENSITY80 2 152 157 158 9000 0 0 0 0 3 5 0 0 0 FFTFFFF
FFFFFFFFF9 1 79 16 158 BODY_RECIPE_200180 1 150 159 160 9000 1 1 1 1 1 1 1 1 0 F
FTFFFFFFFFFFFFF1 82 1 151 901767 79 10 160 BODY_MATCH80 2 148 161 162 9000 0 0 0
 0 3 5 0 0 0 FFTFTTTFFTFFFFFF3 3 84 255 13 149 Boss-Extrude179 21 162 SWIMPLICIT
BODYNAME_ID80 2 146 163 164 9000 0 0 0 0 3 5 0 0 0 FFTFFFFFFFFFFFFF9 1 82 1 147
 34 79 30 164 LAST_BODY_MODIFYING_FEATURE_ID80 2 144 165 166 9000 0 0 0 0 3 5 0
 0 0 FFTFFFFFFFFFFFFF9 1 82 1 145 103 79 19 166 ENT_TIME_STAMP_200180 2 12 167 1
68 9000 0 0 0 0 3 5 0 0 0 FFTFFFFFFFFFFFFF9 1 82 1 14 101 79 12 168 ATOM_ID_2001
1 0 
