**ABCDEFGHIJKLMNOPQRSTUVWXYZabcdefghijklmnopqrstuvwxyz**************************
**PARASOLID !"#$%&'()*+,-./:;<=>?@[\]^_`{|}~0123456789**************************
**PART1;
MC=AMD64;
MC_MODEL=Intel64 Family 6 Model 158 Stepping 10, GenuineIntel;
MC_ID=unknown;
OS=Windows_NT;
OS_RELEASE=unknown;
FRU=Parasolid Version 31.1, build 290,  3- 9-2020;
APPL=SOLIDWORKS 2020-2020128;
SITE=;
USER=unknown;
FORMAT=text;
GUISE=transmit;
KEY=Cantilever;
FILE=Cantilever.x_t;
DATE=Mon Nov 15 18:14:37 2021;
**PART2;
SCH=SCH_3101290_31100;
USFLD_SIZE=0;
**PART3;
**END_OF_HEADER*****************************************************************
T51 : TRANSMIT FILE created by modeller version 310129023 SCH_3101290_31100_1300
6222 0 10 20 CCCCCCCI4 mesh1006 0 I8 polyline1008 0 CCCCCCCCCCA16 mesh_offset_da
ta206 0 Z1 43 2 3 0 0 0 0 0 0 0 1e3 1e-8 0 0 0 1 0 1 4 0 81 255 1 2 43 5 1 0 0 0
 0 0 70 11 CI9 list_type0 0 1 uI10 notransmit0 0 1 lCCCDCCDI12 finger_index0 0 1
 dI12 finger_block1012 0 CZ3 0 4 T1 0 0 1 20 1 6 6 11 255 4 41 0 1 7 8 1 9 0 9 0
 12 34 CCCCCCI4 mesh1006 0 I8 polyline1008 0 CCCCCCCDI5 owner1040 0 CCCCCCI13 bo
undary_mesh1006 0 I17 boundary_polyline1008 0 CCCA16 index_map_offset0 0 1 dA9 i
ndex_map82 0 A17 node_id_index_map82 0 A20 schema_embedding_map82 0 A5 child12 0
 A14 lowest_node_id0 0 1 dA16 mesh_offset_data206 0 Z7 1185 10 11 0 0 0 0 0 0 1e
3 1e-8 4 12 0 1 0 1 1 13 14 15 16 0 0 17 18 19 0 0 0 0 0 0 0 100 255 8 42 4 0 0
 277555756156289e-30 -1658378650521235e-31 -1 -1 3797736200093365e-33 -277555756
156289e-30 3797736200093365e-33 1 -1658378650521235e-31 .002 .01 543118779325064
e-33 1 3 ?11 9 39 0 1 7 20 1 21 4 21 4 100 20 40 9 0 0 277555756156289e-30 -1658
378650521235e-31 -1 -1 3797736200093365e-33 -277555756156289e-30 379773620009336
5e-33 1 -1658378650521235e-31 -216840434497101e-32 .01 -316072190647072e-33 1 3
 ?11 21 37 0 1 7 22 1 23 9 23 9 100 22 38 21 0 0 277555756156289e-30 -1658378650
521235e-31 -1 -1 3797736200093365e-33 -277555756156289e-30 3797736200093365e-33
 1 -1658378650521235e-31 .002 .01 .002 1 3 ?11 23 35 0 1 7 24 1 25 21 25 21 100
 24 36 23 0 0 277555756156289e-30 -1658378650521235e-31 -1 -1 3797736200093365e-
33 -277555756156289e-30 3797736200093365e-33 1 -1658378650521235e-31 -2168404344
97101e-32 .01 .002 1 3 ?11 25 33 0 1 7 26 1 27 23 27 23 100 26 34 25 0 0 2775557
56156289e-30 -1658378650521235e-31 -1 -1 3797736200093365e-33 -277555756156289e-
30 3797736200093365e-33 1 -1658378650521235e-31 .002 .006 2252428167378905e-34 1
 3 ?11 27 31 0 1 7 28 1 29 25 29 25 100 28 32 27 0 0 277555756156289e-30 -165837
8650521235e-31 -1 -1 3797736200093365e-33 -277555756156289e-30 3797736200093365e
-33 1 -1658378650521235e-31 -433680868994202e-33 .006 -633948153234245e-33 1 3 ?
11 29 29 0 1 7 30 1 31 27 31 27 100 30 30 29 0 0 277555756156289e-30 -1658378650
521235e-31 -1 -1 3797736200093365e-33 -277555756156289e-30 3797736200093365e-33
 1 -1658378650521235e-31 .002 .006 .002 1 3 ?11 31 27 0 1 7 32 1 33 29 33 29 100
 32 28 31 0 0 277555756156289e-30 -1658378650521235e-31 -1 -1 3797736200093365e-
33 -277555756156289e-30 3797736200093365e-33 1 -1658378650521235e-31 -3903127820
94782e-32 .006 .002 1 3 ?11 33 25 0 1 7 34 1 35 31 35 31 100 34 26 33 0 0 277555
756156289e-30 -1658378650521235e-31 -1 -1 3797736200093365e-33 -277555756156289e
-30 3797736200093365e-33 1 -1658378650521235e-31 .002 .008 275760580782927e-33 1
 3 ?11 35 23 0 1 7 36 1 37 33 37 33 100 36 24 35 0 0 277555756156289e-30 -165837
8650521235e-31 -1 -1 3797736200093365e-33 -277555756156289e-30 3797736200093365e
-33 1 -1658378650521235e-31 -1301042606982606e-33 .008 -3665899546921085e-34 1 3
 ?11 37 21 0 1 7 38 1 39 35 39 35 100 38 22 37 0 0 277555756156289e-30 -16583786
50521235e-31 -1 -1 3797736200093365e-33 -277555756156289e-30 3797736200093365e-3
3 1 -1658378650521235e-31 .002 .008 .002 1 3 ?11 39 19 0 1 7 40 1 41 37 41 37 10
0 40 20 39 0 0 277555756156289e-30 -1658378650521235e-31 -1 -1 3797736200093365e
-33 -277555756156289e-30 3797736200093365e-33 1 -1658378650521235e-31 4336808689
94202e-33 .008 .002 1 3 ?11 41 17 0 1 7 42 1 43 39 43 39 100 42 18 41 0 0 277555
756156289e-30 -1658378650521235e-31 -1 -1 3797736200093365e-33 -277555756156289e
-30 3797736200093365e-33 1 -1658378650521235e-31 .002 .004 -1505355990527965e-34
 1 3 ?11 43 15 0 1 7 44 1 45 41 45 41 100 44 16 43 0 0 277555756156289e-30 -1658
378650521235e-31 -1 -1 3797736200093365e-33 -277555756156289e-30 379773620009336
5e-33 1 -1658378650521235e-31 -433680868994202e-33 .004 -684465917279282e-33 1 3
 ?11 45 13 0 1 7 46 1 47 43 47 43 100 46 14 45 0 0 277555756156289e-30 -16583786
50521235e-31 -1 -1 3797736200093365e-33 -277555756156289e-30 3797736200093365e-3
3 1 -1658378650521235e-31 .002 .004 .002 1 3 ?11 47 11 0 1 7 48 1 49 45 49 45 10
0 48 12 47 0 0 277555756156289e-30 -1658378650521235e-31 -1 -1 3797736200093365e
-33 -277555756156289e-30 3797736200093365e-33 1 -1658378650521235e-31 -130104260
6982606e-33 .004 .002 1 3 ?11 49 9 0 1 7 50 1 51 47 51 47 100 50 10 49 0 0 27755
5756156289e-30 -1658378650521235e-31 -1 -1 3797736200093365e-33 -277555756156289
e-30 3797736200093365e-33 1 -1658378650521235e-31 .002 .002 -743154449340585e-33
 1 3 ?11 51 7 0 1 7 52 1 53 49 53 49 100 52 8 51 0 0 277555756156289e-30 -165837
8650521235e-31 -1 -1 3797736200093365e-33 -277555756156289e-30 3797736200093365e
-33 1 -1658378650521235e-31 -867361737988404e-33 .002 -78789274734161e-32 1 3 ?1
1 53 5 0 1 7 54 1 55 51 55 51 100 54 6 53 0 0 277555756156289e-30 -1658378650521
235e-31 -1 -1 3797736200093365e-33 -277555756156289e-30 3797736200093365e-33 1 -
1658378650521235e-31 .002 .002 .002 1 3 ?11 55 3 0 1 7 56 1 57 53 0 53 100 56 4
 55 0 0 277555756156289e-30 -1658378650521235e-31 -1 -1 3797736200093365e-33 -27
7555756156289e-30 3797736200093365e-33 1 -1658378650521235e-31 216840434497101e-
32 .002 .002 1 3 ?11 57 1 0 1 12 58 1 0 55 0 0 12 12 189 59 60 0 0 0 0 0 0 1e3 1
e-8 57 61 7 1 0 1 1 62 63 64 65 0 0 66 67 68 0 0 0 0 0 0 0 100 58 2 57 0 0 27755
5756156289e-30 -1658378650521235e-31 -1 -1 3797736200093365e-33 -277555756156289
e-30 3797736200093365e-33 1 -1658378650521235e-31 .002 .01 .005 1 3 ?81 1 59 189
 5 12 69 0 0 0 70 70 60 0 4 T12 0 0 4 20 1 71 71 13 255 62 99 0 12 0 72 0 0 73 0
 50 255 63 94 0 72 74 0 0 +.01 .001 -.002 0 -433680868994202e-30 1 0 -1 -4336808
68994202e-30 30 255 64 98 0 67 75 0 0 +.01 .001 -.002 -1 0 0 29 255 65 75 0 76 7
7 0 0 -.001 -.002 19 8 CCCCCCCA5 owner12 0 Z66 33 0 12 73 0 78 V0 16 255 67 82 0
 ?79 0 80 64 0 0 12 18 255 68 30 0 81 0 82 83 ?12 17 255 81 0 84 85 86 68 87 88
 0 89 +18 82 27 0 86 68 90 91 ?12 29 83 32 0 68 91 92 .01 -.001 -.002 29 91 29 0
 82 93 83 .01 -.001 .002 29 92 78 0 94 83 95 0 .001 -.002 18 94 69 0 96 97 0 92
 ?12 29 95 77 0 97 92 77 0 .001 .002 18 97 68 0 98 99 94 95 ?12 29 77 76 0 99 95
 65 0 -.001 .002 18 99 67 0 100 76 97 77 ?12 17 100 0 101 102 103 99 104 105 0 1
06 +18 76 66 0 107 108 99 65 ?12 17 107 0 109 89 106 76 110 111 0 112 +18 108 21
 0 113 90 76 114 ?12 17 113 0 115 79 116 108 117 118 0 85 -18 90 24 0 117 82 108
 93 ?12 29 114 23 0 108 0 93 .01 .001 -.002 29 93 26 0 90 114 91 .01 .001 .002 1
7 117 0 84 86 85 90 113 118 0 116 +15 255 84 4 0 85 119 0 17 86 0 84 81 117 82 1
20 121 0 102 +17 85 0 84 117 81 108 122 123 0 124 +16 118 9 0 ?117 121 123 125 0
 0 12 17 116 0 115 113 98 90 103 80 0 120 -15 115 87 0 98 126 0 17 98 0 115 116
 79 97 96 127 0 103 +17 103 0 101 100 120 97 116 80 0 104 +16 80 81 0 ?103 67 12
8 75 0 0 12 17 120 0 101 103 102 90 86 121 0 0 -15 101 85 0 100 129 0 17 102 0 1
01 120 100 82 106 128 0 87 -16 121 13 0 ?86 88 118 130 0 0 12 16 88 17 0 ?81 131
 121 132 0 0 12 30 130 15 0 121 125 132 0 +.01 .001 .002 0 -1 -216840434497101e-
30 30 125 11 0 118 133 130 0 +.01 .001 .002 0 0 1 30 132 19 0 88 130 134 0 +.01
 -.001 .002 0 0 -1 30 134 74 0 135 132 136 0 +0 .001 -.002 0 1 433680868994202e-
30 16 135 62 0 ?137 127 0 134 0 0 12 30 136 73 0 127 134 138 0 +0 .001 .002 0 0
 1 16 127 58 0 ?98 105 135 136 0 0 12 30 138 72 0 105 136 139 0 +0 .001 .002 0 -
1 -216840434497101e-30 16 105 54 0 ?100 111 127 138 0 0 12 30 139 71 0 111 138 1
40 0 +0 -.001 .002 0 0 -1 16 111 50 0 ?107 123 105 139 0 0 12 30 140 95 0 131 13
9 141 0 +.01 -.001 -.002 -1 0 0 16 131 79 0 ?112 128 88 140 0 0 12 30 141 96 0 1
28 140 75 0 +.01 -.001 .002 -1 0 0 16 128 80 0 ?106 80 131 141 0 0 12 30 75 97 0
 80 141 64 0 +.01 .001 .002 -1 0 0 17 106 0 109 107 87 99 102 128 0 110 +15 109
 83 0 107 142 0 17 87 0 109 106 89 82 81 88 0 0 -17 110 0 143 104 144 99 107 111
 0 0 -15 143 49 0 144 145 0 17 104 0 143 96 110 97 100 105 0 0 -17 144 0 143 110
 96 76 137 135 0 0 -17 96 0 143 144 104 94 98 127 0 79 -17 137 0 146 124 112 94
 144 135 0 0 +15 146 89 0 137 72 0 17 124 0 146 122 137 108 79 67 0 0 -17 112 0
 146 137 122 76 89 131 0 144 +17 122 0 146 112 124 68 85 123 0 0 -17 89 0 109 87
 107 68 112 131 0 122 -16 123 5 0 ?85 118 111 133 0 0 12 30 133 7 0 123 0 125 0
 +.01 .001 -.002 0 1 433680868994202e-30 17 79 0 115 98 113 94 124 67 0 137 +14
 255 72 90 147 ?126 0 146 62 63 -0 0 126 0 78 81 1 147 183 148 72 149 0 0 150 15
1 14 126 88 150 ?129 72 115 62 74 -0 0 129 72 78 13 78 34 0 0 0 0 0 0 66 72 81 1
 150 184 148 126 152 0 147 153 154 14 129 86 153 ?142 126 101 62 155 -0 0 142 12
6 78 50 74 93 0 126 155 63 0 +.01 .001 .002 0 -1 0 0 0 -1 50 155 92 0 129 156 74
 0 +.01 .001 .002 0 216840434497101e-30 -1 0 1 216840434497101e-30 50 156 91 0 1
42 157 155 0 +.01 -.001 .002 0 1 0 0 0 1 14 142 84 158 ?119 129 109 62 156 -0 0
 119 129 78 50 157 70 0 145 159 156 0 +0 0 0 1 0 0 0 0 -1 14 145 48 160 ?0 119 1
43 62 157 -0 0 0 119 78 50 159 3 0 119 0 157 0 +.01 0 0 1 0 0 0 0 -1 14 119 1 16
1 ?145 142 84 62 159 +0 0 145 142 78 81 1 161 187 148 119 162 0 158 160 163 80 2
55 1 148 0 164 8001 0 0 0 0 3 5 0 0 0 FFFFTFTFFFFFFF2 81 1 162 181 165 119 0 161
 166 0 167 81 1 158 186 148 142 168 0 153 161 169 81 1 160 188 148 145 166 0 161
 0 170 83 255 3 163 .792156862745098 .819607843137255 .933333333333333 81 1 166
 179 165 145 0 160 168 162 171 83 3 170 .792156862745098 .819607843137255 .93333
3333333333 80 1 165 172 173 9000 1 1 1 1 1 1 1 1 0 FFFFTFTFFFFFFF1 81 1 168 177
 165 142 0 158 174 166 175 82 255 1 171 -1422262165 81 1 174 175 165 129 0 153 1
52 168 176 82 1 175 -1421344661 81 1 153 185 148 129 174 0 150 158 177 81 1 152
 173 165 126 0 150 149 174 178 82 1 176 -1421082517 81 1 149 171 165 72 0 147 0
 152 179 82 1 178 -1420820373 82 1 179 -1420558229 83 3 177 .792156862745098 .81
9607843137255 .933333333333333 79 255 14 173 SWEntUnchanged83 3 169 .79215686274
5098 .819607843137255 .933333333333333 82 1 167 -1427898261 79 15 164 SDL/TYSA_C
OLOUR83 3 154 .792156862745098 .819607843137255 .933333333333333 83 3 151 .79215
6862745098 .819607843137255 .933333333333333 19 73 100 0 12 0 66 62 S0 74 4 CI16
 index_map_offset0 0 1 dCCZ20 71 4 0 0 162 69 160 59 0 0 0 0 0 0 0 0 0 0 0 0 0 0
 0 0 81 2 69 144 180 12 0 59 0 0 181 0 80 2 180 182 183 8004 0 0 0 0 3 5 0 0 0 F
FTFFFFFFFFFFF2 3 83 1 181 1 79 16 183 SDL/TYSA_DENSITY80 1 5 184 185 8017 0 0 0
 0 0 0 0 0 0 TTTTTTTTTTTTTF3 84 255 3 70 Bar79 13 185 SDL/TYSA_NAME81 1 10 1185
 5 7 186 0 0 0 187 70 11 0 4 T7 0 0 4 20 1 188 188 13 13 99 0 7 0 189 0 0 190 0
 50 14 94 0 191 192 0 0 +0 .002 0 1 0 0 0 0 -1 30 15 591 0 18 193 0 0 +.00175 25
e-5 -25e-5 0 361400724161835e-31 1 29 16 655 0 19 194 0 0 25e-5 -.00175 19 17 33
 0 7 190 0 195 V0 16 18 589 0 ?196 0 197 15 0 0 7 18 19 653 0 198 0 199 16 ?7 17
 198 0 200 201 202 19 203 204 0 205 +18 199 633 0 206 19 207 194 ?7 17 206 0 208
 209 210 199 211 212 0 213 -18 207 368 0 214 199 215 216 ?7 29 194 635 0 199 216
 16 .002 25e-5 -25e-5 29 216 370 0 207 217 194 .00175 .00175 0 29 217 350 0 215
 218 216 25e-5 .00175 -.002 18 215 348 0 219 207 220 217 ?7 29 218 134 0 220 221
 217 .00175 .002 -.00175 18 220 132 0 222 215 223 218 ?7 29 221 117 0 223 224 21
8 25e-5 0 -.00175 18 223 115 0 225 220 226 221 ?7 29 224 75 0 227 228 221 0 0 -.
002 18 227 66 0 229 230 231 224 ?7 29 228 76 0 231 232 224 .002 0 -.002 18 231 6
7 0 233 227 234 228 ?7 29 232 77 0 234 235 228 .002 0 0 18 234 68 0 236 231 237
 232 ?7 29 235 78 0 237 238 232 0 0 0 18 237 69 0 239 234 240 235 ?7 29 238 32 0
 226 241 235 0 .002 -.002 18 226 30 0 242 223 243 238 ?7 29 241 29 0 243 244 238
 .002 .002 -.002 18 243 27 0 245 226 246 241 ?7 29 244 26 0 246 247 241 .002 .00
2 0 18 246 24 0 248 243 230 244 ?7 29 247 23 0 230 249 244 0 .002 0 18 230 21 0
 250 246 227 247 ?7 29 249 232 0 251 252 247 .00175 0 -.00175 18 251 183 0 253 2
54 255 249 ?7 29 252 233 0 255 256 249 .00175 0 -25e-5 18 255 181 0 257 251 258
 252 ?7 29 256 234 0 258 259 252 25e-5 0 -25e-5 18 258 188 0 260 255 261 256 ?7
 29 259 235 0 240 262 256 25e-5 .002 -.00175 18 240 187 0 263 237 264 259 ?7 29
 262 237 0 264 265 259 .00175 .002 -25e-5 18 264 185 0 266 240 254 262 ?7 29 265
 238 0 254 267 262 25e-5 .002 -25e-5 18 254 182 0 268 264 251 265 ?7 29 267 527
 0 261 269 265 .00175 25e-5 -.00175 18 261 439 0 270 258 271 267 ?7 29 269 528 0
 271 272 267 25e-5 25e-5 -25e-5 18 271 434 0 273 261 274 269 ?7 29 272 534 0 275
 276 269 .00175 25e-5 0 18 275 435 0 277 278 279 272 ?7 29 276 535 0 279 280 272
 25e-5 25e-5 0 18 279 437 0 281 275 282 276 ?7 29 280 536 0 282 283 276 25e-5 .0
0175 0 18 282 438 0 284 279 285 280 ?7 29 283 538 0 274 286 280 .00175 25e-5 -.0
02 18 274 440 0 287 271 288 283 ?7 29 286 539 0 288 289 283 25e-5 25e-5 -.002 18
 288 442 0 290 274 278 286 ?7 29 289 541 0 278 291 286 .00175 .00175 -.002 18 27
8 445 0 292 288 275 289 ?7 29 291 812 0 285 293 289 25e-5 25e-5 -.00175 18 285 7
15 0 294 282 295 291 ?7 29 293 814 0 295 296 291 25e-5 .00175 -.00175 18 295 721
 0 297 285 298 293 ?7 29 296 815 0 298 299 293 .00175 .00175 -.00175 18 298 720
 0 300 295 301 296 ?7 29 299 816 0 301 302 296 25e-5 .00175 -25e-5 18 301 719 0
 303 298 304 299 ?7 29 302 817 0 304 305 299 .00175 .00175 -25e-5 18 304 726 0 3
06 301 307 302 ?7 29 305 819 0 307 308 302 .00175 25e-5 -25e-5 18 307 716 0 196
 304 309 305 ?7 29 308 820 0 310 311 305 0 .00175 -.00175 18 310 722 0 202 312 3
13 308 ?7 29 311 821 0 313 314 308 0 .00175 -25e-5 18 313 724 0 315 310 316 311
 ?7 29 314 822 0 316 317 311 0 25e-5 -25e-5 18 316 718 0 318 313 0 314 ?7 29 317
 824 0 309 319 314 .002 .00175 -.00175 18 309 725 0 320 307 321 317 ?7 29 319 82
5 0 321 322 317 .002 .00175 -25e-5 18 321 727 0 210 309 312 319 ?7 29 322 827 0
 312 0 319 .002 25e-5 -.00175 18 312 730 0 323 321 310 322 ?7 17 323 0 324 325 3
26 312 270 327 0 328 -15 324 766 0 326 329 0 17 325 0 324 330 323 309 331 332 0
 333 -17 326 0 324 323 330 261 334 335 0 336 +17 270 0 337 196 328 261 323 327 0
 326 +16 327 690 0 ?270 338 339 340 339 339 7 17 328 0 337 270 213 312 341 342 0
 331 -15 337 778 0 196 343 0 17 213 0 337 328 196 199 209 344 0 341 -17 341 0 34
5 211 331 199 328 342 0 0 +16 342 699 0 ?341 212 332 346 0 0 7 17 331 0 345 341
 333 312 325 332 0 0 +15 345 631 0 333 347 348 17 333 0 345 331 211 309 349 350
 0 0 +16 332 687 0 ?331 342 351 352 0 0 7 16 351 712 0 ?353 332 354 355 0 0 7 30
 352 811 0 332 0 346 0 +.002 .00175 -.00175 0 -1 0 30 346 810 0 342 352 356 0 +.
002 25e-5 -.00175 0 361400724161835e-31 1 30 356 809 0 212 346 357 0 +.002 .0017
5 -25e-5 0 1 -72280144832367e-30 16 212 695 0 ?211 350 342 356 0 0 7 30 357 808
 0 350 356 358 0 +.002 .00175 -.00175 0 0 -1 16 350 691 0 ?333 339 212 357 0 0 7
 30 358 807 0 204 357 359 0 +0 .00175 -.00175 0 -1 0 16 204 703 0 ?198 360 0 358
 0 0 7 30 359 806 0 360 358 361 0 +0 25e-5 -.00175 0 361400724161835e-31 1 16 36
0 706 0 ?362 354 204 359 0 0 7 30 361 805 0 354 359 355 0 +0 .00175 -25e-5 0 1 -
72280144832367e-30 16 354 709 0 ?363 351 360 361 0 0 7 30 355 804 0 351 361 364
 0 +0 .00175 -.00175 0 0 -1 30 364 803 0 365 355 366 0 +.002 .00175 -.00175 -1 0
 0 16 365 694 0 ?330 367 368 364 368 368 7 30 366 802 0 369 364 370 0 +.002 .001
75 -25e-5 -1 0 0 16 369 698 0 ?371 368 372 366 372 372 7 30 370 801 0 344 366 34
0 0 +.002 25e-5 -25e-5 -1 0 0 16 344 702 0 ?209 372 338 370 338 338 7 30 340 800
 0 327 370 373 0 +.002 25e-5 -.00175 -1 0 0 30 373 799 0 367 340 374 0 +.00175 .
002 -25e-5 0 1 -72280144832367e-30 16 367 685 0 ?306 375 365 373 0 0 7 30 374 79
8 0 375 373 376 0 +25e-5 .002 -25e-5 0 -1 72280144832367e-30 16 375 684 0 ?377 3
35 367 374 0 0 7 30 376 797 0 335 374 378 0 +.00175 .002 -.00175 0 -1 0 16 335 6
81 0 ?326 379 375 376 0 0 7 30 378 796 0 379 376 380 0 +25e-5 .002 -.00175 0 1 0
 16 379 680 0 ?297 381 335 378 0 0 7 30 380 795 0 381 378 382 0 +.00175 .00175 -
25e-5 0 0 -1 16 381 677 0 ?300 383 379 380 0 0 7 30 382 794 0 383 380 384 0 +25e
-5 .00175 -25e-5 0 0 1 16 383 676 0 ?303 385 381 382 0 0 7 30 384 793 0 385 382
 386 0 +25e-5 25e-5 -25e-5 0 -361400724161835e-31 -1 16 385 672 0 ?294 387 383 3
84 0 0 7 30 386 525 0 388 384 389 0 +.00175 .00175 -.002 0 1 0 16 388 402 0 ?390
 391 392 386 0 0 7 30 389 524 0 391 386 393 0 +25e-5 .00175 -.002 -1 0 0 16 391
 414 0 ?394 395 388 389 0 0 7 30 393 523 0 395 389 396 0 +25e-5 .00175 -.002 0 -
1 0 16 395 410 0 ?397 398 391 393 0 0 7 30 396 522 0 398 393 399 0 +25e-5 25e-5
 -.002 1 0 0 16 398 406 0 ?400 401 395 396 0 0 7 30 399 521 0 387 396 402 0 +.00
175 .00175 0 0 1 0 16 387 418 0 ?214 403 385 399 0 0 7 30 402 520 0 403 399 404
 0 +25e-5 .00175 0 -1 0 0 16 403 421 0 ?405 406 387 402 0 0 7 30 404 519 0 406 4
02 407 0 +25e-5 .00175 0 0 -1 0 16 406 424 0 ?408 392 403 404 0 0 7 30 407 518 0
 392 404 409 0 +25e-5 25e-5 0 1 0 0 16 392 427 0 ?410 388 406 407 0 0 7 30 409 5
17 0 411 407 412 0 +.00175 25e-5 -.002 0 0 1 16 411 409 0 ?413 414 415 409 415 4
15 7 30 412 516 0 416 409 417 0 +25e-5 25e-5 -.002 0 0 1 16 416 413 0 ?418 415 4
19 412 419 419 7 30 417 515 0 420 412 421 0 +25e-5 .00175 -.002 0 0 1 16 420 417
 0 ?422 419 423 417 423 423 7 30 421 514 0 424 417 425 0 +.00175 .00175 -.002 0
 0 1 16 424 405 0 ?426 423 401 421 401 401 7 30 425 513 0 414 421 427 0 +25e-5 .
00175 -25e-5 1 0 0 16 414 399 0 ?428 429 411 425 0 0 7 30 427 510 0 429 425 430
 0 +25e-5 25e-5 -25e-5 -1 0 0 16 429 391 0 ?431 432 414 427 0 0 7 30 430 230 0 4
33 427 434 0 +25e-5 .002 -25e-5 0 0 1 16 433 169 0 ?268 435 436 430 0 0 7 30 434
 229 0 435 430 437 0 +25e-5 .002 -25e-5 1 0 0 16 435 172 0 ?266 438 433 434 0 0
 7 30 437 228 0 438 434 439 0 +.00175 .002 -25e-5 0 0 -1 16 438 175 0 ?440 441 4
35 437 0 0 7 30 439 227 0 441 437 442 0 +25e-5 .002 -.00175 -1 0 0 16 441 178 0
 ?263 443 438 439 0 0 7 30 442 226 0 432 439 444 0 +25e-5 0 -25e-5 0 0 1 16 432
 153 0 ?445 446 429 442 0 0 7 30 444 225 0 446 442 447 0 +25e-5 0 -25e-5 1 0 0 1
6 446 157 0 ?448 449 432 444 0 0 7 30 447 224 0 449 444 450 0 +.00175 0 -25e-5 0
 0 -1 16 449 161 0 ?451 436 446 447 0 0 7 30 450 223 0 436 447 452 0 +25e-5 0 -.
00175 -1 0 0 16 436 165 0 ?453 433 449 450 0 0 7 30 452 222 0 454 450 455 0 +25e
-5 .002 -.00175 0 -1 0 16 454 156 0 ?456 457 443 452 443 443 7 30 455 221 0 458
 452 459 0 +.00175 .002 -.00175 0 -1 0 16 458 168 0 ?460 461 457 455 457 457 7 3
0 459 220 0 462 455 463 0 +.00175 .002 -25e-5 0 -1 0 16 462 164 0 ?464 465 461 4
59 461 461 7 30 463 219 0 466 459 467 0 +25e-5 .002 -25e-5 0 -1 0 16 466 160 0 ?
468 469 465 463 465 465 7 30 467 7 0 470 463 471 0 +0 .002 0 0 0 1 16 470 5 0 ?4
72 473 474 467 0 0 7 30 471 11 0 473 467 475 0 +0 .002 0 1 0 0 16 473 9 0 ?248 4
76 470 471 0 0 7 30 475 15 0 476 471 477 0 +.002 .002 0 0 0 -1 16 476 13 0 ?245
 478 473 475 0 0 7 30 477 19 0 478 475 479 0 +0 .002 -.002 -1 0 0 16 478 17 0 ?2
42 480 476 477 0 0 7 30 479 74 0 469 477 481 0 +0 0 0 0 0 1 16 469 62 0 ?482 483
 466 479 0 0 7 30 481 73 0 483 479 484 0 +0 0 0 1 0 0 16 483 58 0 ?236 485 469 4
81 0 0 7 30 484 72 0 485 481 486 0 +.002 0 0 0 0 -1 16 485 54 0 ?233 474 483 484
 0 0 7 30 486 71 0 474 484 487 0 +0 0 -.002 -1 0 0 16 474 50 0 ?229 470 485 486
 0 0 7 30 487 95 0 480 486 488 0 +0 .002 -.002 0 -1 0 16 480 79 0 ?489 490 478 4
87 0 0 7 30 488 96 0 490 487 491 0 +.002 .002 -.002 0 -1 0 16 490 80 0 ?492 493
 480 488 0 0 7 30 491 97 0 493 488 494 0 +.002 .002 0 0 -1 0 16 493 81 0 ?495 49
6 490 491 0 0 7 30 494 98 0 496 491 497 0 +0 .002 0 0 -1 0 16 496 82 0 ?498 499
 493 494 0 0 7 30 497 297 0 499 494 193 0 +25e-5 .00175 -.00175 -1 0 0 16 499 29
5 0 ?500 197 496 497 0 0 7 30 193 302 0 197 497 15 0 +25e-5 25e-5 -.00175 1 0 0
 16 197 300 0 ?501 18 499 193 0 0 7 17 501 0 502 287 418 261 503 197 0 413 +15 5
02 485 0 501 504 0 17 287 0 502 505 501 274 413 411 0 506 -17 418 0 502 501 505
 285 290 416 0 503 +17 503 0 507 225 508 285 501 197 0 509 -17 413 0 510 334 506
 261 287 411 0 508 +15 510 606 0 334 511 0 17 334 0 510 292 413 298 326 335 0 42
6 -17 506 0 510 413 292 274 390 388 0 400 -17 508 0 507 503 512 261 253 457 0 0
 -15 507 301 0 503 513 0 17 512 0 507 508 225 251 453 436 0 451 -17 253 0 514 51
5 336 251 508 457 0 512 +16 457 287 0 ?253 458 454 455 458 458 7 15 514 590 0 33
6 516 0 17 515 0 514 517 253 255 451 449 0 448 -17 336 0 514 253 517 261 196 18
 0 501 -17 517 0 514 336 515 307 257 461 0 0 -17 196 0 337 213 270 307 336 18 0
 209 +17 209 0 208 306 206 307 213 344 0 518 +15 208 774 0 306 519 0 17 306 0 20
8 210 209 304 518 367 0 371 +17 518 0 520 277 521 307 306 367 0 522 -15 520 596
 0 518 523 0 17 277 0 520 214 518 275 522 415 0 410 +17 521 0 520 518 214 304 52
4 401 0 464 -17 522 0 525 431 410 307 277 415 0 526 -15 525 461 0 431 527 0 17 4
31 0 525 281 522 271 526 429 0 528 +17 410 0 525 522 281 275 529 392 0 530 +16 4
15 393 0 ?277 411 416 409 411 411 7 17 526 0 531 257 532 307 431 429 0 517 -15 5
31 332 0 526 533 0 17 257 0 531 534 526 255 517 461 0 515 +17 532 0 531 526 534
 271 260 465 0 0 -17 534 0 531 532 257 258 448 446 0 445 -17 260 0 535 536 537 2
58 532 465 0 534 +16 465 325 0 ?260 466 462 463 466 466 7 15 535 611 0 537 538 0
 17 536 0 535 509 260 223 445 432 0 453 -17 537 0 535 260 509 271 294 385 0 431
 -17 509 0 535 537 536 285 225 443 0 0 -17 294 0 539 205 273 285 537 385 0 201 +
15 539 738 0 294 540 0 17 205 0 539 362 294 19 201 339 0 541 +17 273 0 539 294 3
62 271 318 338 0 377 -17 201 0 200 297 198 285 205 339 0 542 -15 200 754 0 297 5
43 0 17 297 0 200 202 201 295 542 379 0 544 +16 339 682 0 ?205 327 350 340 327 3
27 7 17 542 0 545 290 422 285 297 379 0 418 -15 545 626 0 542 189 0 17 290 0 545
 219 542 288 418 416 0 505 -17 422 0 545 542 219 295 546 420 0 456 +17 219 0 545
 422 290 215 397 395 0 546 -17 546 0 547 548 500 215 422 420 0 394 -17 456 0 549
 550 263 295 551 454 0 0 +15 549 296 0 550 552 0 17 550 0 549 222 456 298 500 49
9 0 460 -17 263 0 549 456 222 240 553 441 0 551 +17 551 0 554 268 555 240 456 45
4 0 556 -15 554 621 0 555 557 0 17 268 0 554 468 551 254 556 433 0 558 +17 555 0
 554 551 468 295 303 383 0 500 -17 556 0 559 553 560 240 268 433 0 0 -15 559 148
 0 556 561 0 17 553 0 559 562 556 220 263 441 0 0 -17 560 0 559 556 562 254 266
 435 0 0 -17 562 0 559 560 553 264 440 438 0 0 -17 266 0 563 464 558 264 560 435
 0 564 +15 563 328 0 565 566 0 17 464 0 563 565 266 304 564 462 0 0 +17 558 0 56
3 266 565 254 468 466 0 560 -17 564 0 567 440 568 264 464 462 0 562 -15 567 601
 0 568 569 0 17 440 0 567 460 564 220 562 438 0 553 +17 568 0 567 564 460 304 30
0 381 0 428 -17 460 0 567 568 440 298 222 458 0 0 +17 300 0 570 320 371 298 568
 381 0 330 +17 428 0 571 524 572 304 565 414 0 521 +15 571 477 0 428 573 0 17 52
4 0 571 405 428 207 521 401 0 574 +17 572 0 571 428 405 301 284 423 0 565 -17 56
5 0 563 558 464 301 428 414 0 468 -17 468 0 554 555 268 301 558 466 0 0 +17 405
 0 571 572 524 282 574 403 0 575 +17 284 0 576 408 577 282 572 423 0 405 +16 423
 401 0 ?284 420 424 417 420 420 7 15 576 616 0 577 578 0 17 408 0 576 528 284 27
9 575 406 0 529 +17 577 0 576 284 528 301 377 375 0 572 -17 528 0 576 577 408 27
1 281 419 0 532 -17 377 0 579 318 580 271 577 375 0 537 +15 579 762 0 377 581 0
 17 318 0 579 363 377 316 273 338 0 362 +17 580 0 579 377 363 301 315 372 0 577
 -17 363 0 579 580 318 313 582 354 0 583 +17 315 0 584 353 303 313 580 372 0 363
 +16 372 686 0 ?315 369 344 366 369 369 7 15 584 746 0 303 585 0 17 353 0 584 54
4 315 310 583 351 0 203 +17 303 0 584 315 544 301 555 383 0 580 +17 544 0 584 30
3 353 295 202 368 0 555 -17 202 0 200 198 297 310 544 368 0 353 +16 368 678 0 ?2
02 365 369 364 365 365 7 17 583 0 586 582 203 313 353 351 0 0 -17 203 0 586 583
 541 310 198 204 0 0 -15 586 651 0 541 191 587 17 541 0 586 203 582 19 362 360 0
 0 -17 582 0 586 541 583 316 363 354 0 0 -17 362 0 539 273 205 316 541 360 0 582
 +14 191 90 588 ?589 590 586 13 14 -0 0 589 590 195 15 587 89 0 482 191 0 17 482
 0 587 591 489 237 592 469 0 0 +17 591 0 587 593 482 230 498 496 0 0 -17 489 0 5
87 482 593 227 594 480 0 592 +17 592 0 595 596 239 227 482 469 0 0 -15 595 49 0
 592 590 597 17 596 0 595 598 592 231 229 474 0 0 -17 239 0 595 592 598 237 236
 483 0 498 -17 598 0 595 239 596 234 233 485 0 0 -17 236 0 599 600 498 234 239 4
83 0 495 +17 498 0 599 236 250 237 591 496 0 482 +15 599 87 0 236 589 0 17 250 0
 599 498 600 230 248 473 0 472 -17 600 0 599 250 236 246 495 493 0 601 -17 248 0
 602 245 472 246 250 473 0 600 +17 472 0 602 248 242 230 593 470 0 591 +15 602 4
 0 472 561 559 17 242 0 602 472 245 226 603 478 0 594 +17 593 0 587 489 591 226
 472 470 0 0 -17 245 0 602 242 248 243 601 476 0 604 +17 603 0 605 492 594 243 2
42 478 0 0 -17 594 0 605 603 229 226 489 480 0 593 -15 605 83 0 229 606 0 17 229
 0 605 594 492 227 596 474 0 489 +17 492 0 605 229 603 231 604 490 0 596 +17 604
 0 348 601 233 243 492 490 0 603 -15 348 85 0 233 347 0 17 601 0 348 495 604 246
 245 476 0 0 -17 233 0 348 604 495 231 598 485 0 492 +17 495 0 348 233 601 234 6
00 493 0 598 +14 347 86 607 ?606 589 345 13 608 -0 0 606 589 195 81 1 607 1167 1
48 347 609 0 610 611 612 14 606 84 611 ?538 347 613 13 614 -0 0 538 347 195 14 5
89 88 610 ?347 191 615 13 192 -0 0 347 191 195 50 608 92 0 347 614 192 0 +.002 .
002 0 -1 0 0 0 0 1 13 195 34 0 0 0 0 0 0 17 189 14 189 622 616 ?557 0 545 13 617
 +557 538 557 0 195 81 1 616 1155 148 189 618 0 0 619 620 14 557 617 619 ?578 18
9 554 13 617 +578 189 578 189 195 50 617 213 0 538 621 622 0 +25e-5 .002 -25e-5
 1 0 0 0 0 -1 14 538 189 623 ?566 606 535 13 617 +189 578 566 606 195 81 1 623 1
169 148 538 624 0 611 625 626 14 566 193 625 ?516 538 563 13 621 +533 533 516 53
8 195 14 578 612 627 ?511 557 576 13 617 +538 557 511 557 195 81 1 627 1157 148
 578 628 0 619 629 630 14 511 602 629 ?569 578 510 13 631 +569 516 569 578 195 8
1 1 629 1158 148 511 632 0 627 633 634 14 569 597 633 ?523 511 567 13 631 +523 5
11 523 511 195 50 631 215 0 516 635 621 0 +.00175 .002 -25e-5 -1 0 0 0 0 1 14 51
6 197 636 ?552 566 514 13 631 +511 523 552 566 195 81 1 636 1171 148 516 637 0 6
25 638 639 14 552 201 638 ?640 516 549 13 635 +513 513 640 516 195 14 523 592 64
1 ?533 569 520 13 631 +516 569 533 569 195 81 1 641 1160 148 523 642 0 633 643 6
44 14 533 329 643 ?513 523 531 13 621 +566 566 513 523 195 81 1 643 1161 148 533
 645 0 641 646 647 14 513 298 646 ?561 533 507 13 635 +552 552 561 533 195 50 62
1 214 0 566 631 617 0 +25e-5 .002 -25e-5 0 0 -1 -1 0 0 81 1 646 1162 148 513 648
 0 643 649 650 14 561 150 649 ?590 513 602 13 622 -0 0 590 513 195 50 635 216 0
 552 651 631 0 +25e-5 .002 -.00175 0 0 1 1 0 0 50 651 503 0 640 652 635 0 +25e-5
 .00175 -.002 0 1 0 0 0 1 14 640 490 653 ?504 552 547 13 651 -573 573 504 552 19
5 50 652 505 0 504 654 651 0 +25e-5 25e-5 -.002 0 -1 0 0 0 -1 14 504 482 655 ?52
7 640 502 13 652 -527 527 527 640 195 50 654 787 0 329 656 652 0 +.002 .00175 -.
00175 0 0 -1 -1 0 0 14 329 763 657 ?540 658 324 13 654 -543 543 540 658 195 50 6
56 788 0 343 659 654 0 +.002 25e-5 -.00175 0 -1 361400724161835e-31 0 -361400724
161835e-31 -1 14 343 775 660 ?519 573 337 13 656 -540 540 519 573 195 50 659 789
 0 519 661 656 0 +.002 .00175 -25e-5 0 72280144832367e-30 1 0 -1 72280144832367e
-30 14 519 771 662 ?658 343 208 13 659 -581 581 658 343 195 50 661 790 0 658 0 6
59 0 +.002 .00175 -.00175 0 1 0 0 0 1 14 658 767 663 ?329 519 570 13 661 -585 58
5 329 519 195 81 1 663 1179 148 658 664 0 662 657 665 15 570 770 0 300 658 0 14
 585 743 666 ?543 540 584 13 661 -658 658 543 540 195 81 1 666 1182 148 585 667
 0 668 669 670 14 543 751 669 ?581 585 200 13 654 -329 329 581 585 195 14 540 73
5 668 ?585 329 539 13 656 -343 343 585 329 195 81 1 668 1181 148 540 671 0 657 6
66 672 81 1 671 1145 165 540 0 668 673 674 675 81 1 657 1180 148 329 676 0 663 6
68 677 83 3 672 .792156862745098 .819607843137255 .933333333333333 81 1 676 1133
 165 329 0 657 678 679 680 83 3 677 .792156862745098 .819607843137255 .933333333
333333 81 1 678 1131 165 504 0 655 681 676 682 81 1 679 1135 165 343 0 660 676 6
83 684 82 1 680 1026424965 81 1 660 1177 148 343 679 0 685 662 686 81 1 683 1137
 165 519 0 662 679 664 687 82 1 684 1026293893 81 1 662 1178 148 519 683 0 660 6
63 688 81 1 664 1139 165 658 0 663 683 667 689 82 1 687 1026162821 81 1 667 1141
 165 585 0 666 664 673 690 82 1 689 1026031749 81 1 673 1143 165 543 0 669 667 6
71 691 82 1 690 1033961605 81 1 669 1183 148 543 673 0 666 692 693 82 1 691 1032
913029 81 1 692 1184 148 581 694 0 669 0 695 83 3 693 .792156862745098 .81960784
3137255 .933333333333333 14 581 759 692 ?0 543 579 13 659 -519 519 0 543 195 81
 1 694 1153 165 581 0 692 696 0 697 83 3 695 .792156862745098 .819607843137255 .
933333333333333 81 1 696 1151 165 590 0 698 699 694 700 82 1 697 1030553733 14 5
90 130 698 ?191 561 595 13 701 +0 0 191 561 195 81 1 698 1164 148 590 696 0 649
 588 702 81 1 699 1149 165 527 0 703 674 696 704 82 1 700 413335675 14 527 458 7
03 ?573 504 525 13 652 -504 504 573 504 195 81 1 703 1175 148 527 699 0 655 685
 705 81 1 674 1147 165 573 0 685 671 699 706 82 1 704 991035525 14 573 474 685 ?
343 527 571 13 651 -640 640 343 527 195 81 1 685 1176 148 573 674 0 703 660 707
 82 1 706 987693189 83 3 707 .792156862745098 .819607843137255 .933333333333333
 81 1 655 1174 148 504 678 0 653 703 708 83 3 705 .792156862745098 .819607843137
255 .933333333333333 81 1 653 1173 148 640 681 0 638 655 709 83 3 708 .792156862
745098 .819607843137255 .933333333333333 81 1 681 1129 165 640 0 653 710 678 711
 81 1 638 1172 148 552 712 0 636 653 713 83 3 709 .792156862745098 .819607843137
255 .933333333333333 81 1 712 1118 165 552 0 638 637 642 714 83 3 713 .792156862
745098 .819607843137255 .933333333333333 81 1 637 1115 165 516 0 636 715 712 716
 81 1 642 1120 165 523 0 641 712 645 717 82 1 714 408813701 81 1 645 1123 165 53
3 0 643 642 648 718 82 1 717 1035010181 81 1 648 1125 165 513 0 646 645 710 719
 82 1 718 995295365 81 1 710 1127 165 561 0 649 648 681 720 82 1 719 985530501 8
1 1 649 1163 148 561 710 0 646 698 721 82 1 720 415170683 83 3 721 .792156862745
098 .819607843137255 .933333333333333 81 1 715 1112 165 569 0 633 632 637 722 82
 1 716 409075845 81 1 633 1159 148 569 715 0 629 641 723 81 1 632 1109 165 511 0
 629 628 715 724 82 1 722 1035468933 81 1 628 1106 165 578 0 627 725 632 726 82
 1 724 1035927685 81 1 725 1104 165 566 0 625 624 628 727 82 1 726 1037828229 81
 1 625 1170 148 566 725 0 623 636 728 81 1 624 1101 165 538 0 623 729 725 730 82
 1 727 409337989 81 1 729 1098 165 557 0 619 618 624 731 82 1 730 409600133 81 1
 619 1156 148 557 729 0 616 627 732 81 1 618 1095 165 189 0 616 733 729 734 82 1
 731 1038286981 81 1 733 1093 165 589 0 610 735 618 736 82 1 734 1038745733 81 1
 610 1166 148 589 733 0 588 607 737 81 1 735 1091 165 606 0 611 609 733 738 82 1
 736 397607043 81 1 611 1168 148 606 735 0 607 623 739 81 1 609 1089 165 347 0 6
07 740 735 741 82 1 738 397082755 81 1 740 1087 165 191 0 588 0 609 742 82 1 741
 397344901 81 1 588 1165 148 191 740 0 698 610 743 82 1 742 397869189 83 3 743 .
792156862745098 .819607843137255 .933333333333333 83 3 739 .792156862745098 .819
607843137255 .933333333333333 83 3 737 .792156862745098 .819607843137255 .933333
333333333 83 3 732 .792156862745098 .819607843137255 .933333333333333 83 3 728 .
792156862745098 .819607843137255 .933333333333333 83 3 723 .792156862745098 .819
607843137255 .933333333333333 82 1 711 981270661 83 3 702 .792156862745098 .8196
07843137255 .933333333333333 50 701 70 0 590 622 614 0 +0 0 0 0 -1 0 0 0 -1 50 6
22 3 0 561 617 701 0 +0 .002 0 0 -1 0 0 0 -1 50 614 91 0 606 701 608 0 +0 .002 -
.002 0 0 1 1 0 0 83 3 688 .792156862745098 .819607843137255 .933333333333333 83
 3 686 .792156862745098 .819607843137255 .933333333333333 82 1 682 981008517 82
 1 675 1036845189 83 3 670 .792156862745098 .819607843137255 .933333333333333 83
 3 665 .792156862745098 .819607843137255 .933333333333333 15 547 493 0 500 640 0
 17 500 0 547 546 426 295 550 499 0 422 +17 426 0 547 500 548 298 292 424 0 550
 +17 548 0 547 426 546 278 394 391 0 390 -17 292 0 510 506 334 278 426 424 0 548
 -17 394 0 613 397 390 215 548 391 0 0 +17 390 0 613 394 400 278 506 388 0 0 +15
 613 346 0 400 606 605 17 400 0 613 390 397 274 505 398 0 0 +17 397 0 613 400 39
4 288 219 395 0 0 +17 505 0 502 418 287 288 400 398 0 397 -83 3 650 .79215686274
5098 .819607843137255 .933333333333333 83 3 647 .792156862745098 .81960784313725
5 .933333333333333 83 3 644 .792156862745098 .819607843137255 .933333333333333 8
3 3 639 .792156862745098 .819607843137255 .933333333333333 83 3 634 .79215686274
5098 .819607843137255 .933333333333333 83 3 630 .792156862745098 .81960784313725
5 .933333333333333 83 3 626 .792156862745098 .819607843137255 .933333333333333 8
3 3 620 .792156862745098 .819607843137255 .933333333333333 50 192 93 0 589 608 1
4 0 +0 .002 0 0 0 -1 -1 0 0 15 615 366 0 574 589 599 17 574 0 615 530 575 207 40
5 403 0 0 -17 530 0 615 529 574 275 214 387 0 0 -17 575 0 615 574 529 282 408 40
6 0 0 -17 529 0 615 575 530 279 410 392 0 0 -17 214 0 520 521 277 207 530 387 0
 524 +83 3 612 .792156862745098 .819607843137255 .933333333333333 15 597 113 0 4
53 590 0 17 453 0 597 445 451 223 512 436 0 0 +17 445 0 597 448 453 258 536 432
 0 0 +17 451 0 597 453 448 251 515 449 0 0 +17 448 0 597 451 445 255 534 446 0 0
 +16 338 674 0 ?318 344 327 370 344 344 7 17 281 0 525 410 431 279 528 419 0 408
 +16 419 397 0 ?281 416 420 412 416 416 7 16 401 389 0 ?524 424 398 421 424 424
 7 17 320 0 570 349 300 309 330 365 0 325 -17 371 0 570 300 349 304 210 369 0 56
8 +17 330 0 324 326 325 298 320 365 0 334 +17 349 0 570 371 320 321 333 350 0 21
1 -17 210 0 208 206 306 321 371 369 0 349 -17 211 0 345 333 341 321 206 212 0 0
 +17 222 0 549 263 550 220 460 458 0 440 -17 225 0 507 512 503 223 509 443 0 536
 +16 443 293 0 ?225 454 441 452 454 454 7 16 461 309 0 ?257 462 458 459 462 462
 7 19 190 100 0 7 0 17 13 S0 74 20 188 4 0 0 694 186 692 10 0 0 0 0 0 0 0 0 0 0
 0 0 0 0 0 0 81 2 186 917 180 7 0 10 0 0 744 0 83 1 744 1 84 2 187 SC74 20 6 1 0
 0 2 0 0 0 0 0 0 0 0 0 0 0 0 0 0 0 0 0 0 0 1 0 
