**ABCDEFGHIJKLMNOPQRSTUVWXYZabcdefghijklmnopqrstuvwxyz**************************
**PARASOLID !"#$%&'()*+,-./:;<=>?@[\]^_`{|}~0123456789**************************
**PART1;
FORMAT=text;
GUISE=transmit;
KEY=unicode filename;
FILE=unicode filename;
DATE=unknown;
**PART2;
SCH=SCH_3101188_31100;
USFLD_SIZE=0;
**PART3;
**END_OF_HEADER*****************************************************************
T51 : TRANSMIT FILE created by modeller version 310118817 SCH_2700000_261050 10
 1 4 2 3 0 0 0 0 0 1e3 1e-8 0 0 4 1 0 1 5 81 1 2 4 6 1 0 0 7 0 8 70 3 0 4 T1 0 0
 1 20 1 9 9 11 5 1 7 1 4 10 1 0 0 0 0 81 1 7 3 6 5 0 0 0 2 11 10 4 4 12 13 0 0 0
 0 0 1e3 1e-8 5 1 0 1 0 1 14 100 10 2 5 0 0 1 0 0 0 1 0 0 0 1 .002 0 0 1 1 ?81 1
 12 4 15 4 16 0 0 0 17 70 13 0 4 T4 0 0 3 20 1 18 18 11 14 1 0 1 19 0 4 0 0 0 0
 12 19 425 20 21 0 0 0 0 1e3 1e-8 14 0 0 1 0 1 1 22 23 24 25 26 27 28 0 0 0 0 0
 0 0 81 1 20 425 6 19 29 0 30 0 31 70 21 0 4 T19 0 0 6 20 1 32 32 13 22 4 0 19 0
 33 0 0 34 0 51 23 164 0 35 36 0 0 +-.002 0 .001 0 0 -1 4e-4 1 0 0 30 24 264 0 3
7 38 0 0 +-.0016 .001 .002 0 1 0 29 25 204 0 39 40 0 -4e-4 .002 4e-4 19 26 2 0 1
9 34 0 41 V0 16 27 7 42 ?43 0 44 45 0 0 19 18 28 9 0 46 0 47 48 ?19 17 46 0 49 5
0 51 28 52 44 0 43 -18 47 11 0 53 28 54 55 ?19 29 48 183 0 28 56 57 -4e-4 163286
2398863135e-35 4e-4 29 56 182 0 58 59 48 -.0002828427124745505 .0017171572875251
75 .0002828427124745505 29 57 184 0 60 48 61 -4e-4 .0016 .002 18 60 81 0 62 63 6
4 57 ?19 29 61 185 0 64 57 65 -4e-4 4e-4 .002 18 64 84 0 66 60 67 61 ?19 29 65 1
86 0 68 61 69 -.002 4e-4 4e-4 18 68 113 0 70 71 72 65 ?19 29 69 187 0 73 65 74 -
.0016 .002 .0016 18 73 97 0 75 76 77 69 ?19 29 74 188 0 78 69 79 -4e-4 .002 .001
6 18 78 66 0 80 81 82 74 ?19 29 79 189 0 83 74 84 1902796186388005e-34 4e-4 .001
6 18 83 15 0 85 54 86 79 ?19 29 84 190 0 87 79 88 -.002 .002 0 18 87 42 0 89 90
 91 84 ?19 29 88 191 0 67 84 92 -.0016 4e-4 .002 18 67 86 0 93 64 94 88 ?19 29 9
2 192 0 95 88 96 -.002 .0016 4e-4 18 95 112 0 97 77 98 92 ?19 29 96 193 0 98 92
 99 -.002 .0016 .0016 18 98 115 0 100 95 71 96 ?19 29 99 194 0 71 96 101 -.002 4
e-4 .0016 18 71 117 0 102 98 68 99 ?19 29 101 195 0 72 99 103 -.0017171572875253
8 .000282842712474619 .00171715728752538 18 72 126 0 104 68 105 101 ?19 29 103 1
96 0 77 101 106 -.0016 -1632862398863135e-35 .0016 18 77 104 0 107 73 95 103 ?19
 29 106 197 0 108 103 109 -.00171715728752538 .00171715728752538 .00028284271247
4619 18 108 52 0 110 111 58 106 ?19 29 109 198 0 90 106 112 -.002 0 0 18 90 39 0
 113 114 87 109 ?19 29 112 199 0 81 109 55 -.000282842712474619 .001717157287525
38 .00171715728752538 18 81 64 0 115 116 78 112 ?19 29 55 200 0 47 112 117 -4e-4
 -1632862398863135e-35 .0016 29 117 201 0 86 55 118 870643278626907e-34 4e-4 4e-
4 18 86 17 0 119 83 120 117 ?19 29 118 202 0 121 117 40 -.00171715728752538 .000
282842712474619 .000282842712474619 18 121 28 0 122 123 124 118 ?19 29 40 203 0
 116 118 25 1902796186388005e-34 .0016 .0016 18 116 62 0 125 126 81 40 ?19 17 12
5 0 127 128 129 116 115 130 0 131 +18 126 60 0 132 39 116 133 ?19 17 132 0 134 1
35 136 126 131 137 0 138 -18 39 49 0 139 58 126 25 ?19 29 133 171 0 126 140 141
 870643278626907e-34 .0016 4e-4 29 140 170 0 142 143 133 -4e-4 .0016 13483002764
33782e-34 29 141 172 0 63 133 144 0 0 .002 18 63 73 0 145 82 60 141 ?19 29 144 1
73 0 146 141 147 -.002 .002 .002 18 146 92 0 148 94 76 144 ?19 29 147 174 0 94 1
44 149 -.0016 .0016 .002 18 94 82 0 150 67 146 147 ?19 29 149 175 0 105 147 151
 -.00171715728752538 .00171715728752538 .00171715728752538 18 105 131 0 152 72 0
 149 ?19 29 151 176 0 82 149 153 0 .002 .002 18 82 71 0 154 78 63 151 ?19 29 153
 177 0 76 151 155 -.002 0 .002 18 76 90 0 156 146 73 153 ?19 29 155 178 0 120 15
3 157 -.0002828427124745505 .000282842712474824 .0002828427124745505 18 120 8 0
 158 86 159 155 ?19 29 157 179 0 159 155 160 -4e-4 4e-4 1348300276433782e-34 18
 159 24 0 161 120 123 157 ?19 29 160 180 0 114 157 59 -.0016 .0016 1642377292138
805e-34 18 114 35 0 162 142 90 160 ?19 29 59 181 0 91 160 56 0 .002 0 18 91 44 0
 163 87 164 59 ?19 17 163 0 165 154 166 91 167 168 0 169 +18 164 40 0 170 91 111
 171 ?19 17 170 0 172 173 174 164 113 175 0 167 +18 111 50 0 176 164 108 177 ?19
 29 171 167 0 164 178 177 0 0 0 29 178 166 0 124 179 171 -.0016 1632862398863135
e-35 4e-4 29 177 168 0 111 171 143 -.0016 .002 4e-4 29 143 169 0 54 177 140 -.00
0282842712474619 .000282842712474619 .00171715728752538 18 54 13 0 180 47 83 143
 ?19 17 180 0 181 182 52 54 53 183 0 184 -15 181 6 0 43 33 0 17 182 0 181 185 18
0 83 184 186 0 128 +17 52 0 181 180 43 47 46 44 0 51 +17 53 0 187 107 188 47 180
 183 0 52 +16 183 12 189 ?53 190 191 192 0 0 19 17 184 0 127 193 128 54 182 186
 0 188 -15 127 120 0 128 194 0 17 193 0 127 195 184 64 188 190 0 0 -17 128 0 127
 184 125 83 136 196 0 0 +16 186 14 197 ?182 44 198 199 0 0 19 17 188 0 187 53 20
0 54 193 190 0 0 +15 187 124 0 107 201 0 17 200 0 187 188 202 64 203 204 0 193 -
16 190 121 205 ?188 206 183 207 0 0 19 81 1 205 403 208 190 209 0 210 189 211 16
 206 105 210 ?107 130 190 212 0 0 19 32 207 207 0 190 213 214 0 +0 0 .002 -.7071
06781186548 -.707106781186548 0 -.707106781186548 .707106781186548 0 .0005656854
24949238 4e-4 32 213 206 0 215 216 207 0 +-.002 0 .002 -.707106781186548 0 -.707
106781186548 .707106781186548 0 -.707106781186548 .000565685424949238 4e-4 30 21
4 208 0 217 207 218 0 +0 -.005 .002 0 1 0 16 217 72 219 ?220 221 222 214 0 0 19
 32 218 209 0 191 214 223 0 +-.002 0 .002 -.707106781186548 .707106781186548 0 .
707106781186548 .707106781186548 0 .000565685424949238 4e-4 16 191 127 224 ?225
 183 226 218 0 0 19 30 223 210 0 198 218 227 0 +-.001 4e-4 1165173073296784e-34
 -1 0 0 16 198 25 228 ?229 186 230 223 0 0 19 30 227 211 0 168 223 231 0 +0 -.00
5 0 0 1 0 16 168 45 232 ?163 233 234 227 0 0 19 30 231 212 0 235 227 236 0 +-.00
2 4e-4 .001 0 0 1 16 235 118 237 ?102 238 215 231 0 0 19 30 236 213 0 239 231 24
0 0 +-.002 -.005 .002 0 1 0 16 239 93 241 ?148 242 243 236 0 0 19 30 240 214 0 1
37 236 244 0 +1251427837594872e-34 .0016 .001 0 0 1 16 137 61 245 ?131 246 233 2
40 0 0 19 30 244 215 0 247 240 192 0 +-.001 .0016 .002 -1 0 0 16 247 80 248 ?150
 226 249 244 0 0 19 32 192 216 0 183 244 250 0 +0 0 .002 -.707106781186548 0 .70
7106781186548 .707106781186547 0 .707106781186548 .000565685424949238 4e-4 32 25
0 217 0 246 192 212 0 +0 .002 0 0 .707106781186548 .707106781186548 0 .707106781
186548 -.707106781186548 .000565685424949238 4e-4 16 246 59 251 ?138 252 137 250
 0 0 19 30 212 218 0 206 250 253 0 +-.001 0 .0016 -1 0 0 30 253 219 0 175 212 25
4 0 +0 0 0 1 0 -1165173073296784e-31 16 175 38 255 ?170 256 242 253 0 0 19 32 25
4 220 0 130 253 257 0 +0 .002 .002 0 -.707106781186548 .707106781186548 0 .70710
6781186548 .707106781186548 .000565685424949238 4e-4 16 130 63 258 ?125 259 206
 254 0 0 19 30 257 221 0 260 254 261 0 +1251427837594872e-34 4e-4 .001 0 0 1 16
 260 16 262 ?85 263 204 257 0 0 19 30 261 222 0 44 257 199 0 +-4e-4 0 .001 0 0 1
 16 44 10 264 ?52 27 186 261 0 0 19 32 199 223 0 186 261 265 0 +0 0 .002 0 -.707
106781186548 -.707106781186548 0 -.707106781186548 .707106781186548 .00056568542
4949238 4e-4 32 265 224 0 266 199 267 0 +-.002 .002 .002 0 .707106781186548 -.70
7106781186548 0 .707106781186548 .707106781186548 .000565685424949238 4e-4 16 26
6 130 268 ?269 270 271 265 0 0 19 32 267 225 0 226 265 272 0 +-.002 0 .002 0 .70
7106781186548 .707106781186548 0 .707106781186548 -.707106781186548 .00056568542
4949238 4e-4 16 226 133 273 ?274 191 247 267 0 0 19 32 272 226 0 238 267 275 0 +
-.002 0 0 0 -.707106781186548 .707106781186548 0 .707106781186548 .7071067811865
48 .000565685424949238 4e-4 16 238 142 276 ?277 278 235 272 0 0 19 32 275 227 0
 279 272 280 0 +0 0 0 0 .707106781186548 -.707106781186548 0 -.707106781186548 -
.707106781186548 .000565685424949238 4e-4 16 279 18 281 ?119 282 0 275 0 0 19 30
 280 228 0 263 275 283 0 +500571135037949e-34 .001 4e-4 0 -1 0 16 263 76 284 ?13
5 234 260 280 0 0 19 30 283 229 0 221 280 285 0 +0 0 .002 1 0 1165173073296784e-
31 16 221 89 286 ?287 37 217 283 0 0 19 30 285 230 0 222 283 288 0 +-4e-4 .002 .
001 0 0 1 16 222 67 289 ?80 217 290 285 0 0 19 30 288 231 0 242 285 291 0 +-.002
 .002 .005 0 0 -1 16 242 100 292 ?293 175 239 288 0 0 19 30 291 232 0 290 288 29
4 0 +-.001 .002 .0016 -1 0 0 16 290 96 295 ?296 222 297 291 0 0 19 32 294 233 0
 278 291 298 0 +-.002 .002 0 0 -.707106781186548 -.707106781186548 0 .7071067811
86548 -.707106781186548 .000565685424949238 4e-4 16 278 139 299 ?300 301 238 294
 0 0 19 30 298 234 0 302 294 303 0 +0 .002 .002 1 0 1165173073296784e-31 16 302
 91 304 ?305 297 306 298 0 0 19 32 303 235 0 282 298 307 0 +0 0 0 .7071067811865
48 .707106781186548 0 -.707106781186548 .707106781186548 0 .000565685424949238 4
e-4 16 282 23 308 ?309 215 279 303 0 0 19 30 307 236 0 234 303 310 0 +0 0 .005 0
 0 -1 16 234 74 311 ?166 168 263 307 0 0 19 30 310 237 0 270 307 312 0 +-.0016 .
002 .001 0 0 1 16 270 98 313 ?75 314 266 310 0 0 19 32 312 238 0 259 310 315 0 +
0 .002 .002 .707106781186548 -.707106781186548 0 .707106781186548 .7071067811865
48 0 .000565685424949238 4e-4 16 259 122 316 ?129 317 130 312 0 0 19 30 315 239
 0 318 312 319 0 +-.001 .002 4e-4 -1 0 0 16 318 48 320 ?321 322 323 315 0 0 19 3
0 319 240 0 271 315 324 0 +-.002 .001 4e-4 0 -1 0 16 271 111 325 ?326 266 327 31
9 0 0 19 30 324 241 0 328 319 329 0 +-.002 -.005 0 0 1 0 16 328 41 330 ?331 332
 322 324 0 0 19 32 329 242 0 323 324 333 0 +0 .002 0 -.707106781186548 .70710678
1186548 0 -.707106781186548 -.707106781186548 0 .000565685424949238 4e-4 16 323
 54 334 ?335 318 252 329 0 0 19 32 333 243 0 230 329 336 0 +-.002 0 0 .707106781
186548 -.707106781186548 0 -.707106781186548 -.707106781186548 0 .00056568542494
9238 4e-4 16 230 27 337 ?338 198 339 333 0 0 19 30 336 244 0 340 333 341 0 +-.00
2 .001 .0016 0 -1 0 16 340 116 342 ?343 243 196 336 0 0 19 32 341 245 0 314 336
 344 0 +-.002 .002 0 -.707106781186548 0 .707106781186548 -.707106781186548 0 -.
707106781186548 .000565685424949238 4e-4 16 314 51 345 ?176 346 270 341 0 0 19 3
0 344 246 0 347 341 45 0 +-4e-4 .001 466069229318714e-34 0 1 0 16 347 32 348 ?34
9 339 332 344 0 0 19 32 45 247 0 27 344 350 0 +0 0 0 .707106781186548 0 .7071067
81186548 .707106781186548 0 -.707106781186548 .000565685424949238 4e-4 32 350 24
8 0 339 45 351 0 +-.002 0 0 .707106781186548 0 -.707106781186548 .70710678118654
8 0 .707106781186547 .000565685424949238 4e-4 16 339 29 352 ?353 230 347 350 0 0
 19 30 351 249 0 204 350 354 0 +-.001 4e-4 .002 -1 0 0 16 204 85 355 ?203 260 37
 351 0 0 19 30 354 250 0 297 351 356 0 +0 .002 .005 0 0 -1 16 297 70 357 ?358 29
0 302 354 0 0 19 30 356 251 0 243 354 359 0 +-.002 .0016 .001 0 0 1 16 243 114 3
60 ?361 239 340 356 0 0 19 32 359 252 0 249 356 362 0 +-.002 .002 .002 .70710678
1186548 .707106781186548 0 -.707106781186548 .707106781186548 0 .000565685424949
238 4e-4 16 249 132 363 ?364 247 346 359 0 0 19 32 362 253 0 301 359 365 0 +-.00
2 .002 0 -.707106781186548 -.707106781186548 0 -.707106781186548 .70710678118654
8 0 .000565685424949238 4e-4 16 301 53 366 ?110 327 278 362 0 0 19 30 365 254 0
 306 362 367 0 +-.001 0 4e-4 -1 0 0 16 306 21 368 ?50 302 369 365 0 0 19 30 367
 255 0 369 365 370 0 +-.0016 0 .001 0 0 1 16 369 103 371 ?372 306 256 367 0 0 19
 30 370 256 0 322 367 373 0 +0 .002 0 1 0 -1165173073296784e-31 16 322 43 374 ?1
69 328 318 370 0 0 19 32 373 257 0 346 370 375 0 +-.002 .002 .002 .7071067811865
48 0 .707106781186548 .707106781186548 0 -.707106781186548 .000565685424949238 4
e-4 16 346 136 376 ?377 249 314 373 0 0 19 30 375 258 0 327 373 378 0 +-.0016 .0
01 1864276917274855e-34 0 1 0 16 327 36 379 ?162 271 301 375 0 0 19 30 378 259 0
 317 375 380 0 +-4e-4 .001 .002 0 1 0 16 317 83 381 ?195 196 259 378 0 0 19 32 3
80 260 0 252 378 382 0 +0 .002 0 -.707106781186548 0 -.707106781186548 .70710678
1186548 0 -.707106781186548 .000565685424949238 4e-4 16 252 56 383 ?139 323 246
 380 0 0 19 30 382 261 0 332 380 384 0 +-.001 .0016 1165173073296784e-34 -1 0 0
 16 332 34 385 ?386 347 328 382 0 0 19 32 384 262 0 233 382 38 0 +0 .002 .002 .7
07106781186548 0 -.707106781186548 .707106781186548 0 .707106781186548 .00056568
5424949238 4e-4 16 233 65 387 ?388 137 168 384 0 0 19 30 38 263 0 256 384 24 0 +
-.002 0 .005 0 0 -1 16 256 107 389 ?174 369 175 38 0 0 19 81 1 389 392 208 256 3
90 0 371 255 391 17 174 0 172 170 392 90 393 256 0 0 +15 172 106 0 173 394 0 17
 392 0 172 174 173 76 287 221 0 393 -17 393 0 395 148 396 76 174 256 0 0 -15 395
 109 0 293 397 398 17 148 0 395 293 393 146 156 239 0 399 +17 396 0 395 393 293
 90 331 328 0 174 -17 293 0 395 396 148 87 400 242 0 0 +17 331 0 401 169 113 87
 396 328 0 293 +15 401 37 0 113 402 0 17 169 0 401 167 331 91 89 322 0 358 +17 1
13 0 401 331 167 90 170 175 0 396 -17 167 0 401 113 169 164 163 168 0 166 -17 16
6 0 165 163 145 164 173 234 0 0 +15 165 69 0 163 403 134 17 145 0 165 166 154 63
 220 217 0 173 -17 173 0 172 392 170 63 166 234 0 287 -17 287 0 404 220 156 63 3
92 221 0 0 +15 404 88 0 287 405 0 17 220 0 404 399 287 82 145 217 0 305 +17 156
 0 404 287 399 76 148 239 0 392 -17 399 0 404 156 220 146 305 302 0 400 -17 305
 0 406 358 400 82 399 302 0 0 +17 400 0 406 305 89 146 293 242 0 0 -15 406 99 0
 358 407 0 17 89 0 406 400 358 87 169 322 0 331 -17 358 0 406 89 305 91 154 297
 0 0 +17 154 0 165 145 163 82 358 297 0 220 -14 407 94 408 ?394 405 409 22 410 -
0 0 394 405 41 81 1 408 351 208 407 411 0 412 413 414 14 394 101 413 ?397 407 49
 22 415 -0 0 397 407 41 14 405 78 412 ?407 403 416 22 417 +0 0 407 403 41 15 409
 95 0 418 407 406 50 410 162 0 407 419 36 0 +0 .002 .005 0 -1 0 0 0 1 13 41 3 0
 0 0 0 0 0 26 33 14 33 5 420 ?421 0 181 22 422 +0 0 421 0 41 81 1 420 344 208 33
 423 0 0 424 425 14 421 19 424 ?402 33 426 22 427 +0 0 402 33 41 51 422 156 0 33
 428 429 0 +0 0 .001 0 0 -1 4e-4 -1 0 0 51 428 155 0 430 415 422 0 +-.002 .001 .
002 0 -1 0 4e-4 0 0 1 51 429 157 0 431 422 432 0 +-.001 .002 0 1 0 0 4e-4 0 0 -1
 14 431 46 433 ?434 402 435 22 429 +0 0 434 402 41 50 432 158 0 402 429 427 0 +0
 -.005 0 -1165173073296784e-31 0 -1 -1 0 1165173073296784e-31 14 402 30 436 ?431
 421 437 22 432 +0 0 431 421 41 51 427 159 0 421 432 438 0 +-.001 0 0 1 0 0 4e-4
 0 0 -1 51 438 160 0 194 427 419 0 +0 .001 .002 0 -1 0 4e-4 0 0 1 14 194 119 439
 ?201 397 127 22 438 +0 0 201 397 41 51 419 161 0 201 438 410 0 +-.001 0 .002 1
 0 0 4e-4 0 0 1 14 201 123 440 ?430 194 187 22 419 +0 0 430 194 41 81 1 440 355
 208 201 441 0 439 442 443 14 430 128 442 ?444 201 445 22 428 +0 0 444 201 41 81
 1 442 356 208 430 446 0 440 447 448 14 444 134 447 ?449 430 450 22 451 +0 0 449
 430 41 15 445 129 0 100 430 0 17 100 0 445 152 274 98 343 340 0 361 -17 152 0 4
45 452 100 105 269 266 0 364 -17 274 0 445 100 225 71 453 226 0 0 +17 343 0 398
 70 361 71 100 340 0 274 +17 361 0 398 343 97 98 454 243 0 269 +15 398 110 0 97
 397 0 17 97 0 398 361 70 95 326 271 0 454 -17 454 0 455 456 269 95 361 243 0 30
0 -17 269 0 455 454 457 98 152 266 0 0 +15 455 138 0 176 449 0 17 457 0 455 269
 75 105 377 346 0 0 -17 75 0 455 457 176 73 458 270 0 296 +17 377 0 450 459 364
 73 457 346 0 0 +15 450 135 0 459 444 0 17 459 0 450 460 377 78 296 290 0 0 -17
 364 0 450 377 150 105 452 249 0 457 +17 150 0 450 364 461 94 62 247 0 462 +17 4
52 0 445 93 152 94 364 249 0 0 -17 93 0 445 225 452 67 462 37 0 203 -17 225 0 44
5 274 93 72 202 191 0 453 +17 462 0 416 62 203 94 93 37 0 452 +16 37 87 463 ?462
 204 221 24 0 0 19 17 203 0 416 462 66 67 200 204 0 202 +15 416 79 0 62 405 404
 17 66 0 416 203 62 64 195 317 0 200 -17 202 0 187 200 104 67 225 191 0 0 -17 10
4 0 187 202 107 72 464 215 0 225 -17 107 0 187 104 53 77 51 206 0 372 +17 464 0
 465 466 453 77 104 215 0 0 +16 215 125 467 ?464 235 282 213 0 0 19 81 1 467 419
 208 215 468 0 237 308 469 80 1 208 0 470 8001 0 0 0 0 3 5 0 0 0 FFFFTFTFFFFFFF2
 81 1 468 266 6 215 0 467 471 209 472 81 1 237 418 208 235 473 0 276 467 474 81
 1 308 420 208 282 475 0 467 281 476 83 3 469 .686274509803922 .56078431372549 .
56078431372549 81 1 475 295 6 282 0 308 477 478 479 81 1 281 421 208 279 480 0 3
08 0 481 83 3 476 .686274509803922 .56078431372549 .56078431372549 81 1 480 287
 6 279 0 281 482 483 484 83 3 481 .686274509803922 .56078431372549 .560784313725
49 80 1 6 485 486 8017 0 0 0 0 0 0 0 0 0 TTTTTTTTTTTTTF3 81 1 482 286 6 238 0 27
6 487 480 488 81 1 483 288 6 263 0 284 480 489 490 84 5 484 0:16181 1 284 380 20
8 263 483 0 311 262 491 81 1 489 289 6 221 0 286 483 492 493 84 5 490 0:16481 1
 286 384 208 221 489 0 463 219 494 81 1 492 290 6 222 0 289 489 495 496 84 5 493
 0:22181 1 289 386 208 222 492 0 219 295 497 81 1 495 291 6 242 0 292 492 498 49
9 84 5 496 0:12281 1 292 394 208 242 495 0 255 241 500 81 1 498 292 6 290 0 295
 495 501 502 84 5 499 0:12581 1 295 387 208 290 498 0 289 357 503 81 1 501 293 6
 278 0 299 498 477 504 84 5 502 0:26081 1 299 416 208 278 501 0 366 276 505 81 1
 477 294 6 302 0 304 501 475 506 84 5 504 0:25181 1 304 389 208 302 477 0 357 36
8 507 84 5 506 0:24281 1 357 388 208 297 508 0 295 304 509 81 1 368 390 208 306
 510 0 304 371 511 83 3 507 .686274509803922 .56078431372549 .56078431372549 81
 1 510 314 6 306 0 368 512 513 514 81 1 371 391 208 369 513 0 368 389 515 83 3 5
11 .686274509803922 .56078431372549 .56078431372549 81 1 513 315 6 369 0 371 510
 516 517 83 3 515 .686274509803922 .56078431372549 .56078431372549 81 1 516 316
 6 322 0 374 513 518 519 84 5 517 0:21581 1 374 371 208 322 516 0 330 320 520 81
 1 518 317 6 346 0 376 516 521 522 84 5 519 0:21281 1 376 409 208 346 518 0 363
 345 523 81 1 521 318 6 327 0 379 518 524 525 84 5 522 0:26681 1 379 414 208 327
 521 0 325 366 526 81 1 524 319 6 317 0 381 521 527 528 84 5 525 0:20681 1 381 3
99 208 317 524 0 529 316 530 81 1 527 320 6 252 0 383 524 531 532 84 5 528 0:227
81 1 383 374 208 252 527 0 334 251 533 81 1 531 321 6 332 0 385 527 534 535 84 5
 532 0:10781 1 385 369 208 332 531 0 348 330 536 81 1 534 322 6 233 0 387 531 39
0 537 84 5 535 0:20381 1 387 377 208 233 534 0 245 232 538 81 1 390 323 6 256 0
 389 534 539 540 84 5 537 0:11981 1 539 324 6 37 0 463 390 541 542 84 5 540 0:13
181 1 463 383 208 37 539 0 355 286 543 81 1 541 325 6 544 0 545 539 546 547 84 4
 542 0:9814 544 140 545 ?35 449 548 22 549 +0 0 35 449 41 81 1 545 359 208 544 5
41 0 550 551 552 81 1 546 326 6 405 0 412 541 553 554 84 4 547 0:7481 1 412 350
 208 405 546 0 555 408 556 81 1 553 327 6 444 0 447 546 557 558 84 4 554 0:6881
 1 447 357 208 444 553 0 442 550 559 81 1 557 328 6 560 0 561 553 562 563 84 4 5
58 0:8314 560 145 561 ?0 35 564 22 565 +0 0 0 35 41 81 1 561 361 208 560 557 0 5
51 42 566 81 1 562 329 6 434 0 567 557 568 569 84 4 563 0:4714 434 57 567 ?403 4
31 570 22 571 +0 0 403 431 41 81 1 567 348 208 434 562 0 433 555 572 81 1 568 33
0 6 397 0 573 562 574 575 84 4 569 0:3814 397 108 573 ?194 394 395 22 576 +0 0 1
94 394 41 81 1 573 353 208 397 568 0 413 439 577 81 1 574 331 6 449 0 550 568 57
8 579 84 4 575 0:4114 449 137 550 ?544 444 455 22 580 +0 0 544 444 41 81 1 550 3
58 208 449 574 0 447 545 581 81 1 578 332 6 394 0 413 574 446 582 84 4 579 0:868
1 1 413 352 208 394 578 0 408 573 583 81 1 446 333 6 430 0 442 578 423 584 84 4
 582 0:5981 1 423 334 6 33 0 420 446 585 586 84 4 584 0:3581 1 585 335 6 431 0 4
33 423 587 588 84 4 586 0:4481 1 433 347 208 431 585 0 436 567 589 81 1 587 336
 6 402 0 436 585 590 591 84 4 588 0:7781 1 436 346 208 402 587 0 424 433 592 81
 1 590 337 6 421 0 424 587 593 594 84 4 591 0:5681 1 424 345 208 421 590 0 420 4
36 595 81 1 593 338 6 194 0 439 590 441 596 84 4 594 0:5081 1 439 354 208 194 59
3 0 573 440 597 81 1 441 339 6 201 0 440 593 411 598 84 4 596 0:6281 1 411 340 6
 407 0 408 441 599 600 84 4 598 0:6581 1 599 341 6 403 0 555 411 30 601 84 4 600
 0:8014 403 68 555 ?405 434 165 22 36 +0 0 405 434 41 81 1 555 349 208 403 599 0
 567 412 602 81 1 30 342 6 35 0 551 599 20 603 84 4 601 0:5314 35 143 551 ?560 5
44 465 22 23 +0 0 560 544 41 81 1 551 360 208 35 30 0 545 561 604 84 4 603 0:718
3 3 604 .686274509803922 .56078431372549 .56078431372549 15 465 144 0 122 35 0 1
7 122 0 465 277 466 121 353 339 0 338 -17 277 0 465 102 122 68 605 238 0 0 +17 4
66 0 465 122 464 124 372 369 0 0 -17 353 0 426 606 338 124 122 339 0 466 +17 338
 0 426 353 229 121 607 230 0 605 +15 426 20 0 606 421 0 17 229 0 426 338 161 123
 608 198 0 609 +17 607 0 548 162 605 123 338 230 0 229 -17 605 0 548 607 326 121
 277 238 0 0 -15 548 141 0 326 544 0 17 326 0 548 605 300 68 97 271 0 277 +17 30
0 0 548 326 110 95 456 278 0 0 +17 110 0 548 300 162 108 610 301 0 611 +17 456 0
 455 176 454 108 300 278 0 0 -17 176 0 455 75 456 111 611 314 0 321 +17 611 0 43
5 610 321 108 176 314 0 456 -17 321 0 435 611 139 111 418 318 0 458 +15 435 47 0
 321 431 0 17 139 0 435 321 335 39 612 252 0 418 +17 418 0 409 80 458 39 321 318
 0 613 -17 458 0 409 418 296 111 75 270 0 0 -17 296 0 409 458 80 73 459 290 0 37
7 +17 80 0 409 296 418 78 613 222 0 388 +17 613 0 570 612 388 39 80 222 0 0 -17
 388 0 570 613 115 78 460 233 0 459 +15 570 58 0 612 434 0 17 115 0 570 388 131
 81 125 130 0 460 -17 460 0 450 461 459 81 388 233 0 129 -17 461 0 450 150 460 6
0 129 259 0 0 -17 129 0 127 125 195 81 461 259 0 0 +17 195 0 127 129 193 60 66 3
17 0 461 +17 131 0 570 115 138 116 132 137 0 136 +17 138 0 570 131 612 126 614 2
46 0 615 +17 136 0 134 132 85 116 128 196 0 0 -15 134 75 0 132 403 0 17 85 0 134
 136 135 83 185 260 0 182 +16 196 77 529 ?128 340 317 216 0 0 19 81 1 529 398 20
8 196 471 0 342 381 616 30 216 205 0 196 0 213 0 +2002284540151795e-34 .001 .001
6 0 -1 0 81 1 471 265 6 196 0 529 0 468 617 81 1 342 397 208 340 618 0 360 529 6
19 83 3 616 .686274509803922 .56078431372549 .56078431372549 81 1 618 304 6 340
 0 342 620 621 622 81 1 360 396 208 243 623 0 241 342 624 83 3 619 .686274509803
922 .56078431372549 .56078431372549 81 1 623 311 6 243 0 360 508 625 626 81 1 24
1 395 208 239 627 0 292 360 628 83 3 624 .686274509803922 .56078431372549 .56078
431372549 81 1 627 273 6 239 0 241 473 629 630 83 3 628 .686274509803922 .560784
31372549 .56078431372549 81 1 473 272 6 235 0 237 631 627 632 81 1 629 274 6 137
 0 245 627 633 634 84 5 630 0:13481 1 245 376 208 137 629 0 251 387 635 81 1 633
 275 6 247 0 248 629 636 637 84 5 634 0:11381 1 248 407 208 247 633 0 273 363 63
8 81 1 636 276 6 183 0 189 633 639 640 84 5 637 0:23981 1 189 404 208 183 636 0
 205 224 641 81 1 639 277 6 246 0 251 636 642 643 84 5 640 0:15281 1 251 375 208
 246 639 0 383 245 644 81 1 642 278 6 206 0 210 639 645 646 84 5 643 0:11081 1 2
10 402 208 206 642 0 258 205 647 81 1 645 279 6 175 0 255 642 648 649 84 5 646 0
:21881 1 255 393 208 175 645 0 389 292 650 81 1 648 280 6 130 0 258 645 651 652
 84 5 649 0:20981 1 258 401 208 130 648 0 316 210 653 81 1 651 281 6 260 0 262 6
48 654 655 84 5 652 0:11681 1 262 381 208 260 651 0 284 355 656 81 1 654 282 6 4
4 0 264 651 657 658 84 5 655 0:15881 1 264 363 208 44 654 0 42 197 659 81 1 657
 283 6 186 0 197 654 660 661 84 5 658 0:14981 1 197 364 208 186 657 0 264 228 66
2 81 1 660 284 6 266 0 268 657 487 663 84 5 661 0:15581 1 268 412 208 266 660 0
 313 325 664 81 1 487 285 6 226 0 273 660 482 665 84 4 663 0:9281 1 273 406 208
 226 487 0 224 248 666 84 5 665 0:10481 1 224 405 208 191 667 0 189 273 668 83 3
 666 .686274509803922 .56078431372549 .56078431372549 81 1 667 269 6 191 0 224 6
69 670 671 83 3 668 .686274509803922 .56078431372549 .56078431372549 81 1 669 26
8 6 217 0 219 209 667 672 81 1 670 270 6 198 0 228 667 631 673 84 5 671 0:10181
 1 228 365 208 198 670 0 197 337 674 81 1 631 271 6 168 0 232 670 473 675 84 5 6
73 0:17981 1 232 378 208 168 631 0 387 311 676 84 5 675 0:18881 1 311 379 208 23
4 478 0 232 284 677 83 3 676 .686274509803922 .56078431372549 .56078431372549 81
 1 478 296 6 234 0 311 475 678 679 83 3 677 .686274509803922 .56078431372549 .56
078431372549 81 1 678 297 6 270 0 313 478 680 681 84 5 679 0:19781 1 313 411 208
 270 678 0 345 268 682 81 1 680 298 6 259 0 316 678 683 684 84 5 681 0:26381 1 3
16 400 208 259 680 0 381 258 685 81 1 683 299 6 318 0 320 680 686 687 84 5 684 0
:23081 1 320 372 208 318 683 0 374 334 688 81 1 686 300 6 271 0 325 683 689 690
 84 5 687 0:25481 1 325 413 208 271 686 0 268 379 691 81 1 689 301 6 328 0 330 6
86 692 693 84 5 690 0:13781 1 330 370 208 328 689 0 385 374 694 81 1 692 302 6 3
23 0 334 689 620 695 84 5 693 0:12881 1 334 373 208 323 692 0 320 383 696 81 1 6
20 303 6 230 0 337 692 618 697 84 5 695 0:16781 1 337 366 208 230 620 0 228 352
 698 84 5 697 0:18281 1 352 367 208 339 699 0 337 348 700 83 3 698 .686274509803
922 .56078431372549 .56078431372549 81 1 699 308 6 339 0 352 701 702 703 81 1 34
8 368 208 347 704 0 352 385 705 83 3 700 .686274509803922 .56078431372549 .56078
431372549 81 1 704 306 6 347 0 348 621 701 706 83 3 705 .686274509803922 .560784
31372549 .56078431372549 81 1 621 305 6 314 0 345 618 704 707 81 1 701 307 6 27
 0 42 704 699 708 84 5 706 0:17081 1 42 362 208 27 701 0 561 264 709 84 5 708 0:
14683 3 709 .686274509803922 .56078431372549 .56078431372549 81 1 345 410 208 31
4 621 0 376 313 710 84 5 707 0:25783 3 710 .686274509803922 .56078431372549 .560
78431372549 81 1 702 309 6 204 0 355 699 508 711 84 5 703 0:18581 1 355 382 208
 204 702 0 262 463 712 81 1 508 310 6 297 0 357 702 623 713 84 5 711 0:23684 5 7
13 0:19183 3 712 .686274509803922 .56078431372549 .56078431372549 83 3 696 .6862
74509803922 .56078431372549 .56078431372549 83 3 694 .686274509803922 .560784313
72549 .56078431372549 83 3 691 .686274509803922 .56078431372549 .56078431372549
 83 3 688 .686274509803922 .56078431372549 .56078431372549 83 3 685 .68627450980
3922 .56078431372549 .56078431372549 83 3 682 .686274509803922 .56078431372549 .
56078431372549 83 3 674 .686274509803922 .56078431372549 .56078431372549 81 1 21
9 385 208 217 669 0 286 289 714 81 1 209 267 6 190 0 205 468 669 715 84 5 672 0:
19484 5 715 0:22483 3 714 .686274509803922 .56078431372549 .56078431372549 83 3
 664 .686274509803922 .56078431372549 .56078431372549 83 3 662 .686274509803922
 .56078431372549 .56078431372549 83 3 659 .686274509803922 .56078431372549 .5607
8431372549 83 3 656 .686274509803922 .56078431372549 .56078431372549 83 3 653 .6
86274509803922 .56078431372549 .56078431372549 83 3 650 .686274509803922 .560784
31372549 .56078431372549 83 3 647 .686274509803922 .56078431372549 .560784313725
49 83 3 644 .686274509803922 .56078431372549 .56078431372549 83 3 641 .686274509
803922 .56078431372549 .56078431372549 81 1 363 408 208 249 625 0 248 376 716 83
 3 638 .686274509803922 .56078431372549 .56078431372549 81 1 625 312 6 249 0 363
 623 512 717 83 3 716 .686274509803922 .56078431372549 .56078431372549 81 1 512
 313 6 301 0 366 625 510 718 84 4 717 0:9581 1 366 415 208 301 512 0 379 299 719
 84 5 718 0:24883 3 719 .686274509803922 .56078431372549 .56078431372549 83 3 63
5 .686274509803922 .56078431372549 .56078431372549 84 5 632 0:14384 5 626 0:1408
4 4 622 0:8984 5 617 0:20017 135 0 134 85 132 86 615 263 0 0 +17 185 0 181 158 1
82 86 85 260 0 135 -17 158 0 181 43 185 120 119 279 0 720 -17 43 0 181 52 158 28
 720 27 0 606 +17 119 0 564 615 309 86 158 279 0 185 +17 720 0 426 161 606 120 4
3 27 0 309 -17 161 0 426 229 720 159 309 282 0 608 -17 606 0 426 720 353 28 50 3
06 0 0 -17 309 0 564 119 721 120 161 282 0 0 +15 564 146 0 615 560 0 17 721 0 56
4 309 722 159 349 347 0 0 -17 722 0 564 721 614 142 335 323 0 0 -17 349 0 437 38
6 608 142 721 347 0 722 +15 437 31 0 349 402 401 17 386 0 437 609 349 114 723 33
2 0 610 +17 608 0 437 349 609 159 229 198 0 721 -18 142 33 0 723 124 114 140 ?19
 17 723 0 435 335 610 142 386 332 0 349 -18 124 22 0 50 121 142 178 ?19 17 50 0
 49 372 46 124 606 306 0 353 +15 49 102 0 50 394 172 17 372 0 49 51 50 77 466 36
9 0 464 +17 51 0 49 46 372 47 107 206 0 0 -17 335 0 435 139 723 58 722 323 0 614
 +17 610 0 435 723 611 114 110 301 0 0 -18 58 55 0 612 108 39 56 ?19 17 614 0 56
4 722 615 58 138 246 0 0 -17 615 0 564 614 119 126 135 263 0 0 -17 612 0 570 138
 613 58 139 252 0 335 -17 609 0 437 608 386 123 162 327 0 0 -18 123 26 0 607 159
 121 179 ?19 17 162 0 548 110 607 114 609 327 0 386 +29 179 165 0 123 0 178 -.00
16 4e-4 1642377292138805e-34 17 102 0 465 453 277 71 70 235 0 343 +17 453 0 465
 464 102 72 274 226 0 0 -17 70 0 398 97 343 68 102 235 0 326 -83 3 602 .68627450
9803922 .56078431372549 .56078431372549 50 36 163 0 403 410 23 0 +0 -.005 0 1 0
 -1251427837594872e-31 -1251427837594872e-31 0 -1 83 3 597 .686274509803922 .560
78431372549 .56078431372549 83 3 595 .686274509803922 .56078431372549 .560784313
72549 83 3 592 .686274509803922 .56078431372549 .56078431372549 83 3 589 .686274
509803922 .56078431372549 .56078431372549 83 3 583 .686274509803922 .56078431372
549 .56078431372549 83 3 581 .686274509803922 .56078431372549 .56078431372549 51
 580 153 0 449 576 415 0 +-.002 .002 .001 0 0 -1 4e-4 1 0 0 50 576 152 0 397 571
 580 0 +-.002 -.005 0 -1 0 -1251427837594872e-31 1251427837594872e-31 0 -1 50 41
5 154 0 394 580 428 0 +0 0 .005 0 1 0 0 0 1 51 571 151 0 434 565 576 0 +0 .002 .
001 0 0 -1 4e-4 -1 0 0 51 565 150 0 560 451 571 0 +0 .001 0 0 -1 0 4e-4 0 0 -1 5
1 451 149 0 444 417 565 0 +-.001 .002 .002 1 0 0 4e-4 0 0 1 50 417 148 0 405 549
 451 0 +0 -.005 .002 -1165173073296784e-31 0 1 -1 0 -1165173073296784e-31 51 549
 147 0 544 0 417 0 +-.002 .001 0 0 -1 0 4e-4 0 0 -1 83 3 577 .686274509803922 .5
6078431372549 .56078431372549 83 3 572 .686274509803922 .56078431372549 .5607843
1372549 83 3 566 .686274509803922 .56078431372549 .56078431372549 83 3 559 .6862
74509803922 .56078431372549 .56078431372549 83 3 556 .686274509803922 .560784313
72549 .56078431372549 83 3 552 .686274509803922 .56078431372549 .56078431372549
 83 3 543 .686274509803922 .56078431372549 .56078431372549 83 3 538 .68627450980
3922 .56078431372549 .56078431372549 83 3 536 .686274509803922 .56078431372549 .
56078431372549 83 3 533 .686274509803922 .56078431372549 .56078431372549 83 3 53
0 .686274509803922 .56078431372549 .56078431372549 83 3 526 .686274509803922 .56
078431372549 .56078431372549 83 3 523 .686274509803922 .56078431372549 .56078431
372549 83 3 520 .686274509803922 .56078431372549 .56078431372549 84 5 514 0:1768
3 3 509 .686274509803922 .56078431372549 .56078431372549 81 1 276 417 208 238 48
2 0 299 237 724 83 3 505 .686274509803922 .56078431372549 .56078431372549 83 3 7
24 .686274509803922 .56078431372549 .56078431372549 83 3 503 .686274509803922 .5
6078431372549 .56078431372549 83 3 500 .686274509803922 .56078431372549 .5607843
1372549 83 3 497 .686274509803922 .56078431372549 .56078431372549 83 3 494 .6862
74509803922 .56078431372549 .56078431372549 83 3 491 .686274509803922 .560784313
72549 .56078431372549 84 5 488 0:24579 13 486 SDL/TYSA_NAME84 5 479 0:17383 3 47
4 .686274509803922 .56078431372549 .56078431372549 84 5 472 0:23379 15 470 SDL/T
YSA_COLOUR17 62 0 416 66 462 60 150 247 0 195 -83 3 448 .686274509803922 .560784
31372549 .56078431372549 83 3 443 .686274509803922 .56078431372549 .560784313725
49 83 3 425 .686274509803922 .56078431372549 .56078431372549 83 3 414 .686274509
803922 .56078431372549 .56078431372549 83 3 391 .686274509803922 .56078431372549
 .56078431372549 83 3 211 .686274509803922 .56078431372549 .56078431372549 19 34
 1 0 19 0 26 22 S0 74 20 32 6 0 0 20 725 281 726 727 29 0 0 0 0 0 0 0 0 0 0 0 0
 0 0 81 1 725 343 728 19 0 726 0 0 729 81 1 726 422 730 19 725 727 0 0 731 81 1
 727 423 732 19 726 29 0 0 733 81 1 29 424 734 19 727 20 0 0 735 80 1 734 732 73
6 9000 0 0 0 0 3 5 0 0 0 TTTFTFTTFFFFFF3 84 6 735 Layer079 26 736 ATTRIB_XGENERI
C_LAYER_NAME80 1 732 730 737 9000 0 0 0 0 3 5 0 0 0 TTTTTTTTTTTTTF1 82 1 733 9 7
9 14 737 AttGS_PS_Layer80 1 730 738 739 9000 0 0 0 0 3 5 0 0 0 FTTFTFTTFFFFFF1 8
2 1 731 9 79 23 739 ATTRIB_XPARASOLID_LAYER80 1 728 208 740 8040 0 0 0 0 3 5 0 0
 0 TTTFFFFFFFFFFF2 83 3 729 .686274509803922 .56078431372549 .56078431372549 79
 17 740 SDL/TYSA_COLOUR_284 9 31 SC2_350-174 20 18 3 0 0 741 16 12 0 0 0 0 0 0 0
 0 0 0 0 0 0 0 0 0 0 81 1 741 2 6 4 0 16 0 0 742 81 1 16 3 743 4 741 12 0 0 744
 80 1 743 745 746 9000 0 0 0 0 3 5 0 0 0 TTTTTTTTTTTTTF1 82 1 744 1 79 18 746 SP
AATTRIB_COMP_DEF84 9 742 SC2_350-180 1 15 743 747 9000 0 0 0 0 3 5 0 0 0 TTTFFFF
FFFFFFF10 98 9 17 83 67 50 95 51 53 48 45 49 79 27 747 SPAATTRIB_COMP_STORAGE_NA
ME84 9 11 SC2_350-174 20 9 1 0 0 2 0 0 0 0 0 0 0 0 0 0 0 0 0 0 0 0 0 0 0 84 6 8
 SC.x_t1 0 
