**ABCDEFGHIJKLMNOPQRSTUVWXYZabcdefghijklmnopqrstuvwxyz**************************
**PARASOLID !"#$%&'()*+,-./:;<=>?@[\]^_`{|}~0123456789**************************
**PART1;
FORMAT=text;
GUISE=transmit;
KEY=unicode filename;
FILE=unicode filename;
DATE=unknown;
**PART2;
SCH=SCH_3101188_31100;
USFLD_SIZE=0;
**PART3;
**END_OF_HEADER*****************************************************************
T51 : TRANSMIT FILE created by modeller version 310118817 SCH_2700000_261050 12
 1 449 2 3 0 0 0 0 1e3 1e-8 0 0 0 1 0 1 1 4 5 6 7 8 9 10 0 0 0 0 0 0 0 81 1 2 44
9 11 1 12 0 13 0 14 70 3 0 4 T1 0 0 6 20 1 15 15 13 4 4 0 1 0 16 0 0 17 0 51 5 1
64 0 18 19 0 0 +.001 .001 .001 1 0 0 4e-4 0 -1 0 134 6 264 0 20 21 0 0 +22 23 29
 7 204 0 24 25 0 0 .001 0 19 8 2 0 1 17 0 26 V0 16 9 7 27 ?28 0 29 30 0 0 1 18 1
0 9 0 31 0 32 33 ?1 17 31 0 34 35 36 10 37 38 0 28 +18 32 11 0 37 10 39 40 ?1 29
 33 182 0 10 41 42 .00028284271247462 .00028284271247462 .00071715728752538 29 4
1 181 0 43 44 33 0 6e-4 4e-4 29 42 183 0 45 33 46 0 .001 .001 18 45 38 0 47 48 4
9 42 ?1 29 46 184 0 50 42 51 6e-4 .001 6e-4 18 50 84 0 52 53 54 46 ?1 29 51 185
 0 55 46 56 6e-4 4e-4 0 18 55 127 0 57 58 59 51 ?1 29 56 186 0 60 51 61 6e-4 0 4
e-4 18 60 66 0 62 63 64 56 ?1 29 61 187 0 65 56 66 .00028284271247462 .000717157
28752538 .00071715728752538 18 65 15 0 67 39 68 61 ?1 29 66 188 0 69 61 70 6e-4
 4e-4 .001 18 69 42 0 71 72 24 66 ?1 29 70 189 0 73 66 74 .00071715728752538 .00
071715728752538 .00028284271247462 18 73 115 0 75 76 77 70 ?1 29 74 190 0 48 70
 78 .001 .001 .001 18 48 36 0 79 80 45 74 ?1 29 78 191 0 81 74 82 .001 4e-4 4e-4
 18 81 98 0 83 84 85 78 ?1 29 82 192 0 80 78 86 .001 0 .001 18 80 34 0 87 88 48
 82 ?1 29 86 193 0 89 82 90 0 0 0 18 89 51 0 91 24 43 86 ?1 29 90 194 0 84 86 92
 .001 4e-4 6e-4 18 84 96 0 93 94 81 90 ?1 29 92 195 0 95 90 96 4e-4 .001 4e-4 18
 95 75 0 97 64 98 92 ?1 29 96 196 0 99 92 100 .00071715728752538 .00071715728752
538 .00071715728752538 18 99 105 0 101 85 76 96 ?1 29 100 197 0 94 96 102 .00071
715728752538 .00028284271247462 .00071715728752538 18 94 91 0 103 54 84 100 ?1 2
9 102 198 0 63 100 104 6e-4 0 6e-4 18 63 64 0 105 106 60 102 ?1 29 104 199 0 77
 102 40 .001 6e-4 4e-4 18 77 117 0 107 73 58 104 ?1 29 40 200 0 32 104 108 0 4e-
4 6e-4 29 108 201 0 59 40 109 4e-4 6e-4 0 18 59 134 0 110 55 111 108 ?1 29 109 2
02 0 68 108 25 4e-4 6e-4 .001 18 68 17 0 112 65 113 109 ?1 29 25 203 0 88 109 7
 0 4e-4 4e-4 18 88 28 0 114 115 80 25 ?1 17 114 0 116 117 118 88 36 119 0 120 +1
8 115 26 0 121 122 88 123 ?1 17 121 0 124 125 126 115 120 127 0 128 -18 122 24 0
 129 130 115 131 ?1 29 123 165 0 115 0 132 .00028284271247462 .00028284271247462
 .00028284271247462 29 132 166 0 53 123 133 .001 .001 0 18 53 80 0 134 98 50 132
 ?1 29 133 167 0 130 132 135 4e-4 0 6e-4 18 130 22 0 136 113 122 133 ?1 29 135 1
68 0 111 133 137 6e-4 6e-4 0 18 111 140 0 138 59 0 135 ?1 29 137 169 0 39 135 13
9 0 6e-4 6e-4 18 39 13 0 140 32 65 137 ?1 29 139 170 0 49 137 141 0 0 .001 18 49
 33 0 142 45 72 139 ?1 29 141 171 0 106 139 143 .001 0 0 18 106 60 0 144 43 63 1
41 ?1 29 143 172 0 64 141 145 .00028284271247462 .00071715728752538 .00028284271
247462 18 64 73 0 146 60 95 143 ?1 29 145 173 0 85 143 147 .00071715728752538 .0
0028284271247462 .00028284271247462 18 85 100 0 148 81 99 145 ?1 29 147 174 0 76
 145 149 .001 6e-4 6e-4 18 76 107 0 150 99 73 147 ?1 29 149 175 0 58 147 151 4e-
4 4e-4 0 18 58 128 0 125 77 55 149 ?1 29 151 176 0 98 149 152 4e-4 .001 6e-4 18
 98 71 0 153 95 53 151 ?1 29 152 177 0 113 151 131 4e-4 4e-4 .001 18 113 8 0 154
 68 130 152 ?1 29 131 178 0 122 152 155 4e-4 0 4e-4 29 155 179 0 72 131 44 6e-4
 6e-4 .001 18 72 44 0 156 49 69 155 ?1 29 44 180 0 54 155 41 6e-4 .001 4e-4 18 5
4 85 0 157 50 94 44 ?1 17 157 0 158 52 97 54 159 160 0 161 -15 158 82 162 52 163
 0 17 52 0 158 164 157 50 161 165 0 166 -17 97 0 158 157 164 95 153 167 0 168 +1
7 159 0 169 170 171 95 157 160 0 0 +16 160 87 172 ?159 173 174 21 0 0 1 17 161 0
 175 75 176 54 52 165 0 171 +15 175 113 177 176 178 0 17 75 0 175 179 161 73 171
 173 0 180 -17 176 0 175 161 101 50 181 182 0 0 +16 165 83 183 ?161 182 184 185
 0 0 1 17 171 0 169 159 186 54 75 173 0 0 +15 169 143 187 186 188 0 17 186 0 169
 171 189 73 190 20 0 0 -16 173 114 191 ?171 192 160 193 0 0 1 81 1 191 440 194 1
73 195 0 196 172 197 16 192 141 196 ?198 199 173 200 0 0 1 32 193 250 0 173 201
 202 0 +.000999999999999853 .000999999999999962 1381273567746532e-31 -.707106781
186554 -784482329569006e-29 -.707106781186541 .707106781186541 -152236132253241e
-27 -.707106781186554 .000565685424949037 .0003999999999999335 134 201 249 0 203
 204 193 0 +205 206 134 202 251 0 174 193 207 0 +208 209 16 174 135 210 ?110 160
 211 202 0 0 1 32 207 252 0 212 202 213 0 +562700927519977e-31 338442763438344e-
32 .000999999999999939 -.707106781186544 4177113702899905e-30 -.707106781186551
 .707106781186551 -3448182800365875e-29 -.707106781186544 .000565685424949155 .0
003999999999999835 136 208 3 5 4 3 4 FFT1 214 215 216 135 209 2 0 45 20 214 .000
294033703976692 .000745532425919888 .000294033703976692 1.03956612989658 .000324
080318664915 .000689108391300615 .000249065767285708 1.01318870996553 .000374425
7246834625 .000612385565351007 .0001550922132652705 .98681129003447 .00040527548
3986212 .000607913225979318 530432979679064e-19 1.01318870996553 .00041582645195
8632 .000623739677937948 0 1.03956612989658 127 3 215 4 1 4 128 3 216 -.59161144
907838 -.39269908169872 -.19378671431907 16 212 21 217 ?35 218 219 207 0 0 1 30
 213 253 0 199 207 220 0 +4e-4 6e-4 0 0 -1 0 16 199 133 221 ?222 223 192 213 0 0
 1 30 220 254 0 224 213 225 0 +6e-4 6e-4 0 0 -1 0 16 224 139 226 ?227 20 0 220 0
 0 1 134 225 255 0 228 220 229 0 +230 231 16 228 129 232 ?233 234 235 225 0 0 1
 30 229 256 0 236 225 237 0 +.001 0 .001 0 1 0 136 230 3 5 4 3 4 FFT1 238 239 24
0 135 231 2 0 45 20 238 .000415826451958632 .000415826451958632 0 1.039566129896
58 .000405275483986212 .000405275483986212 530432979679064e-19 1.01318870996553
 .0003744257246834625 .0003744257246834625 .0001550922132652705 .98681129003447
 .000324080318664915 .000324080318664915 .000249065767285708 1.01318870996553 .0
00294033703976692 .000294033703976692 .000294033703976692 1.03956612989658 127 3
 239 4 1 4 128 3 240 3.33537936790886 3.53429173528852 3.73320410266818 16 236 3
5 241 ?242 243 244 229 0 0 1 30 237 257 0 245 229 185 0 +6e-4 6e-4 .001 -1 0 0 1
6 245 43 246 ?247 248 182 237 0 0 1 30 185 258 0 165 237 249 0 +6e-4 .001 6e-4 0
 0 -1 30 249 259 0 250 185 251 0 +0 6e-4 6e-4 0 0 -1 16 250 56 252 ?253 254 255
 249 0 0 1 32 251 260 0 256 249 257 0 +.000999999999999862 402997947512862e-30 .
000999999999999595 -1324450686285356e-30 -.707106781186546 -.707106781186549 498
100750659965e-27 .707106781186549 -.707106781186546 .000565685424948667 .0003999
99999999781 16 256 95 258 ?259 260 261 251 0 0 1 134 257 261 0 248 251 262 0 +26
3 264 16 248 104 265 ?266 267 245 257 0 0 1 30 262 262 0 268 257 21 0 +6e-4 0 6e
-4 0 0 -1 136 263 3 5 4 3 4 FFT1 269 270 271 135 264 2 0 45 20 269 .000623739677
937948 .000623739677937948 .00103956612989658 1.03956612989658 .0006079132259793
18 .000607913225979318 .000960145411997624 1.01318870996553 .000612385565351007
 .000612385565351007 .0008317190767692 .98681129003447 .000689108391300615 .0006
89108391300615 .000764122942679822 1.01318870996553 .000745532425919888 .0007455
32425919888 .000745532425919888 1.03956612989658 127 3 270 4 1 4 128 3 271 .1937
8671431907 .39269908169872 .59161144907838 16 268 65 272 ?273 274 275 262 0 0 1
 30 21 263 0 160 262 6 0 +6e-4 .001 4e-4 -1 0 0 81 1 272 405 194 268 276 0 277 2
78 279 17 273 0 280 281 105 60 282 268 0 283 +16 274 61 277 ?284 285 268 286 0 0
 1 16 275 67 278 ?281 268 287 288 0 0 1 81 1 278 406 194 275 289 0 272 290 291 1
7 281 0 280 136 273 122 62 275 0 0 +16 287 70 290 ?292 275 254 293 0 0 1 30 288
 225 0 275 294 200 0 +6e-4 0 4e-4 -1 0 0 32 294 224 0 260 295 288 0 +.0009999999
99999891 3002858733408115e-32 .000999999999999891 .707106781186548 0 -.707106781
186548 .707106781186548 119151561893782e-27 .707106781186548 .000565685424949084
 .00039999999999995 30 200 226 0 192 288 296 0 +6e-4 6e-4 0 -1 0 0 32 296 227 0
 211 200 297 0 +.000999999999999962 1514838610482125e-31 1514838610482125e-31 0
 .707106781186548 -.707106781186548 154189758715173e-27 .707106781186548 .707106
781186548 .000565685424949024 .0003999999999999295 16 211 99 298 ?83 174 20 296
 0 0 1 30 297 228 0 219 296 299 0 +4e-4 0 6e-4 0 0 -1 16 219 23 300 ?301 212 302
 297 0 0 1 32 299 229 0 255 297 303 0 +2621663492450955e-31 .000999999999999916
 2621663492450955e-31 -.707106781186548 0 .707106781186548 .707106781186548 3103
88958437035e-27 .707106781186548 .000565685424948867 .0003999999999998635 16 255
 74 304 ?168 250 305 299 0 0 1 30 303 230 0 306 299 307 0 +.001 .001 0 0 0 1 16
 306 79 308 ?309 310 311 303 0 0 1 30 307 231 0 312 303 313 0 +0 .001 0 0 0 1 16
 312 48 314 ?315 305 316 307 0 0 1 32 313 232 0 317 307 318 0 +.0009999999999997
35 .000999999999999322 .000999999999999322 0 .707106781186548 -.707106781186548
 -91805324131362e-26 .707106781186548 .707106781186548 .000565685424948278 .0003
999999999996065 16 317 106 319 ?101 184 310 313 0 0 1 32 318 233 0 182 313 320 0
 +.000999999999999593 .000999999999999856 .000999999999999593 .707106781186548 0
 -.707106781186548 .707106781186548 -51421104114414e-26 .707106781186548 .000565
685424948664 .0003999999999997775 16 182 111 321 ?176 245 165 318 0 0 1 30 320 2
34 0 322 318 323 0 +.001 6e-4 4e-4 0 -1 0 16 322 123 324 ?325 326 234 320 0 0 1
 30 323 235 0 327 320 328 0 +6e-4 4e-4 .001 -1 0 0 16 327 41 329 ?330 331 332 32
3 0 0 1 30 328 236 0 223 323 333 0 +0 6e-4 4e-4 0 -1 0 16 223 54 334 ?126 335 19
9 328 0 0 1 32 333 237 0 127 328 336 0 +850050930743646e-31 273054208953135e-30
 273054208953135e-30 0 -.707106781186548 .707106781186548 3143658984088585e-28 -
.707106781186548 -.707106781186548 .000565685424948852 .0003999999999998585 16 1
27 27 337 ?120 302 38 333 0 0 1 30 336 238 0 305 333 338 0 +.001 .001 0 -1 0 0 1
6 305 81 339 ?340 255 312 336 0 0 1 32 338 239 0 184 336 341 0 +.000999999999999
973 .000999999999999877 121539063535625e-30 1324450686285332e-30 .70710678118654
9 .707106781186546 1167167552349474e-28 -.707106781186546 .707106781186549 .0005
65685424949067 .000399999999999947 16 184 116 342 ?179 165 317 338 0 0 1 30 341
 240 0 119 338 343 0 +0 4e-4 6e-4 0 0 -1 16 119 29 344 ?114 345 346 341 0 0 1 30
 343 241 0 243 341 30 0 +0 0 .001 1 0 0 16 243 32 347 ?348 38 236 343 0 0 1 134
 30 242 0 9 343 349 0 +350 351 30 349 243 0 244 30 352 0 +.001 .001 .001 -1 0 0
 136 350 3 5 4 3 4 FFT1 353 354 355 135 351 2 0 45 20 353 .000415826451958632 .0
00415826451958632 .00103956612989658 1.03956612989658 .000405275483986212 .00040
5275483986212 .000960145411997624 1.01318870996553 .0003744257246834625 .0003744
257246834625 .0008317190767692 .98681129003447 .000324080318664915 .000324080318
664915 .000764122942679822 1.01318870996553 .000294033703976692 .000294033703976
692 .000745532425919888 1.03956612989658 127 3 354 4 1 4 128 3 355 .193786714319
07 .39269908169872 .59161144907838 16 244 37 356 ?357 236 331 349 0 0 1 30 352 2
44 0 331 349 358 0 +0 .001 .001 0 -1 0 16 331 39 359 ?142 244 327 352 0 0 1 30 3
58 245 0 345 352 293 0 +0 .001 0 0 -1 0 16 345 50 360 ?361 332 119 358 0 0 1 32
 293 246 0 287 358 362 0 +25728117553081e-29 .000999999999999917 .00099999999999
9745 -.70710678118655 1451801713812712e-30 -.707106781186545 .707106781186545 30
56659360277765e-28 -.70710678118655 .000565685424948876 .0003999999999998645 30
 362 247 0 316 293 204 0 +6e-4 .001 6e-4 -1 0 0 16 316 86 363 ?164 312 167 362 0
 0 1 30 204 248 0 261 362 201 0 +.001 4e-4 6e-4 0 0 -1 16 261 97 364 ?365 256 36
6 204 0 0 1 81 1 364 418 194 261 367 0 258 368 369 17 365 0 370 148 259 81 93 26
1 0 325 +16 366 101 368 ?283 261 203 371 0 0 1 81 1 368 419 194 366 372 0 364 37
3 374 17 283 0 370 282 148 60 375 366 0 0 +16 203 90 373 ?376 366 267 201 0 0 1
 32 371 217 0 366 377 378 0 +.000999999999999682 1053057585238632e-31 3169122950
17513e-30 .707106781186549 -1324450686285358e-30 .707106781186547 .7071067811865
47 3833616541759975e-28 -.707106781186549 .000565685424948789 .00039999999999983
05 134 377 216 0 218 379 371 0 +380 381 32 378 218 0 38 371 382 0 +9319795507964
58e-31 264111649217469e-30 .000999999999999737 -713165754153639e-30 -.7071067811
86549 -.707106781186547 -337776946565194e-27 .707106781186547 -.707106781186549
 .000565685424948865 .0003999999999998575 16 38 10 383 ?31 127 243 378 0 0 1 32
 382 219 0 254 378 384 0 +901154501156511e-31 .000999999999999749 .0009999999999
99749 0 .707106781186547 -.707106781186548 3255296899632335e-28 .707106781186548
 .707106781186547 .000565685424948882 .0003999999999998635 16 254 14 385 ?140 28
7 250 382 0 0 1 134 384 220 0 235 382 386 0 +387 388 16 235 130 389 ?57 228 335
 384 0 0 1 30 386 221 0 332 384 390 0 +4e-4 4e-4 .001 0 1 0 136 387 3 5 4 3 4 FF
T1 391 392 393 135 388 2 0 45 20 391 .000745532425919888 .000294033703976692 .00
0294033703976692 1.03956612989658 .000689108391300615 .000324080318664915 .00024
9065767285708 1.01318870996553 .000612385565351007 .0003744257246834625 .0001550
922132652705 .98681129003447 .000607913225979318 .000405275483986212 53043297967
9064e-19 1.01318870996553 .000623739677937948 .000415826451958632 0 1.0395661298
9658 127 3 392 4 1 4 128 3 393 2.54998120451141 2.74889357189107 2.9478059392707
3 16 332 18 394 ?112 327 345 386 0 0 1 30 390 222 0 167 386 295 0 +4e-4 .001 6e-
4 0 0 -1 16 167 76 395 ?97 316 396 390 0 0 1 30 295 223 0 234 390 294 0 +6e-4 4e
-4 0 -1 0 0 16 234 126 397 ?398 322 228 295 0 0 1 81 1 397 433 194 234 399 0 324
 232 400 17 398 0 401 233 57 58 402 234 0 222 +15 401 125 403 398 404 0 17 233 0
 401 129 398 115 125 228 0 0 +17 57 0 401 398 375 55 405 235 0 402 +17 402 0 406
 138 222 55 398 234 0 227 -17 222 0 406 402 198 58 407 199 0 0 +15 406 138 408 2
22 409 0 17 198 0 406 222 138 59 189 192 0 0 +17 407 0 124 410 125 59 222 199 0
 198 -15 124 132 411 125 412 0 17 410 0 124 413 407 64 110 174 0 0 -17 125 0 124
 407 121 58 233 228 0 398 -17 413 0 124 126 410 43 146 335 0 0 +17 110 0 169 189
 170 59 410 174 0 407 +17 189 0 169 186 110 111 198 192 0 190 -17 170 0 169 110
 159 64 168 255 0 410 -17 168 0 414 153 146 95 170 255 0 159 +15 414 69 415 292
 416 0 17 153 0 414 292 168 98 97 167 0 417 -17 146 0 414 168 253 64 413 335 0 1
70 -17 253 0 414 146 140 43 418 250 0 413 +16 335 72 419 ?413 235 223 420 0 0 1
 81 1 419 436 194 335 421 0 389 334 422 32 420 207 0 335 423 424 0 +231952349750
7695e-32 .000999999999999884 1071191746415678e-31 784482329568995e-29 -.70710678
1186554 -.707106781186541 102429203549134e-27 .707106781186541 -.707106781186554
 .000565685424949081 .000399999999999953 30 423 206 0 311 425 420 0 +.001 4e-4 6
e-4 0 1 0 32 424 208 0 302 420 426 0 +512434407182498e-31 -370001038124392e-32 5
12434407182498e-31 -.707106781186548 0 .707106781186548 .707106781186548 -100599
454669087e-28 .707106781186548 .000565685424949165 .00039999999999999 16 302 25
 427 ?128 219 127 424 0 0 1 30 426 209 0 267 424 428 0 +6e-4 4e-4 .001 0 1 0 16
 267 45 429 ?430 203 248 426 0 0 1 30 428 210 0 326 426 286 0 +.001 6e-4 6e-4 0
 0 -1 16 326 118 431 ?107 311 322 428 0 0 1 30 286 211 0 274 428 432 0 +.001 0 0
 0 0 1 30 432 212 0 29 286 433 0 +0 4e-4 6e-4 0 1 0 16 29 12 434 ?435 9 218 432
 0 0 1 30 433 213 0 346 432 436 0 +0 0 .001 0 0 -1 16 346 52 437 ?91 119 285 433
 0 0 1 30 436 214 0 285 433 379 0 +0 0 0 1 0 0 16 285 59 438 ?439 346 274 436 0
 0 1 30 379 215 0 396 436 377 0 +6e-4 0 6e-4 -1 0 0 16 396 63 440 ?441 167 260 3
79 0 0 1 81 1 440 415 194 396 442 0 395 443 444 17 441 0 445 446 447 130 105 396
 0 0 +16 260 92 443 ?448 396 256 294 0 0 1 81 1 443 416 194 260 449 0 440 258 45
0 17 448 0 370 259 282 94 447 260 0 451 +15 370 94 452 448 453 0 17 259 0 370 36
5 448 84 451 256 0 454 +17 282 0 370 448 283 63 273 268 0 447 -17 447 0 445 441
 103 63 448 260 0 0 -17 451 0 455 376 454 94 259 256 0 0 -15 455 103 456 376 457
 0 17 376 0 455 430 451 69 103 203 0 0 +17 454 0 455 451 458 84 150 311 0 0 -17
 458 0 455 454 266 76 101 317 0 459 -17 150 0 460 107 93 76 454 311 0 458 +16 31
1 108 461 ?150 306 326 423 0 0 1 81 1 461 430 194 311 462 0 308 431 463 80 1 194
 0 464 8001 0 0 0 0 3 5 0 0 0 FFFFTFTFFFFFFF2 81 1 462 266 11 311 0 461 465 421
 466 81 1 308 429 194 306 467 0 468 461 469 81 1 431 431 194 326 470 0 461 324 4
71 83 3 463 .56078431372549 .686274509803922 .623529411764706 81 1 470 270 11 32
6 0 431 472 473 474 81 1 324 432 194 322 475 0 431 397 476 83 3 471 .56078431372
549 .686274509803922 .623529411764706 81 1 475 294 11 322 0 324 477 478 479 83 3
 476 .56078431372549 .686274509803922 .623529411764706 80 1 11 480 481 8017 0 0
 0 0 0 0 0 0 0 TTTTTTTTTTTTTF3 81 1 477 293 11 182 0 321 482 475 483 81 1 478 29
5 11 327 0 329 475 484 485 84 5 479 0:23481 1 329 398 194 327 478 0 359 394 486
 81 1 484 296 11 223 0 334 478 487 488 84 5 485 0:12681 1 334 437 194 223 484 0
 419 221 489 81 1 487 297 11 127 0 337 484 490 491 84 5 488 0:14481 1 337 392 19
4 127 487 0 427 383 492 81 1 490 298 11 305 0 339 487 493 494 84 5 491 0:10881 1
 339 411 194 305 490 0 304 314 495 81 1 493 299 11 184 0 342 490 496 497 84 5 49
4 0:18081 1 342 426 194 184 493 0 183 319 498 81 1 496 300 11 119 0 344 493 499
 500 84 5 497 0:22581 1 344 401 194 119 496 0 360 437 501 81 1 499 301 11 243 0
 347 496 502 503 84 5 500 0:11181 1 347 394 194 243 499 0 383 241 504 81 1 502 3
02 11 9 0 27 499 505 506 84 5 503 0:11481 1 27 386 194 9 502 0 507 434 508 81 1
 505 303 11 244 0 356 502 509 510 84 4 506 0:8181 1 356 396 194 244 505 0 241 35
9 511 81 1 509 304 11 331 0 359 505 512 513 84 5 510 0:12081 1 359 397 194 331 5
09 0 356 329 514 81 1 512 305 11 345 0 360 509 515 516 84 5 513 0:12381 1 360 40
0 194 345 512 0 394 344 517 81 1 515 306 11 287 0 290 512 518 519 84 5 516 0:138
81 1 290 407 194 287 515 0 278 385 520 81 1 518 307 11 316 0 363 515 367 521 84
 5 519 0:16581 1 363 413 194 316 518 0 314 395 522 81 1 367 308 11 261 0 364 518
 523 524 84 5 521 0:18681 1 523 309 11 203 0 373 367 195 525 84 5 524 0:20181 1
 373 420 194 203 523 0 368 429 526 81 1 195 310 11 173 0 191 523 527 528 84 5 52
5 0:19281 1 527 311 11 174 0 210 195 529 530 84 5 528 0:22281 1 210 442 194 174
 527 0 172 298 531 81 1 529 312 11 212 0 217 527 532 533 84 5 530 0:24981 1 217
 389 194 212 529 0 534 300 535 81 1 532 313 11 199 0 221 529 536 537 84 4 533 0:
9981 1 221 438 194 199 532 0 334 196 538 81 1 536 314 11 224 0 226 532 539 540 8
4 5 537 0:24681 1 226 445 194 224 536 0 541 0 542 81 1 539 315 11 228 0 232 536
 543 544 84 5 540 0:25281 1 232 434 194 228 539 0 397 389 545 81 1 543 316 11 23
6 0 241 539 546 547 84 5 544 0:24081 1 241 395 194 236 543 0 347 356 548 81 1 54
6 317 11 245 0 246 543 549 550 84 5 547 0:11781 1 246 423 194 245 546 0 265 321
 551 81 1 549 318 11 165 0 183 546 552 553 84 5 550 0:12981 1 183 425 194 165 54
9 0 321 342 554 81 1 552 319 11 250 0 252 549 555 556 84 5 553 0:18381 1 252 409
 194 250 552 0 385 304 557 81 1 555 320 11 256 0 258 552 558 559 84 5 556 0:1478
1 1 258 417 194 256 555 0 443 364 560 81 1 558 321 11 248 0 265 555 276 561 84 5
 559 0:19881 1 265 422 194 248 558 0 429 246 562 81 1 276 322 11 268 0 272 558 5
63 564 84 5 561 0:21081 1 563 323 11 160 0 172 276 565 566 84 5 564 0:15981 1 17
2 441 194 160 563 0 191 210 567 81 1 565 324 11 20 0 541 563 568 569 84 5 566 0:
18916 20 144 541 ?190 211 224 6 0 0 1 81 1 541 444 194 20 565 0 298 226 570 81 1
 568 349 11 163 0 571 565 572 573 84 5 569 0:25814 163 77 571 ?574 416 575 4 576
 -0 0 574 416 26 81 1 571 374 194 163 568 0 577 578 579 81 1 572 350 11 178 0 58
0 568 581 582 84 4 573 0:4514 178 112 580 ?583 18 175 4 584 +0 0 583 18 26 81 1
 580 379 194 178 572 0 585 586 587 81 1 581 351 11 574 0 578 572 588 589 84 4 58
2 0:6014 574 88 578 ?453 163 445 4 590 +0 0 453 163 26 81 1 578 375 194 574 581
 0 571 591 592 81 1 588 352 11 404 0 593 581 594 595 84 4 589 0:4814 404 124 593
 ?412 583 401 4 596 +0 0 412 583 26 81 1 593 381 194 404 588 0 586 597 598 81 1
 594 353 11 599 0 507 588 600 601 84 4 595 0:6614 599 145 507 ?0 188 602 4 603 +
0 0 0 188 26 81 1 507 385 194 599 594 0 604 27 605 81 1 600 354 11 606 0 607 594
 608 609 84 4 601 0:7814 606 57 607 ?416 610 611 4 612 -0 0 416 610 26 81 1 607
 372 194 606 600 0 613 577 614 81 1 608 355 11 412 0 597 600 615 616 84 4 609 0:
3914 412 131 597 ?409 404 124 4 617 +0 0 409 404 26 81 1 597 382 194 412 608 0 5
93 618 619 81 1 615 356 11 16 0 620 608 621 622 84 4 616 0:6914 16 5 620 ?623 0
 624 4 625 +0 0 623 0 26 81 1 620 368 194 16 615 0 0 626 627 81 1 621 357 11 409
 0 618 615 628 629 84 4 622 0:2714 409 136 618 ?188 412 630 4 631 -0 0 188 412 2
6 81 1 618 383 194 409 621 0 597 604 632 81 1 628 358 11 610 0 613 621 633 634 8
4 4 629 0:7214 610 46 613 ?606 635 636 4 637 -0 0 606 635 26 81 1 613 371 194 61
0 628 0 638 607 639 81 1 633 359 11 635 0 638 628 640 641 84 4 634 0:3614 635 30
 638 ?610 623 642 4 643 +0 0 610 623 26 81 1 638 370 194 635 633 0 626 613 644 8
1 1 640 360 11 453 0 591 633 645 646 84 4 641 0:3314 453 93 591 ?457 574 370 4 6
47 +0 0 457 574 26 81 1 591 376 194 453 640 0 578 648 649 81 1 645 361 11 623 0
 626 640 650 651 84 4 646 0:5114 623 19 626 ?635 16 34 4 652 +0 0 635 16 26 81 1
 626 369 194 623 645 0 620 638 653 81 1 650 362 11 583 0 586 645 654 655 84 4 65
1 0:3014 583 119 586 ?404 178 656 4 657 -0 0 404 178 26 81 1 586 380 194 583 650
 0 580 593 658 81 1 654 363 11 457 0 648 650 659 660 84 4 655 0:6314 457 102 648
 ?18 453 455 4 661 +0 0 18 453 26 81 1 648 377 194 457 654 0 591 585 662 81 1 65
9 364 11 416 0 577 654 663 664 84 4 660 0:5414 416 68 577 ?163 606 414 4 665 +0
 0 163 606 26 81 1 577 373 194 416 659 0 607 571 666 81 1 663 365 11 188 0 604 6
59 13 667 84 4 664 0:4214 188 142 604 ?599 409 169 4 19 +0 0 599 409 26 81 1 604
 384 194 188 663 0 618 507 668 81 1 13 366 11 18 0 585 663 2 669 84 4 667 0:7514
 18 109 585 ?178 457 670 4 5 +0 0 178 457 26 81 1 585 378 194 18 13 0 648 580 67
1 84 4 669 0:5783 3 671 .56078431372549 .686274509803922 .623529411764706 15 670
 110 672 673 18 0 13 26 3 0 0 0 0 0 0 8 16 81 1 672 335 674 670 0 0 403 187 675
 17 673 0 670 247 181 72 266 248 0 0 -17 247 0 670 676 673 68 156 245 0 0 +17 18
1 0 670 673 166 99 176 182 0 0 -17 266 0 455 458 430 99 673 248 0 181 +17 430 0
 455 266 376 72 71 267 0 673 +17 71 0 677 330 156 69 430 267 0 678 -15 677 40 67
9 330 635 0 17 330 0 677 112 71 113 678 327 0 0 +17 156 0 677 71 112 72 247 245
 0 430 -17 678 0 445 103 680 69 330 327 0 376 -15 445 89 681 446 574 0 17 103 0
 445 447 678 94 376 203 0 448 -17 680 0 445 678 446 113 28 9 0 330 -17 446 0 445
 680 441 10 35 212 0 0 -17 28 0 624 37 154 10 680 9 0 446 +15 624 6 682 28 16 0
 17 37 0 624 435 28 32 31 38 0 118 -17 154 0 624 28 683 113 112 332 0 680 -17 68
3 0 624 154 67 68 676 218 0 247 +17 112 0 677 156 330 68 154 332 0 683 +17 67 0
 624 683 435 65 140 254 0 676 -17 676 0 670 417 247 65 683 218 0 292 -16 218 16
 534 ?683 29 212 377 0 0 1 81 1 534 388 194 218 684 0 434 217 685 81 1 684 276 1
1 218 0 534 442 372 686 81 1 434 387 194 29 687 0 27 534 688 83 3 685 .560784313
72549 .686274509803922 .623529411764706 81 1 687 272 11 29 0 434 473 689 690 83
 3 688 .56078431372549 .686274509803922 .623529411764706 81 1 473 271 11 274 0 2
77 470 687 691 81 1 689 273 11 346 0 437 687 692 693 84 4 690 0:8781 1 437 402 1
94 346 689 0 344 438 694 81 1 692 274 11 285 0 438 689 442 695 84 5 693 0:14181
 1 438 403 194 285 692 0 437 277 696 81 1 442 275 11 396 0 440 692 684 697 84 5
 695 0:15084 5 697 0:15681 1 277 404 194 274 473 0 438 272 698 83 3 696 .5607843
1372549 .686274509803922 .623529411764706 83 3 698 .56078431372549 .686274509803
922 .623529411764706 83 3 694 .56078431372549 .686274509803922 .623529411764706
 84 5 691 0:15381 1 372 277 11 366 0 368 684 699 700 84 4 686 0:9381 1 699 278 1
1 38 0 383 372 701 702 84 5 700 0:20781 1 383 393 194 38 699 0 337 347 703 81 1
 701 279 11 254 0 385 699 704 705 84 4 702 0:8481 1 385 408 194 254 701 0 290 25
2 706 81 1 704 280 11 235 0 389 701 707 708 84 4 705 0:9081 1 389 435 194 235 70
4 0 232 419 709 81 1 707 281 11 332 0 394 704 710 711 84 5 708 0:24381 1 394 399
 194 332 707 0 329 360 712 81 1 710 282 11 167 0 395 707 399 713 84 4 711 0:9681
 1 395 414 194 167 710 0 363 440 714 81 1 399 283 11 234 0 397 710 449 715 84 5
 713 0:17481 1 449 284 11 260 0 443 399 289 716 84 5 715 0:23781 1 289 285 11 27
5 0 278 449 717 718 84 5 716 0:19581 1 717 286 11 192 0 196 289 719 720 84 5 718
 0:16281 1 196 439 194 192 717 0 221 191 721 81 1 719 287 11 211 0 298 717 722 7
23 84 5 720 0:25581 1 298 443 194 211 719 0 210 541 724 81 1 722 288 11 219 0 30
0 719 725 726 84 5 723 0:20481 1 300 390 194 219 722 0 217 427 727 81 1 725 289
 11 255 0 304 722 467 728 84 5 726 0:10281 1 304 410 194 255 725 0 252 339 729 8
1 1 467 290 11 306 0 308 725 730 731 84 5 728 0:17181 1 730 291 11 312 0 314 467
 482 732 84 5 731 0:17781 1 314 412 194 312 730 0 339 363 733 81 1 482 292 11 31
7 0 319 730 477 734 84 5 732 0:13581 1 319 427 194 317 482 0 342 468 735 84 5 73
4 0:21381 1 468 428 194 310 465 0 319 308 736 83 3 735 .56078431372549 .68627450
9803922 .623529411764706 16 310 121 468 ?737 317 306 425 0 0 1 81 1 465 265 11 3
10 0 468 0 462 738 83 3 736 .56078431372549 .686274509803922 .623529411764706 84
 5 738 0:23117 737 0 656 309 144 53 739 310 0 0 +30 425 205 0 310 0 423 0 +.001
 0 0 0 1 0 15 656 120 740 87 583 460 17 309 0 656 87 737 48 134 306 0 0 +17 144
 0 656 737 87 106 284 274 0 439 -17 739 0 630 741 742 106 737 310 0 0 -15 630 13
7 743 742 409 406 17 741 0 630 744 739 89 439 285 0 0 -17 742 0 630 739 744 53 3
40 305 0 737 -17 744 0 630 742 741 24 361 345 0 340 -17 340 0 575 315 134 24 742
 305 0 0 +15 575 78 745 79 163 158 17 315 0 575 79 340 45 746 312 0 0 +17 134 0
 575 340 79 53 309 306 0 742 -18 24 49 0 746 69 89 7 ?1 17 746 0 636 361 47 24 3
15 312 0 744 -15 636 47 747 47 610 116 17 361 0 636 748 746 89 744 345 0 741 +17
 47 0 636 746 748 45 142 331 0 357 -17 748 0 636 47 361 49 91 346 0 0 -17 142 0
 642 348 357 49 47 331 0 749 +17 357 0 642 142 242 45 79 244 0 315 +15 642 31 75
0 348 635 677 17 242 0 642 357 348 48 87 236 0 309 +17 79 0 575 134 315 48 357 2
44 0 242 -17 348 0 642 242 142 80 749 243 0 284 +17 87 0 656 144 309 80 242 236
 0 348 -17 749 0 611 91 284 49 348 243 0 748 -17 284 0 611 749 439 80 144 274 0
 0 +15 611 58 751 91 606 280 17 439 0 611 284 91 106 741 285 0 739 +17 91 0 611
 439 749 89 748 346 0 361 +81 1 751 333 674 611 0 0 162 403 752 15 280 62 753 13
6 606 0 81 1 753 343 674 280 0 0 411 743 754 17 136 0 280 105 281 130 301 219 0
 35 -17 105 0 280 273 136 63 441 396 0 282 -17 301 0 34 128 35 122 136 219 0 281
 +17 35 0 34 301 31 130 446 212 0 441 +15 34 20 755 35 623 0 81 1 755 330 674 34
 0 0 682 740 756 80 1 674 757 758 9000 0 0 0 0 3 5 0 0 0 TTTTTTTTTTTTTF1 81 1 68
2 329 674 624 0 0 456 755 759 81 1 740 331 674 656 0 0 755 162 760 82 1 756 0 81
 1 162 332 674 158 0 0 740 751 761 82 1 760 0 82 1 761 0 81 1 456 328 674 455 0
 0 679 682 762 82 1 759 0 81 1 679 327 674 677 0 0 408 456 763 82 1 762 0 81 1 4
08 326 674 406 0 0 750 679 764 82 1 763 0 81 1 750 325 674 642 0 0 0 408 765 82
 1 764 0 82 1 765 0 79 14 758 AttGS_PS_Layer17 128 0 34 120 301 115 129 302 0 23
3 +17 120 0 34 36 128 88 121 127 0 126 +17 129 0 401 62 233 122 128 302 0 301 -1
7 62 0 401 375 129 60 281 275 0 273 -17 375 0 401 57 62 85 283 366 0 405 -17 405
 0 602 83 227 85 57 235 0 0 -15 602 146 766 405 599 0 17 83 0 602 767 405 81 148
 211 0 365 +17 227 0 602 405 190 55 138 224 0 0 +17 190 0 602 227 180 111 186 20
 0 0 +17 138 0 406 198 402 111 227 224 0 189 -17 180 0 602 190 767 73 179 184 0
 186 -17 767 0 602 180 83 77 325 322 0 0 -17 179 0 175 459 75 77 180 184 0 767 +
17 459 0 175 101 179 76 107 326 0 0 -17 101 0 175 176 459 99 458 317 0 266 +17 1
07 0 460 325 150 77 459 326 0 179 +15 460 122 768 93 583 0 17 325 0 460 93 107 8
1 767 322 0 0 +17 93 0 460 150 325 84 365 261 0 259 -81 1 768 340 674 460 0 0 68
1 177 769 81 1 681 339 674 445 0 0 415 768 770 81 1 177 341 674 175 0 0 768 411
 771 82 1 769 0 81 1 411 342 674 124 0 0 177 753 772 82 1 771 0 82 1 772 0 81 1
 415 338 674 414 0 0 452 681 773 82 1 770 0 81 1 452 337 674 370 0 0 187 415 774
 82 1 773 0 81 1 187 336 674 169 0 0 672 452 775 82 1 774 0 82 1 775 0 17 148 0
 370 283 365 85 83 211 0 375 -81 1 766 346 674 602 0 0 776 747 777 81 1 776 345
 674 116 0 0 743 766 778 81 1 747 347 674 636 0 0 766 745 779 82 1 777 0 81 1 74
5 348 674 575 0 0 747 780 781 82 1 779 0 81 1 780 447 674 1 782 12 745 0 783 82
 1 781 0 81 1 782 446 757 1 784 780 0 0 785 81 1 12 448 786 1 780 2 0 0 787 82 1
 783 9 80 1 786 788 789 9000 0 0 0 0 3 5 0 0 0 TTTFTFTTFFFFFF3 84 6 787 Layer079
 26 789 ATTRIB_XGENERIC_LAYER_NAME80 1 757 790 791 9000 0 0 0 0 3 5 0 0 0 FTTFTF
TTFFFFFF1 81 1 784 367 792 1 0 782 0 0 793 82 1 785 9 80 1 792 194 794 8040 0 0
 0 0 3 5 0 0 0 TTTFFFFFFFFFFF2 83 3 793 .56078431372549 .686274509803922 .623529
411764706 79 17 794 SDL/TYSA_COLOUR_279 23 791 ATTRIB_XPARASOLID_LAYER15 116 53
 776 114 610 0 81 1 743 344 674 630 0 0 753 776 795 82 1 778 0 82 1 795 0 17 36
 0 34 31 120 32 114 119 0 0 -17 126 0 124 121 413 88 117 223 0 0 +17 117 0 116 4
18 114 43 126 223 0 253 -17 418 0 116 118 117 39 253 250 0 0 -18 43 55 0 117 89
 106 41 ?1 17 118 0 116 114 418 32 435 29 0 36 -17 435 0 624 67 37 39 118 29 0 4
18 +82 1 754 0 81 1 403 334 674 401 0 0 751 672 796 82 1 752 0 82 1 796 0 83 3 7
33 .56078431372549 .686274509803922 .623529411764706 83 3 729 .56078431372549 .6
86274509803922 .623529411764706 81 1 427 391 194 302 797 0 300 337 798 83 3 727
 .56078431372549 .686274509803922 .623529411764706 81 1 797 268 11 302 0 427 421
 472 799 83 3 798 .56078431372549 .686274509803922 .623529411764706 81 1 421 267
 11 335 0 419 462 797 800 81 1 472 269 11 267 0 429 797 470 801 84 5 799 0:10581
 1 429 421 194 267 472 0 373 265 802 84 5 801 0:13283 3 802 .56078431372549 .686
274509803922 .623529411764706 84 5 800 0:16883 3 724 .56078431372549 .6862745098
03922 .623529411764706 83 3 721 .56078431372549 .686274509803922 .62352941176470
6 83 3 714 .56078431372549 .686274509803922 .623529411764706 83 3 712 .560784313
72549 .686274509803922 .623529411764706 83 3 709 .56078431372549 .68627450980392
2 .623529411764706 83 3 706 .56078431372549 .686274509803922 .623529411764706 83
 3 703 .56078431372549 .686274509803922 .623529411764706 17 417 0 670 166 676 98
 292 287 0 164 -17 292 0 414 140 153 65 417 287 0 0 +17 140 0 414 253 292 39 67
 254 0 435 +17 166 0 670 181 417 50 164 316 0 176 -17 164 0 158 97 52 98 166 316
 0 0 +82 1 675 0 83 3 668 .56078431372549 .686274509803922 .623529411764706 51 1
9 163 0 188 665 5 0 +.00156568542494924 .001 0 -1 0 0 4e-4 0 0 1 51 665 162 0 41
6 661 19 0 +0 .001 .001 0 0 -1 4e-4 -1 0 0 51 661 161 0 457 657 665 0 +.001 0 .0
01 0 -1 0 4e-4 -1 0 0 50 657 160 0 583 652 661 0 +.001 0 0 -1 0 0 0 0 1 51 652 1
59 0 623 647 657 0 +0 0 .001 0 0 -1 4e-4 -1 0 0 51 647 158 0 453 643 652 0 +.001
 0 .001 0 0 -1 4e-4 -1 0 0 50 643 157 0 635 637 647 0 +0 0 .001 0 0 1 1 0 0 50 6
37 156 0 610 631 643 0 +0 -1000157e-17 .00100000001000157 1 0 0 0 0 -1 50 631 15
5 0 409 625 637 0 +0 0 0 0 0 1 1 0 0 51 625 154 0 16 617 631 0 +0 0 .001 0 -1 0
 4e-4 1 0 0 51 617 153 0 412 612 625 0 +0 .00156568542494924 0 0 -1 0 4e-4 0 0 -
1 50 612 152 0 606 603 617 0 +0 0 0 0 1 0 0 0 1 51 603 151 0 599 596 612 0 +.001
 .00156568542494924 0 0 -1 0 4e-4 0 0 -1 51 596 150 0 404 590 603 0 +.0015656854
2494924 0 0 -1 0 0 4e-4 0 0 1 51 590 149 0 574 584 596 0 +.001 0 .001 1 0 0 4e-4
 0 1 0 51 584 148 0 178 576 590 0 +.001 .001 .001 0 0 -1 4e-4 -1 0 0 50 576 147
 0 163 0 584 0 +0 .001 .001 0 -1 0 0 0 -1 83 3 666 .56078431372549 .686274509803
922 .623529411764706 83 3 662 .56078431372549 .686274509803922 .623529411764706
 83 3 658 .56078431372549 .686274509803922 .623529411764706 83 3 653 .5607843137
2549 .686274509803922 .623529411764706 83 3 649 .56078431372549 .686274509803922
 .623529411764706 83 3 644 .56078431372549 .686274509803922 .623529411764706 83
 3 639 .56078431372549 .686274509803922 .623529411764706 83 3 632 .5607843137254
9 .686274509803922 .623529411764706 83 3 627 .56078431372549 .686274509803922 .6
23529411764706 83 3 619 .56078431372549 .686274509803922 .623529411764706 83 3 6
14 .56078431372549 .686274509803922 .623529411764706 83 3 605 .56078431372549 .6
86274509803922 .623529411764706 83 3 598 .56078431372549 .686274509803922 .62352
9411764706 83 3 592 .56078431372549 .686274509803922 .623529411764706 83 3 587 .
56078431372549 .686274509803922 .623529411764706 83 3 579 .56078431372549 .68627
4509803922 .623529411764706 83 3 570 .56078431372549 .686274509803922 .623529411
764706 83 3 567 .56078431372549 .686274509803922 .623529411764706 83 3 562 .5607
8431372549 .686274509803922 .623529411764706 83 3 560 .56078431372549 .686274509
803922 .623529411764706 83 3 557 .56078431372549 .686274509803922 .6235294117647
06 81 1 321 424 194 182 477 0 246 183 803 83 3 554 .56078431372549 .686274509803
922 .623529411764706 83 3 803 .56078431372549 .686274509803922 .623529411764706
 83 3 551 .56078431372549 .686274509803922 .623529411764706 83 3 548 .5607843137
2549 .686274509803922 .623529411764706 83 3 545 .56078431372549 .686274509803922
 .623529411764706 83 3 542 .56078431372549 .686274509803922 .623529411764706 83
 3 538 .56078431372549 .686274509803922 .623529411764706 83 3 535 .5607843137254
9 .686274509803922 .623529411764706 83 3 531 .56078431372549 .686274509803922 .6
23529411764706 83 3 526 .56078431372549 .686274509803922 .623529411764706 83 3 5
22 .56078431372549 .686274509803922 .623529411764706 83 3 520 .56078431372549 .6
86274509803922 .623529411764706 83 3 517 .56078431372549 .686274509803922 .62352
9411764706 83 3 514 .56078431372549 .686274509803922 .623529411764706 83 3 511 .
56078431372549 .686274509803922 .623529411764706 83 3 508 .56078431372549 .68627
4509803922 .623529411764706 83 3 504 .56078431372549 .686274509803922 .623529411
764706 83 3 501 .56078431372549 .686274509803922 .623529411764706 83 3 498 .5607
8431372549 .686274509803922 .623529411764706 83 3 495 .56078431372549 .686274509
803922 .623529411764706 83 3 492 .56078431372549 .686274509803922 .6235294117647
06 83 3 489 .56078431372549 .686274509803922 .623529411764706 83 3 486 .56078431
372549 .686274509803922 .623529411764706 84 5 483 0:21979 13 481 SDL/TYSA_NAME84
 5 474 0:22883 3 469 .56078431372549 .686274509803922 .623529411764706 84 5 466
 0:21679 15 464 SDL/TYSA_COLOUR83 3 450 .56078431372549 .686274509803922 .623529
411764706 83 3 444 .56078431372549 .686274509803922 .623529411764706 83 3 422 .5
6078431372549 .686274509803922 .623529411764706 83 3 400 .56078431372549 .686274
509803922 .623529411764706 136 380 3 5 4 3 4 FFT1 804 805 806 135 381 2 0 45 20
 804 .000294033703976692 .000745532425919888 .000745532425919888 1.0395661298965
8 .000324080318664915 .000689108391300615 .000764122942679822 1.01318870996553 .
0003744257246834625 .000612385565351007 .0008317190767692 .98681129003447 .00040
5275483986212 .000607913225979318 .000960145411997624 1.01318870996553 .00041582
6451958632 .000623739677937948 .00103956612989658 1.03956612989658 127 3 805 4 1
 4 128 3 806 -.59161144907838 -.39269908169872 -.19378671431907 83 3 374 .560784
31372549 .686274509803922 .623529411764706 83 3 369 .56078431372549 .68627450980
3922 .623529411764706 83 3 291 .56078431372549 .686274509803922 .623529411764706
 83 3 279 .56078431372549 .686274509803922 .623529411764706 136 205 3 5 4 3 4 FF
T1 807 808 809 135 206 2 0 45 20 807 .000745532425919888 .000294033703976692 .00
0745532425919888 1.03956612989658 .000689108391300615 .000324080318664915 .00076
4122942679822 1.01318870996553 .000612385565351007 .0003744257246834625 .0008317
190767692 .98681129003447 .000607913225979318 .000405275483986212 .0009601454119
97624 1.01318870996553 .000623739677937948 .000415826451958632 .0010395661298965
8 1.03956612989658 127 3 808 4 1 4 128 3 809 -.59161144907838 -.39269908169872 -
.19378671431907 83 3 197 .56078431372549 .686274509803922 .623529411764706 19 17
 1 0 1 0 8 4 S0 136 22 3 5 4 3 4 FFT1 810 811 812 135 23 2 0 45 20 810 .00074553
2425919888 .000745532425919888 .000294033703976692 1.03956612989658 .00068910839
1300615 .000689108391300615 .000249065767285708 1.01318870996553 .00061238556535
1007 .000612385565351007 .0001550922132652705 .98681129003447 .00060791322597931
8 .000607913225979318 530432979679064e-19 1.01318870996553 .000623739677937948 .
000623739677937948 0 1.03956612989658 127 3 811 4 1 4 128 3 812 -.59161144907838
 -.39269908169872 -.19378671431907 74 20 15 6 0 0 2 780 784 226 782 12 0 0 0 0 0
 0 0 0 0 0 0 0 0 0 84 8 14   Solid11 0 
