**ABCDEFGHIJKLMNOPQRSTUVWXYZabcdefghijklmnopqrstuvwxyz**************************
**PARASOLID !"#$%&'()*+,-./:;<=>?@[\]^_`{|}~0123456789**************************
**PART1;
MC=AMD64;
MC_MODEL=Intel64 Family 6 Model 158 Stepping 10, GenuineIntel;
MC_ID=unknown;
OS=Windows_NT;
OS_RELEASE=unknown;
FRU=Parasolid Version 31.1, build 290,  3- 9-2020;
APPL=SOLIDWORKS 2020-2020128;
SITE=;
USER=unknown;
FORMAT=text;
GUISE=transmit;
KEY=SC2;
FILE=SC2.x_t;
DATE=Wed Jan 12 10:46:41 2022;
**PART2;
SCH=SCH_3101290_31100;
USFLD_SIZE=0;
**PART3;
**END_OF_HEADER*****************************************************************
T51 : TRANSMIT FILE created by modeller version 310129023 SCH_3101290_31100_1300
6222 0 12 34 CCCCCCI4 mesh1006 0 I8 polyline1008 0 CCCCCCCDI5 owner1040 0 CCCCCC
I13 boundary_mesh1006 0 I17 boundary_polyline1008 0 CCCA16 index_map_offset0 0 1
 dA9 index_map82 0 A17 node_id_index_map82 0 A20 schema_embedding_map82 0 A5 chi
ld12 0 A14 lowest_node_id0 0 1 dA16 mesh_offset_data206 0 Z1 3938 2 3 0 0 0 0 0
 0 1e3 1e-8 0 4 0 1 0 1 1 5 6 7 8 0 0 9 10 11 0 0 0 0 0 0 0 81 255 2 2 3912 12 1
 13 0 0 0 0 14 70 11 CI9 list_type0 0 1 uI10 notransmit0 0 1 lCCCDCCDI12 finger_
index0 0 1 dI12 finger_block1012 0 CZ3 0 4 T1 0 0 9 20 1 15 15 13 255 5 31 0 1 0
 16 0 0 17 0 51 255 6 30 0 16 18 0 0 -0 0 .001 0 0 -1 25e-5 -1 0 0 31 255 7 3376
 0 10 19 0 0 --.002 .002 .00031224989991992 0 0 -1 -1 0 0 25e-5 29 255 8 3373 0
 11 20 0 -.002 .00175 .00031224989991992 19 8 CCCCCCCA5 owner12 0 Z9 9 0 1 17 0
 21 V0 16 255 10 3374 0 ?22 0 23 7 0 0 1 18 255 11 3371 0 24 0 25 8 ?1 17 255 24
 0 26 27 28 11 29 30 0 31 +18 25 3211 0 32 11 33 20 ?1 17 32 0 34 35 36 25 37 38
 0 39 -18 33 3194 0 35 25 40 41 ?1 29 20 3213 0 25 41 8 0 .00168775010008008 25e
-5 29 41 3196 0 33 42 20 -25e-5 .00168775010008008 29556407184538e-33 29 42 3187
 0 40 43 41 0 .00175 .00031224989991992 18 40 3185 0 44 33 45 42 ?1 29 43 3178 0
 45 46 42 -.00031224989991992 .00175 118225628738152e-33 18 45 3176 0 47 40 48 4
3 ?1 29 46 3158 0 48 49 43 -25e-5 .002 .00031224989991992 18 48 3156 0 50 45 51
 46 ?1 29 49 2738 0 51 52 46 -.00031224989991992 .002 .00175 18 51 2736 0 53 48
 54 49 ?1 29 52 2363 0 54 55 49 0 25e-5 .00168775010008008 18 54 2361 0 56 51 57
 52 ?1 29 55 2346 0 57 58 52 -25e-5 0 .00168775010008008 18 57 2344 0 59 54 60 5
5 ?1 29 58 2337 0 60 61 55 0 .00031224989991992 .00175 18 60 2335 0 62 57 63 58
 ?1 29 61 2309 0 63 64 58 -.00031224989991992 25e-5 .002 18 63 2307 0 65 60 66 6
1 ?1 29 64 2306 0 66 67 61 -25e-5 .00031224989991992 .002 18 66 2304 0 68 63 69
 64 ?1 29 67 2146 0 69 70 64 -.00168775010008008 25e-5 236451257476304e-33 18 69
 2144 0 71 66 72 67 ?1 29 70 2130 0 72 73 67 -.00168775010008008 0 25e-5 18 72 2
128 0 74 69 75 70 ?1 29 73 2121 0 75 76 70 -.00175 0 .00031224989991992 18 75 21
19 0 77 72 78 73 ?1 29 76 2112 0 78 79 73 -.00175 .00031224989991992 29556407184
538e-33 18 78 2110 0 80 75 81 76 ?1 29 79 2099 0 81 82 76 -.002 25e-5 .000312249
89991992 18 81 2097 0 83 78 84 79 ?1 29 82 2096 0 84 85 79 -.002 .00031224989991
992 25e-5 18 84 2094 0 86 81 87 82 ?1 29 85 1879 0 87 88 82 -.00031224989991992
 0 25e-5 18 87 1877 0 89 84 90 85 ?1 29 88 815 0 90 91 85 0 0 0 18 90 692 0 92 8
7 93 88 ?1 29 91 1032 0 93 94 88 0 0 .002 18 93 943 0 95 90 96 91 ?1 29 94 1283
 0 96 97 91 -.002 0 0 18 96 1150 0 98 93 99 94 ?1 29 97 1294 0 99 100 94 -.002 0
 .002 18 99 1156 0 101 96 102 97 ?1 29 100 1664 0 102 103 97 0 .002 0 18 102 147
5 0 104 99 105 100 ?1 29 103 1672 0 105 106 100 0 .002 .002 18 105 1480 0 107 10
2 108 103 ?1 29 106 1680 0 108 109 103 -.002 .002 0 18 108 1493 0 110 105 111 10
6 ?1 29 109 1688 0 111 112 106 -.002 .002 .002 18 111 1497 0 113 108 114 109 ?1
 29 112 2049 0 114 115 109 -25e-5 -872870334710783e-33 .00031224989991992 18 114
 1984 0 116 111 117 112 ?1 29 115 2052 0 117 118 112 -25e-5 .00031224989991992 0
 18 117 1986 0 119 114 120 115 ?1 29 118 2053 0 120 121 115 -.00031224989991992
 25e-5 0 18 120 1988 0 122 117 123 118 ?1 29 121 2055 0 123 124 118 0 25e-5 .000
31224989991992 18 123 1985 0 125 120 126 121 ?1 29 124 2056 0 126 127 121 0 .000
31224989991992 25e-5 18 126 1992 0 37 123 128 124 ?1 29 127 2481 0 128 129 124 -
.00031224989991992 0 .00175 18 128 2416 0 130 126 131 127 ?1 29 129 2686 0 131 1
32 127 -.00175 -872870334710783e-33 .00168775010008008 18 131 2633 0 133 128 134
 129 ?1 29 132 2687 0 134 135 129 -.00168775010008008 0 .00175 18 134 2622 0 136
 131 137 132 ?1 29 135 2689 0 137 138 132 -.00175 .00031224989991992 .002 18 137
 2626 0 139 134 140 135 ?1 29 138 2690 0 140 141 135 -.00168775010008008 25e-5 .
002 18 140 2623 0 142 137 143 138 ?1 29 141 2692 0 143 144 138 -.002 25e-5 .0016
8775010008008 18 143 2625 0 145 140 146 141 ?1 29 144 2693 0 146 147 141 -.002 .
00031224989991992 .00175 18 146 2631 0 148 143 149 144 ?1 29 147 2910 0 149 150
 144 0 .00175 .00168775010008008 18 149 2856 0 151 146 152 147 ?1 29 150 2911 0
 152 153 147 0 .00168775010008008 .00175 18 152 2846 0 154 149 155 150 ?1 29 153
 2913 0 155 156 150 -25e-5 .00168775010008008 .002 18 155 2847 0 157 152 158 153
 ?1 29 156 2914 0 158 159 153 -.00031224989991992 .00175 .002 18 158 2849 0 160
 155 161 156 ?1 29 159 2916 0 161 162 156 -25e-5 .002 .00168775010008008 18 161
 2852 0 163 158 164 159 ?1 29 162 3121 0 164 165 159 -.00175 .00168775010008008
 .002 18 164 3057 0 166 161 167 162 ?1 29 165 3122 0 167 168 162 -.0016877501000
8008 .00175 .002 18 167 3069 0 169 164 170 165 ?1 29 168 3124 0 170 171 165 -.00
175 .002 .00168775010008008 18 170 3059 0 172 167 173 168 ?1 29 171 3125 0 173 1
74 168 -.00168775010008008 .002 .00175 18 173 3060 0 175 170 176 171 ?1 29 174 3
127 0 176 177 171 -.002 .00175 .00168775010008008 18 176 3067 0 27 173 178 174 ?
1 29 177 3128 0 178 179 174 -.002 .00168775010008008 .00175 18 178 3058 0 180 17
6 181 177 ?1 29 179 3330 0 181 182 177 -.00031224989991992 .002 25e-5 18 181 326
5 0 183 178 184 179 ?1 29 182 3546 0 184 185 179 -.00175 .00168775010008008 0 18
 184 3490 0 186 181 187 182 ?1 29 185 3547 0 187 188 182 -.00168775010008008 .00
175 0 18 187 3483 0 189 184 190 185 ?1 29 188 3549 0 190 191 185 -.00175 .002 .0
0031224989991992 18 190 3488 0 192 187 193 188 ?1 29 191 3550 0 193 194 188 -.00
168775010008008 .002 25e-5 18 193 3484 0 195 190 196 191 ?1 29 194 3553 0 196 0
 191 -.002 .00168775010008008 25e-5 18 196 3487 0 29 193 0 194 ?1 17 29 0 197 18
6 31 196 24 30 0 198 -15 255 197 3500 0 186 199 0 17 186 0 197 189 29 184 198 20
0 0 201 -17 31 0 197 29 192 11 22 10 0 202 -16 30 3463 0 ?24 203 0 204 0 0 1 17
 198 0 205 86 206 196 186 200 0 28 +15 205 1174 0 206 207 0 17 86 0 205 80 198 8
4 28 208 0 209 +17 206 0 205 198 80 184 210 211 0 0 +16 200 3459 0 ?198 212 213
 214 0 0 1 17 28 0 26 24 215 196 86 208 0 0 -15 26 3568 0 28 216 217 17 215 0 26
 28 218 84 219 220 0 0 -16 208 3412 0 ?86 221 211 222 0 0 1 16 221 2098 0 ?223 2
24 208 225 0 0 1 16 211 2111 0 ?206 208 226 227 0 0 1 30 255 222 1248 0 208 227
 225 0 +-.002 .001 25e-5 0 -1 0 30 227 1251 0 211 228 222 0 --.00175 .001 295564
07184538e-33 0 -1 0 30 225 1247 0 221 222 229 0 --.002 25e-5 .001 0 0 -1 30 229
 1016 0 224 225 230 0 --.001 0 .00175 1 0 0 16 224 2327 0 ?231 232 221 229 0 0 1
 30 230 1013 0 232 229 233 0 +0 -.005 .002 0 1 0 16 232 929 0 ?234 235 224 230 0
 0 1 30 233 1012 0 235 230 236 0 --.001 25e-5 .002 1 0 0 16 235 2308 0 ?237 238
 232 233 0 0 1 30 236 1011 0 238 233 239 0 --25e-5 .001 .002 0 -1 0 16 238 2305
 0 ?240 241 235 236 0 0 1 30 239 1008 0 241 236 242 0 +0 .001 .00175 0 -1 0 16 2
41 2795 0 ?62 243 238 239 0 0 1 30 242 998 0 243 239 244 0 +0 0 .002 1 0 1182256
28738152e-30 16 243 928 0 ?95 245 241 242 0 0 1 30 244 794 0 245 242 246 0 +0 0
 .005 0 0 -1 16 245 675 0 ?92 247 243 244 0 0 1 30 246 777 0 247 244 248 0 --.00
1 0 25e-5 1 0 0 16 247 1878 0 ?249 250 245 246 0 0 1 30 248 776 0 250 246 251 0
 --25e-5 0 .001 0 0 -1 16 250 1881 0 ?59 252 247 248 0 0 1 30 251 444 0 252 248
 253 0 +0 -.005 0 0 1 0 16 252 560 0 ?254 255 250 251 0 0 1 30 253 434 0 255 251
 256 0 --.001 25e-5 118225628738152e-33 1 0 0 16 255 1903 0 ?71 257 252 253 0 0
 1 30 256 433 0 257 253 258 0 --25e-5 .001 29556407184538e-33 0 -1 0 16 257 1900
 0 ?259 38 255 256 0 0 1 30 258 430 0 38 256 260 0 +0 .001 25e-5 0 -1 0 16 38 32
12 0 ?37 261 257 258 0 0 1 30 260 429 0 261 258 262 0 -0 25e-5 .001 0 0 -1 16 26
1 1922 0 ?263 264 38 260 0 0 1 30 262 567 0 264 260 265 0 +0 0 0 1 0 -1182256287
38152e-30 16 264 565 0 ?266 267 261 262 0 0 1 31 265 2520 0 267 262 268 0 --.002
 .00031224989991992 .002 0 -1 0 0 0 -1 25e-5 16 267 2518 0 ?269 270 264 265 0 0
 1 31 268 2744 0 270 265 19 0 +-.00031224989991992 .002 .002 1 0 0 0 0 -1 25e-5
 16 270 2742 0 ?271 23 267 268 0 0 1 31 19 2954 0 23 268 7 0 --.002 .002 .001687
75010008008 0 0 1 1 0 0 25e-5 16 23 2952 0 ?272 10 270 19 0 0 1 17 272 0 273 202
 172 176 274 23 0 0 +15 273 1564 0 202 275 0 17 202 0 273 22 272 11 27 276 0 0 -
17 172 0 273 272 22 170 277 278 0 274 +17 274 0 279 175 280 170 272 23 0 281 -15
 279 3075 0 180 282 0 17 175 0 279 169 274 173 281 283 0 284 -17 280 0 279 274 1
80 176 285 286 0 272 +17 281 0 287 277 288 170 175 283 0 0 +15 287 3563 0 289 29
0 291 17 277 0 287 289 281 190 172 278 0 0 -17 288 0 287 281 53 173 292 293 0 0
 +16 283 3055 0 ?281 294 286 295 0 0 1 16 294 3031 0 ?166 296 283 297 0 0 1 16 2
86 3028 0 ?280 283 298 299 0 0 1 31 295 3115 0 283 299 297 0 +-.002 .002 .002 -3
491481338843135e-30 1 0 0 0 -1 4e-4 31 299 3118 0 286 300 295 0 +-.002 .002 .002
 1 0 0 0 0 -1 4e-4 31 297 3114 0 294 295 301 0 +-.002 .002 .002 0 0 -1 1 0 0 4e-
4 31 301 3109 0 296 297 302 0 +-.00168775010008008 .002 .002 -1 0 0 0 0 1 25e-5
 16 296 3030 0 ?169 303 294 301 0 0 1 31 302 3108 0 303 301 304 0 --.002 .001687
75010008008 .002 0 1 0 0 0 1 25e-5 16 303 3035 0 ?305 306 296 302 0 0 1 31 304 2
907 0 306 302 307 0 +0 .002 .002 1 0 0 0 0 -1 4e-4 16 306 2818 0 ?308 309 303 30
4 0 0 1 31 307 2904 0 309 304 310 0 +0 .002 .002 -3491481338843135e-30 -1 0 0 0
 -1 4e-4 16 309 2821 0 ?311 312 306 307 0 0 1 31 310 2903 0 312 307 313 0 +0 .00
2 .002 0 0 1 -1 0 0 4e-4 16 312 2827 0 ?314 315 309 310 0 0 1 31 313 2898 0 315
 310 316 0 -0 .002 .00168775010008008 0 0 1 1 0 0 25e-5 16 315 2829 0 ?317 318 3
12 313 0 0 1 31 316 2897 0 318 313 319 0 -0 .00168775010008008 .002 0 1 0 0 0 1
 25e-5 16 318 2823 0 ?320 321 315 316 0 0 1 31 319 2683 0 321 316 322 0 +-.002 0
 .002 -1 0 0 0 0 -1 4e-4 16 321 2606 0 ?323 324 318 319 0 0 1 31 322 2680 0 324
 319 325 0 +-.002 0 .002 3491481338843135e-30 1 0 0 0 -1 4e-4 16 324 2596 0 ?133
 326 321 322 0 0 1 31 325 2679 0 326 322 327 0 +-.002 0 .002 0 0 1 1 0 0 4e-4 16
 326 2612 0 ?328 329 324 325 0 0 1 31 327 2674 0 329 325 330 0 --.002 0 .0016877
5010008008 0 0 1 1 0 0 25e-5 16 329 2598 0 ?331 332 326 327 0 0 1 31 330 2673 0
 332 327 333 0 +-.00168775010008008 0 .002 -1 0 0 0 0 1 25e-5 16 332 2595 0 ?136
 334 329 330 0 0 1 31 333 2474 0 334 330 335 0 +0 0 .002 -1 0 0 0 0 -1 4e-4 16 3
34 2385 0 ?336 337 332 333 0 0 1 31 335 2471 0 337 333 338 0 +0 0 .002 349148133
8843135e-30 -1 0 0 0 -1 4e-4 16 337 2392 0 ?339 340 334 335 0 0 1 31 338 2470 0
 340 335 341 0 +0 0 .002 0 0 -1 -1 0 0 4e-4 16 340 2384 0 ?342 343 337 338 0 0 1
 31 341 2465 0 343 338 344 0 +-.00031224989991992 0 .002 1 0 0 0 0 -1 25e-5 16 3
43 2383 0 ?345 346 340 341 0 0 1 31 344 2464 0 346 341 347 0 -0 .000312249899919
92 .002 0 -1 0 0 0 -1 25e-5 16 346 2398 0 ?68 348 343 344 0 0 1 31 347 2463 0 34
8 344 349 0 -0 0 .00168775010008008 0 0 1 1 0 0 25e-5 16 348 2387 0 ?56 220 346
 347 0 0 1 31 349 2257 0 220 347 350 0 +-.002 0 0 1 0 0 0 0 1 4e-4 16 220 2170 0
 ?219 351 348 349 0 0 1 31 350 2254 0 351 349 352 0 +-.002 0 0 -3491481338843135
e-30 -1 0 0 0 1 4e-4 16 351 2193 0 ?353 354 220 350 0 0 1 31 352 2253 0 354 350
 355 0 +-.002 0 0 0 0 1 1 0 0 4e-4 16 354 2169 0 ?356 357 351 352 0 0 1 31 355 2
248 0 357 352 358 0 --.002 .00031224989991992 0 0 -1 0 0 0 -1 25e-5 16 357 2189
 0 ?80 359 354 355 0 0 1 31 358 2247 0 359 355 360 0 --.002 0 .00031224989991992
 0 0 -1 -1 0 0 25e-5 16 359 2172 0 ?83 361 357 358 0 0 1 31 360 2246 0 361 358 3
62 0 +-.00168775010008008 0 0 -1 0 0 0 0 1 25e-5 16 361 2168 0 ?363 364 359 360
 0 0 1 31 362 2046 0 364 360 365 0 +0 0 0 1 0 0 0 0 1 4e-4 16 364 1965 0 ?366 36
7 361 362 0 0 1 31 365 2043 0 367 362 368 0 +0 0 0 -3491481338843135e-30 1 0 0 0
 1 4e-4 16 367 1956 0 ?116 369 364 365 0 0 1 31 368 2042 0 369 365 370 0 +0 0 0
 0 0 -1 -1 0 0 4e-4 16 369 1964 0 ?371 372 367 368 0 0 1 31 370 2037 0 372 368 3
73 0 +-.00031224989991992 0 0 1 0 0 0 0 -1 25e-5 16 372 1955 0 ?374 375 369 370
 0 0 1 31 373 2036 0 375 370 376 0 -0 .00031224989991992 0 0 -1 0 0 0 -1 25e-5 1
6 375 1969 0 ?36 377 372 373 0 0 1 31 376 2035 0 377 373 378 0 -0 0 .00031224989
991992 0 0 -1 -1 0 0 25e-5 16 377 1958 0 ?379 380 375 376 0 0 1 30 378 1647 0 38
0 376 381 0 +-.002 .002 .005 0 0 -1 16 380 1462 0 ?382 278 377 378 0 0 1 30 381
 1646 0 278 378 383 0 --.00175 .002 .001 0 0 -1 16 278 3369 0 ?172 276 380 381 0
 0 1 30 383 1640 0 276 381 384 0 --.002 .00175 .001 0 0 -1 16 276 3372 0 ?27 293
 278 383 0 0 1 30 384 1635 0 293 383 385 0 --.001 .002 .00175 1 0 0 16 293 2737
 0 ?288 386 276 384 0 0 1 30 385 1633 0 386 384 387 0 --.001 .00175 .002 1 0 0 1
6 386 2740 0 ?388 389 293 385 0 0 1 30 387 1624 0 389 385 390 0 +0 .002 .002 1 0
 118225628738152e-30 16 389 1442 0 ?107 391 386 387 0 0 1 30 390 1623 0 391 387
 392 0 +0 .002 .005 0 0 -1 16 391 1441 0 ?393 394 389 390 0 0 1 30 392 1622 0 39
4 390 395 0 --.001 .002 25e-5 1 0 0 16 394 3154 0 ?396 397 391 392 0 0 1 30 395
 1621 0 397 392 398 0 --25e-5 .002 .001 0 0 -1 16 397 3157 0 ?163 399 394 395 0
 0 1 30 398 1619 0 399 395 400 0 --.001 .00175 118225628738152e-33 1 0 0 16 399
 3177 0 ?401 402 397 398 0 0 1 30 400 1614 0 402 398 403 0 -0 .00175 .001 0 0 -1
 16 402 3186 0 ?151 404 399 400 0 0 1 30 403 1609 0 404 400 405 0 +0 .002 0 1 0
 -118225628738152e-30 16 404 1434 0 ?104 406 402 403 0 0 1 30 405 1270 0 406 403
 407 0 +-.002 -.005 .002 0 1 0 16 406 1122 0 ?113 408 404 405 0 0 1 30 407 1268
 0 408 405 409 0 --.00175 .001 .002 0 -1 0 16 408 2516 0 ?410 411 406 407 0 0 1
 30 409 1265 0 411 407 412 0 +-.002 .001 .00175 0 -1 0 16 411 2991 0 ?148 413 40
8 409 0 0 1 30 412 1257 0 413 409 414 0 +-.002 0 .005 0 0 -1 16 413 1129 0 ?98 4
15 411 412 0 0 1 30 414 1254 0 415 412 228 0 --.00175 0 .001 0 0 -1 16 415 2120
 0 ?416 226 413 414 0 0 1 30 228 1253 0 226 414 227 0 +-.002 -.005 0 0 1 0 16 22
6 1126 0 ?110 211 415 228 0 0 1 17 110 0 417 104 418 108 419 226 0 382 +15 417 3
441 0 104 420 0 17 104 0 417 421 110 102 422 404 0 254 +17 418 0 417 110 421 96
 266 264 0 419 -17 419 0 217 423 382 96 110 226 0 0 -17 382 0 217 419 113 108 42
4 380 0 422 +15 217 3420 0 382 216 0 17 113 0 217 382 423 111 425 406 0 426 +17
 424 0 291 107 422 111 382 380 0 0 -17 422 0 291 424 393 108 104 404 0 0 -15 291
 3347 0 393 290 0 17 393 0 291 422 107 102 427 391 0 0 +17 107 0 291 393 424 105
 426 389 0 234 +17 427 0 428 429 254 105 393 391 0 0 -15 428 3217 0 254 430 0 17
 429 0 428 92 427 93 234 232 0 0 -17 254 0 428 427 92 102 421 252 0 393 +17 92 0
 428 254 429 90 431 245 0 266 +17 421 0 417 418 104 90 254 252 0 0 -17 431 0 432
 101 266 93 92 245 0 429 -17 266 0 432 431 98 90 418 264 0 421 +15 432 2501 0 43
1 433 0 17 98 0 432 266 101 96 423 413 0 418 +17 101 0 432 98 431 99 95 243 0 42
5 -17 423 0 217 113 419 99 98 413 0 0 -17 95 0 434 234 425 93 101 243 0 431 +17
 425 0 434 95 426 99 113 406 0 423 -15 434 3016 0 426 435 0 17 426 0 434 425 234
 111 107 389 0 424 -17 234 0 434 426 95 105 429 232 0 427 +14 255 435 979 436 ?4
37 438 439 5 440 +0 0 437 438 21 81 1 436 3913 441 435 442 0 0 443 444 14 437 11
66 443 ?207 435 445 5 446 -0 0 207 435 21 14 438 967 447 ?435 448 449 5 450 +0 0
 435 448 21 15 439 3146 0 410 435 434 50 255 440 996 0 435 446 450 0 +0 -.005 .0
02 -118225628738152e-30 0 1 -1 0 -118225628738152e-30 13 21 10 0 0 0 0 0 0 9 16
 14 16 268 451 ?452 0 453 5 6 -0 0 452 0 21 81 1 451 3916 441 16 454 0 447 455 4
56 14 452 254 455 ?457 16 34 5 18 -0 0 457 16 21 15 453 267 0 59 16 0 17 59 0 45
3 56 379 57 458 250 0 459 +17 56 0 453 460 59 54 459 348 0 263 +17 379 0 453 59
 460 114 125 377 0 458 +17 458 0 461 89 339 114 59 250 0 0 -17 459 0 462 463 336
 57 56 348 0 339 -15 462 2430 0 459 464 0 17 463 0 462 345 459 128 339 337 0 0 -
17 336 0 462 459 465 54 466 334 0 0 +17 339 0 461 458 130 57 463 337 0 0 +15 461
 2711 0 467 433 432 17 130 0 461 339 467 128 231 224 0 468 -17 467 0 461 130 416
 134 133 324 0 231 -17 231 0 449 469 468 134 130 224 0 0 +17 468 0 449 231 65 12
8 345 343 0 463 -15 449 2573 0 469 438 0 17 65 0 449 468 469 63 237 235 0 345 -1
7 345 0 462 342 463 63 468 343 0 470 +17 342 0 462 465 345 66 470 340 0 0 +17 47
0 0 439 237 471 63 342 340 0 0 -17 237 0 439 328 470 140 65 235 0 0 +17 471 0 43
9 470 314 66 240 238 0 342 -17 314 0 439 471 472 155 160 312 0 240 +17 240 0 473
 320 68 155 471 238 0 0 +15 473 962 0 240 448 0 17 320 0 473 62 240 152 157 318
 0 474 +17 68 0 473 240 62 66 465 346 0 471 +17 62 0 473 68 320 60 474 241 0 465
 +17 465 0 462 336 342 60 68 346 0 466 -17 466 0 475 474 263 60 336 334 0 0 -15
 475 3352 0 476 430 428 17 474 0 475 308 466 152 62 241 0 0 -17 263 0 475 466 36
6 54 460 261 0 336 +17 366 0 475 263 37 123 477 364 0 460 +17 460 0 453 379 56 1
23 263 261 0 0 -17 37 0 475 366 476 126 32 38 0 477 +17 477 0 478 119 125 126 36
6 364 0 36 -15 478 2002 0 125 479 0 17 119 0 478 122 477 117 36 375 0 371 -17 12
5 0 478 477 116 123 379 377 0 366 -17 36 0 34 32 480 126 119 375 0 0 +15 34 253
 0 32 452 0 17 480 0 34 36 35 117 259 257 0 0 -17 35 0 34 480 32 33 39 298 0 259
 +17 259 0 481 482 371 33 480 257 0 483 +15 481 3571 0 401 420 417 17 482 0 481
 401 259 45 483 484 0 0 -17 371 0 481 259 485 117 122 369 0 480 +17 483 0 486 39
 487 33 482 484 0 0 +15 486 3282 0 39 488 0 17 39 0 486 489 483 25 35 298 0 476
 -17 487 0 486 483 490 45 491 492 0 482 +16 484 3240 0 ?483 492 493 494 0 0 1 16
 492 3239 0 ?487 495 484 496 0 0 1 16 493 3235 0 ?497 484 212 498 0 0 1 31 494 3
322 0 484 498 496 0 +0 .002 0 0 0 1 -1 0 0 4e-4 31 498 3323 0 493 499 494 0 +0 .
002 0 3491481338843135e-30 1 0 0 0 1 4e-4 31 496 3317 0 492 494 500 0 +-.0003122
4989991992 .002 0 1 0 0 0 0 -1 25e-5 31 500 3316 0 495 496 300 0 -0 .002 .000312
24989991992 0 0 -1 -1 0 0 25e-5 16 495 3249 0 ?44 298 492 500 0 0 1 31 300 3315
 0 298 500 299 0 -0 .00168775010008008 0 0 1 0 0 0 1 25e-5 16 298 3243 0 ?35 286
 495 300 0 0 1 17 44 0 501 151 50 40 502 495 0 503 +15 501 1506 0 50 504 0 17 15
1 0 501 317 44 149 503 402 0 505 +17 50 0 501 44 317 48 163 397 0 502 -17 502 0
 486 490 489 48 44 495 0 497 -17 503 0 475 476 308 40 151 402 0 489 -17 476 0 47
5 37 503 25 489 212 0 0 -17 308 0 475 503 474 149 154 306 0 0 +17 489 0 486 502
 39 40 476 212 0 0 +16 212 3237 0 ?489 493 200 499 0 0 1 31 499 3326 0 212 214 4
98 0 +0 .002 0 -1 0 0 0 0 1 4e-4 31 214 3533 0 200 506 499 0 --.002 .00168775010
008008 0 0 1 0 0 0 1 25e-5 31 506 3534 0 213 507 214 0 +-.00168775010008008 .002
 0 -1 0 0 0 0 1 25e-5 16 213 3454 0 ?195 200 508 506 0 0 1 31 507 3539 0 508 509
 506 0 +-.002 .002 0 0 0 -1 1 0 0 4e-4 16 508 3453 0 ?201 213 203 507 0 0 1 31 5
09 3540 0 203 204 507 0 +-.002 .002 0 3491481338843135e-30 -1 0 0 0 1 4e-4 16 20
3 3455 0 ?192 508 30 509 0 0 1 31 204 3543 0 30 0 509 0 +-.002 .002 0 -1 0 0 0 0
 1 4e-4 17 192 0 197 31 195 190 289 203 0 22 +17 195 0 197 192 189 193 510 213 0
 289 +17 289 0 287 183 277 193 192 203 0 396 -17 22 0 273 172 202 190 31 10 0 27
7 +17 183 0 287 497 289 181 396 394 0 491 -17 396 0 511 510 491 193 183 394 0 0
 +15 511 3406 0 510 512 0 17 510 0 511 47 396 187 195 213 0 401 -17 491 0 511 39
6 47 181 487 492 0 490 -17 47 0 511 491 510 45 401 399 0 487 -17 490 0 486 487 5
02 181 497 493 0 0 -17 497 0 287 163 183 48 490 493 0 0 +17 163 0 287 53 497 161
 50 397 0 311 +17 53 0 287 288 163 51 311 309 0 271 -17 311 0 513 505 271 161 53
 309 0 317 +15 513 2864 0 157 514 0 17 505 0 513 154 311 149 317 315 0 308 -17 2
71 0 513 311 160 51 515 270 0 292 +17 317 0 501 50 151 161 505 315 0 0 +17 160 0
 513 271 157 158 314 312 0 515 -17 515 0 516 388 292 158 271 270 0 472 -17 292 0
 516 515 284 51 288 293 0 0 -15 516 2966 0 284 517 0 17 284 0 516 292 388 173 16
9 296 0 288 -17 388 0 516 284 515 167 472 386 0 0 +17 169 0 279 166 175 167 284
 296 0 518 +17 166 0 279 180 169 164 518 294 0 305 +17 518 0 439 472 410 167 166
 294 0 388 -17 472 0 439 314 518 158 388 386 0 0 -17 410 0 439 518 328 164 519 4
08 0 0 +17 328 0 439 410 237 137 142 326 0 519 +17 519 0 520 269 305 137 410 408
 0 0 -15 520 1206 0 521 522 0 17 269 0 520 521 519 146 139 267 0 0 +17 305 0 520
 519 521 164 180 303 0 410 +17 521 0 520 305 269 178 148 411 0 0 -17 180 0 279 2
80 166 178 305 303 0 285 -17 285 0 26 148 27 178 280 286 0 521 -17 148 0 26 323
 285 146 521 411 0 523 +17 27 0 26 285 24 176 202 276 0 280 +17 323 0 26 218 148
 143 523 321 0 223 +17 523 0 524 139 145 146 323 321 0 269 -15 524 2643 0 142 52
5 0 17 139 0 524 142 523 137 269 267 0 328 -17 145 0 524 523 133 143 331 329 0 3
23 -17 133 0 524 145 136 131 467 324 0 331 +17 331 0 445 77 223 131 145 329 0 41
6 +15 445 1170 0 223 437 0 17 77 0 445 83 331 75 416 415 0 526 -17 223 0 445 331
 83 143 218 221 0 0 +17 416 0 461 467 353 131 77 415 0 0 +17 353 0 461 416 249 7
5 527 351 0 0 +17 249 0 461 353 89 72 528 247 0 527 +17 527 0 529 363 526 72 353
 351 0 0 -15 529 2216 0 527 530 0 17 363 0 529 356 527 69 74 361 0 531 +17 526 0
 529 527 219 75 83 359 0 353 -17 219 0 529 526 209 81 215 220 0 0 +17 83 0 445 2
23 77 81 526 359 0 218 +17 218 0 26 215 323 81 223 221 0 219 -17 209 0 529 219 3
56 84 80 357 0 215 -17 356 0 529 209 363 78 531 354 0 0 +17 80 0 205 206 86 78 2
09 357 0 210 +17 210 0 481 531 201 78 206 211 0 356 -17 531 0 481 485 210 69 356
 354 0 0 -17 201 0 481 210 401 184 189 508 0 206 +17 401 0 481 201 482 187 47 39
9 0 0 +17 189 0 197 195 186 187 201 508 0 510 -17 485 0 481 371 531 120 71 255 0
 0 -17 71 0 532 74 533 69 485 255 0 363 +15 532 2158 0 74 457 0 17 74 0 532 528
 71 72 363 361 0 249 -17 533 0 532 71 528 120 374 372 0 485 -17 528 0 532 533 74
 87 249 247 0 0 -17 374 0 478 116 122 87 533 372 0 528 +17 116 0 478 125 374 114
 89 367 0 379 +17 122 0 478 374 119 120 371 369 0 533 -17 89 0 461 249 458 87 11
6 367 0 374 -14 457 234 534 ?430 452 532 5 535 +0 0 430 452 21 81 1 534 3918 441
 457 536 0 455 537 538 14 430 367 537 ?420 457 475 5 539 +0 0 420 457 21 51 535
 191 0 457 539 18 0 +-.001 0 0 1 0 0 25e-5 0 0 -1 50 539 422 0 430 540 535 0 +0
 -.005 0 1 0 0 0 0 -1 51 18 102 0 452 535 6 0 -0 .001 0 0 -1 0 25e-5 0 0 -1 50 5
40 423 0 420 541 539 0 +0 -.005 0 -118225628738152e-30 0 -1 -1 0 118225628738152
e-30 14 420 407 542 ?433 430 481 5 540 +0 0 433 430 21 50 541 767 0 433 543 540
 0 +0 0 .005 0 1 0 0 0 1 14 433 752 544 ?448 420 461 5 541 -0 0 448 420 21 51 54
3 991 0 448 450 541 0 -0 .001 .002 0 -1 0 25e-5 0 0 1 14 448 959 545 ?438 433 47
3 5 543 -0 0 438 433 21 51 450 993 0 438 440 543 0 +-.001 0 .002 1 0 0 25e-5 0 0
 1 81 1 545 3922 441 448 546 0 544 547 548 80 255 1 441 549 550 9000 1 1 1 1 1 1
 1 1 0 FFFFTFTFFFFFFF1 81 1 546 3785 551 448 0 545 552 553 554 81 1 544 3921 441
 433 552 0 542 545 555 81 1 547 3923 441 464 556 0 545 557 558 82 255 1 548 1280
704931 14 464 2428 547 ?525 530 462 5 559 +0 0 525 530 21 81 1 556 3799 551 464
 0 547 560 561 562 81 1 557 3924 441 525 561 0 547 563 564 82 1 558 -1720647285
 14 525 2641 557 ?514 464 524 5 565 +0 0 514 464 21 81 1 561 3800 551 525 0 557
 556 566 567 81 1 563 3925 441 216 568 0 557 569 570 82 1 564 -1689779829 14 216
 1189 563 ?522 207 26 5 571 +0 0 522 207 21 81 1 568 3790 551 216 0 563 572 573
 574 81 1 569 3926 441 290 575 0 563 576 577 82 1 570 1283719587 14 290 1532 569
 ?517 512 287 5 578 -0 0 517 512 21 81 1 575 3794 551 290 0 569 579 580 581 81 1
 576 3927 441 199 582 0 569 583 584 82 1 577 1250689443 14 199 3498 576 ?0 488 1
97 5 585 +0 0 0 488 21 81 1 582 3804 551 199 0 576 586 0 587 81 1 583 3928 441 4
88 586 0 576 588 589 82 1 584 -1240858205 14 488 3280 583 ?199 282 486 5 590 +0
 0 199 282 21 81 1 586 3803 551 488 0 583 591 582 592 81 1 588 3929 441 282 591
 0 583 593 594 82 1 589 -1272577629 14 282 3073 588 ?488 514 279 5 595 +0 0 488
 514 21 81 1 591 3802 551 282 0 588 566 586 596 81 1 593 3930 441 514 566 0 588
 597 598 82 1 594 -1306263133 14 514 2862 593 ?282 525 513 5 599 +0 0 282 525 21
 81 1 566 3801 551 514 0 593 561 591 600 81 1 597 3931 441 275 601 0 593 602 603
 82 1 598 -1338768989 14 275 1560 597 ?479 517 273 5 604 -0 0 479 517 21 81 1 60
1 3796 551 275 0 597 580 605 606 81 1 602 3932 441 517 580 0 597 607 608 82 1 60
3 1253048739 14 517 1550 602 ?275 290 516 5 609 +0 0 275 290 21 81 1 580 3795 55
1 517 0 602 575 601 610 81 1 607 3933 441 512 579 0 602 611 612 82 1 608 1252524
451 14 512 1517 607 ?290 504 511 5 613 +0 0 290 504 21 81 1 579 3793 551 512 0 6
07 614 575 615 81 1 611 3934 441 504 614 0 607 616 617 82 1 612 1251606947 14 50
4 1502 611 ?512 522 501 5 618 -0 0 512 522 21 81 1 614 3792 551 504 0 611 573 57
9 619 81 1 616 3935 441 522 573 0 611 620 621 82 1 617 1251082659 14 522 1203 61
6 ?504 216 520 5 622 -0 0 504 216 21 81 1 573 3791 551 522 0 616 568 614 623 81
 1 620 3936 441 207 572 0 616 624 625 82 1 621 1283981731 14 207 1171 620 ?216 4
37 205 5 626 -0 0 216 437 21 81 1 572 3789 551 207 0 620 627 568 628 81 1 624 39
37 441 530 560 0 620 629 630 82 1 625 1283195299 14 530 2214 624 ?464 479 529 5
 631 +0 0 464 479 21 81 1 560 3798 551 530 0 624 605 556 632 81 1 629 3938 441 4
79 605 0 624 0 633 82 1 630 -1754267255 14 479 2000 629 ?530 275 478 5 634 +0 0
 530 275 21 81 1 605 3797 551 479 0 629 601 560 635 82 1 633 -1786838650 80 1 55
1 0 636 8001 0 0 0 0 3 5 0 0 0 FFFFTFTFFFFFFF2 83 255 3 635 .792156862745098 .81
9607843137255 .933333333333333 79 255 15 636 SDL/TYSA_COLOUR53 255 634 2029 0 47
9 631 604 0 +0 0 0 4e-4 0 0 -1 -1 -3491481338843135e-30 0 53 631 2240 0 530 559
 634 0 +-.002 0 0 4e-4 0 0 -1 1 -3491481338843135e-30 0 51 604 1603 0 275 634 60
9 0 --.002 .002 .001 0 0 -1 25e-5 1 0 0 51 609 1601 0 517 604 578 0 +-.001 .002
 .002 1 0 0 25e-5 0 0 1 50 578 1598 0 290 609 613 0 +0 .002 .005 0 -1 0 0 0 1 51
 613 1595 0 512 578 618 0 +-.001 .002 0 1 0 0 25e-5 0 0 -1 51 618 1592 0 504 613
 622 0 -0 .002 .001 0 0 -1 25e-5 -1 0 0 51 622 1235 0 522 618 571 0 --.002 .001
 .002 0 -1 0 25e-5 0 0 1 50 571 1232 0 216 622 626 0 +-.002 -.005 0 -1 0 0 0 0 -
1 51 626 1228 0 207 571 446 0 --.002 .001 0 0 -1 0 25e-5 0 0 -1 51 446 1227 0 43
7 626 440 0 --.002 0 .001 0 0 -1 25e-5 1 0 0 53 559 2457 0 464 565 631 0 +0 0 .0
02 4e-4 0 0 1 -1 -3491481338843135e-30 0 53 565 2667 0 525 599 559 0 +-.002 0 .0
02 4e-4 0 0 1 1 -3491481338843135e-30 0 53 599 2891 0 514 595 565 0 +0 .002 .002
 4e-4 0 0 1 -1 3491481338843135e-30 0 53 595 3102 0 282 590 599 0 +-.002 .002 .0
02 4e-4 0 0 1 1 3491481338843135e-30 0 53 590 3309 0 488 585 595 0 +0 .002 0 4e-
4 0 0 -1 -1 3491481338843135e-30 0 53 585 3527 0 199 0 590 0 +-.002 .002 0 4e-4
 0 0 -1 1 3491481338843135e-30 0 83 3 632 .792156862745098 .819607843137255 .933
333333333333 81 1 627 3788 551 437 0 443 442 572 637 83 3 628 .792156862745098 .
819607843137255 .933333333333333 81 1 443 3914 441 437 627 0 436 447 638 81 1 44
2 3787 551 435 0 436 553 627 639 83 3 637 .792156862745098 .819607843137255 .933
333333333333 81 1 553 3786 551 438 0 447 546 442 640 83 3 639 .792156862745098 .
819607843137255 .933333333333333 81 1 447 3915 441 438 553 0 443 451 641 83 3 64
0 .792156862745098 .819607843137255 .933333333333333 82 1 641 1282408843 82 1 63
8 1282933131 83 3 623 .792156862745098 .819607843137255 .933333333333333 83 3 61
9 .792156862745098 .819607843137255 .933333333333333 83 3 615 .792156862745098 .
819607843137255 .933333333333333 83 3 610 .792156862745098 .819607843137255 .933
333333333333 83 3 606 .792156862745098 .819607843137255 .933333333333333 83 3 60
0 .792156862745098 .819607843137255 .933333333333333 83 3 596 .792156862745098 .
819607843137255 .933333333333333 83 3 592 .792156862745098 .819607843137255 .933
333333333333 83 3 587 .792156862745098 .819607843137255 .933333333333333 83 3 58
1 .792156862745098 .819607843137255 .933333333333333 83 3 574 .792156862745098 .
819607843137255 .933333333333333 83 3 567 .792156862745098 .819607843137255 .933
333333333333 83 3 562 .792156862745098 .819607843137255 .933333333333333 81 1 55
2 3784 551 433 0 544 642 546 643 81 1 542 3920 441 420 642 0 537 544 644 82 1 55
5 1280573835 81 1 642 3783 551 420 0 542 645 552 646 81 1 537 3919 441 430 645 0
 534 542 647 82 1 644 1280770467 81 1 645 3782 551 430 0 537 536 642 648 82 1 64
7 1281622435 81 1 536 3781 551 457 0 534 649 645 650 83 3 648 .792156862745098 .
819607843137255 .933333333333333 81 1 649 3780 551 452 0 455 454 536 651 83 3 65
0 .792156862745098 .819607843137255 .933333333333333 81 1 455 3917 441 452 649 0
 451 534 652 81 1 454 3779 551 16 0 451 0 649 653 83 3 651 .792156862745098 .819
607843137255 .933333333333333 83 3 653 .792156862745098 .819607843137255 .933333
333333333 82 1 652 1281098147 83 3 646 .792156862745098 .819607843137255 .933333
333333333 83 3 643 .792156862745098 .819607843137255 .933333333333333 83 3 554 .
792156862745098 .819607843137255 .933333333333333 79 14 550 SWEntUnchanged82 1 5
38 1281491337 17 136 0 524 133 142 134 469 332 0 467 +17 142 0 524 136 139 140 3
28 326 0 469 -17 469 0 449 65 231 140 136 332 0 237 -17 157 0 513 160 154 155 32
0 318 0 314 -17 154 0 513 157 505 152 308 306 0 320 -82 1 456 1280967051 82 1 44
4 1282671011 19 17 32 0 1 0 9 5 S0 74 4 CI16 index_map_offset0 0 1 dCCZ20 15 9 0
 0 629 654 655 656 657 658 13 582 2 0 0 0 0 0 0 0 0 0 0 0 81 2 654 3572 659 1 0
 655 0 0 0 660 81 2 655 3578 661 1 654 656 0 0 0 662 81 1 656 3600 663 1 655 657
 0 0 664 81 2 657 3625 665 1 656 658 0 0 0 0 81 2 658 3653 666 1 657 13 0 0 667
 0 81 2 13 3778 668 1 658 2 0 0 0 669 80 2 668 670 671 9000 0 0 0 0 3 5 0 0 0 FF
TFFFFFFFFFFF9 1 82 1 669 1 79 24 671 BODY_IN_LIGHTWEIGHT_PERM80 2 666 672 673 80
04 0 0 0 0 3 5 0 0 0 FFTFFFFFFFFFFF2 3 83 1 667 1 79 16 673 SDL/TYSA_DENSITY80 2
 665 674 675 9000 0 0 0 0 3 5 0 0 0 FFTFFFFFFFFFFF9 1 79 16 675 BODY_RECIPE_2001
80 1 663 676 677 9000 1 1 1 1 1 1 1 1 0 FFTFFFFFFFFFFF1 82 1 664 19262 79 10 677
 BODY_MATCH80 2 661 678 679 9000 0 0 0 0 3 5 0 0 0 FFTFFFFFFFFFFF9 1 82 1 662 13
7 79 30 679 LAST_BODY_MODIFYING_FEATURE_ID80 2 659 680 681 9000 0 0 0 0 3 5 0 0
 0 FFTFFFFFFFFFFF9 1 82 1 660 654 79 19 681 ENT_TIME_STAMP_200180 2 12 682 683 9
000 0 0 0 0 3 5 0 0 0 FFTFFFFFFFFFFF9 1 82 1 14 203 79 12 683 ATOM_ID_20011 0 
