**ABCDEFGHIJKLMNOPQRSTUVWXYZabcdefghijklmnopqrstuvwxyz**************************
**PARASOLID !"#$%&'()*+,-./:;<=>?@[\]^_`{|}~0123456789**************************
**PART1;
MC=AMD64;
MC_MODEL=AMD64 Family 25 Model 1 Stepping 1, AuthenticAMD;
MC_ID=unknown;
OS=Windows_NT;
OS_RELEASE=unknown;
FRU=Parasolid Version 34.1, build 254,  2-10-2023;
APPL=SOLIDWORKS 2023-2023138;
SITE=;
USER=unknown;
FORMAT=text;
GUISE=transmit;
KEY=AlignedScaledSymm;
FILE=AlignedScaledSymm.x_t;
DATE=Fri Sep  8 15:36:22 2023;
**PART2;
SCH=SCH_3401254_34101;
USFLD_SIZE=0;
**PART3;
**END_OF_HEADER*****************************************************************
T51 : TRANSMIT FILE created by modeller version 340125423 SCH_3401254_34101_1300
6231 0 10 21 CCCCI7 lattice222 0 CCCI4 mesh1006 0 I8 polyline1008 0 CCCCCCCCCCA1
6 mesh_offset_data206 0 Z1 3 2 3 0 0 0 0 0 0 0 0 1e3 1e-8 0 0 0 1 0 1 4 0 81 255
 1 2 3 5 1 0 0 0 0 0 70 11 CI9 list_type0 0 1 uI10 notransmit0 0 1 lCCCDCCDI12 f
inger_index0 0 1 dI12 finger_block1012 0 CZ3 0 4 T1 0 0 1 20 1 6 6 11 255 4 1 0
 1 7 8 1 0 0 0 0 12 36 CCCI7 lattice222 0 CCCI4 mesh1006 0 I8 polyline1008 0 CCC
CCCCDI5 owner1040 0 CCCI16 boundary_lattice222 0 CCCI13 boundary_mesh1006 0 I17
 boundary_polyline1008 0 CCCA16 index_map_offset0 0 1 dA9 index_map82 0 A17 node
_id_index_map82 0 A20 schema_embedding_map82 0 A5 child12 0 A14 lowest_node_id0
 0 1 dA16 mesh_offset_data206 0 Z7 650 9 10 0 0 0 0 0 0 0 1e3 1e-8 4 11 0 1 0 1
 1 12 0 13 14 0 0 0 15 16 0 0 0 0 0 0 0 0 100 10 CCCCCCCCCA9 precision229 0 Z8 2
 4 0 0 -466293680542842e-31 1 -309022610162299e-31 .752329344398805 554386555001
669e-31 .658787186849035 .658787186849035 747015243424911e-32 -.752329344398805
 .006 -.0073017082632669 -.0214487058584296 1 3 ?0 81 1 9 650 5 7 17 0 0 0 18 70
 10 0 4 T7 0 0 5 20 1 19 19 13 255 12 62 0 7 0 20 0 0 21 0 52 255 13 115 0 20 22
 0 0 -.0487364249450631 1621328409304145e-52 -.003011871218952395 -1 0 105117445
1549672e-31 .006 .3047757271037835 .952424147199324 1051174451549672e-31 0 1 31
 255 14 123 0 16 23 0 0 +.0487364249450631 1621328409304145e-52 -.00301187121895
2395 1 0 -1051174451549672e-31 -1051174451549672e-31 0 -1 .006 19 9 CCCCCCI5 fra
me230 0 CA5 owner12 0 Z15 66 0 7 21 0 24 0 V0 16 255 16 100 0 ?25 0 26 14 0 0 7
 17 255 25 0 27 25 25 0 28 16 0 0 +16 26 90 0 ?29 16 30 23 0 0 7 17 29 0 31 29 2
9 0 32 26 0 0 +16 30 85 0 ?33 26 34 35 0 0 7 31 23 121 0 26 35 14 0 +.0423614249
4506315 1621328409304145e-52 -.003011871218952395 1 0 -1051174451549672e-31 -105
1174451549672e-31 0 -1 .00365 31 35 120 0 30 36 23 0 +.0487364249450631 16213284
09304145e-52 -.003011871218952395 1 0 -1051174451549672e-31 -1051174451549672e-3
1 0 -1 .00365 31 36 117 0 34 37 35 0 +.0752364249450631 1621328409304145e-52 -.0
03011871218952395 1 0 -1051174451549672e-31 -1051174451549672e-31 0 -1 .002 16 3
4 70 0 ?38 30 39 36 0 0 7 31 37 116 0 39 40 36 0 +.0612364249450631 162132840930
4145e-52 -.003011871218952395 1 0 -1051174451549672e-31 -1051174451549672e-31 0
 -1 .002 16 39 68 0 ?41 34 42 37 0 0 7 31 40 241 0 43 44 37 0 +.0314576764326928
5 1621328409304145e-52 -.01255988348519462 -.1319988848870714 0 -.99124986476093
4 -.991249864760934 0 .1319988848870714 .006 16 43 201 0 ?45 46 47 40 0 0 7 31 4
4 242 0 46 48 40 0 +.04236142494506315 1621328409304145e-52 -.003011871218952395
 -1 0 1051174451549672e-31 1051174451549672e-31 0 1 .006 16 46 199 0 ?49 50 43 4
4 0 0 7 31 48 243 0 50 51 44 0 +.030731682565814 1621328409304145e-52 -.01801175
774137975 -.13199888488707 0 -.991249864760934 -.991249864760934 0 .131998884887
07 .006 16 50 204 0 ?52 53 46 48 0 0 7 31 51 244 0 42 54 48 0 -.030731682565814
 1621328409304145e-52 -.01801175774137975 -.13199888488707 0 -.991249864760934 -
.991249864760934 0 .13199888488707 .00365 16 42 202 0 ?55 39 53 51 0 0 7 31 54 2
45 0 53 56 51 0 -.03145767643269285 1621328409304145e-52 -.01255988348519462 -.1
319988848870714 0 -.991249864760934 -.991249864760934 0 .1319988848870714 .00365
 16 53 208 0 ?57 42 50 54 0 0 7 31 56 350 0 47 0 54 0 +.0612364249450631 1621328
409304145e-52 -.003011871218952395 1 0 -1051174451549672e-31 -1051174451549672e-
31 0 -1 75e-5 16 47 327 0 ?58 43 0 56 0 0 7 17 58 0 59 58 58 0 60 47 0 0 +15 255
 59 87 0 58 61 0 17 60 0 62 60 60 0 58 47 0 0 -15 62 340 0 60 63 0 14 255 63 338
 64 ?0 65 62 12 66 -0 0 0 67 24 81 1 64 649 68 63 69 0 70 0 71 14 65 229 70 ?63
 72 73 12 74 +0 0 72 75 24 50 255 66 348 0 63 0 76 0 +.0612364249450631 16213284
09304145e-52 -.003011871218952395 1 0 -1051174451549672e-31 -1051174451549672e-3
1 0 -1 14 67 209 77 ?78 75 79 12 80 +0 0 63 78 24 13 24 65 0 0 0 0 0 0 15 20 14
 20 106 81 ?82 0 83 12 13 -0 0 82 0 24 81 1 81 638 68 20 84 0 0 85 86 14 82 103
 85 ?87 20 88 12 22 -0 0 87 20 24 15 83 163 0 89 20 27 17 89 0 83 89 89 0 41 39
 0 0 -15 27 105 0 25 20 0 17 41 0 90 41 41 0 89 39 0 0 +15 90 72 0 41 75 0 14 75
 73 91 ?67 92 93 12 94 -0 0 65 92 24 81 1 91 643 68 75 95 0 96 77 97 14 92 78 96
 ?75 61 98 12 99 -0 0 75 61 24 15 93 162 0 100 75 90 51 255 94 108 0 75 101 99 0
 -.0612364249450631 1621328409304145e-52 -.003011871218952395 1 0 -1051174451549
672e-31 .002 -1051174451549672e-31 0 -1 51 101 235 0 78 80 94 0 +.03145767643269
285 1621328409304145e-52 -.01255988348519462 -.1319988848870696 0 -.991249864760
934 .006 -.991249864760934 0 .1319988848870696 50 99 109 0 92 94 102 0 +.0752364
249450631 1621328409304145e-52 -.002261871218952395 -1 0 1051174451549672e-31 10
51174451549672e-31 0 1 52 102 111 0 61 99 103 0 +.0612364249450631 1621328409304
145e-52 -.003011871218952395 -1 0 1051174451549672e-31 75e-5 .225997659955488 .9
74127844635725 1051174451549672e-31 0 1 14 61 88 104 ?92 87 105 12 102 -0 0 92 8
7 24 51 103 112 0 87 102 22 0 +.0612364249450631 1621328409304145e-52 -.00301187
1218952395 1 0 -1051174451549672e-31 .00365 -1051174451549672e-31 0 -1 14 87 93
 106 ?61 82 107 12 103 -0 0 61 82 24 51 22 114 0 82 103 13 0 -.0612364249450631
 1621328409304145e-52 -.003011871218952395 1 0 -1051174451549672e-31 .006 -10511
74451549672e-31 0 -1 81 1 106 640 68 87 108 0 85 104 109 15 107 158 0 32 87 110
 17 32 0 107 32 32 0 29 26 0 0 -15 110 92 0 33 87 0 17 33 0 110 33 33 0 111 30 0
 0 +17 111 0 105 111 111 0 33 30 0 0 -15 105 159 0 111 61 59 80 7 CCCCCDI12 lega
l_owners0 16 1 lCZ1 68 0 112 8001 0 0 0 0 3 5 0 0 0 FFFFTFTFFFFFFFFF2 81 1 108 6
26 113 87 0 106 114 115 116 81 1 85 639 68 82 117 0 81 106 118 81 1 104 641 68 6
1 114 0 106 96 119 83 255 3 109 .792156862745098 .819607843137255 .9333333333333
33 81 1 114 623 113 61 0 104 120 108 121 81 1 96 642 68 92 120 0 104 91 122 83 3
 119 .792156862745098 .819607843137255 .933333333333333 81 1 120 619 113 92 0 96
 95 114 123 83 3 122 .792156862745098 .819607843137255 .933333333333333 80 1 113
 124 125 9000 1 1 1 1 1 1 1 1 0 FFFFTFTFFFFFFFFF1 81 1 95 616 113 75 0 91 117 12
0 126 82 255 1 123 5964157 81 1 117 613 113 82 0 85 84 95 127 82 1 126 5767537 8
1 1 84 610 113 20 0 81 128 117 129 82 1 127 5374321 81 1 128 607 113 67 0 77 130
 84 131 82 1 129 5243249 81 1 77 644 68 67 128 0 91 132 133 81 1 130 604 113 65
 0 70 69 128 134 82 1 131 5898609 81 1 70 648 68 65 130 0 135 64 136 81 1 69 601
 113 63 0 64 0 130 137 82 1 134 4981105 82 1 137 43450749 81 1 135 647 68 72 138
 0 139 70 140 83 3 136 .792156862745098 .819607843137255 .933333333333333 14 72
 225 135 ?65 141 142 12 76 +0 0 141 65 24 81 1 138 632 113 72 0 135 115 143 144
 81 1 139 646 68 141 115 0 132 135 145 83 3 140 .792156862745098 .81960784313725
5 .933333333333333 14 141 221 139 ?72 78 146 12 147 +0 0 78 72 24 81 1 115 629 1
13 141 0 139 108 138 148 81 1 132 645 68 78 143 0 77 139 149 83 3 145 .792156862
745098 .819607843137255 .933333333333333 14 78 213 132 ?141 67 150 12 101 +0 0 6
7 141 24 81 1 143 635 113 78 0 132 138 0 151 83 3 149 .792156862745098 .81960784
3137255 .933333333333333 82 1 151 8913265 15 150 215 0 152 78 153 17 152 0 150 1
52 152 0 52 50 0 0 -15 153 216 0 45 78 0 17 45 0 153 45 45 0 154 43 0 0 +17 154
 0 79 154 154 0 45 43 0 0 -15 79 211 0 154 67 155 15 155 212 0 49 67 0 17 49 0 1
55 49 49 0 156 46 0 0 +17 156 0 157 156 156 0 49 46 0 0 -15 157 102 0 156 82 0 1
7 52 0 158 52 52 0 152 50 0 0 +15 158 224 0 52 141 0 82 1 148 5046641 15 146 223
 0 55 141 158 50 147 238 0 141 74 80 0 +.030731682565814 1621328409304145e-52 -.
01801175774137975 -.13199888488707 0 -.991249864760934 -.991249864760934 0 .1319
9888488707 51 74 239 0 65 76 147 0 -.03145767643269285 1621328409304145e-52 -.01
255988348519462 -.1319988848870696 0 -.991249864760934 .00365 -.991249864760934
 0 .1319988848870696 54 255 80 236 0 67 147 101 0 +.04236142494506315 1621328409
304145e-52 -.0140118712189524 0 -1 0 .011 .006 0 0 -1 54 76 240 0 72 66 74 0 -.0
4236142494506315 1621328409304145e-52 -.0140118712189524 0 -1 0 .011 .00365 0 0
 -1 17 55 0 146 55 55 0 159 42 0 0 +17 159 0 73 159 159 0 55 42 0 0 -15 73 231 0
 159 65 160 15 160 232 0 57 65 0 17 57 0 160 57 57 0 161 53 0 0 +17 161 0 142 16
1 161 0 57 53 0 0 -15 142 227 0 161 72 31 15 31 228 0 29 72 0 82 1 144 4784497 8
3 3 133 .792156862745098 .819607843137255 .933333333333333 79 255 14 125 SWEntUn
changed82 1 121 6488433 83 3 118 .792156862745098 .819607843137255 .933333333333
333 82 1 116 6619505 79 15 112 SDL/TYSA_COLOUR17 100 0 93 100 100 0 38 34 0 0 -1
7 38 0 98 38 38 0 100 34 0 0 +15 98 77 0 38 92 0 83 3 97 .792156862745098 .81960
7843137255 .933333333333333 15 88 156 0 28 82 157 17 28 0 88 28 28 0 25 16 0 0 -
83 3 86 .792156862745098 .819607843137255 .933333333333333 83 3 71 .792156862745
098 .819607843137255 .933333333333333 19 21 61 0 7 0 15 12 0 S0 74 4 CI16 index_
map_offset0 0 1 dCCZ20 19 5 0 0 143 162 17 64 9 0 0 0 0 0 0 0 0 0 0 0 0 0 0 0 81
 2 162 366 163 7 0 17 0 0 164 0 81 2 17 384 165 7 162 9 0 0 166 0 80 2 165 167 1
68 8004 0 0 0 0 3 5 0 0 0 FFTFFFFFFFFFFFFF2 3 83 1 166 1 79 16 168 SDL/TYSA_DENS
ITY80 2 163 169 170 9000 0 0 0 0 3 5 0 0 0 FFTFTTTFFTFFFFFF3 3 84 255 13 164 Bos
s-Extrude179 21 170 SWIMPLICITBODYNAME_ID80 1 5 171 172 8017 0 0 0 0 0 0 0 0 0 T
TTTTTTTTTTTTFTF3 84 21 18 AdapterRebuilt_Scaled79 13 172 SDL/TYSA_NAME74 20 6 1
 0 0 2 0 0 0 0 0 0 0 0 0 0 0 0 0 0 0 0 0 0 0 1 0 
