**ABCDEFGHIJKLMNOPQRSTUVWXYZabcdefghijklmnopqrstuvwxyz**************************
**PARASOLID !"#$%&'()*+,-./:;<=>?@[\]^_`{|}~0123456789**************************
**PART1;
FORMAT=text;
GUISE=transmit;
KEY=unicode filename;
FILE=unicode filename;
DATE=unknown;
**PART2;
SCH=SCH_3101188_31100;
USFLD_SIZE=0;
**PART3;
**END_OF_HEADER*****************************************************************
T51 : TRANSMIT FILE created by modeller version 310118817 SCH_2700000_261050 176
 2 1 2 0 0 0 2 3 12 2 145 4 5 0 0 0 0 1e3 1e-8 0 0 3 1 0 1 1 6 7 8 9 10 11 12 0
 0 0 0 0 0 0 12 3 313 13 14 0 0 0 0 1e3 1e-8 0 2 0 1 0 1 1 15 16 17 18 19 20 21
 0 0 0 0 0 0 0 81 1 13 313 22 3 23 0 24 0 25 70 14 0 4 T3 0 0 6 20 1 26 26 13 15
 4 0 3 0 27 0 0 28 0 50 16 122 0 29 30 0 0 +.001 .005 .006 1224606353822376e-31
 0 -1 -1 0 -1224606353822376e-31 30 17 192 0 31 32 0 0 +.002 .01 122460635382237
6e-33 1 0 -359141969635822e-31 29 18 150 0 33 34 0 .003 .01 .002 19 19 2 0 3 28
 0 35 V0 16 20 14 36 ?37 0 38 39 0 0 3 18 21 8 0 40 0 41 42 ?3 17 40 0 43 44 45
 21 46 47 0 48 +18 41 11 0 46 21 49 50 ?3 29 42 137 0 21 51 52 .003 0 .002 29 51
 136 0 53 50 42 .004 0 .002 29 52 138 0 54 42 55 .017 .01 -4180141476017865e-34
 18 54 56 0 56 57 58 52 ?3 29 55 139 0 59 52 60 .005 .01 .006 18 59 39 0 61 62 5
7 55 ?3 29 60 140 0 63 55 64 .004 .01 .002 18 63 30 0 65 53 66 60 ?3 29 64 141 0
 49 60 67 .003 .01 1188692156858794e-33 18 49 13 0 68 41 33 64 ?3 29 67 142 0 69
 64 70 .016 0 .004 18 69 70 0 71 72 73 67 ?3 29 70 143 0 72 67 74 .016 0 .002 18
 72 75 0 75 76 69 70 ?3 29 74 144 0 77 70 78 .015 0 .006 18 77 84 0 79 80 0 74 ?
3 29 78 145 0 62 74 81 .005 .01 .004 18 62 44 0 82 83 59 78 ?3 29 81 146 0 84 78
 85 .016 .01 .004 18 84 71 0 86 87 76 81 ?3 29 85 147 0 88 81 89 .002 8673617379
88404e-33 944696330091548e-33 18 88 18 0 90 91 92 85 ?3 29 89 148 0 92 85 34 .00
4 0 .004 18 92 25 0 93 88 53 89 ?3 29 34 149 0 73 89 18 .015 .01 .006 18 73 85 0
 94 69 95 34 ?3 17 94 0 96 97 98 73 99 100 0 101 +18 95 87 0 99 73 80 102 ?3 17
 99 0 103 104 101 95 94 100 0 105 -18 80 89 0 106 95 77 107 ?3 29 102 133 0 95 1
08 109 .015 .01 .004 29 108 132 0 76 110 102 .016 .01 .002 29 109 134 0 111 102
 50 .005 0 .006 18 111 40 0 112 66 83 109 ?3 29 50 135 0 41 109 51 .003 0 118869
2156858794e-33 17 112 0 43 113 114 111 115 116 0 117 +18 66 26 0 118 63 111 119
 ?3 18 83 42 0 115 111 62 110 ?3 17 115 0 120 82 117 83 112 116 0 121 -29 110 13
1 0 83 122 108 .005 0 .004 29 122 130 0 58 119 110 .017 0 -4180141476017865e-34
 18 58 58 0 123 54 124 122 ?3 29 119 129 0 66 125 122 .004 .01 .004 29 125 128 0
 87 126 119 .018 867361737988404e-33 -303712133567502e-33 18 87 65 0 127 128 84
 125 ?3 29 126 127 0 91 129 125 .002 .01 944696330091548e-33 18 91 19 0 130 33 8
8 126 ?3 29 129 126 0 124 107 126 .017 0 .002 18 124 53 0 131 58 128 129 ?3 29 1
07 125 0 80 132 129 .015 0 .004 29 132 124 0 57 133 107 .017 .01 .002 18 57 54 0
 134 59 54 132 ?3 29 133 123 0 128 0 132 .018 .01 -303712133567502e-33 18 128 63
 0 135 124 87 133 ?3 17 135 0 136 137 138 128 139 140 0 141 -15 136 61 0 138 142
 0 17 137 0 136 143 135 87 141 144 0 145 -17 138 0 136 135 143 54 146 147 0 139
 -17 139 0 96 134 148 54 135 140 0 0 +16 140 62 149 ?139 150 151 152 0 0 3 17 14
1 0 153 154 145 128 137 144 0 148 +15 153 96 0 145 155 0 17 154 0 153 156 141 91
 148 150 0 0 -17 145 0 153 141 156 87 157 158 0 0 -16 144 64 159 ?141 160 158 16
1 0 0 3 17 148 0 96 139 130 128 154 150 0 0 +15 96 103 0 148 162 0 17 130 0 96 1
48 163 91 164 31 0 165 -16 150 98 166 ?148 167 140 168 0 0 3 81 1 166 302 169 15
0 170 0 171 149 172 16 167 66 171 ?127 173 150 174 0 0 3 31 168 151 0 150 0 175
 0 +.01 .01 1224606353822376e-34 0 1 0 -1 0 153075794227797e-31 .008 30 175 152
 0 176 168 177 0 +.003 .01 .002 1 0 0 16 176 34 178 ?179 180 181 175 0 0 3 30 17
7 153 0 116 175 182 0 +.005 0 .004 -1224606353822376e-31 0 1 16 116 41 183 ?112
 184 185 177 0 0 3 30 182 154 0 186 177 187 0 +.015 .01 .004 0 -1 0 16 186 88 18
8 ?104 189 160 182 0 0 3 30 187 155 0 190 182 191 0 +.015 0 .004 1 0 0 16 190 94
 192 ?193 185 173 187 0 0 3 30 191 156 0 194 187 195 0 +.015 .01 .006 -1 0 -8673
61737988404e-31 16 194 104 196 ?97 100 0 191 0 0 3 30 195 157 0 197 191 198 0 +.
005 0 .004 -1 0 0 16 197 49 199 ?200 201 202 195 0 0 3 30 198 158 0 203 195 204
 0 +.004 0 .004 0 1 0 16 203 24 205 ?118 206 207 198 0 0 3 30 204 159 0 189 198
 39 0 +.015 0 .006 0 1 0 16 189 83 208 ?101 209 186 204 0 0 3 30 39 160 0 20 204
 210 0 +.003 .01 1188692156858794e-33 359141969635823e-31 0 1 30 210 161 0 202 3
9 211 0 +.017 0 .002 0 1 0 16 202 52 212 ?213 197 147 210 0 0 3 30 211 162 0 214
 210 215 0 +.016 0 .004 0 1 0 16 214 69 216 ?217 218 219 211 0 0 3 30 215 163 0
 184 211 220 0 +.004 0 .002 -1224606353822376e-31 0 1 16 184 27 221 ?93 47 116 2
15 0 0 3 30 220 164 0 222 215 161 0 +.004 0 .002 -1 0 0 16 222 35 223 ?224 181 2
25 220 0 0 3 30 161 165 0 144 220 226 0 +.018 0 -453928344565369e-33 0 1 0 31 22
6 166 0 158 161 227 0 +.01 0 1224606353822376e-34 0 -1 0 -1 0 153075794227797e-3
1 .008 16 158 97 228 ?157 144 47 226 0 0 3 30 227 167 0 151 226 229 0 +.017 .01
 -4180141476017865e-34 359141969635823e-31 0 1 16 151 55 230 ?134 140 231 227 0
 0 3 30 229 168 0 232 227 233 0 +.003 .01 1188692156858794e-33 0 -1 0 16 232 12
 234 ?235 31 236 229 0 0 3 30 233 169 0 219 229 237 0 +.016 .01 .002 0 -1 0 16 2
19 74 238 ?239 214 209 233 0 0 3 30 237 170 0 185 233 240 0 +.005 0 .006 1 0 173
4723475976805e-31 16 185 101 241 ?113 116 190 237 0 0 3 30 240 171 0 47 237 242
 0 +.003 0 1188692156858794e-33 359141969635823e-31 0 1 16 47 10 243 ?40 158 184
 240 0 0 3 30 242 172 0 160 240 244 0 +.015 0 .004 -1224606353822376e-31 0 1 16
 160 90 245 ?79 186 144 242 0 0 3 30 244 173 0 207 242 246 0 +.004 .01 .004 1 0
 0 16 207 48 247 ?248 203 201 244 0 0 3 30 246 174 0 147 244 174 0 +.017 .01 -41
80141476017865e-34 0 -1 0 16 147 57 249 ?146 202 218 246 0 0 3 30 174 175 0 167
 246 250 0 +.017 0 -4180141476017865e-34 1 0 -359141969635823e-31 30 250 176 0 2
06 174 251 0 +.005 .01 .004 -1224606353822376e-31 0 1 16 206 45 252 ?61 225 203
 250 0 0 3 30 251 177 0 218 250 253 0 +.017 0 -4180141476017865e-34 359141969635
823e-31 0 1 16 218 59 254 ?131 147 214 251 0 0 3 30 253 178 0 225 251 255 0 +.00
5 .01 .006 0 -1 -867361737988404e-31 16 225 38 256 ?117 222 206 253 0 0 3 30 255
 179 0 38 253 152 0 +.002 0 1224606353822376e-33 0 1 0 16 38 17 257 ?165 20 31 2
55 0 0 3 30 152 180 0 140 255 258 0 +.018 .01 -453928344565369e-33 -1 0 35914196
9635823e-31 30 258 181 0 173 152 259 0 +.016 0 .002 1 0 0 16 173 80 260 ?261 190
 167 258 0 0 3 30 259 182 0 209 258 262 0 +.016 0 .002 -1224606353822376e-31 0 1
 16 209 76 263 ?71 219 189 259 0 0 3 30 262 183 0 264 259 265 0 +.016 .01 .002 -
1224606353822376e-31 0 1 16 264 72 266 ?86 231 267 262 0 0 3 30 265 184 0 181 26
2 268 0 +.004 .01 .002 0 -1 0 16 181 29 269 ?270 176 222 265 0 0 3 30 268 185 0
 236 265 271 0 +.003 0 1188692156858794e-33 -1 0 359141969635822e-31 16 236 21 2
72 ?90 232 273 268 0 0 3 30 271 186 0 273 268 274 0 +.004 .01 .002 -122460635382
2376e-31 0 1 16 273 31 275 ?276 236 180 271 0 0 3 30 274 187 0 231 271 277 0 +.0
17 .01 .002 -1 0 0 16 231 79 278 ?279 151 264 274 0 0 3 30 277 188 0 100 274 280
 0 +.015 .01 .004 -1224606353822376e-31 0 1 16 100 86 281 ?94 267 194 277 0 0 3
 30 280 189 0 180 277 282 0 +.003 0 .002 0 1 0 16 180 7 283 ?284 273 176 280 0 0
 3 30 282 190 0 267 280 32 0 +.016 .01 .004 -1 0 0 16 267 93 285 ?98 264 100 282
 0 0 3 30 32 191 0 201 282 17 0 +.005 .01 .004 0 -1 0 16 201 43 286 ?121 207 197
 32 0 0 3 81 1 286 282 169 201 287 0 247 199 288 17 121 0 289 200 248 83 82 201
 0 114 +15 289 47 0 118 290 0 17 200 0 289 118 121 92 114 197 0 0 +17 248 0 289
 121 118 62 291 207 0 0 +17 82 0 120 61 115 62 121 201 0 292 -17 114 0 43 112 93
 83 200 197 0 0 -15 43 100 0 157 293 0 17 93 0 43 114 44 92 294 184 0 295 +17 44
 0 43 93 40 53 224 222 0 0 -17 294 0 296 65 295 53 93 184 0 270 -17 295 0 296 29
4 276 92 118 203 0 200 -15 296 23 0 295 297 0 17 276 0 296 295 65 66 298 273 0 2
91 +17 118 0 289 248 200 66 295 203 0 276 +17 65 0 296 276 294 63 270 181 0 298
 -17 298 0 96 299 291 63 276 273 0 179 -17 291 0 96 298 292 66 248 207 0 0 -17 2
92 0 96 291 97 62 61 206 0 248 -17 97 0 96 292 94 59 300 194 0 0 +17 61 0 120 11
7 82 59 292 206 0 301 +15 120 37 0 117 302 0 17 117 0 120 115 61 111 301 225 0 3
03 +17 301 0 304 300 303 59 117 225 0 97 -15 304 106 0 301 29 0 17 300 0 304 305
 301 73 97 194 0 0 -17 303 0 304 301 305 111 113 185 0 0 -17 305 0 304 303 300 7
7 101 189 0 113 -17 113 0 43 106 112 77 303 185 0 0 +17 106 0 43 193 113 80 79 1
60 0 104 -17 193 0 43 75 106 69 306 190 0 0 +17 79 0 103 101 104 77 106 160 0 30
5 +17 104 0 103 79 99 80 105 186 0 306 +15 103 82 0 101 307 0 17 105 0 308 309 3
06 95 104 186 0 98 -17 306 0 308 105 310 80 193 190 0 0 -15 308 92 0 105 311 0 1
7 310 0 308 306 309 69 217 214 0 193 -17 309 0 308 310 105 84 98 267 0 0 -17 217
 0 312 313 71 84 310 214 0 309 +15 312 68 0 217 314 0 17 313 0 312 239 217 76 86
 264 0 315 -17 71 0 312 217 239 69 75 209 0 310 +17 239 0 312 71 313 72 315 219
 0 316 +17 75 0 43 261 193 72 71 209 0 239 -17 261 0 43 123 75 124 316 173 0 0 +
17 123 0 43 127 261 58 131 218 0 146 -17 316 0 317 315 318 72 261 173 0 0 -15 31
7 78 0 315 319 0 17 315 0 317 320 316 76 239 219 0 279 -17 318 0 317 316 320 124
 213 202 0 261 -17 320 0 317 318 315 57 279 231 0 0 -17 213 0 321 56 131 57 318
 202 0 320 +15 321 51 0 213 322 0 17 56 0 321 146 213 54 134 151 0 138 -17 131 0
 321 213 146 124 123 218 0 318 +17 146 0 321 131 56 58 138 147 0 143 +17 143 0 1
36 138 137 58 127 167 0 0 -17 127 0 43 157 123 87 143 167 0 137 +17 157 0 43 45
 127 88 145 158 0 0 +17 45 0 43 40 157 41 90 236 0 0 -17 90 0 323 165 235 88 45
 236 0 156 +15 323 16 0 165 324 0 17 165 0 323 164 90 91 156 38 0 154 +17 235 0
 323 90 164 41 68 232 0 45 +17 156 0 153 145 154 88 165 38 0 157 -17 164 0 323 2
35 165 49 130 31 0 0 +17 68 0 325 37 46 49 235 232 0 163 -15 325 6 0 48 27 0 17
 37 0 325 48 68 33 163 20 0 299 +17 46 0 325 68 48 41 40 47 0 235 -17 163 0 96 1
30 299 49 37 20 0 164 -17 299 0 96 163 298 33 179 176 0 0 -18 33 9 0 284 49 91 1
8 ?3 17 179 0 326 270 284 63 299 176 0 0 +15 326 33 0 284 327 0 17 270 0 326 224
 179 53 65 181 0 44 +17 284 0 326 179 224 33 48 180 0 37 +17 224 0 326 284 270 2
1 44 222 0 0 +17 48 0 325 46 37 21 284 180 0 224 -18 53 28 0 294 92 63 51 ?3 14
 327 32 328 ?302 297 326 15 329 +0 0 302 297 35 81 1 328 255 169 327 330 0 331 3
32 333 14 302 36 332 ?290 327 120 15 334 +0 0 290 327 35 14 297 22 331 ?327 324
 296 15 335 +0 0 327 324 35 50 329 112 0 327 336 337 0 +.001 .005 .002 122460635
3822376e-31 0 -1 -1 0 -1224606353822376e-31 13 35 3 0 0 0 0 0 0 19 27 14 27 5 33
8 ?324 0 325 15 337 +0 0 324 0 35 81 1 338 252 169 27 339 0 0 340 341 14 324 15
 340 ?297 27 323 15 342 +0 0 297 27 35 50 337 113 0 27 329 343 0 +.003 .005 1188
692156858794e-33 1 0 -359141969635823e-31 0 1 0 50 343 114 0 142 337 344 0 +.019
 .005 359141969635823e-34 -359141969635823e-31 0 -1 -1 0 359141969635823e-31 14
 142 60 345 ?314 322 136 15 343 +0 0 314 322 35 51 344 115 0 155 343 335 0 +.01
 0 1224606353822376e-34 0 -1 0 .008 -1 0 153075794227797e-31 14 155 95 346 ?293
 311 153 15 344 +0 0 293 311 35 50 335 116 0 297 344 347 0 +.004 .005 .002 1 0 1
224606353822376e-31 0 1 0 50 347 117 0 311 335 348 0 +.001 .005 .004 12246063538
22376e-31 0 -1 -1 0 -1224606353822376e-31 14 311 91 349 ?155 307 308 15 347 +0 0
 155 307 35 50 348 118 0 293 347 334 0 +.01 0 .006 0 -1 0 1 0 1734723475976805e-
31 14 293 99 350 ?162 155 43 15 348 +0 0 162 155 35 50 334 119 0 302 348 342 0 +
.005 .005 .004 1 0 1224606353822376e-31 0 1 0 50 342 120 0 324 334 30 0 +.019 .0
05 359141969635823e-34 -359141969635823e-31 0 -1 -1 0 359141969635823e-31 50 30
 121 0 290 342 16 0 +.001 .005 .004 1224606353822376e-31 0 -1 -1 0 -122460635382
2376e-31 14 290 46 351 ?322 302 289 15 30 +0 0 322 302 35 81 1 351 257 169 290 3
52 0 332 353 354 14 322 50 353 ?142 290 321 15 336 +0 0 142 290 35 81 1 353 258
 169 322 355 0 351 345 356 50 336 111 0 322 357 329 0 +.017 .005 -41801414760178
65e-34 -1 0 359141969635823e-31 0 -1 0 50 357 110 0 319 358 336 0 +.001 .005 .00
2 1224606353822376e-31 0 -1 -1 0 -1224606353822376e-31 14 319 77 359 ?307 314 31
7 15 357 +0 0 307 314 35 50 358 109 0 314 360 357 0 +.016 .005 .002 -1 0 -122460
6353822376e-31 0 -1 0 14 314 67 361 ?319 142 312 15 358 +0 0 319 142 35 50 360 1
08 0 162 362 358 0 +.01 .01 .006 0 1 0 -1 0 -867361737988404e-31 14 162 102 363
 ?29 293 96 15 360 +0 0 29 293 35 50 362 107 0 307 0 360 0 +.015 .005 .004 -1 0
 -1224606353822376e-31 0 -1 0 14 307 81 364 ?311 319 103 15 362 +0 0 311 319 35
 81 1 364 262 169 307 365 0 359 349 366 80 1 169 0 367 8001 0 0 0 0 3 5 0 0 0 FF
FFTFTFFFFFFF2 81 1 365 235 22 307 0 364 368 369 370 81 1 359 261 169 319 371 0 3
61 364 372 81 1 349 263 169 311 373 0 364 346 374 83 3 366 1 .501960784313726 0
 81 1 373 245 22 311 0 349 375 376 377 81 1 346 264 169 155 378 0 349 350 379 83
 3 374 1 .501960784313726 0 81 1 378 243 22 155 0 346 380 375 381 81 1 350 265 1
69 293 376 0 346 363 382 83 3 379 1 .501960784313726 0 81 1 376 246 22 293 0 350
 373 383 384 81 1 363 266 169 162 369 0 350 385 386 83 3 382 1 .501960784313726
 0 81 1 369 236 22 162 0 363 365 387 388 81 1 385 267 169 29 24 0 363 36 389 83
 3 386 1 .501960784313726 0 14 29 105 385 ?0 162 304 15 16 +0 0 0 162 35 81 1 24
 250 22 29 0 385 352 13 390 81 1 36 268 169 20 391 0 385 257 392 83 3 389 1 .501
960784313726 0 81 1 391 202 22 20 0 36 393 394 395 81 1 257 269 169 38 396 0 36
 397 398 83 3 392 1 .501960784313726 0 81 1 396 221 22 38 0 257 399 400 401 81 1
 397 270 169 31 368 0 257 234 402 83 3 398 1 .501960784313726 0 16 31 20 397 ?16
4 38 232 17 0 0 3 81 1 368 234 22 31 0 397 287 365 403 81 1 234 271 169 232 404
 0 397 272 405 83 3 402 1 .501960784313726 0 81 1 404 210 22 232 0 234 406 407 4
08 81 1 272 272 169 236 409 0 234 275 410 83 3 405 1 .501960784313726 0 81 1 409
 227 22 236 0 272 411 412 413 81 1 275 273 169 273 412 0 272 283 414 83 3 410 1
 .501960784313726 0 81 1 412 228 22 273 0 275 409 415 416 81 1 283 274 169 180 4
17 0 275 178 418 83 3 414 1 .501960784313726 0 81 1 417 231 22 180 0 283 419 420
 421 81 1 178 275 169 176 422 0 283 269 423 83 3 418 1 .501960784313726 0 81 1 4
22 194 22 176 0 178 170 424 425 81 1 269 276 169 181 411 0 178 223 426 83 3 423
 1 .501960784313726 0 81 1 411 226 22 181 0 269 427 409 428 81 1 223 277 169 222
 429 0 269 256 430 83 3 426 1 .501960784313726 0 81 1 429 206 22 222 0 223 431 4
32 433 81 1 256 278 169 225 399 0 223 252 434 83 3 430 1 .501960784313726 0 81 1
 399 220 22 225 0 256 435 396 436 81 1 252 279 169 206 437 0 256 205 438 83 3 43
4 1 .501960784313726 0 81 1 437 218 22 206 0 252 439 435 440 81 1 205 280 169 20
3 441 0 252 247 442 83 3 438 1 .501960784313726 0 81 1 441 200 22 203 0 205 443
 393 444 81 1 247 281 169 207 445 0 205 286 446 83 3 442 1 .501960784313726 0 81
 1 445 215 22 207 0 247 447 448 449 83 3 446 1 .501960784313726 0 80 1 22 450 45
1 8017 0 0 0 0 0 0 0 0 0 TTTTTTTTTTTTTF3 81 1 447 214 22 160 0 245 452 445 453 8
1 1 448 216 22 147 0 249 445 439 454 84 6 449 2:467581 1 249 285 169 147 448 0 2
12 254 455 81 1 439 217 22 167 0 171 448 437 456 84 5 454 2:78581 1 171 301 169
 167 439 0 260 166 457 84 5 456 2:79481 1 260 300 169 173 458 0 192 171 459 83 3
 457 1 .501960784313726 0 81 1 458 223 22 173 0 260 400 460 461 81 1 192 299 169
 190 462 0 241 260 463 83 3 459 1 .501960784313726 0 81 1 462 197 22 190 0 192 4
64 465 466 81 1 241 298 169 185 467 0 183 192 468 83 3 463 1 .501960784313726 0
 81 1 467 212 22 185 0 241 407 452 469 81 1 183 297 169 116 424 0 221 241 470 83
 3 468 1 .501960784313726 0 81 1 424 195 22 116 0 183 422 464 471 81 1 221 296 1
69 184 431 0 243 183 472 83 3 470 1 .501960784313726 0 81 1 431 205 22 184 0 221
 473 429 474 81 1 243 295 169 47 452 0 228 221 475 83 3 472 1 .501960784313726 0
 81 1 452 213 22 47 0 243 467 447 476 81 1 228 294 169 158 477 0 159 243 478 83
 3 475 1 .501960784313726 0 81 1 477 208 22 158 0 228 432 406 479 81 1 159 293 1
69 144 432 0 245 228 480 83 3 478 1 .501960784313726 0 81 1 432 207 22 144 0 159
 429 477 481 81 1 245 292 169 160 447 0 188 159 482 83 3 480 1 .501960784313726
 0 81 1 188 291 169 186 464 0 208 245 483 83 3 482 1 .501960784313726 0 81 1 464
 196 22 186 0 188 424 462 484 81 1 208 290 169 189 393 0 263 188 485 83 3 483 1
 .501960784313726 0 81 1 393 201 22 189 0 208 441 391 486 81 1 263 289 169 209 4
60 0 238 208 487 83 3 485 1 .501960784313726 0 81 1 460 224 22 209 0 263 458 427
 488 81 1 238 288 169 219 407 0 216 263 489 83 3 487 1 .501960784313726 0 81 1 4
07 211 22 219 0 238 404 467 490 81 1 216 287 169 214 473 0 254 238 491 83 3 489
 1 .501960784313726 0 81 1 473 204 22 214 0 216 394 431 492 81 1 254 286 169 218
 435 0 249 216 493 83 3 491 1 .501960784313726 0 81 1 435 219 22 218 0 254 437 3
99 494 83 3 493 1 .501960784313726 0 84 5 494 2:78881 1 394 203 22 202 0 212 391
 473 495 84 6 492 2:424581 1 212 284 169 202 394 0 199 249 496 84 6 495 2:198381
 1 199 283 169 197 443 0 286 212 497 83 3 496 1 .501960784313726 0 81 1 443 199
 22 197 0 199 465 441 498 83 3 497 1 .501960784313726 0 81 1 465 198 22 194 0 19
6 462 443 499 84 6 498 2:465781 1 196 309 169 194 465 0 281 0 500 84 6 499 2:535
381 1 281 308 169 100 419 0 285 196 501 83 3 500 1 .501960784313726 0 81 1 419 2
30 22 100 0 281 415 417 502 81 1 285 307 169 267 420 0 266 281 503 83 3 501 1 .5
01960784313726 0 81 1 420 232 22 267 0 285 417 287 504 81 1 266 306 169 264 427
 0 278 285 505 83 3 503 1 .501960784313726 0 81 1 427 225 22 264 0 266 460 411 5
06 81 1 278 305 169 231 415 0 230 266 507 83 3 505 1 .501960784313726 0 81 1 415
 229 22 231 0 278 412 419 508 81 1 230 304 169 151 406 0 149 278 509 83 3 507 1
 .501960784313726 0 81 1 406 209 22 151 0 230 477 404 510 81 1 149 303 169 140 4
00 0 166 230 511 83 3 509 1 .501960784313726 0 81 1 400 222 22 140 0 149 396 458
 512 83 3 511 1 .501960784313726 0 84 5 512 2:79184 5 510 2:78284 6 508 2:199584
 6 506 2:198981 1 287 233 22 201 0 286 420 368 513 84 6 504 2:425784 6 513 2:466
384 6 502 2:425184 6 490 2:199284 6 488 2:197484 6 486 2:534184 6 484 2:425484 5
 481 2:77684 6 479 2:532984 6 476 2:119484 6 474 2:239884 6 471 2:466084 6 469 2
:533584 6 466 2:423984 6 461 2:197783 3 455 1 .501960784313726 0 84 6 453 2:4236
79 13 451 SDL/TYSA_NAME84 6 444 2:467284 6 440 2:466684 6 436 2:535084 6 433 2:2
39584 6 428 2:240181 1 170 193 22 150 0 166 0 422 514 84 6 425 2:241384 6 514 2:
532384 6 421 2:241084 6 416 2:240484 6 413 2:119184 6 408 2:119784 6 403 2:12038
4 6 401 2:118584 6 395 2:120081 1 352 249 22 290 0 351 515 24 516 84 6 390 2:531
781 1 515 248 22 324 0 340 383 352 517 84 6 516 2:463981 1 340 253 169 324 515 0
 338 331 518 81 1 383 247 22 302 0 332 376 515 519 84 6 517 2:117681 1 332 256 1
69 302 383 0 328 351 520 84 6 519 2:463083 3 520 1 .501960784313726 0 81 1 331 2
54 169 297 375 0 340 328 521 83 3 518 1 .501960784313726 0 81 1 375 244 22 297 0
 331 378 373 522 83 3 521 1 .501960784313726 0 84 6 522 2:236881 1 387 237 22 31
4 0 361 369 371 523 84 6 388 2:531481 1 361 260 169 314 387 0 345 359 524 81 1 3
71 238 22 319 0 359 387 355 525 84 6 523 2:195381 1 355 239 22 322 0 353 371 330
 526 84 6 525 2:195981 1 330 240 22 327 0 328 355 339 527 84 5 526 2:75881 1 339
 241 22 27 0 338 330 380 528 84 6 527 2:237781 1 380 242 22 142 0 345 339 378 52
9 84 6 528 2:117081 1 345 259 169 142 380 0 353 361 530 84 5 529 2:76783 3 530 1
 .501960784313726 0 83 3 524 1 .501960784313726 0 84 6 384 2:530584 6 381 2:5302
84 6 377 2:422183 3 372 1 .501960784313726 0 84 6 370 2:421579 15 367 SDL/TYSA_C
OLOUR83 3 356 1 .501960784313726 0 83 3 354 1 .501960784313726 0 83 3 341 1 .501
960784313726 0 83 3 333 1 .501960784313726 0 17 134 0 96 279 139 57 56 151 0 213
 +17 279 0 96 86 134 76 320 231 0 0 +17 86 0 96 98 279 84 313 264 0 217 +18 76 7
3 0 313 84 72 108 ?3 17 98 0 96 94 86 95 309 267 0 0 +17 101 0 103 99 79 73 305
 189 0 300 +83 3 288 1 .501960784313726 0 83 3 172 1 .501960784313726 0 19 28 1
 0 3 0 19 15 S0 74 20 26 6 0 0 13 531 196 532 533 23 0 0 0 0 0 0 0 0 0 0 0 0 0 0
 81 1 531 251 534 3 0 532 0 0 535 81 1 532 310 536 3 531 533 0 0 537 81 1 533 31
1 538 3 532 23 0 0 539 81 1 23 312 540 3 533 13 0 0 541 80 1 540 538 542 9000 0
 0 0 0 3 5 0 0 0 TTTFTFTTFFFFFF3 84 6 541 Layer079 26 542 ATTRIB_XGENERIC_LAYER_
NAME80 1 538 536 543 9000 0 0 0 0 3 5 0 0 0 TTTTTTTTTTTTTF1 82 1 539 9 79 14 543
 AttGS_PS_Layer80 1 536 544 545 9000 0 0 0 0 3 5 0 0 0 FTTFTFTTFFFFFF1 82 1 537
 9 79 23 545 ATTRIB_XPARASOLID_LAYER80 1 534 169 546 8040 0 0 0 0 3 5 0 0 0 TTTF
FFFFFFFFFF2 83 3 535 1 .501960784313726 0 79 17 546 SDL/TYSA_COLOUR_284 5 25 Sol
id81 1 4 145 22 2 547 0 548 0 549 70 5 0 4 T2 0 0 6 20 1 550 550 13 6 4 0 2 0 55
1 0 0 552 0 50 7 58 0 553 554 0 0 +.02 0 .005 1 0 3469446951953615e-31 346944695
1953615e-31 0 -1 30 8 88 0 555 556 0 0 +0 0 0 1 0 1224606353822376e-31 29 9 70 0
 557 558 0 -612303176911189e-33 .01 .01 19 10 2 0 2 552 0 559 V0 16 11 7 560 ?56
1 0 562 563 0 0 2 18 12 9 0 564 0 565 566 ?2 17 564 0 567 568 569 12 570 571 0 5
61 +18 565 11 0 570 12 572 573 ?2 29 566 67 0 12 574 575 .02 .01 0 29 574 66 0 5
76 573 566 .018 .01 -453928344565369e-33 29 575 68 0 577 566 558 0 .01 0 18 577
 32 0 578 579 580 575 ?2 29 558 69 0 581 575 9 .002 0 1224606353822376e-33 18 58
1 41 0 582 583 0 558 ?2 17 582 0 584 585 586 581 587 555 0 588 +18 583 39 0 589
 580 581 590 ?2 17 589 0 591 592 593 583 588 594 0 595 +18 580 34 0 596 577 583
 597 ?2 29 590 60 0 583 598 599 .002 .01 1224606353822376e-33 29 598 59 0 600 0
 590 .02 .01 .01 29 599 61 0 579 590 597 -612303176911189e-33 0 .01 18 579 27 0
 601 557 577 599 ?2 29 597 62 0 580 599 602 0 0 0 29 602 63 0 572 597 603 .018 0
 -453928344565369e-33 18 572 13 0 604 565 576 602 ?2 29 603 64 0 605 602 573 .02
 0 .01 18 605 20 0 606 600 557 603 ?2 29 573 65 0 565 603 574 .02 0 0 17 606 0 5
67 569 568 605 607 608 0 609 -18 600 18 0 607 576 605 598 ?2 18 557 25 0 610 605
 579 9 ?2 17 610 0 611 612 613 557 601 614 0 615 +15 611 30 0 612 616 0 17 612 0
 611 596 610 577 617 618 0 619 +17 613 0 611 610 596 579 586 620 0 0 +17 601 0 6
21 622 615 579 610 614 0 623 -16 614 26 624 ?610 620 625 626 0 0 2 17 615 0 621
 601 607 557 627 628 0 617 +15 621 23 0 615 629 0 17 607 0 621 615 622 600 606 6
08 0 568 +17 627 0 630 631 617 600 615 628 0 0 -16 628 24 632 ?615 571 633 634 0
 0 2 17 617 0 630 627 619 557 612 618 0 0 -15 630 48 0 635 636 0 17 619 0 630 61
7 637 577 595 625 0 0 -16 618 31 638 ?612 608 620 639 0 0 2 81 1 638 133 169 618
 640 0 641 642 643 16 608 19 641 ?607 633 618 644 0 0 2 16 620 35 642 ?613 618 6
14 645 0 0 2 30 639 86 0 618 634 556 0 +0 .01 0 612303176911189e-31 0 -1 30 634
 85 0 628 645 639 0 +-612303176911189e-33 .01 .01 -1 0 867361737988404e-31 30 55
6 87 0 562 639 8 0 +.02 0 0 -1 0 359141969635823e-31 16 562 12 646 ?647 11 648 5
56 0 0 2 81 1 646 125 169 562 649 0 560 650 651 17 647 0 652 653 570 572 654 562
 0 585 +16 648 14 650 ?653 562 655 656 0 0 2 81 1 650 126 169 648 657 0 646 658
 659 17 653 0 652 561 647 576 604 648 0 635 +16 655 17 658 ?568 648 660 661 0 0
 2 30 656 77 0 648 662 663 0 +.018 0 -453928344565369e-33 0 1 0 30 662 76 0 594
 664 656 0 +.002 0 1224606353822376e-33 0 1 0 30 663 78 0 660 656 665 0 +.02 0 .
01 3469446951953615e-31 0 -1 16 660 21 666 ?569 655 571 663 0 0 2 30 665 79 0 66
7 663 661 0 +0 0 0 0 1 0 16 667 33 668 ?578 625 669 665 0 0 2 30 661 80 0 655 66
5 670 0 +.02 .01 .01 -3469446951953615e-31 0 1 31 670 81 0 671 661 672 0 +.01 0
 1224606353822376e-34 0 -1 0 -1 0 153075794227797e-31 .008 16 671 46 673 ?593 66
9 594 670 0 0 2 31 672 82 0 669 670 626 0 +.01 .01 1224606353822376e-34 0 1 0 -1
 0 153075794227797e-31 .008 16 669 45 674 ?592 667 671 672 0 0 2 30 626 83 0 614
 672 645 0 +-612303176911189e-33 0 .01 0 1 0 30 645 84 0 620 626 634 0 +0 0 0 -6
12303176911189e-31 0 1 81 1 674 138 169 669 675 0 668 673 676 17 592 0 591 604 5
89 576 637 669 0 0 +15 591 44 0 592 677 0 17 604 0 591 593 592 572 653 648 0 647
 -18 576 8 0 653 572 600 574 ?2 17 637 0 630 619 635 583 592 669 0 0 -17 635 0 6
30 637 631 576 561 11 0 592 -17 631 0 630 635 627 12 568 655 0 0 -17 561 0 652 5
70 653 12 635 11 0 631 +15 652 6 0 561 551 0 17 570 0 652 647 561 565 564 571 0
 654 -16 571 10 678 ?564 660 628 679 0 0 2 17 654 0 584 609 585 565 647 562 0 56
9 -15 584 50 0 585 680 0 17 609 0 584 623 654 605 569 660 0 622 -17 585 0 584 65
4 582 572 593 671 0 0 -17 569 0 567 564 606 565 609 660 0 0 +15 567 16 0 568 553
 0 17 568 0 567 606 564 600 631 655 0 627 +14 553 15 681 ?629 551 567 6 7 +0 0 6
29 551 559 81 1 681 117 169 553 548 0 682 683 684 14 629 22 683 ?616 553 621 6 6
85 +0 0 616 553 559 14 551 5 682 ?553 0 652 6 686 +0 0 553 0 559 13 559 3 0 0 0
 0 0 0 10 551 81 1 682 116 169 551 687 0 0 681 688 50 686 51 0 551 0 685 0 +.019
 0 359141969635823e-34 -359141969635823e-31 0 -1 -1 0 359141969635823e-31 50 685
 52 0 629 686 689 0 +.01 0 .01 867361737988404e-31 0 1 1 0 -867361737988404e-31
 50 689 53 0 690 685 691 0 +.001 0 1224606353822376e-34 1224606353822376e-31 0 -
1 -1 0 -1224606353822376e-31 14 690 36 692 ?677 616 693 6 689 +0 0 677 616 559 5
0 691 54 0 616 689 694 0 +-3061515884555945e-34 0 .005 -1 0 -612303176911189e-31
 -612303176911189e-31 0 1 14 616 29 695 ?690 629 611 6 691 +0 0 690 629 559 50 6
94 55 0 680 691 696 0 +0 0 0 0 1 0 0 0 1 14 680 49 697 ?0 636 584 6 694 -0 0 0 6
36 559 50 696 56 0 636 694 554 0 +0 .01 0 0 1 0 0 0 1 14 636 47 698 ?680 677 630
 6 696 +0 0 680 677 559 51 554 57 0 677 696 7 0 +.01 0 1224606353822376e-34 0 -1
 0 .008 -1 0 153075794227797e-31 14 677 43 699 ?636 690 591 6 554 -0 0 636 690 5
59 81 1 699 121 169 677 700 0 692 698 701 81 1 700 113 22 677 0 699 702 548 703
 81 1 692 120 169 690 704 0 695 699 705 81 1 698 122 169 636 702 0 699 697 706 8
3 3 701 .56078431372549 .686274509803922 .56078431372549 81 1 702 112 22 636 0 6
98 707 700 708 81 1 697 123 169 680 707 0 698 560 709 83 3 706 .56078431372549 .
686274509803922 .56078431372549 81 1 707 111 22 680 0 697 710 702 711 81 1 560 1
24 169 11 712 0 697 646 713 83 3 709 .56078431372549 .686274509803922 .560784313
72549 81 1 712 89 22 11 0 560 0 714 715 83 3 713 .56078431372549 .68627450980392
2 .56078431372549 81 1 714 90 22 625 0 716 712 717 718 84 6 715 1:104616 625 38
 716 ?595 614 667 719 0 0 2 81 1 716 136 169 625 714 0 624 668 720 81 1 717 91 2
2 608 0 641 714 721 722 84 6 718 1:108581 1 641 132 169 608 717 0 723 638 724 81
 1 721 92 22 571 0 678 717 725 726 84 6 722 1:106181 1 678 129 169 571 721 0 666
 632 727 81 1 725 93 22 633 0 723 721 728 729 84 6 726 1:104916 633 28 723 ?622
 628 608 664 0 0 2 81 1 723 131 169 633 725 0 632 641 730 81 1 728 94 22 594 0 7
31 725 657 732 84 6 729 1:107316 594 40 731 ?589 671 555 662 0 0 2 81 1 731 140
 169 594 728 0 673 733 734 81 1 657 95 22 648 0 650 728 735 736 84 6 732 1:10888
1 1 735 96 22 660 0 666 657 737 738 84 6 736 1:105581 1 666 128 169 660 735 0 65
8 678 739 81 1 737 97 22 667 0 668 735 740 741 84 6 738 1:106481 1 668 137 169 6
67 737 0 716 674 742 81 1 740 98 22 655 0 658 737 743 744 84 6 741 1:107981 1 65
8 127 169 655 740 0 650 666 745 81 1 743 99 22 671 0 673 740 675 746 84 6 744 1:
105881 1 673 139 169 671 743 0 674 731 747 81 1 675 100 22 669 0 674 743 748 749
 84 6 746 1:109781 1 748 101 22 614 0 624 675 750 751 84 6 749 1:109481 1 624 13
5 169 614 748 0 642 716 752 81 1 750 102 22 620 0 642 748 753 754 84 6 751 1:107
081 1 642 134 169 620 750 0 638 624 755 81 1 753 103 22 628 0 632 750 640 756 84
 6 754 1:108281 1 632 130 169 628 753 0 678 723 757 81 1 640 104 22 618 0 638 75
3 649 758 84 6 756 1:106781 1 649 105 22 562 0 646 640 759 760 84 6 758 1:107681
 1 759 106 22 555 0 733 649 687 761 84 6 760 1:105216 555 42 733 ?582 594 0 8 0
 0 2 81 1 733 141 169 555 759 0 731 0 762 81 1 687 107 22 551 0 682 759 763 764
 84 6 761 1:109181 1 763 108 22 629 0 683 687 704 765 84 6 764 1:102281 1 683 11
8 169 629 763 0 681 695 766 81 1 704 109 22 690 0 692 763 710 767 84 6 765 1:102
881 1 710 110 22 616 0 695 704 707 768 84 6 767 1:103481 1 695 119 169 616 710 0
 683 692 769 84 6 768 1:103183 3 769 .56078431372549 .686274509803922 .560784313
72549 83 3 766 .56078431372549 .686274509803922 .56078431372549 83 3 762 .560784
31372549 .686274509803922 .56078431372549 83 3 757 .56078431372549 .686274509803
922 .56078431372549 83 3 755 .56078431372549 .686274509803922 .56078431372549 83
 3 752 .56078431372549 .686274509803922 .56078431372549 83 3 747 .56078431372549
 .686274509803922 .56078431372549 83 3 745 .56078431372549 .686274509803922 .560
78431372549 83 3 742 .56078431372549 .686274509803922 .56078431372549 83 3 739 .
56078431372549 .686274509803922 .56078431372549 83 3 734 .56078431372549 .686274
509803922 .56078431372549 83 3 730 .56078431372549 .686274509803922 .56078431372
549 17 622 0 621 607 601 605 623 633 0 0 +30 664 75 0 633 679 662 0 +-6123031769
11189e-33 0 .01 1 0 -867361737988404e-31 30 679 74 0 571 644 664 0 +.02 0 0 0 1
 0 30 644 73 0 608 719 679 0 +.02 0 .01 0 1 0 30 719 72 0 625 563 644 0 +0 .01 0
 1 0 1224606353822376e-31 30 563 71 0 11 0 719 0 +.02 .01 0 1 0 -359141969635823
e-31 17 623 0 584 586 609 579 622 633 0 613 -17 586 0 584 582 623 580 613 620 0
 587 -17 587 0 693 578 588 580 582 555 0 0 -15 693 37 0 595 690 0 17 578 0 693 5
95 587 577 596 667 0 612 +17 588 0 693 587 595 581 589 594 0 593 -17 595 0 693 5
88 578 583 619 625 0 637 +17 593 0 591 589 604 581 585 671 0 0 +17 596 0 611 613
 612 580 578 667 0 586 -83 3 727 .56078431372549 .686274509803922 .5607843137254
9 83 3 724 .56078431372549 .686274509803922 .56078431372549 83 3 720 .5607843137
2549 .686274509803922 .56078431372549 84 6 711 1:104384 6 708 1:104083 3 705 .56
078431372549 .686274509803922 .56078431372549 81 1 548 114 22 553 0 681 700 4 77
0 84 6 703 1:103784 6 770 1:102583 3 688 .56078431372549 .686274509803922 .56078
431372549 83 3 684 .56078431372549 .686274509803922 .56078431372549 83 3 676 .56
078431372549 .686274509803922 .56078431372549 83 3 659 .56078431372549 .68627450
9803922 .56078431372549 83 3 651 .56078431372549 .686274509803922 .5607843137254
9 83 3 643 .56078431372549 .686274509803922 .56078431372549 19 552 1 0 2 0 10 6
 S0 74 20 550 6 0 0 4 771 733 772 773 547 0 0 0 0 0 0 0 0 0 0 0 0 0 0 81 1 771 1
15 534 2 0 772 0 0 774 81 1 772 142 536 2 771 773 0 0 775 81 1 773 143 538 2 772
 547 0 0 776 81 1 547 144 540 2 773 4 0 0 777 84 6 777 Layer082 1 776 9 82 1 775
 9 83 3 774 .56078431372549 .686274509803922 .56078431372549 84 5 549 Solid1 0 
